<?xml version="1.0" encoding="UTF-8" standalone="no"?>
<svg
   xmlns:dc="http://purl.org/dc/elements/1.1/"
   xmlns:cc="http://creativecommons.org/ns#"
   xmlns:rdf="http://www.w3.org/1999/02/22-rdf-syntax-ns#"
   xmlns:svg="http://www.w3.org/2000/svg"
   xmlns="http://www.w3.org/2000/svg"
   xmlns:sodipodi="http://sodipodi.sourceforge.net/DTD/sodipodi-0.dtd"
   xmlns:inkscape="http://www.inkscape.org/namespaces/inkscape"
   width="150.0mm"
   height="150.0mm"
   viewBox="0 0 150.0 150.0"
   version="1.1"
   id="svg8"
   inkscape:version="1.0.1 (3bc2e813f5, 2020-09-07)"
   sodipodi:docname="SolarSensorATMEGA328_PCB_design.svg">
  <defs
     id="defs2" />
  <sodipodi:namedview
     id="base"
     pagecolor="#ffffff"
     bordercolor="#666666"
     borderopacity="1.0"
     inkscape:pageopacity="0.0"
     inkscape:pageshadow="2"
     inkscape:zoom="1.8191161"
     inkscape:cx="44.38634"
     inkscape:cy="105.06463"
     inkscape:document-units="mm"
     inkscape:current-layer="g856"
     inkscape:document-rotation="0"
     showgrid="true"
     inkscape:window-width="1920"
     inkscape:window-height="986"
     inkscape:window-x="-11"
     inkscape:window-y="-11"
     inkscape:window-maximized="1"
     borderlayer="true"
     inkscape:snap-bbox="true"
     inkscape:snap-grids="false"
     inkscape:bbox-paths="true"
     inkscape:bbox-nodes="true"
     inkscape:snap-bbox-edge-midpoints="true"
     inkscape:snap-bbox-midpoints="true">
    <inkscape:grid
       spacingx="2.54"
       spacingy="2.54"
       empspacing="1"
       type="xygrid"
       units="mm"
       id="grid834" />
  </sodipodi:namedview>
  <metadata
     id="metadata5">
    <rdf:RDF>
      <cc:Work
         rdf:about="">
        <dc:format>image/svg+xml</dc:format>
        <dc:type
           rdf:resource="http://purl.org/dc/dcmitype/StillImage" />
        <dc:title />
      </cc:Work>
    </rdf:RDF>
  </metadata>
  <g
     inkscape:label="[fixed] BG"
     inkscape:groupmode="layer"
     sodipodi:insensitive="true"
     id="g840"
     style="display:inline">
    <rect
       x="0"
       y="0"
       width="150"
       height="150"
       style="fill:#ffffff;fill-opacity:1;stroke:none"
       id="rect838" />
  </g>
  <g
     inkscape:label="Edge.Cuts"
     inkscape:groupmode="layer"
     id="g842"
     style="display:inline">
    <path
       id="rect845"
       style="display:inline;opacity:0.992;fill:none;stroke:#000000;stroke-width:0.1;stroke-miterlimit:4;stroke-dasharray:none"
       d="M 55.6772 30.0498 L 55.3566 30.0659 L 55.0454 30.1132 L 54.7453 30.19 L 54.4577 30.2949 L 54.1842 30.4263 L 53.9264 30.5826 L 53.6857 30.7623 L 53.4638 30.9639 L 53.2623 31.1858 L 53.0825 31.4264 L 52.9262 31.6843 L 52.7948 31.9578 L 52.6899 32.2454 L 52.6131 32.5455 L 52.5659 32.8567 L 52.5498 33.1773 L 52.5498 71.823 L 52.5659 72.1436 L 52.6131 72.4548 L 52.6899 72.7549 L 52.7948 73.0425 L 52.9262 73.3159 L 53.0825 73.5737 L 53.2623 73.8143 L 53.4638 74.0361 L 53.6857 74.2377 L 53.9264 74.4174 L 54.1842 74.5736 L 54.4577 74.705 L 54.7453 74.8098 L 55.0454 74.8866 L 55.3566 74.9339 L 55.6772 74.9499 L 62.5502 74.9499 L 62.5502 70.05 L 87.45 70.05 L 87.45 74.9499 L 94.3229 74.9499 L 94.6435 74.9339 L 94.9547 74.8866 L 95.2548 74.8098 L 95.5424 74.705 L 95.8158 74.5736 L 96.0736 74.4174 L 96.3142 74.2377 L 96.536 74.0361 L 96.7376 73.8143 L 96.9173 73.5737 L 97.0736 73.3159 L 97.2049 73.0425 L 97.3097 72.7549 L 97.3866 72.4548 L 97.4338 72.1436 L 97.4499 71.823 L 97.4499 33.1773 L 97.4338 32.8567 L 97.3866 32.5455 L 97.3097 32.2454 L 97.2049 31.9578 L 97.0736 31.6843 L 96.9173 31.4264 L 96.7376 31.1858 L 96.536 30.9639 L 96.3142 30.7623 L 96.0736 30.5826 L 95.8158 30.4263 L 95.5424 30.2949 L 95.2548 30.19 L 94.9547 30.1132 L 94.6435 30.0659 L 94.3229 30.0498 L 55.6772 30.0498" />
  </g>
  <g
     inkscape:label="B.Cu"
     inkscape:groupmode="layer"
     id="g844"
     style="display:inline" />
  <g
     inkscape:label="B.Mask"
     inkscape:groupmode="layer"
     id="g846"
     style="display:inline" />
  <g
     inkscape:label="B.SilkS"
     inkscape:groupmode="layer"
     id="g848"
     style="display:inline" />
  <g
     inkscape:label="F.Cu"
     inkscape:groupmode="layer"
     id="g850"
     style="display:inline" />
  <g
     inkscape:label="F.Mask"
     inkscape:groupmode="layer"
     id="g852" />
  <g
     inkscape:label="F.SilkS"
     inkscape:groupmode="layer"
     id="g854"
     style="display:inline">
    <ellipse
       style="opacity:0.997;fill:none;stroke:#666666;stroke-width:0.15407;stroke-miterlimit:4;stroke-dasharray:none"
       id="path874-4"
       cx="56.000004"
       cy="33.5"
       rx="2.9229653"
       ry="2.922965" />
    <ellipse
       style="opacity:0.997;fill:none;stroke:#666666;stroke-width:0.15407;stroke-miterlimit:4;stroke-dasharray:none"
       id="path874-4-8"
       cx="94"
       cy="71.5"
       rx="2.9229653"
       ry="2.922965" />
    <ellipse
       style="display:inline;opacity:0.997;fill:none;stroke:#666666;stroke-width:0.15407;stroke-miterlimit:4;stroke-dasharray:none"
       id="path874-4-1"
       cx="94"
       cy="33.5"
       rx="2.9229653"
       ry="2.922965" />
    <ellipse
       style="display:inline;opacity:0.997;fill:none;stroke:#666666;stroke-width:0.15407;stroke-miterlimit:4;stroke-dasharray:none"
       id="path874-4-8-0"
       cx="56"
       cy="71.500008"
       rx="2.9229653"
       ry="2.922965" />
  </g>
  <g
     inkscape:label="Drill"
     inkscape:groupmode="layer"
     id="g856"
     style="display:inline">
    <ellipse
       style="opacity:0.997;fill:none;stroke:#666666;stroke-width:0.0770348;stroke-miterlimit:4;stroke-dasharray:none"
       id="path874"
       cx="56.000004"
       cy="33.5"
       rx="1.4614824"
       ry="1.4614825" />
    <ellipse
       style="opacity:0.997;fill:none;stroke:#666666;stroke-width:0.0770348;stroke-miterlimit:4;stroke-dasharray:none"
       id="path874-9"
       cx="94"
       cy="71.5"
       rx="1.4614824"
       ry="1.4614825" />
    <ellipse
       style="display:inline;opacity:0.997;fill:none;stroke:#666666;stroke-width:0.0770348;stroke-miterlimit:4;stroke-dasharray:none"
       id="path874-1"
       cx="94"
       cy="33.5"
       rx="1.4614824"
       ry="1.4614825" />
    <ellipse
       style="display:inline;opacity:0.997;fill:none;stroke:#666666;stroke-width:0.0770348;stroke-miterlimit:4;stroke-dasharray:none"
       id="path874-9-6"
       cx="56.000004"
       cy="71.5"
       rx="1.4614824"
       ry="1.4614825" />
  </g>
</svg>
