<?xml version="1.0" standalone="no"?>
 <!DOCTYPE svg PUBLIC "-//W3C//DTD SVG 1.1//EN" 
 "http://www.w3.org/Graphics/SVG/1.1/DTD/svg11.dtd"> 
<svg
  xmlns:svg="http://www.w3.org/2000/svg"
  xmlns="http://www.w3.org/2000/svg"
  xmlns:xlink="http://www.w3.org/1999/xlink"
  version="1.1"
  width="29.700220cm" height="21.000720cm" viewBox="0 0 116930 82680">
<title>SVG Picture created as SolarExplorerPCB-Edge_Cuts.svg date 2021/12/28 16:14:22 </title>
  <desc>Picture generated by PCBNEW </desc>
<g style="fill:#000000; fill-opacity:1;stroke:#000000; stroke-opacity:1;
stroke-linecap:round; stroke-linejoin:round;"
 transform="translate(0 0) scale(1 1)">
</g>
<g style="fill:#000000; fill-opacity:0.0; 
stroke:#000000; stroke-width:-0.000393701; stroke-opacity:1; 
stroke-linecap:round; stroke-linejoin:round;">
</g>
<g style="fill:#000000; fill-opacity:0.0; 
stroke:#000000; stroke-width:39.3701; stroke-opacity:1; 
stroke-linecap:round; stroke-linejoin:round;">
<path d="M37520 13496
L37313 13507
" />
<path d="M37313 13507
L37112 13537
" />
<path d="M37112 13537
L36918 13587
" />
<path d="M36918 13587
L36732 13655
" />
<path d="M36732 13655
L36555 13740
" />
<path d="M36555 13740
L36388 13841
" />
<path d="M36388 13841
L36233 13957
" />
<path d="M36233 13957
L36089 14087
" />
<path d="M36089 14087
L35959 14231
" />
<path d="M35959 14231
L35843 14387
" />
<path d="M35843 14387
L35742 14553
" />
<path d="M35742 14553
L35657 14730
" />
<path d="M35657 14730
L35589 14916
" />
<path d="M35589 14916
L35539 15110
" />
<path d="M35539 15110
L35509 15311
" />
<path d="M35509 15311
L35499 15519
" />
<path d="M35499 15519
L35499 46947
" />
<path d="M35499 46947
L35509 47154
" />
<path d="M35509 47154
L35539 47355
" />
<path d="M35539 47355
L35589 47549
" />
<path d="M35589 47549
L35657 47735
" />
<path d="M35657 47735
L35742 47912
" />
<path d="M35742 47912
L35843 48079
" />
<path d="M35843 48079
L35959 48235
" />
<path d="M35959 48235
L36089 48378
" />
<path d="M36089 48378
L36233 48508
" />
<path d="M36233 48508
L36388 48625
" />
<path d="M36388 48625
L36555 48726
" />
<path d="M36555 48726
L36732 48811
" />
<path d="M36732 48811
L36918 48879
" />
<path d="M36918 48879
L37112 48928
" />
<path d="M37112 48928
L37313 48959
" />
<path d="M37313 48959
L37520 48969
" />
<path d="M37520 48969
L92570 48969
" />
<path d="M92570 48969
L92778 48959
" />
<path d="M92778 48959
L92979 48928
" />
<path d="M92979 48928
L93173 48879
" />
<path d="M93173 48879
L93359 48811
" />
<path d="M93359 48811
L93536 48726
" />
<path d="M93536 48726
L93703 48625
" />
<path d="M93703 48625
L93858 48508
" />
<path d="M93858 48508
L94002 48378
" />
<path d="M94002 48378
L94132 48235
" />
<path d="M94132 48235
L94248 48079
" />
<path d="M94248 48079
L94350 47912
" />
<path d="M94350 47912
L94435 47735
" />
<path d="M94435 47735
L94502 47549
" />
<path d="M94502 47549
L94552 47355
" />
<path d="M94552 47355
L94583 47154
" />
<path d="M94583 47154
L94593 46947
" />
<path d="M94593 46947
L94593 15519
" />
<path d="M94593 15519
L94583 15311
" />
<path d="M94583 15311
L94552 15110
" />
<path d="M94552 15110
L94502 14916
" />
<path d="M94502 14916
L94435 14730
" />
<path d="M94435 14730
L94350 14553
" />
<path d="M94350 14553
L94248 14387
" />
<path d="M94248 14387
L94132 14231
" />
<path d="M94132 14231
L94002 14087
" />
<path d="M94002 14087
L93858 13957
" />
<path d="M93858 13957
L93703 13841
" />
<path d="M93703 13841
L93536 13740
" />
<path d="M93536 13740
L93359 13655
" />
<path d="M93359 13655
L93173 13587
" />
<path d="M93173 13587
L92979 13537
" />
<path d="M92979 13537
L92778 13507
" />
<path d="M92778 13507
L92570 13496
" />
<path d="M92570 13496
L37520 13496
" />
</g>
<g style="fill:#000000; fill-opacity:1.0; 
stroke:#000000; stroke-width:0; stroke-opacity:1; 
stroke-linecap:round; stroke-linejoin:round;">
<circle cx="37520.6" cy="13496.7" r="19.685" /> 
<g >
</g>
<g >
</g>
<g >
</g>
<g >
</g>
<g >
</g>
<g >
</g>
<g >
</g>
<g >
</g>
<g >
</g>
<g >
</g>
<g >
</g>
<g >
</g>
<g >
</g>
<g >
</g>
<g >
</g>
<g >
</g>
<g >
</g>
<g >
</g>
<g >
</g>
<g >
</g>
<g >
</g>
<g >
</g>
<g >
</g>
<g >
</g>
<g >
</g>
<g >
</g>
<g >
</g>
<g >
</g>
<g >
</g>
<g >
</g>
<g >
</g>
<g >
</g>
<g >
</g>
<g >
</g>
<g >
</g>
<g >
</g>
<g >
</g>
<g >
</g>
<g >
</g>
<g >
</g>
<g >
</g>
<g >
</g>
<g >
</g>
<g >
</g>
<g >
</g>
</g> 
</svg>
