%TF.GenerationSoftware,KiCad,Pcbnew,(5.1.12)-1*%
%TF.CreationDate,2022-01-04T15:18:07+00:00*%
%TF.ProjectId,SolarSensorATMEGA328_PCB,536f6c61-7253-4656-9e73-6f7241544d45,rev?*%
%TF.SameCoordinates,PX5734380PY7df6180*%
%TF.FileFunction,Legend,Top*%
%TF.FilePolarity,Positive*%
%FSLAX46Y46*%
G04 Gerber Fmt 4.6, Leading zero omitted, Abs format (unit mm)*
G04 Created by KiCad (PCBNEW (5.1.12)-1) date 2022-01-04 15:18:07*
%MOMM*%
%LPD*%
G01*
G04 APERTURE LIST*
%ADD10C,0.200000*%
%ADD11C,0.150000*%
%ADD12C,0.010000*%
%ADD13C,0.066040*%
%ADD14C,0.300000*%
%ADD15C,0.381000*%
%ADD16C,0.152400*%
%ADD17C,0.050800*%
%ADD18C,0.127000*%
%ADD19C,0.304800*%
%ADD20C,0.175000*%
G04 APERTURE END LIST*
D10*
X17354619Y8675620D02*
X17811761Y8675620D01*
X17583190Y7675620D02*
X17583190Y8675620D01*
X18002238Y7675620D02*
X18421285Y8342286D01*
X18002238Y8342286D02*
X18421285Y7675620D01*
D11*
X47053571Y26503334D02*
X47434523Y26503334D01*
X46977380Y26217620D02*
X47244047Y27217620D01*
X47510714Y26217620D01*
X47739285Y27122381D02*
X47777380Y27170000D01*
X47853571Y27217620D01*
X48044047Y27217620D01*
X48120238Y27170000D01*
X48158333Y27122381D01*
X48196428Y27027143D01*
X48196428Y26931905D01*
X48158333Y26789048D01*
X47701190Y26217620D01*
X48196428Y26217620D01*
X47053571Y25106334D02*
X47434523Y25106334D01*
X46977380Y24820620D02*
X47244047Y25820620D01*
X47510714Y24820620D01*
X48196428Y24820620D02*
X47739285Y24820620D01*
X47967857Y24820620D02*
X47967857Y25820620D01*
X47891666Y25677762D01*
X47815476Y25582524D01*
X47739285Y25534905D01*
X47053571Y23709334D02*
X47434523Y23709334D01*
X46977380Y23423620D02*
X47244047Y24423620D01*
X47510714Y23423620D01*
X47929761Y24423620D02*
X48005952Y24423620D01*
X48082142Y24376000D01*
X48120238Y24328381D01*
X48158333Y24233143D01*
X48196428Y24042667D01*
X48196428Y23804572D01*
X48158333Y23614096D01*
X48120238Y23518858D01*
X48082142Y23471239D01*
X48005952Y23423620D01*
X47929761Y23423620D01*
X47853571Y23471239D01*
X47815476Y23518858D01*
X47777380Y23614096D01*
X47739285Y23804572D01*
X47739285Y24042667D01*
X47777380Y24233143D01*
X47815476Y24328381D01*
X47853571Y24376000D01*
X47929761Y24423620D01*
D10*
X32283476Y8628000D02*
X32207285Y8675620D01*
X32093000Y8675620D01*
X31978714Y8628000D01*
X31902523Y8532762D01*
X31864428Y8437524D01*
X31826333Y8247048D01*
X31826333Y8104191D01*
X31864428Y7913715D01*
X31902523Y7818477D01*
X31978714Y7723239D01*
X32093000Y7675620D01*
X32169190Y7675620D01*
X32283476Y7723239D01*
X32321571Y7770858D01*
X32321571Y8104191D01*
X32169190Y8104191D01*
X32664428Y7675620D02*
X32664428Y8675620D01*
X33121571Y7675620D01*
X33121571Y8675620D01*
X33502523Y7675620D02*
X33502523Y8675620D01*
X33693000Y8675620D01*
X33807285Y8628000D01*
X33883476Y8532762D01*
X33921571Y8437524D01*
X33959666Y8247048D01*
X33959666Y8104191D01*
X33921571Y7913715D01*
X33883476Y7818477D01*
X33807285Y7723239D01*
X33693000Y7675620D01*
X33502523Y7675620D01*
X26987619Y8675620D02*
X27254285Y7675620D01*
X27520952Y8675620D01*
X28130476Y7723239D02*
X28054285Y7675620D01*
X27901904Y7675620D01*
X27825714Y7723239D01*
X27787619Y7770858D01*
X27749523Y7866096D01*
X27749523Y8151810D01*
X27787619Y8247048D01*
X27825714Y8294667D01*
X27901904Y8342286D01*
X28054285Y8342286D01*
X28130476Y8294667D01*
X28816190Y7723239D02*
X28740000Y7675620D01*
X28587619Y7675620D01*
X28511428Y7723239D01*
X28473333Y7770858D01*
X28435238Y7866096D01*
X28435238Y8151810D01*
X28473333Y8247048D01*
X28511428Y8294667D01*
X28587619Y8342286D01*
X28740000Y8342286D01*
X28816190Y8294667D01*
X22656809Y7675620D02*
X22390142Y8151810D01*
X22199666Y7675620D02*
X22199666Y8675620D01*
X22504428Y8675620D01*
X22580619Y8628000D01*
X22618714Y8580381D01*
X22656809Y8485143D01*
X22656809Y8342286D01*
X22618714Y8247048D01*
X22580619Y8199429D01*
X22504428Y8151810D01*
X22199666Y8151810D01*
X22923476Y7675620D02*
X23342523Y8342286D01*
X22923476Y8342286D02*
X23342523Y7675620D01*
X29978571Y24781620D02*
X29978571Y25781620D01*
X30283333Y25781620D01*
X30359523Y25734000D01*
X30397619Y25686381D01*
X30435714Y25591143D01*
X30435714Y25448286D01*
X30397619Y25353048D01*
X30359523Y25305429D01*
X30283333Y25257810D01*
X29978571Y25257810D01*
X30778571Y24781620D02*
X30778571Y25781620D01*
X30778571Y25305429D02*
X31235714Y25305429D01*
X31235714Y24781620D02*
X31235714Y25781620D01*
X31769047Y25781620D02*
X31921428Y25781620D01*
X31997619Y25734000D01*
X32073809Y25638762D01*
X32111904Y25448286D01*
X32111904Y25114953D01*
X32073809Y24924477D01*
X31997619Y24829239D01*
X31921428Y24781620D01*
X31769047Y24781620D01*
X31692857Y24829239D01*
X31616666Y24924477D01*
X31578571Y25114953D01*
X31578571Y25448286D01*
X31616666Y25638762D01*
X31692857Y25734000D01*
X31769047Y25781620D01*
X32340476Y25781620D02*
X32797619Y25781620D01*
X32569047Y24781620D02*
X32569047Y25781620D01*
X33216666Y25781620D02*
X33369047Y25781620D01*
X33445238Y25734000D01*
X33521428Y25638762D01*
X33559523Y25448286D01*
X33559523Y25114953D01*
X33521428Y24924477D01*
X33445238Y24829239D01*
X33369047Y24781620D01*
X33216666Y24781620D01*
X33140476Y24829239D01*
X33064285Y24924477D01*
X33026190Y25114953D01*
X33026190Y25448286D01*
X33064285Y25638762D01*
X33140476Y25734000D01*
X33216666Y25781620D01*
X30169047Y23081620D02*
X30169047Y24081620D01*
X30359523Y24081620D01*
X30473809Y24034000D01*
X30550000Y23938762D01*
X30588095Y23843524D01*
X30626190Y23653048D01*
X30626190Y23510191D01*
X30588095Y23319715D01*
X30550000Y23224477D01*
X30473809Y23129239D01*
X30359523Y23081620D01*
X30169047Y23081620D01*
X30969047Y23081620D02*
X30969047Y24081620D01*
X31502380Y24081620D02*
X31654761Y24081620D01*
X31730952Y24034000D01*
X31807142Y23938762D01*
X31845238Y23748286D01*
X31845238Y23414953D01*
X31807142Y23224477D01*
X31730952Y23129239D01*
X31654761Y23081620D01*
X31502380Y23081620D01*
X31426190Y23129239D01*
X31350000Y23224477D01*
X31311904Y23414953D01*
X31311904Y23748286D01*
X31350000Y23938762D01*
X31426190Y24034000D01*
X31502380Y24081620D01*
X32188095Y23081620D02*
X32188095Y24081620D01*
X32378571Y24081620D01*
X32492857Y24034000D01*
X32569047Y23938762D01*
X32607142Y23843524D01*
X32645238Y23653048D01*
X32645238Y23510191D01*
X32607142Y23319715D01*
X32569047Y23224477D01*
X32492857Y23129239D01*
X32378571Y23081620D01*
X32188095Y23081620D01*
X32988095Y23605429D02*
X33254761Y23605429D01*
X33369047Y23081620D02*
X32988095Y23081620D01*
X32988095Y24081620D01*
X33369047Y24081620D01*
D12*
%TO.C,P6*%
G36*
X12304742Y8137668D02*
G01*
X12469510Y8129009D01*
X12611356Y8114848D01*
X12697348Y8100363D01*
X13042751Y8008403D01*
X13360269Y7886575D01*
X13654116Y7732611D01*
X13928510Y7544239D01*
X14187666Y7319190D01*
X14235431Y7272197D01*
X14477323Y7001649D01*
X14680778Y6713420D01*
X14846023Y6407072D01*
X14973284Y6082168D01*
X15062787Y5738270D01*
X15081848Y5634109D01*
X15102137Y5462512D01*
X15111673Y5266460D01*
X15110878Y5058531D01*
X15100172Y4851304D01*
X15079977Y4657355D01*
X15050712Y4489264D01*
X15042364Y4454079D01*
X14933926Y4106979D01*
X14790488Y3781208D01*
X14614097Y3478756D01*
X14406802Y3201616D01*
X14170651Y2951781D01*
X13907694Y2731242D01*
X13619978Y2541992D01*
X13309551Y2386022D01*
X12978463Y2265326D01*
X12725378Y2200737D01*
X12626123Y2184329D01*
X12498584Y2169901D01*
X12353746Y2158037D01*
X12202595Y2149320D01*
X12056115Y2144334D01*
X11925291Y2143663D01*
X11821108Y2147890D01*
X11789833Y2151022D01*
X11427767Y2216668D01*
X11086191Y2319319D01*
X10764587Y2459227D01*
X10462438Y2636644D01*
X10179229Y2851821D01*
X9990426Y3026593D01*
X9753158Y3289644D01*
X9554527Y3566787D01*
X9392479Y3861814D01*
X9264962Y4178518D01*
X9169923Y4520690D01*
X9161919Y4557429D01*
X9136879Y4713384D01*
X9120492Y4896732D01*
X9112881Y5094462D01*
X9113199Y5143500D01*
X9285158Y5143500D01*
X9304831Y4793581D01*
X9364051Y4458746D01*
X9462708Y4139274D01*
X9600692Y3835440D01*
X9777892Y3547520D01*
X9994197Y3275791D01*
X10063013Y3201327D01*
X10321238Y2959780D01*
X10599270Y2755641D01*
X10896900Y2589017D01*
X11213916Y2460017D01*
X11550106Y2368748D01*
X11772978Y2330490D01*
X11911998Y2318883D01*
X12078274Y2316306D01*
X12257842Y2322146D01*
X12436741Y2335789D01*
X12601004Y2356621D01*
X12676627Y2370218D01*
X13009641Y2459002D01*
X13324177Y2584740D01*
X13618006Y2745294D01*
X13888898Y2938527D01*
X14134622Y3162299D01*
X14352949Y3414475D01*
X14541648Y3692916D01*
X14698489Y3995484D01*
X14821243Y4320041D01*
X14863080Y4466167D01*
X14908324Y4691081D01*
X14935423Y4938616D01*
X14943666Y5192818D01*
X14932341Y5437729D01*
X14913242Y5589947D01*
X14837144Y5925043D01*
X14722601Y6245470D01*
X14571853Y6548258D01*
X14387141Y6830435D01*
X14170705Y7089031D01*
X13924784Y7321075D01*
X13651618Y7523597D01*
X13353449Y7693626D01*
X13311720Y7713778D01*
X13008832Y7836603D01*
X12700384Y7920195D01*
X12380816Y7965674D01*
X12044569Y7974160D01*
X12022666Y7973480D01*
X11740637Y7953225D01*
X11483251Y7910689D01*
X11237306Y7842557D01*
X10989599Y7745517D01*
X10847916Y7678667D01*
X10575184Y7522392D01*
X10317903Y7334132D01*
X10083322Y7120187D01*
X9878689Y6886856D01*
X9780273Y6750664D01*
X9604377Y6458348D01*
X9468761Y6165523D01*
X9371685Y5866538D01*
X9311407Y5555745D01*
X9286189Y5227494D01*
X9285158Y5143500D01*
X9113199Y5143500D01*
X9114174Y5293567D01*
X9124494Y5481035D01*
X9143967Y5643858D01*
X9151075Y5683250D01*
X9232395Y6014223D01*
X9341315Y6318376D01*
X9480911Y6603394D01*
X9592798Y6786967D01*
X9809161Y7078268D01*
X10053014Y7337667D01*
X10322964Y7564217D01*
X10617621Y7756966D01*
X10935593Y7914965D01*
X11275489Y8037266D01*
X11515523Y8098923D01*
X11632708Y8117567D01*
X11781035Y8130777D01*
X11949692Y8138540D01*
X12127865Y8140841D01*
X12304742Y8137668D01*
G37*
X12304742Y8137668D02*
X12469510Y8129009D01*
X12611356Y8114848D01*
X12697348Y8100363D01*
X13042751Y8008403D01*
X13360269Y7886575D01*
X13654116Y7732611D01*
X13928510Y7544239D01*
X14187666Y7319190D01*
X14235431Y7272197D01*
X14477323Y7001649D01*
X14680778Y6713420D01*
X14846023Y6407072D01*
X14973284Y6082168D01*
X15062787Y5738270D01*
X15081848Y5634109D01*
X15102137Y5462512D01*
X15111673Y5266460D01*
X15110878Y5058531D01*
X15100172Y4851304D01*
X15079977Y4657355D01*
X15050712Y4489264D01*
X15042364Y4454079D01*
X14933926Y4106979D01*
X14790488Y3781208D01*
X14614097Y3478756D01*
X14406802Y3201616D01*
X14170651Y2951781D01*
X13907694Y2731242D01*
X13619978Y2541992D01*
X13309551Y2386022D01*
X12978463Y2265326D01*
X12725378Y2200737D01*
X12626123Y2184329D01*
X12498584Y2169901D01*
X12353746Y2158037D01*
X12202595Y2149320D01*
X12056115Y2144334D01*
X11925291Y2143663D01*
X11821108Y2147890D01*
X11789833Y2151022D01*
X11427767Y2216668D01*
X11086191Y2319319D01*
X10764587Y2459227D01*
X10462438Y2636644D01*
X10179229Y2851821D01*
X9990426Y3026593D01*
X9753158Y3289644D01*
X9554527Y3566787D01*
X9392479Y3861814D01*
X9264962Y4178518D01*
X9169923Y4520690D01*
X9161919Y4557429D01*
X9136879Y4713384D01*
X9120492Y4896732D01*
X9112881Y5094462D01*
X9113199Y5143500D01*
X9285158Y5143500D01*
X9304831Y4793581D01*
X9364051Y4458746D01*
X9462708Y4139274D01*
X9600692Y3835440D01*
X9777892Y3547520D01*
X9994197Y3275791D01*
X10063013Y3201327D01*
X10321238Y2959780D01*
X10599270Y2755641D01*
X10896900Y2589017D01*
X11213916Y2460017D01*
X11550106Y2368748D01*
X11772978Y2330490D01*
X11911998Y2318883D01*
X12078274Y2316306D01*
X12257842Y2322146D01*
X12436741Y2335789D01*
X12601004Y2356621D01*
X12676627Y2370218D01*
X13009641Y2459002D01*
X13324177Y2584740D01*
X13618006Y2745294D01*
X13888898Y2938527D01*
X14134622Y3162299D01*
X14352949Y3414475D01*
X14541648Y3692916D01*
X14698489Y3995484D01*
X14821243Y4320041D01*
X14863080Y4466167D01*
X14908324Y4691081D01*
X14935423Y4938616D01*
X14943666Y5192818D01*
X14932341Y5437729D01*
X14913242Y5589947D01*
X14837144Y5925043D01*
X14722601Y6245470D01*
X14571853Y6548258D01*
X14387141Y6830435D01*
X14170705Y7089031D01*
X13924784Y7321075D01*
X13651618Y7523597D01*
X13353449Y7693626D01*
X13311720Y7713778D01*
X13008832Y7836603D01*
X12700384Y7920195D01*
X12380816Y7965674D01*
X12044569Y7974160D01*
X12022666Y7973480D01*
X11740637Y7953225D01*
X11483251Y7910689D01*
X11237306Y7842557D01*
X10989599Y7745517D01*
X10847916Y7678667D01*
X10575184Y7522392D01*
X10317903Y7334132D01*
X10083322Y7120187D01*
X9878689Y6886856D01*
X9780273Y6750664D01*
X9604377Y6458348D01*
X9468761Y6165523D01*
X9371685Y5866538D01*
X9311407Y5555745D01*
X9286189Y5227494D01*
X9285158Y5143500D01*
X9113199Y5143500D01*
X9114174Y5293567D01*
X9124494Y5481035D01*
X9143967Y5643858D01*
X9151075Y5683250D01*
X9232395Y6014223D01*
X9341315Y6318376D01*
X9480911Y6603394D01*
X9592798Y6786967D01*
X9809161Y7078268D01*
X10053014Y7337667D01*
X10322964Y7564217D01*
X10617621Y7756966D01*
X10935593Y7914965D01*
X11275489Y8037266D01*
X11515523Y8098923D01*
X11632708Y8117567D01*
X11781035Y8130777D01*
X11949692Y8138540D01*
X12127865Y8140841D01*
X12304742Y8137668D01*
G36*
X48882462Y15789760D02*
G01*
X49214324Y15739618D01*
X49543937Y15650985D01*
X49868441Y15522738D01*
X49997489Y15459411D01*
X50298621Y15279501D01*
X50574254Y15066971D01*
X50822417Y14824397D01*
X51041137Y14554352D01*
X51228441Y14259413D01*
X51382357Y13942154D01*
X51500912Y13605149D01*
X51543818Y13440834D01*
X51567597Y13307259D01*
X51585257Y13143930D01*
X51596448Y12963031D01*
X51600819Y12776744D01*
X51598022Y12597253D01*
X51587705Y12436744D01*
X51575448Y12339915D01*
X51498825Y11987709D01*
X51387956Y11659491D01*
X51241455Y11352559D01*
X51057934Y11064210D01*
X50836005Y10791740D01*
X50717012Y10667375D01*
X50448280Y10426974D01*
X50163703Y10225621D01*
X49861786Y10062537D01*
X49541037Y9936942D01*
X49199961Y9848058D01*
X49115555Y9832214D01*
X48956773Y9810763D01*
X48776446Y9796552D01*
X48590693Y9790170D01*
X48415632Y9792209D01*
X48281166Y9801661D01*
X48099918Y9829275D01*
X47900000Y9872561D01*
X47699932Y9926967D01*
X47518233Y9987940D01*
X47508583Y9991607D01*
X47199847Y10132113D01*
X46908790Y10309042D01*
X46638680Y10519009D01*
X46392785Y10758631D01*
X46174376Y11024523D01*
X45986722Y11313302D01*
X45833090Y11621585D01*
X45764914Y11796429D01*
X45704742Y11981008D01*
X45660737Y12152453D01*
X45630879Y12323362D01*
X45613150Y12506329D01*
X45605533Y12713951D01*
X45604966Y12784667D01*
X45776115Y12784667D01*
X45794348Y12445169D01*
X45848277Y12125623D01*
X45939434Y11820981D01*
X46069351Y11526198D01*
X46239560Y11236225D01*
X46251618Y11218075D01*
X46456764Y10949001D01*
X46693255Y10706526D01*
X46957445Y10493419D01*
X47245686Y10312452D01*
X47554334Y10166395D01*
X47711861Y10108430D01*
X47862212Y10060593D01*
X47994709Y10025117D01*
X48120261Y10000510D01*
X48249778Y9985278D01*
X48394169Y9977929D01*
X48564343Y9976971D01*
X48662166Y9978416D01*
X48812215Y9982076D01*
X48929920Y9987175D01*
X49025271Y9994741D01*
X49108255Y10005803D01*
X49188860Y10021389D01*
X49271694Y10041162D01*
X49605652Y10146674D01*
X49918189Y10287643D01*
X50207367Y10461941D01*
X50471244Y10667439D01*
X50707879Y10902008D01*
X50915331Y11163519D01*
X51091661Y11449846D01*
X51234927Y11758857D01*
X51343190Y12088426D01*
X51406096Y12382249D01*
X51421890Y12521538D01*
X51429584Y12687361D01*
X51429485Y12866230D01*
X51421905Y13044661D01*
X51407151Y13209167D01*
X51385533Y13346264D01*
X51383796Y13354371D01*
X51289349Y13691948D01*
X51159261Y14009903D01*
X50995799Y14306044D01*
X50801227Y14578174D01*
X50577814Y14824101D01*
X50327824Y15041631D01*
X50053524Y15228570D01*
X49757180Y15382724D01*
X49441059Y15501898D01*
X49107426Y15583900D01*
X49074916Y15589674D01*
X48944503Y15606209D01*
X48787996Y15616961D01*
X48619195Y15621765D01*
X48451902Y15620460D01*
X48299916Y15612881D01*
X48185368Y15600210D01*
X47900294Y15538845D01*
X47613275Y15445683D01*
X47335462Y15325397D01*
X47078004Y15182656D01*
X46905333Y15063945D01*
X46649231Y14844679D01*
X46419928Y14597021D01*
X46220927Y14325881D01*
X46055729Y14036172D01*
X45927835Y13732803D01*
X45902885Y13657889D01*
X45848169Y13466666D01*
X45810450Y13287760D01*
X45787531Y13106042D01*
X45777215Y12906379D01*
X45776115Y12784667D01*
X45604966Y12784667D01*
X45604881Y12795250D01*
X45608508Y13012014D01*
X45621799Y13200171D01*
X45646856Y13372766D01*
X45685777Y13542844D01*
X45740663Y13723450D01*
X45766349Y13798138D01*
X45901991Y14122251D01*
X46069723Y14421356D01*
X46266684Y14694329D01*
X46490012Y14940046D01*
X46736845Y15157384D01*
X47004322Y15345220D01*
X47289581Y15502429D01*
X47589762Y15627889D01*
X47902002Y15720475D01*
X48223439Y15779065D01*
X48551213Y15802534D01*
X48882462Y15789760D01*
G37*
X48882462Y15789760D02*
X49214324Y15739618D01*
X49543937Y15650985D01*
X49868441Y15522738D01*
X49997489Y15459411D01*
X50298621Y15279501D01*
X50574254Y15066971D01*
X50822417Y14824397D01*
X51041137Y14554352D01*
X51228441Y14259413D01*
X51382357Y13942154D01*
X51500912Y13605149D01*
X51543818Y13440834D01*
X51567597Y13307259D01*
X51585257Y13143930D01*
X51596448Y12963031D01*
X51600819Y12776744D01*
X51598022Y12597253D01*
X51587705Y12436744D01*
X51575448Y12339915D01*
X51498825Y11987709D01*
X51387956Y11659491D01*
X51241455Y11352559D01*
X51057934Y11064210D01*
X50836005Y10791740D01*
X50717012Y10667375D01*
X50448280Y10426974D01*
X50163703Y10225621D01*
X49861786Y10062537D01*
X49541037Y9936942D01*
X49199961Y9848058D01*
X49115555Y9832214D01*
X48956773Y9810763D01*
X48776446Y9796552D01*
X48590693Y9790170D01*
X48415632Y9792209D01*
X48281166Y9801661D01*
X48099918Y9829275D01*
X47900000Y9872561D01*
X47699932Y9926967D01*
X47518233Y9987940D01*
X47508583Y9991607D01*
X47199847Y10132113D01*
X46908790Y10309042D01*
X46638680Y10519009D01*
X46392785Y10758631D01*
X46174376Y11024523D01*
X45986722Y11313302D01*
X45833090Y11621585D01*
X45764914Y11796429D01*
X45704742Y11981008D01*
X45660737Y12152453D01*
X45630879Y12323362D01*
X45613150Y12506329D01*
X45605533Y12713951D01*
X45604966Y12784667D01*
X45776115Y12784667D01*
X45794348Y12445169D01*
X45848277Y12125623D01*
X45939434Y11820981D01*
X46069351Y11526198D01*
X46239560Y11236225D01*
X46251618Y11218075D01*
X46456764Y10949001D01*
X46693255Y10706526D01*
X46957445Y10493419D01*
X47245686Y10312452D01*
X47554334Y10166395D01*
X47711861Y10108430D01*
X47862212Y10060593D01*
X47994709Y10025117D01*
X48120261Y10000510D01*
X48249778Y9985278D01*
X48394169Y9977929D01*
X48564343Y9976971D01*
X48662166Y9978416D01*
X48812215Y9982076D01*
X48929920Y9987175D01*
X49025271Y9994741D01*
X49108255Y10005803D01*
X49188860Y10021389D01*
X49271694Y10041162D01*
X49605652Y10146674D01*
X49918189Y10287643D01*
X50207367Y10461941D01*
X50471244Y10667439D01*
X50707879Y10902008D01*
X50915331Y11163519D01*
X51091661Y11449846D01*
X51234927Y11758857D01*
X51343190Y12088426D01*
X51406096Y12382249D01*
X51421890Y12521538D01*
X51429584Y12687361D01*
X51429485Y12866230D01*
X51421905Y13044661D01*
X51407151Y13209167D01*
X51385533Y13346264D01*
X51383796Y13354371D01*
X51289349Y13691948D01*
X51159261Y14009903D01*
X50995799Y14306044D01*
X50801227Y14578174D01*
X50577814Y14824101D01*
X50327824Y15041631D01*
X50053524Y15228570D01*
X49757180Y15382724D01*
X49441059Y15501898D01*
X49107426Y15583900D01*
X49074916Y15589674D01*
X48944503Y15606209D01*
X48787996Y15616961D01*
X48619195Y15621765D01*
X48451902Y15620460D01*
X48299916Y15612881D01*
X48185368Y15600210D01*
X47900294Y15538845D01*
X47613275Y15445683D01*
X47335462Y15325397D01*
X47078004Y15182656D01*
X46905333Y15063945D01*
X46649231Y14844679D01*
X46419928Y14597021D01*
X46220927Y14325881D01*
X46055729Y14036172D01*
X45927835Y13732803D01*
X45902885Y13657889D01*
X45848169Y13466666D01*
X45810450Y13287760D01*
X45787531Y13106042D01*
X45777215Y12906379D01*
X45776115Y12784667D01*
X45604966Y12784667D01*
X45604881Y12795250D01*
X45608508Y13012014D01*
X45621799Y13200171D01*
X45646856Y13372766D01*
X45685777Y13542844D01*
X45740663Y13723450D01*
X45766349Y13798138D01*
X45901991Y14122251D01*
X46069723Y14421356D01*
X46266684Y14694329D01*
X46490012Y14940046D01*
X46736845Y15157384D01*
X47004322Y15345220D01*
X47289581Y15502429D01*
X47589762Y15627889D01*
X47902002Y15720475D01*
X48223439Y15779065D01*
X48551213Y15802534D01*
X48882462Y15789760D01*
G36*
X41817567Y45815286D02*
G01*
X41983052Y45807512D01*
X42128632Y45794609D01*
X42243985Y45776585D01*
X42248098Y45775698D01*
X42596995Y45679809D01*
X42921964Y45549534D01*
X43225568Y45383507D01*
X43510370Y45180361D01*
X43732239Y44984582D01*
X43974205Y44724657D01*
X44178618Y44446670D01*
X44347656Y44147177D01*
X44483495Y43822739D01*
X44503389Y43765016D01*
X44565003Y43560290D01*
X44608000Y43364894D01*
X44634577Y43164529D01*
X44646928Y42944892D01*
X44648458Y42820167D01*
X44643850Y42606344D01*
X44628245Y42417660D01*
X44599221Y42237799D01*
X44554359Y42050443D01*
X44513437Y41910000D01*
X44397377Y41602492D01*
X44243050Y41305542D01*
X44054125Y41023900D01*
X43834268Y40762319D01*
X43587146Y40525547D01*
X43316428Y40318338D01*
X43252166Y40275973D01*
X43045192Y40158700D01*
X42810034Y40051651D01*
X42560580Y39960363D01*
X42310718Y39890375D01*
X42252878Y39877498D01*
X42128766Y39857013D01*
X41977513Y39840780D01*
X41811341Y39829316D01*
X41642470Y39823140D01*
X41483121Y39822770D01*
X41345514Y39828725D01*
X41275000Y39836024D01*
X40920392Y39905672D01*
X40582570Y40012421D01*
X40263856Y40154340D01*
X39966574Y40329497D01*
X39693046Y40535959D01*
X39445595Y40771796D01*
X39226544Y41035076D01*
X39038214Y41323865D01*
X38882930Y41636234D01*
X38781444Y41910000D01*
X38693492Y42255125D01*
X38646818Y42602090D01*
X38641577Y42895777D01*
X38822028Y42895777D01*
X38822717Y42680404D01*
X38835995Y42478925D01*
X38849321Y42375993D01*
X38923284Y42041524D01*
X39036453Y41722559D01*
X39188150Y41420418D01*
X39377696Y41136420D01*
X39604411Y40871883D01*
X39645059Y40830482D01*
X39823596Y40662564D01*
X39996638Y40523508D01*
X40176934Y40403976D01*
X40375416Y40295539D01*
X40660696Y40169054D01*
X40945749Y40077578D01*
X41245463Y40016578D01*
X41330219Y40004822D01*
X41454168Y39995332D01*
X41605586Y39993145D01*
X41770344Y39997704D01*
X41934315Y40008453D01*
X42083370Y40024833D01*
X42162435Y40037638D01*
X42500321Y40121974D01*
X42816621Y40242641D01*
X43112387Y40400201D01*
X43388675Y40595215D01*
X43645863Y40827561D01*
X43882375Y41093577D01*
X44078636Y41372380D01*
X44235032Y41664905D01*
X44351952Y41972083D01*
X44429784Y42294847D01*
X44468915Y42634132D01*
X44474097Y42820167D01*
X44462573Y43112628D01*
X44426634Y43380834D01*
X44363564Y43636881D01*
X44270648Y43892862D01*
X44196104Y44058417D01*
X44031583Y44354050D01*
X43836915Y44622440D01*
X43615259Y44862474D01*
X43369774Y45073038D01*
X43103621Y45253020D01*
X42819957Y45401305D01*
X42521944Y45516780D01*
X42212740Y45598333D01*
X41895505Y45644849D01*
X41573399Y45655216D01*
X41249580Y45628321D01*
X40927209Y45563049D01*
X40609445Y45458288D01*
X40436945Y45383035D01*
X40233202Y45277440D01*
X40051880Y45163434D01*
X39880443Y45032044D01*
X39706355Y44874299D01*
X39653704Y44822463D01*
X39427354Y44573159D01*
X39239821Y44315058D01*
X39087680Y44042173D01*
X38967509Y43748520D01*
X38890424Y43488029D01*
X38856388Y43313311D01*
X38833421Y43111319D01*
X38822028Y42895777D01*
X38641577Y42895777D01*
X38640646Y42947907D01*
X38674196Y43289587D01*
X38746691Y43624143D01*
X38857352Y43948588D01*
X39005401Y44259933D01*
X39190060Y44555190D01*
X39410551Y44831372D01*
X39590417Y45016130D01*
X39858080Y45241243D01*
X40149361Y45431955D01*
X40465146Y45588726D01*
X40806322Y45712018D01*
X41052750Y45776849D01*
X41162965Y45794877D01*
X41304874Y45807724D01*
X41468158Y45815401D01*
X41642495Y45817919D01*
X41817567Y45815286D01*
G37*
X41817567Y45815286D02*
X41983052Y45807512D01*
X42128632Y45794609D01*
X42243985Y45776585D01*
X42248098Y45775698D01*
X42596995Y45679809D01*
X42921964Y45549534D01*
X43225568Y45383507D01*
X43510370Y45180361D01*
X43732239Y44984582D01*
X43974205Y44724657D01*
X44178618Y44446670D01*
X44347656Y44147177D01*
X44483495Y43822739D01*
X44503389Y43765016D01*
X44565003Y43560290D01*
X44608000Y43364894D01*
X44634577Y43164529D01*
X44646928Y42944892D01*
X44648458Y42820167D01*
X44643850Y42606344D01*
X44628245Y42417660D01*
X44599221Y42237799D01*
X44554359Y42050443D01*
X44513437Y41910000D01*
X44397377Y41602492D01*
X44243050Y41305542D01*
X44054125Y41023900D01*
X43834268Y40762319D01*
X43587146Y40525547D01*
X43316428Y40318338D01*
X43252166Y40275973D01*
X43045192Y40158700D01*
X42810034Y40051651D01*
X42560580Y39960363D01*
X42310718Y39890375D01*
X42252878Y39877498D01*
X42128766Y39857013D01*
X41977513Y39840780D01*
X41811341Y39829316D01*
X41642470Y39823140D01*
X41483121Y39822770D01*
X41345514Y39828725D01*
X41275000Y39836024D01*
X40920392Y39905672D01*
X40582570Y40012421D01*
X40263856Y40154340D01*
X39966574Y40329497D01*
X39693046Y40535959D01*
X39445595Y40771796D01*
X39226544Y41035076D01*
X39038214Y41323865D01*
X38882930Y41636234D01*
X38781444Y41910000D01*
X38693492Y42255125D01*
X38646818Y42602090D01*
X38641577Y42895777D01*
X38822028Y42895777D01*
X38822717Y42680404D01*
X38835995Y42478925D01*
X38849321Y42375993D01*
X38923284Y42041524D01*
X39036453Y41722559D01*
X39188150Y41420418D01*
X39377696Y41136420D01*
X39604411Y40871883D01*
X39645059Y40830482D01*
X39823596Y40662564D01*
X39996638Y40523508D01*
X40176934Y40403976D01*
X40375416Y40295539D01*
X40660696Y40169054D01*
X40945749Y40077578D01*
X41245463Y40016578D01*
X41330219Y40004822D01*
X41454168Y39995332D01*
X41605586Y39993145D01*
X41770344Y39997704D01*
X41934315Y40008453D01*
X42083370Y40024833D01*
X42162435Y40037638D01*
X42500321Y40121974D01*
X42816621Y40242641D01*
X43112387Y40400201D01*
X43388675Y40595215D01*
X43645863Y40827561D01*
X43882375Y41093577D01*
X44078636Y41372380D01*
X44235032Y41664905D01*
X44351952Y41972083D01*
X44429784Y42294847D01*
X44468915Y42634132D01*
X44474097Y42820167D01*
X44462573Y43112628D01*
X44426634Y43380834D01*
X44363564Y43636881D01*
X44270648Y43892862D01*
X44196104Y44058417D01*
X44031583Y44354050D01*
X43836915Y44622440D01*
X43615259Y44862474D01*
X43369774Y45073038D01*
X43103621Y45253020D01*
X42819957Y45401305D01*
X42521944Y45516780D01*
X42212740Y45598333D01*
X41895505Y45644849D01*
X41573399Y45655216D01*
X41249580Y45628321D01*
X40927209Y45563049D01*
X40609445Y45458288D01*
X40436945Y45383035D01*
X40233202Y45277440D01*
X40051880Y45163434D01*
X39880443Y45032044D01*
X39706355Y44874299D01*
X39653704Y44822463D01*
X39427354Y44573159D01*
X39239821Y44315058D01*
X39087680Y44042173D01*
X38967509Y43748520D01*
X38890424Y43488029D01*
X38856388Y43313311D01*
X38833421Y43111319D01*
X38822028Y42895777D01*
X38641577Y42895777D01*
X38640646Y42947907D01*
X38674196Y43289587D01*
X38746691Y43624143D01*
X38857352Y43948588D01*
X39005401Y44259933D01*
X39190060Y44555190D01*
X39410551Y44831372D01*
X39590417Y45016130D01*
X39858080Y45241243D01*
X40149361Y45431955D01*
X40465146Y45588726D01*
X40806322Y45712018D01*
X41052750Y45776849D01*
X41162965Y45794877D01*
X41304874Y45807724D01*
X41468158Y45815401D01*
X41642495Y45817919D01*
X41817567Y45815286D01*
D10*
%TO.C,SW2*%
X15875000Y17907000D02*
X16510000Y17907000D01*
X16510000Y17907000D02*
X16510000Y25019000D01*
X16510000Y25019000D02*
X15875000Y25019000D01*
X13335000Y17907000D02*
X12700000Y17907000D01*
X12700000Y17907000D02*
X12700000Y25019000D01*
X12700000Y25019000D02*
X13335000Y25019000D01*
%TO.C,SW1*%
X44323000Y12725400D02*
X44323000Y13360400D01*
X44323000Y13360400D02*
X37211000Y13360400D01*
X37211000Y13360400D02*
X37211000Y12725400D01*
X44323000Y10185400D02*
X44323000Y9550400D01*
X44323000Y9550400D02*
X37211000Y9550400D01*
X37211000Y9550400D02*
X37211000Y10185400D01*
%TO.C,D2*%
X40965980Y14440000D02*
X40965980Y16040000D01*
X40965980Y16040000D02*
X44465980Y16040000D01*
X44465980Y16040000D02*
X44565980Y16040000D01*
X44565980Y16040000D02*
X44565980Y14440000D01*
X44565980Y14440000D02*
X40965980Y14440000D01*
D11*
X42507401Y14340000D02*
G75*
G03*
X42507401Y14340000I-141421J0D01*
G01*
X42465980Y15240000D02*
X43065980Y14640000D01*
X43065980Y14640000D02*
X42465980Y15240000D01*
X42465980Y15240000D02*
X43065980Y15840000D01*
D13*
X42765980Y15090140D02*
X42765980Y15389860D01*
X42765980Y15389860D02*
X42466260Y15389860D01*
X42466260Y15090140D02*
X42466260Y15389860D01*
X42765980Y15090140D02*
X42466260Y15090140D01*
D10*
%TO.C,R7*%
X36576000Y19100800D02*
X37465000Y19100800D01*
X36525200Y16967200D02*
X37414200Y16967200D01*
%TO.C,R1*%
X24434800Y19512200D02*
X24434800Y18623200D01*
X22301200Y19563000D02*
X22301200Y18674000D01*
%TO.C,R4*%
X52247800Y18872200D02*
X52247800Y17983200D01*
X50114200Y18923000D02*
X50114200Y18034000D01*
%TO.C,R5*%
X44119800Y20142200D02*
X44119800Y19253200D01*
X41986200Y20193000D02*
X41986200Y19304000D01*
%TO.C,R6*%
X36626800Y21640800D02*
X37515800Y21640800D01*
X36576000Y19507200D02*
X37465000Y19507200D01*
%TO.C,R2*%
X21894800Y19512200D02*
X21894800Y18623200D01*
X19761200Y19563000D02*
X19761200Y18674000D01*
D11*
%TO.C,C7*%
X28008200Y30618800D02*
X27008200Y30618800D01*
X27008200Y28563200D02*
X28008200Y28563200D01*
%TO.C,C8*%
X14997800Y11112800D02*
X14997800Y12112800D01*
X12942200Y12112800D02*
X12942200Y11112800D01*
%TO.C,C9*%
X47942800Y31103200D02*
X48942800Y31103200D01*
X48942800Y33158800D02*
X47942800Y33158800D01*
%TO.C,C10*%
X35825800Y34480800D02*
X35825800Y35480800D01*
X33770200Y35480800D02*
X33770200Y34480800D01*
%TO.C,C1*%
X24880200Y19626200D02*
X24880200Y18626200D01*
X26935800Y18626200D02*
X26935800Y19626200D01*
%TO.C,C2*%
X21217000Y24118200D02*
X22217000Y24118200D01*
X22217000Y26173800D02*
X21217000Y26173800D01*
%TO.C,C3*%
X21705200Y29786200D02*
X21705200Y28786200D01*
X23760800Y28786200D02*
X23760800Y29786200D01*
%TO.C,C4*%
X22293200Y41413800D02*
X21293200Y41413800D01*
X21293200Y39358200D02*
X22293200Y39358200D01*
%TO.C,C5*%
X31123000Y28563200D02*
X32123000Y28563200D01*
X32123000Y30618800D02*
X31123000Y30618800D01*
%TO.C,C11*%
X19315800Y18600800D02*
X19315800Y19600800D01*
X17260200Y19600800D02*
X17260200Y18600800D01*
D10*
%TO.C,U4*%
X37973000Y24511000D02*
X44196000Y24511000D01*
X44196000Y24511000D02*
X44196000Y30353000D01*
X44196000Y30353000D02*
X43561000Y30861000D01*
X43561000Y30861000D02*
X37973000Y30861000D01*
X37973000Y30861000D02*
X37973000Y24511000D01*
X45637155Y31662200D02*
G75*
G03*
X45637155Y31662200I-360555J0D01*
G01*
X43888647Y30099000D02*
G75*
G03*
X43888647Y30099000I-251447J0D01*
G01*
%TO.C,P9*%
X17780000Y4902200D02*
X33020000Y4902200D01*
X33020000Y1981200D02*
X17780000Y1981200D01*
X34036000Y3429000D02*
G75*
G03*
X34036000Y3429000I-254000J0D01*
G01*
X33020000Y1955800D02*
X33020000Y4876800D01*
X30480000Y1955800D02*
X30480000Y4826000D01*
X17780000Y1955800D02*
X17780000Y4876800D01*
D14*
%TO.C,P2*%
X22352000Y9573000D02*
X22352000Y10208000D01*
X22352000Y10208000D02*
X28702000Y10208000D01*
X28702000Y10208000D02*
X28702000Y9573000D01*
X16637000Y15923000D02*
G75*
G03*
X16637000Y15923000I-1270000J0D01*
G01*
X30607000Y15923000D02*
X30607000Y9573000D01*
X25527000Y12113000D02*
X25527000Y9573000D01*
X20447000Y15923000D02*
X20447000Y9573000D01*
X15367000Y15923000D02*
X35687000Y15923000D01*
X35687000Y15923000D02*
X35687000Y9573000D01*
X35687000Y9573000D02*
X15367000Y9573000D01*
X15367000Y9573000D02*
X15367000Y15923000D01*
D15*
%TO.C,P4*%
X30480000Y40386000D02*
X30480000Y45466000D01*
X38100000Y40386000D02*
X30480000Y40386000D01*
X38100000Y45466000D02*
X38100000Y40386000D01*
X30480000Y45466000D02*
X38100000Y45466000D01*
D14*
X31115000Y40466000D02*
G75*
G03*
X31115000Y40466000I-635000J0D01*
G01*
D10*
%TO.C,U1*%
X29488000Y20396000D02*
X29488000Y20196000D01*
X29488000Y20196000D02*
X29888000Y20196000D01*
X29888000Y20196000D02*
X29888000Y20396000D01*
X29170843Y20596000D02*
G75*
G03*
X29170843Y20596000I-282843J0D01*
G01*
X30288000Y20396000D02*
X30288000Y17196000D01*
X30288000Y17196000D02*
X29088000Y17196000D01*
X29088000Y17196000D02*
X29088000Y20396000D01*
X29088000Y20396000D02*
X30288000Y20396000D01*
D16*
%TO.C,Y1*%
X49657000Y34798000D02*
X49657000Y33782000D01*
X38227000Y34798000D02*
X38227000Y33782000D01*
D17*
X40513000Y37211000D02*
X47371000Y37211000D01*
X40513000Y37973000D02*
X47371000Y37973000D01*
X47371000Y34671000D02*
X40513000Y34671000D01*
D16*
X38481000Y38354000D02*
X49403000Y38354000D01*
X38227000Y38100000D02*
X38227000Y37084000D01*
X49657000Y38100000D02*
X49657000Y37084000D01*
D17*
X47371000Y33909000D02*
X40513000Y33909000D01*
D16*
X38481000Y33528000D02*
X49403000Y33528000D01*
X44196000Y35306000D02*
X44196000Y36576000D01*
X44196000Y36576000D02*
X43688000Y36576000D01*
X43688000Y36576000D02*
X43688000Y35306000D01*
X43688000Y35306000D02*
X44196000Y35306000D01*
X44577000Y35306000D02*
X44577000Y35941000D01*
X44577000Y35941000D02*
X44577000Y36576000D01*
D17*
X44577000Y35941000D02*
X44958000Y35941000D01*
D16*
X43307000Y35306000D02*
X43307000Y35941000D01*
X43307000Y35941000D02*
X43307000Y36576000D01*
D17*
X43307000Y35941000D02*
X42926000Y35941000D01*
X47371787Y33907822D02*
G75*
G03*
X49049940Y34798000I-3327J2033178D01*
G01*
X38834368Y34795915D02*
G75*
G03*
X40513000Y33909000I1678632J1145085D01*
G01*
D16*
X38481000Y38354000D02*
G75*
G03*
X38227000Y38100000I0J-254000D01*
G01*
D17*
X40514231Y37209955D02*
G75*
G03*
X39961820Y37084000I-1231J-1268955D01*
G01*
X39960257Y34797595D02*
G75*
G03*
X40513000Y34671000I552743J1143405D01*
G01*
X40510114Y37972747D02*
G75*
G03*
X38834060Y37081460I5426J-2031747D01*
G01*
X49049632Y37086085D02*
G75*
G03*
X47371000Y37973000I-1678632J-1145085D01*
G01*
X47923743Y37084405D02*
G75*
G03*
X47371000Y37211000I-552743J-1143405D01*
G01*
X47369769Y34672045D02*
G75*
G03*
X47922180Y34798000I1231J1268955D01*
G01*
D16*
X49657000Y38100000D02*
G75*
G03*
X49403000Y38354000I-254000J0D01*
G01*
X38227000Y33782000D02*
G75*
G03*
X38481000Y33528000I254000J0D01*
G01*
X49403000Y33528000D02*
G75*
G03*
X49657000Y33782000I0J254000D01*
G01*
D11*
%TO.C,C6*%
X32288000Y33053600D02*
G75*
G03*
X32288000Y33053600I-500000J0D01*
G01*
X25188000Y37983800D02*
X25988000Y38783800D01*
X25988000Y38783800D02*
X31788000Y38783800D01*
X31788000Y38783800D02*
X31788000Y36383800D01*
X25188000Y36383800D02*
X25188000Y37983800D01*
X31788000Y34253600D02*
X31788000Y31853600D01*
X31788000Y31853600D02*
X25988000Y31853600D01*
X25988000Y31853600D02*
X25188000Y32653600D01*
X25188000Y32653600D02*
X25188000Y34253600D01*
D18*
X31790000Y38785800D02*
X25948000Y38785800D01*
X25948000Y38785800D02*
X25186000Y38023800D01*
X25186000Y32613600D02*
X25948000Y31851600D01*
X25948000Y31851600D02*
X31790000Y31851600D01*
D11*
X31488000Y36383800D02*
G75*
G03*
X27588000Y38483800I-3000000J-900000D01*
G01*
X29388000Y38483800D02*
G75*
G03*
X25488000Y36383800I-900000J-3000000D01*
G01*
X25488000Y34253600D02*
G75*
G03*
X29388000Y32153600I3000000J900000D01*
G01*
X27588000Y32153600D02*
G75*
G03*
X31488000Y34253600I900000J3000000D01*
G01*
D19*
%TO.C,P8*%
X27178000Y45466000D02*
X27178000Y42926000D01*
X19558000Y45466000D02*
X29718000Y45466000D01*
X19558000Y42926000D02*
X19558000Y45466000D01*
X29718000Y42926000D02*
X19558000Y42926000D01*
X29718000Y42926000D02*
X29718000Y42926000D01*
X29718000Y45466000D02*
X29718000Y42926000D01*
X29718000Y42926000D02*
X29718000Y42926000D01*
D10*
%TO.C,U3*%
X14472000Y38709600D02*
X17570800Y38709600D01*
X14497400Y33324800D02*
X17570800Y33324800D01*
X17594400Y33317200D02*
X17594400Y38717200D01*
X14499200Y33317200D02*
X14499200Y38717200D01*
X18202555Y33039400D02*
G75*
G03*
X18202555Y33039400I-360555J0D01*
G01*
X15538800Y33350200D02*
X15538800Y33858200D01*
X15538800Y33858200D02*
X16554800Y33858200D01*
X16554800Y33858200D02*
X16554800Y33350200D01*
D14*
%TO.C,P10*%
X5969000Y38433000D02*
X5969000Y28273000D01*
X2159000Y28273000D02*
X2159000Y38433000D01*
X2159000Y28273000D02*
X5969000Y28273000D01*
X2159000Y38433000D02*
X5969000Y38433000D01*
X2794000Y28273000D02*
G75*
G03*
X2794000Y28273000I-635000J0D01*
G01*
X5334000Y36528000D02*
X5969000Y36528000D01*
X5334000Y30178000D02*
X5334000Y36528000D01*
X5969000Y30178000D02*
X5334000Y30178000D01*
%TO.C,P1*%
X11303000Y30178000D02*
X10668000Y30178000D01*
X10668000Y30178000D02*
X10668000Y36528000D01*
X10668000Y36528000D02*
X11303000Y36528000D01*
X8128000Y28273000D02*
G75*
G03*
X8128000Y28273000I-635000J0D01*
G01*
X7493000Y38433000D02*
X11303000Y38433000D01*
X7493000Y28273000D02*
X11303000Y28273000D01*
X7493000Y28273000D02*
X7493000Y38433000D01*
X11303000Y38433000D02*
X11303000Y28273000D01*
D10*
%TO.C,U2*%
X16566800Y26746200D02*
X16566800Y26238200D01*
X15550800Y26746200D02*
X16566800Y26746200D01*
X15550800Y26238200D02*
X15550800Y26746200D01*
X18214555Y25927400D02*
G75*
G03*
X18214555Y25927400I-360555J0D01*
G01*
X14511200Y26205200D02*
X14511200Y31605200D01*
X17606400Y26205200D02*
X17606400Y31605200D01*
X14509400Y26212800D02*
X17582800Y26212800D01*
X14484000Y31597600D02*
X17582800Y31597600D01*
D14*
%TO.C,J1*%
X4318000Y24511000D02*
X11938000Y24511000D01*
X11938000Y19431000D02*
X4318000Y19431000D01*
X4318000Y14351000D02*
X11938000Y14351000D01*
X11938000Y24511000D02*
X11938000Y14351000D01*
X4318000Y24511000D02*
X4318000Y14351000D01*
X4318000Y9271000D02*
X4318000Y14351000D01*
X11938000Y9271000D02*
X4318000Y9271000D01*
X11938000Y14351000D02*
X11938000Y9271000D01*
D10*
%TO.C,D1*%
X29464000Y26416000D02*
X29464000Y22733000D01*
X29464000Y26416000D02*
X29337000Y26543000D01*
X25146000Y22098000D02*
G75*
G03*
X29464000Y22606000I1905000J2413000D01*
G01*
X29337000Y26543000D02*
G75*
G03*
X25019000Y26797000I-2286000J-2032000D01*
G01*
X24003000Y24511000D02*
G75*
G03*
X27051000Y21463000I3048000J0D01*
G01*
X27051000Y27559000D02*
G75*
G03*
X24003000Y24511000I0J-3048000D01*
G01*
%TO.C,SW2*%
D11*
X17851380Y23564905D02*
X17375190Y23298239D01*
X17851380Y23107762D02*
X16851380Y23107762D01*
X16851380Y23412524D01*
X16899000Y23488715D01*
X16946619Y23526810D01*
X17041857Y23564905D01*
X17184714Y23564905D01*
X17279952Y23526810D01*
X17327571Y23488715D01*
X17375190Y23412524D01*
X17375190Y23107762D01*
X17803761Y23869667D02*
X17851380Y23983953D01*
X17851380Y24174429D01*
X17803761Y24250620D01*
X17756142Y24288715D01*
X17660904Y24326810D01*
X17565666Y24326810D01*
X17470428Y24288715D01*
X17422809Y24250620D01*
X17375190Y24174429D01*
X17327571Y24022048D01*
X17279952Y23945858D01*
X17232333Y23907762D01*
X17137095Y23869667D01*
X17041857Y23869667D01*
X16946619Y23907762D01*
X16899000Y23945858D01*
X16851380Y24022048D01*
X16851380Y24212524D01*
X16899000Y24326810D01*
X16851380Y24555381D02*
X16851380Y25012524D01*
X17851380Y24783953D02*
X16851380Y24783953D01*
%TO.C,SW1*%
X37325428Y13946239D02*
X37439714Y13898620D01*
X37630190Y13898620D01*
X37706380Y13946239D01*
X37744476Y13993858D01*
X37782571Y14089096D01*
X37782571Y14184334D01*
X37744476Y14279572D01*
X37706380Y14327191D01*
X37630190Y14374810D01*
X37477809Y14422429D01*
X37401619Y14470048D01*
X37363523Y14517667D01*
X37325428Y14612905D01*
X37325428Y14708143D01*
X37363523Y14803381D01*
X37401619Y14851000D01*
X37477809Y14898620D01*
X37668285Y14898620D01*
X37782571Y14851000D01*
X38049238Y14898620D02*
X38239714Y13898620D01*
X38392095Y14612905D01*
X38544476Y13898620D01*
X38734952Y14898620D01*
X39001619Y14184334D02*
X39382571Y14184334D01*
X38925428Y13898620D02*
X39192095Y14898620D01*
X39458761Y13898620D01*
%TO.C,D2*%
X41999000Y17438620D02*
X42151380Y17438620D01*
X42227571Y17391000D01*
X42303761Y17295762D01*
X42341857Y17105286D01*
X42341857Y16771953D01*
X42303761Y16581477D01*
X42227571Y16486239D01*
X42151380Y16438620D01*
X41999000Y16438620D01*
X41922809Y16486239D01*
X41846619Y16581477D01*
X41808523Y16771953D01*
X41808523Y17105286D01*
X41846619Y17295762D01*
X41922809Y17391000D01*
X41999000Y17438620D01*
X42684714Y17438620D02*
X42684714Y16629096D01*
X42722809Y16533858D01*
X42760904Y16486239D01*
X42837095Y16438620D01*
X42989476Y16438620D01*
X43065666Y16486239D01*
X43103761Y16533858D01*
X43141857Y16629096D01*
X43141857Y17438620D01*
X43408523Y17438620D02*
X43865666Y17438620D01*
X43637095Y16438620D02*
X43637095Y17438620D01*
%TO.C,R7*%
X40025580Y18027667D02*
X39549390Y17761000D01*
X40025580Y17570524D02*
X39025580Y17570524D01*
X39025580Y17875286D01*
X39073200Y17951477D01*
X39120819Y17989572D01*
X39216057Y18027667D01*
X39358914Y18027667D01*
X39454152Y17989572D01*
X39501771Y17951477D01*
X39549390Y17875286D01*
X39549390Y17570524D01*
X39025580Y18294334D02*
X39025580Y18827667D01*
X40025580Y18484810D01*
%TO.C,R1*%
X23234666Y21137620D02*
X22968000Y21613810D01*
X22777523Y21137620D02*
X22777523Y22137620D01*
X23082285Y22137620D01*
X23158476Y22090000D01*
X23196571Y22042381D01*
X23234666Y21947143D01*
X23234666Y21804286D01*
X23196571Y21709048D01*
X23158476Y21661429D01*
X23082285Y21613810D01*
X22777523Y21613810D01*
X23996571Y21137620D02*
X23539428Y21137620D01*
X23768000Y21137620D02*
X23768000Y22137620D01*
X23691809Y21994762D01*
X23615619Y21899524D01*
X23539428Y21851905D01*
%TO.C,R4*%
X51760380Y20943667D02*
X51284190Y20677000D01*
X51760380Y20486524D02*
X50760380Y20486524D01*
X50760380Y20791286D01*
X50808000Y20867477D01*
X50855619Y20905572D01*
X50950857Y20943667D01*
X51093714Y20943667D01*
X51188952Y20905572D01*
X51236571Y20867477D01*
X51284190Y20791286D01*
X51284190Y20486524D01*
X51093714Y21629381D02*
X51760380Y21629381D01*
X50712761Y21438905D02*
X51427047Y21248429D01*
X51427047Y21743667D01*
%TO.C,R5*%
X45537380Y19678667D02*
X45061190Y19412000D01*
X45537380Y19221524D02*
X44537380Y19221524D01*
X44537380Y19526286D01*
X44585000Y19602477D01*
X44632619Y19640572D01*
X44727857Y19678667D01*
X44870714Y19678667D01*
X44965952Y19640572D01*
X45013571Y19602477D01*
X45061190Y19526286D01*
X45061190Y19221524D01*
X44537380Y20402477D02*
X44537380Y20021524D01*
X45013571Y19983429D01*
X44965952Y20021524D01*
X44918333Y20097715D01*
X44918333Y20288191D01*
X44965952Y20364381D01*
X45013571Y20402477D01*
X45108809Y20440572D01*
X45346904Y20440572D01*
X45442142Y20402477D01*
X45489761Y20364381D01*
X45537380Y20288191D01*
X45537380Y20097715D01*
X45489761Y20021524D01*
X45442142Y19983429D01*
%TO.C,R6*%
X40076380Y20440667D02*
X39600190Y20174000D01*
X40076380Y19983524D02*
X39076380Y19983524D01*
X39076380Y20288286D01*
X39124000Y20364477D01*
X39171619Y20402572D01*
X39266857Y20440667D01*
X39409714Y20440667D01*
X39504952Y20402572D01*
X39552571Y20364477D01*
X39600190Y20288286D01*
X39600190Y19983524D01*
X39076380Y21126381D02*
X39076380Y20974000D01*
X39124000Y20897810D01*
X39171619Y20859715D01*
X39314476Y20783524D01*
X39504952Y20745429D01*
X39885904Y20745429D01*
X39981142Y20783524D01*
X40028761Y20821620D01*
X40076380Y20897810D01*
X40076380Y21050191D01*
X40028761Y21126381D01*
X39981142Y21164477D01*
X39885904Y21202572D01*
X39647809Y21202572D01*
X39552571Y21164477D01*
X39504952Y21126381D01*
X39457333Y21050191D01*
X39457333Y20897810D01*
X39504952Y20821620D01*
X39552571Y20783524D01*
X39647809Y20745429D01*
%TO.C,R2*%
X20694666Y21137620D02*
X20428000Y21613810D01*
X20237523Y21137620D02*
X20237523Y22137620D01*
X20542285Y22137620D01*
X20618476Y22090000D01*
X20656571Y22042381D01*
X20694666Y21947143D01*
X20694666Y21804286D01*
X20656571Y21709048D01*
X20618476Y21661429D01*
X20542285Y21613810D01*
X20237523Y21613810D01*
X20999428Y22042381D02*
X21037523Y22090000D01*
X21113714Y22137620D01*
X21304190Y22137620D01*
X21380380Y22090000D01*
X21418476Y22042381D01*
X21456571Y21947143D01*
X21456571Y21851905D01*
X21418476Y21709048D01*
X20961333Y21137620D01*
X21456571Y21137620D01*
%TO.C,C7*%
X25376142Y29457667D02*
X25423761Y29419572D01*
X25471380Y29305286D01*
X25471380Y29229096D01*
X25423761Y29114810D01*
X25328523Y29038620D01*
X25233285Y29000524D01*
X25042809Y28962429D01*
X24899952Y28962429D01*
X24709476Y29000524D01*
X24614238Y29038620D01*
X24519000Y29114810D01*
X24471380Y29229096D01*
X24471380Y29305286D01*
X24519000Y29419572D01*
X24566619Y29457667D01*
X24471380Y29724334D02*
X24471380Y30257667D01*
X25471380Y29914810D01*
%TO.C,C8*%
X13836666Y13739858D02*
X13798571Y13692239D01*
X13684285Y13644620D01*
X13608095Y13644620D01*
X13493809Y13692239D01*
X13417619Y13787477D01*
X13379523Y13882715D01*
X13341428Y14073191D01*
X13341428Y14216048D01*
X13379523Y14406524D01*
X13417619Y14501762D01*
X13493809Y14597000D01*
X13608095Y14644620D01*
X13684285Y14644620D01*
X13798571Y14597000D01*
X13836666Y14549381D01*
X14293809Y14216048D02*
X14217619Y14263667D01*
X14179523Y14311286D01*
X14141428Y14406524D01*
X14141428Y14454143D01*
X14179523Y14549381D01*
X14217619Y14597000D01*
X14293809Y14644620D01*
X14446190Y14644620D01*
X14522380Y14597000D01*
X14560476Y14549381D01*
X14598571Y14454143D01*
X14598571Y14406524D01*
X14560476Y14311286D01*
X14522380Y14263667D01*
X14446190Y14216048D01*
X14293809Y14216048D01*
X14217619Y14168429D01*
X14179523Y14120810D01*
X14141428Y14025572D01*
X14141428Y13835096D01*
X14179523Y13739858D01*
X14217619Y13692239D01*
X14293809Y13644620D01*
X14446190Y13644620D01*
X14522380Y13692239D01*
X14560476Y13739858D01*
X14598571Y13835096D01*
X14598571Y14025572D01*
X14560476Y14120810D01*
X14522380Y14168429D01*
X14446190Y14216048D01*
%TO.C,C9*%
X51411142Y31997667D02*
X51458761Y31959572D01*
X51506380Y31845286D01*
X51506380Y31769096D01*
X51458761Y31654810D01*
X51363523Y31578620D01*
X51268285Y31540524D01*
X51077809Y31502429D01*
X50934952Y31502429D01*
X50744476Y31540524D01*
X50649238Y31578620D01*
X50554000Y31654810D01*
X50506380Y31769096D01*
X50506380Y31845286D01*
X50554000Y31959572D01*
X50601619Y31997667D01*
X51506380Y32378620D02*
X51506380Y32531000D01*
X51458761Y32607191D01*
X51411142Y32645286D01*
X51268285Y32721477D01*
X51077809Y32759572D01*
X50696857Y32759572D01*
X50601619Y32721477D01*
X50554000Y32683381D01*
X50506380Y32607191D01*
X50506380Y32454810D01*
X50554000Y32378620D01*
X50601619Y32340524D01*
X50696857Y32302429D01*
X50934952Y32302429D01*
X51030190Y32340524D01*
X51077809Y32378620D01*
X51125428Y32454810D01*
X51125428Y32607191D01*
X51077809Y32683381D01*
X51030190Y32721477D01*
X50934952Y32759572D01*
%TO.C,C10*%
X34283714Y37163658D02*
X34245619Y37116039D01*
X34131333Y37068420D01*
X34055142Y37068420D01*
X33940857Y37116039D01*
X33864666Y37211277D01*
X33826571Y37306515D01*
X33788476Y37496991D01*
X33788476Y37639848D01*
X33826571Y37830324D01*
X33864666Y37925562D01*
X33940857Y38020800D01*
X34055142Y38068420D01*
X34131333Y38068420D01*
X34245619Y38020800D01*
X34283714Y37973181D01*
X35045619Y37068420D02*
X34588476Y37068420D01*
X34817047Y37068420D02*
X34817047Y38068420D01*
X34740857Y37925562D01*
X34664666Y37830324D01*
X34588476Y37782705D01*
X35540857Y38068420D02*
X35617047Y38068420D01*
X35693238Y38020800D01*
X35731333Y37973181D01*
X35769428Y37877943D01*
X35807523Y37687467D01*
X35807523Y37449372D01*
X35769428Y37258896D01*
X35731333Y37163658D01*
X35693238Y37116039D01*
X35617047Y37068420D01*
X35540857Y37068420D01*
X35464666Y37116039D01*
X35426571Y37163658D01*
X35388476Y37258896D01*
X35350380Y37449372D01*
X35350380Y37687467D01*
X35388476Y37877943D01*
X35426571Y37973181D01*
X35464666Y38020800D01*
X35540857Y38068420D01*
%TO.C,C1*%
X25774666Y16478286D02*
X25736571Y16440191D01*
X25622285Y16402096D01*
X25546095Y16402096D01*
X25431809Y16440191D01*
X25355619Y16516381D01*
X25317523Y16592572D01*
X25279428Y16744953D01*
X25279428Y16859239D01*
X25317523Y17011620D01*
X25355619Y17087810D01*
X25431809Y17164000D01*
X25546095Y17202096D01*
X25622285Y17202096D01*
X25736571Y17164000D01*
X25774666Y17125905D01*
X26536571Y16402096D02*
X26079428Y16402096D01*
X26308000Y16402096D02*
X26308000Y17202096D01*
X26231809Y17087810D01*
X26155619Y17011620D01*
X26079428Y16973524D01*
%TO.C,C2*%
X21583666Y22883858D02*
X21545571Y22836239D01*
X21431285Y22788620D01*
X21355095Y22788620D01*
X21240809Y22836239D01*
X21164619Y22931477D01*
X21126523Y23026715D01*
X21088428Y23217191D01*
X21088428Y23360048D01*
X21126523Y23550524D01*
X21164619Y23645762D01*
X21240809Y23741000D01*
X21355095Y23788620D01*
X21431285Y23788620D01*
X21545571Y23741000D01*
X21583666Y23693381D01*
X21888428Y23693381D02*
X21926523Y23741000D01*
X22002714Y23788620D01*
X22193190Y23788620D01*
X22269380Y23741000D01*
X22307476Y23693381D01*
X22345571Y23598143D01*
X22345571Y23502905D01*
X22307476Y23360048D01*
X21850333Y22788620D01*
X22345571Y22788620D01*
%TO.C,C3*%
X22599666Y31646858D02*
X22561571Y31599239D01*
X22447285Y31551620D01*
X22371095Y31551620D01*
X22256809Y31599239D01*
X22180619Y31694477D01*
X22142523Y31789715D01*
X22104428Y31980191D01*
X22104428Y32123048D01*
X22142523Y32313524D01*
X22180619Y32408762D01*
X22256809Y32504000D01*
X22371095Y32551620D01*
X22447285Y32551620D01*
X22561571Y32504000D01*
X22599666Y32456381D01*
X22866333Y32551620D02*
X23361571Y32551620D01*
X23094904Y32170667D01*
X23209190Y32170667D01*
X23285380Y32123048D01*
X23323476Y32075429D01*
X23361571Y31980191D01*
X23361571Y31742096D01*
X23323476Y31646858D01*
X23285380Y31599239D01*
X23209190Y31551620D01*
X22980619Y31551620D01*
X22904428Y31599239D01*
X22866333Y31646858D01*
%TO.C,C4*%
X24741142Y40252667D02*
X24788761Y40214572D01*
X24836380Y40100286D01*
X24836380Y40024096D01*
X24788761Y39909810D01*
X24693523Y39833620D01*
X24598285Y39795524D01*
X24407809Y39757429D01*
X24264952Y39757429D01*
X24074476Y39795524D01*
X23979238Y39833620D01*
X23884000Y39909810D01*
X23836380Y40024096D01*
X23836380Y40100286D01*
X23884000Y40214572D01*
X23931619Y40252667D01*
X24169714Y40938381D02*
X24836380Y40938381D01*
X23788761Y40747905D02*
X24503047Y40557429D01*
X24503047Y41052667D01*
%TO.C,C5*%
X34520142Y29457667D02*
X34567761Y29419572D01*
X34615380Y29305286D01*
X34615380Y29229096D01*
X34567761Y29114810D01*
X34472523Y29038620D01*
X34377285Y29000524D01*
X34186809Y28962429D01*
X34043952Y28962429D01*
X33853476Y29000524D01*
X33758238Y29038620D01*
X33663000Y29114810D01*
X33615380Y29229096D01*
X33615380Y29305286D01*
X33663000Y29419572D01*
X33710619Y29457667D01*
X33615380Y30181477D02*
X33615380Y29800524D01*
X34091571Y29762429D01*
X34043952Y29800524D01*
X33996333Y29876715D01*
X33996333Y30067191D01*
X34043952Y30143381D01*
X34091571Y30181477D01*
X34186809Y30219572D01*
X34424904Y30219572D01*
X34520142Y30181477D01*
X34567761Y30143381D01*
X34615380Y30067191D01*
X34615380Y29876715D01*
X34567761Y29800524D01*
X34520142Y29762429D01*
%TO.C,C11*%
X17773714Y21232858D02*
X17735619Y21185239D01*
X17621333Y21137620D01*
X17545142Y21137620D01*
X17430857Y21185239D01*
X17354666Y21280477D01*
X17316571Y21375715D01*
X17278476Y21566191D01*
X17278476Y21709048D01*
X17316571Y21899524D01*
X17354666Y21994762D01*
X17430857Y22090000D01*
X17545142Y22137620D01*
X17621333Y22137620D01*
X17735619Y22090000D01*
X17773714Y22042381D01*
X18535619Y21137620D02*
X18078476Y21137620D01*
X18307047Y21137620D02*
X18307047Y22137620D01*
X18230857Y21994762D01*
X18154666Y21899524D01*
X18078476Y21851905D01*
X19297523Y21137620D02*
X18840380Y21137620D01*
X19068952Y21137620D02*
X19068952Y22137620D01*
X18992761Y21994762D01*
X18916571Y21899524D01*
X18840380Y21851905D01*
%TO.C,P3*%
X51633380Y27667000D02*
X50633380Y27667000D01*
X51633380Y28047953D02*
X50633380Y28047953D01*
X50633380Y28238429D01*
X50681000Y28352715D01*
X50776238Y28428905D01*
X50871476Y28467000D01*
X51061952Y28505096D01*
X51204809Y28505096D01*
X51395285Y28467000D01*
X51490523Y28428905D01*
X51585761Y28352715D01*
X51633380Y28238429D01*
X51633380Y28047953D01*
%TO.C,U4*%
X44791380Y22885477D02*
X45600904Y22885477D01*
X45696142Y22923572D01*
X45743761Y22961667D01*
X45791380Y23037858D01*
X45791380Y23190239D01*
X45743761Y23266429D01*
X45696142Y23304524D01*
X45600904Y23342620D01*
X44791380Y23342620D01*
X45124714Y24066429D02*
X45791380Y24066429D01*
X44743761Y23875953D02*
X45458047Y23685477D01*
X45458047Y24180715D01*
%TO.C,P9*%
X17343380Y2000429D02*
X16343380Y2000429D01*
X16343380Y2305191D01*
X16391000Y2381381D01*
X16438619Y2419477D01*
X16533857Y2457572D01*
X16676714Y2457572D01*
X16771952Y2419477D01*
X16819571Y2381381D01*
X16867190Y2305191D01*
X16867190Y2000429D01*
X17343380Y3257572D02*
X16867190Y2990905D01*
X17343380Y2800429D02*
X16343380Y2800429D01*
X16343380Y3105191D01*
X16391000Y3181381D01*
X16438619Y3219477D01*
X16533857Y3257572D01*
X16676714Y3257572D01*
X16771952Y3219477D01*
X16819571Y3181381D01*
X16867190Y3105191D01*
X16867190Y2800429D01*
X16343380Y3752810D02*
X16343380Y3905191D01*
X16391000Y3981381D01*
X16486238Y4057572D01*
X16676714Y4095667D01*
X17010047Y4095667D01*
X17200523Y4057572D01*
X17295761Y3981381D01*
X17343380Y3905191D01*
X17343380Y3752810D01*
X17295761Y3676620D01*
X17200523Y3600429D01*
X17010047Y3562334D01*
X16676714Y3562334D01*
X16486238Y3600429D01*
X16391000Y3676620D01*
X16343380Y3752810D01*
X16391000Y4857572D02*
X16343380Y4781381D01*
X16343380Y4667096D01*
X16391000Y4552810D01*
X16486238Y4476620D01*
X16581476Y4438524D01*
X16771952Y4400429D01*
X16914809Y4400429D01*
X17105285Y4438524D01*
X17200523Y4476620D01*
X17295761Y4552810D01*
X17343380Y4667096D01*
X17343380Y4743286D01*
X17295761Y4857572D01*
X17248142Y4895667D01*
X16914809Y4895667D01*
X16914809Y4743286D01*
%TO.C,P2*%
D10*
X24314380Y6199239D02*
X24428666Y6151620D01*
X24619142Y6151620D01*
X24695333Y6199239D01*
X24733428Y6246858D01*
X24771523Y6342096D01*
X24771523Y6437334D01*
X24733428Y6532572D01*
X24695333Y6580191D01*
X24619142Y6627810D01*
X24466761Y6675429D01*
X24390571Y6723048D01*
X24352476Y6770667D01*
X24314380Y6865905D01*
X24314380Y6961143D01*
X24352476Y7056381D01*
X24390571Y7104000D01*
X24466761Y7151620D01*
X24657238Y7151620D01*
X24771523Y7104000D01*
X25114380Y6675429D02*
X25381047Y6675429D01*
X25495333Y6151620D02*
X25114380Y6151620D01*
X25114380Y7151620D01*
X25495333Y7151620D01*
X26295333Y6151620D02*
X26028666Y6627810D01*
X25838190Y6151620D02*
X25838190Y7151620D01*
X26142952Y7151620D01*
X26219142Y7104000D01*
X26257238Y7056381D01*
X26295333Y6961143D01*
X26295333Y6818286D01*
X26257238Y6723048D01*
X26219142Y6675429D01*
X26142952Y6627810D01*
X25838190Y6627810D01*
X26638190Y6151620D02*
X26638190Y7151620D01*
X26981047Y6437334D02*
X27362000Y6437334D01*
X26904857Y6151620D02*
X27171523Y7151620D01*
X27438190Y6151620D01*
X28085809Y6151620D02*
X27704857Y6151620D01*
X27704857Y7151620D01*
%TO.C,P4*%
D11*
X36811047Y38663620D02*
X36811047Y39663620D01*
X37153904Y38711239D02*
X37268190Y38663620D01*
X37458666Y38663620D01*
X37534857Y38711239D01*
X37572952Y38758858D01*
X37611047Y38854096D01*
X37611047Y38949334D01*
X37572952Y39044572D01*
X37534857Y39092191D01*
X37458666Y39139810D01*
X37306285Y39187429D01*
X37230095Y39235048D01*
X37192000Y39282667D01*
X37153904Y39377905D01*
X37153904Y39473143D01*
X37192000Y39568381D01*
X37230095Y39616000D01*
X37306285Y39663620D01*
X37496761Y39663620D01*
X37611047Y39616000D01*
X37953904Y38663620D02*
X37953904Y39663620D01*
X38258666Y39663620D01*
X38334857Y39616000D01*
X38372952Y39568381D01*
X38411047Y39473143D01*
X38411047Y39330286D01*
X38372952Y39235048D01*
X38334857Y39187429D01*
X38258666Y39139810D01*
X37953904Y39139810D01*
%TO.C,U1*%
X32283476Y19343620D02*
X32283476Y18534096D01*
X32321571Y18438858D01*
X32359666Y18391239D01*
X32435857Y18343620D01*
X32588238Y18343620D01*
X32664428Y18391239D01*
X32702523Y18438858D01*
X32740619Y18534096D01*
X32740619Y19343620D01*
X33540619Y18343620D02*
X33083476Y18343620D01*
X33312047Y18343620D02*
X33312047Y19343620D01*
X33235857Y19200762D01*
X33159666Y19105524D01*
X33083476Y19057905D01*
%TO.C,Y1*%
X50292047Y34186810D02*
X50292047Y33710620D01*
X50025380Y34710620D02*
X50292047Y34186810D01*
X50558714Y34710620D01*
X51244428Y33710620D02*
X50787285Y33710620D01*
X51015857Y33710620D02*
X51015857Y34710620D01*
X50939666Y34567762D01*
X50863476Y34472524D01*
X50787285Y34424905D01*
%TO.C,C6*%
X24123666Y36853858D02*
X24085571Y36806239D01*
X23971285Y36758620D01*
X23895095Y36758620D01*
X23780809Y36806239D01*
X23704619Y36901477D01*
X23666523Y36996715D01*
X23628428Y37187191D01*
X23628428Y37330048D01*
X23666523Y37520524D01*
X23704619Y37615762D01*
X23780809Y37711000D01*
X23895095Y37758620D01*
X23971285Y37758620D01*
X24085571Y37711000D01*
X24123666Y37663381D01*
X24809380Y37758620D02*
X24657000Y37758620D01*
X24580809Y37711000D01*
X24542714Y37663381D01*
X24466523Y37520524D01*
X24428428Y37330048D01*
X24428428Y36949096D01*
X24466523Y36853858D01*
X24504619Y36806239D01*
X24580809Y36758620D01*
X24733190Y36758620D01*
X24809380Y36806239D01*
X24847476Y36853858D01*
X24885571Y36949096D01*
X24885571Y37187191D01*
X24847476Y37282429D01*
X24809380Y37330048D01*
X24733190Y37377667D01*
X24580809Y37377667D01*
X24504619Y37330048D01*
X24466523Y37282429D01*
X24428428Y37187191D01*
%TO.C,P8*%
X26441523Y41743334D02*
X26822476Y41743334D01*
X26365333Y41457620D02*
X26632000Y42457620D01*
X26898666Y41457620D01*
X27165333Y41457620D02*
X27165333Y42457620D01*
X27355809Y42457620D01*
X27470095Y42410000D01*
X27546285Y42314762D01*
X27584380Y42219524D01*
X27622476Y42029048D01*
X27622476Y41886191D01*
X27584380Y41695715D01*
X27546285Y41600477D01*
X27470095Y41505239D01*
X27355809Y41457620D01*
X27165333Y41457620D01*
X28422476Y41552858D02*
X28384380Y41505239D01*
X28270095Y41457620D01*
X28193904Y41457620D01*
X28079619Y41505239D01*
X28003428Y41600477D01*
X27965333Y41695715D01*
X27927238Y41886191D01*
X27927238Y42029048D01*
X27965333Y42219524D01*
X28003428Y42314762D01*
X28079619Y42410000D01*
X28193904Y42457620D01*
X28270095Y42457620D01*
X28384380Y42410000D01*
X28422476Y42362381D01*
%TO.C,U3*%
X12592476Y33440620D02*
X12592476Y32631096D01*
X12630571Y32535858D01*
X12668666Y32488239D01*
X12744857Y32440620D01*
X12897238Y32440620D01*
X12973428Y32488239D01*
X13011523Y32535858D01*
X13049619Y32631096D01*
X13049619Y33440620D01*
X13354380Y33440620D02*
X13849619Y33440620D01*
X13582952Y33059667D01*
X13697238Y33059667D01*
X13773428Y33012048D01*
X13811523Y32964429D01*
X13849619Y32869191D01*
X13849619Y32631096D01*
X13811523Y32535858D01*
X13773428Y32488239D01*
X13697238Y32440620D01*
X13468666Y32440620D01*
X13392476Y32488239D01*
X13354380Y32535858D01*
%TO.C,P10*%
X4807047Y26931620D02*
X4807047Y27931620D01*
X5149904Y27836381D02*
X5188000Y27884000D01*
X5264190Y27931620D01*
X5454666Y27931620D01*
X5530857Y27884000D01*
X5568952Y27836381D01*
X5607047Y27741143D01*
X5607047Y27645905D01*
X5568952Y27503048D01*
X5111809Y26931620D01*
X5607047Y26931620D01*
X6407047Y27026858D02*
X6368952Y26979239D01*
X6254666Y26931620D01*
X6178476Y26931620D01*
X6064190Y26979239D01*
X5988000Y27074477D01*
X5949904Y27169715D01*
X5911809Y27360191D01*
X5911809Y27503048D01*
X5949904Y27693524D01*
X5988000Y27788762D01*
X6064190Y27884000D01*
X6178476Y27931620D01*
X6254666Y27931620D01*
X6368952Y27884000D01*
X6407047Y27836381D01*
%TO.C,P1*%
X10141047Y26931620D02*
X10141047Y27931620D01*
X10483904Y27836381D02*
X10522000Y27884000D01*
X10598190Y27931620D01*
X10788666Y27931620D01*
X10864857Y27884000D01*
X10902952Y27836381D01*
X10941047Y27741143D01*
X10941047Y27645905D01*
X10902952Y27503048D01*
X10445809Y26931620D01*
X10941047Y26931620D01*
X11741047Y27026858D02*
X11702952Y26979239D01*
X11588666Y26931620D01*
X11512476Y26931620D01*
X11398190Y26979239D01*
X11322000Y27074477D01*
X11283904Y27169715D01*
X11245809Y27360191D01*
X11245809Y27503048D01*
X11283904Y27693524D01*
X11322000Y27788762D01*
X11398190Y27884000D01*
X11512476Y27931620D01*
X11588666Y27931620D01*
X11702952Y27884000D01*
X11741047Y27836381D01*
%TO.C,U2*%
X20026380Y26695477D02*
X20835904Y26695477D01*
X20931142Y26733572D01*
X20978761Y26771667D01*
X21026380Y26847858D01*
X21026380Y27000239D01*
X20978761Y27076429D01*
X20931142Y27114524D01*
X20835904Y27152620D01*
X20026380Y27152620D01*
X20121619Y27495477D02*
X20074000Y27533572D01*
X20026380Y27609762D01*
X20026380Y27800239D01*
X20074000Y27876429D01*
X20121619Y27914524D01*
X20216857Y27952620D01*
X20312095Y27952620D01*
X20454952Y27914524D01*
X21026380Y27457381D01*
X21026380Y27952620D01*
%TO.C,J1*%
D10*
X10120380Y21069334D02*
X10834666Y21069334D01*
X10977523Y21031239D01*
X11072761Y20955048D01*
X11120380Y20840762D01*
X11120380Y20764572D01*
X11120380Y21869334D02*
X11120380Y21412191D01*
X11120380Y21640762D02*
X10120380Y21640762D01*
X10263238Y21564572D01*
X10358476Y21488381D01*
X10406095Y21412191D01*
X4635761Y25233334D02*
X5016714Y25233334D01*
X4559571Y24947620D02*
X4826238Y25947620D01*
X5092904Y24947620D01*
X5359571Y24947620D02*
X5359571Y25947620D01*
X5816714Y24947620D01*
X5816714Y25947620D01*
X6159571Y25233334D02*
X6540523Y25233334D01*
X6083380Y24947620D02*
X6350047Y25947620D01*
X6616714Y24947620D01*
X7264333Y24947620D02*
X6883380Y24947620D01*
X6883380Y25947620D01*
X7683380Y25947620D02*
X7835761Y25947620D01*
X7911952Y25900000D01*
X7988142Y25804762D01*
X8026238Y25614286D01*
X8026238Y25280953D01*
X7988142Y25090477D01*
X7911952Y24995239D01*
X7835761Y24947620D01*
X7683380Y24947620D01*
X7607190Y24995239D01*
X7531000Y25090477D01*
X7492904Y25280953D01*
X7492904Y25614286D01*
X7531000Y25804762D01*
X7607190Y25900000D01*
X7683380Y25947620D01*
X8788142Y25900000D02*
X8711952Y25947620D01*
X8597666Y25947620D01*
X8483380Y25900000D01*
X8407190Y25804762D01*
X8369095Y25709524D01*
X8331000Y25519048D01*
X8331000Y25376191D01*
X8369095Y25185715D01*
X8407190Y25090477D01*
X8483380Y24995239D01*
X8597666Y24947620D01*
X8673857Y24947620D01*
X8788142Y24995239D01*
X8826238Y25042858D01*
X8826238Y25376191D01*
X8673857Y25376191D01*
X2881380Y16218000D02*
X2881380Y16370381D01*
X2929000Y16446572D01*
X3024238Y16522762D01*
X3214714Y16560858D01*
X3548047Y16560858D01*
X3738523Y16522762D01*
X3833761Y16446572D01*
X3881380Y16370381D01*
X3881380Y16218000D01*
X3833761Y16141810D01*
X3738523Y16065620D01*
X3548047Y16027524D01*
X3214714Y16027524D01*
X3024238Y16065620D01*
X2929000Y16141810D01*
X2881380Y16218000D01*
X2881380Y16903715D02*
X3690904Y16903715D01*
X3786142Y16941810D01*
X3833761Y16979905D01*
X3881380Y17056096D01*
X3881380Y17208477D01*
X3833761Y17284667D01*
X3786142Y17322762D01*
X3690904Y17360858D01*
X2881380Y17360858D01*
X2881380Y17627524D02*
X2881380Y18084667D01*
X3881380Y17856096D02*
X2881380Y17856096D01*
X3056000Y11201477D02*
X3008380Y11125286D01*
X3008380Y11011000D01*
X3056000Y10896715D01*
X3151238Y10820524D01*
X3246476Y10782429D01*
X3436952Y10744334D01*
X3579809Y10744334D01*
X3770285Y10782429D01*
X3865523Y10820524D01*
X3960761Y10896715D01*
X4008380Y11011000D01*
X4008380Y11087191D01*
X3960761Y11201477D01*
X3913142Y11239572D01*
X3579809Y11239572D01*
X3579809Y11087191D01*
X4008380Y11582429D02*
X3008380Y11582429D01*
X4008380Y12039572D01*
X3008380Y12039572D01*
X4008380Y12420524D02*
X3008380Y12420524D01*
X3008380Y12611000D01*
X3056000Y12725286D01*
X3151238Y12801477D01*
X3246476Y12839572D01*
X3436952Y12877667D01*
X3579809Y12877667D01*
X3770285Y12839572D01*
X3865523Y12801477D01*
X3960761Y12725286D01*
X4008380Y12611000D01*
X4008380Y12420524D01*
X2754380Y21018620D02*
X3754380Y21285286D01*
X2754380Y21551953D01*
X3706761Y22161477D02*
X3754380Y22085286D01*
X3754380Y21932905D01*
X3706761Y21856715D01*
X3659142Y21818620D01*
X3563904Y21780524D01*
X3278190Y21780524D01*
X3182952Y21818620D01*
X3135333Y21856715D01*
X3087714Y21932905D01*
X3087714Y22085286D01*
X3135333Y22161477D01*
X3706761Y22847191D02*
X3754380Y22771000D01*
X3754380Y22618620D01*
X3706761Y22542429D01*
X3659142Y22504334D01*
X3563904Y22466239D01*
X3278190Y22466239D01*
X3182952Y22504334D01*
X3135333Y22542429D01*
X3087714Y22618620D01*
X3087714Y22771000D01*
X3135333Y22847191D01*
%TO.C,D1*%
D20*
X29709333Y21391620D02*
X29709333Y22391620D01*
X29876000Y22391620D01*
X29976000Y22344000D01*
X30042666Y22248762D01*
X30076000Y22153524D01*
X30109333Y21963048D01*
X30109333Y21820191D01*
X30076000Y21629715D01*
X30042666Y21534477D01*
X29976000Y21439239D01*
X29876000Y21391620D01*
X29709333Y21391620D01*
X30776000Y21391620D02*
X30376000Y21391620D01*
X30576000Y21391620D02*
X30576000Y22391620D01*
X30509333Y22248762D01*
X30442666Y22153524D01*
X30376000Y22105905D01*
D10*
%TD*%
M02*
