%TF.GenerationSoftware,KiCad,Pcbnew,(5.1.12)-1*%
%TF.CreationDate,2022-01-04T15:18:08+00:00*%
%TF.ProjectId,SolarSensorATMEGA328_PCB,536f6c61-7253-4656-9e73-6f7241544d45,rev?*%
%TF.SameCoordinates,PX5734380PY7df6180*%
%TF.FileFunction,Soldermask,Top*%
%TF.FilePolarity,Negative*%
%FSLAX46Y46*%
G04 Gerber Fmt 4.6, Leading zero omitted, Abs format (unit mm)*
G04 Created by KiCad (PCBNEW (5.1.12)-1) date 2022-01-04 15:18:08*
%MOMM*%
%LPD*%
G01*
G04 APERTURE LIST*
%ADD10C,3.000000*%
%ADD11R,2.397760X3.000000*%
%ADD12R,3.000000X2.397760*%
%ADD13R,1.198880X1.198880*%
%ADD14R,1.300000X1.500000*%
%ADD15R,1.500000X1.300000*%
%ADD16R,1.500000X1.000000*%
%ADD17R,1.270000X0.558800*%
%ADD18R,0.558800X1.270000*%
%ADD19R,2.100580X2.100580*%
%ADD20C,2.199640*%
%ADD21R,2.032000X2.032000*%
%ADD22C,2.032000*%
%ADD23R,1.500000X1.500000*%
%ADD24C,1.500000*%
%ADD25C,1.600200*%
%ADD26R,1.000000X0.550000*%
%ADD27R,5.334000X1.930400*%
%ADD28R,3.200000X1.600000*%
%ADD29R,1.399540X0.599440*%
%ADD30C,2.499360*%
%ADD31R,2.499360X2.499360*%
G04 APERTURE END LIST*
D10*
%TO.C,P6*%
X41783000Y42799000D03*
X48641000Y12827000D03*
X12192000Y5207000D03*
%TD*%
D11*
%TO.C,SW2*%
X14605000Y23876000D03*
X14579600Y19050000D03*
%TD*%
D12*
%TO.C,SW1*%
X38354000Y11455400D03*
X43180000Y11430000D03*
%TD*%
D13*
%TO.C,D2*%
X41716960Y15240000D03*
X43815000Y15240000D03*
%TD*%
D14*
%TO.C,R7*%
X36022200Y18034000D03*
X37922200Y18034000D03*
%TD*%
D15*
%TO.C,R1*%
X23368000Y20066000D03*
X23368000Y18166000D03*
%TD*%
%TO.C,R4*%
X51181000Y19426000D03*
X51181000Y17526000D03*
%TD*%
%TO.C,R5*%
X43053000Y20696000D03*
X43053000Y18796000D03*
%TD*%
D14*
%TO.C,R6*%
X36073000Y20574000D03*
X37973000Y20574000D03*
%TD*%
D15*
%TO.C,R2*%
X20828000Y20066000D03*
X20828000Y18166000D03*
%TD*%
D14*
%TO.C,C7*%
X28448000Y29591000D03*
X26548000Y29591000D03*
%TD*%
D15*
%TO.C,C8*%
X13970000Y10673000D03*
X13970000Y12573000D03*
%TD*%
D14*
%TO.C,C9*%
X47503000Y32131000D03*
X49403000Y32131000D03*
%TD*%
D15*
%TO.C,C10*%
X34798000Y34041000D03*
X34798000Y35941000D03*
%TD*%
%TO.C,C1*%
X25908000Y20066000D03*
X25908000Y18166000D03*
%TD*%
D14*
%TO.C,C2*%
X20777200Y25146000D03*
X22677200Y25146000D03*
%TD*%
D15*
%TO.C,C3*%
X22733000Y30226000D03*
X22733000Y28326000D03*
%TD*%
D14*
%TO.C,C4*%
X22733000Y40386000D03*
X20833000Y40386000D03*
%TD*%
%TO.C,C5*%
X30683200Y29591000D03*
X32583200Y29591000D03*
%TD*%
D15*
%TO.C,C11*%
X18288000Y18161000D03*
X18288000Y20061000D03*
%TD*%
D16*
%TO.C,P3*%
X51154000Y23876000D03*
X49403000Y23876000D03*
X51154000Y25273000D03*
X49403000Y25273000D03*
X51154000Y26670000D03*
X49403000Y26670000D03*
%TD*%
D17*
%TO.C,U4*%
X45440600Y30485080D03*
X45440600Y29684980D03*
X45440600Y28884880D03*
X45440600Y28084780D03*
X45440600Y27287220D03*
X45440600Y26487120D03*
X45440600Y25687020D03*
X45440600Y24886920D03*
D18*
X43947080Y23393400D03*
X43146980Y23393400D03*
X42346880Y23393400D03*
X41546780Y23393400D03*
X40749220Y23393400D03*
X39949120Y23393400D03*
X39149020Y23393400D03*
X38348920Y23393400D03*
D17*
X36855400Y24886920D03*
X36855400Y25687020D03*
X36855400Y26487120D03*
X36855400Y27287220D03*
X36855400Y28084780D03*
X36855400Y28884880D03*
X36855400Y29684980D03*
X36855400Y30485080D03*
D18*
X38348920Y31978600D03*
X39149020Y31978600D03*
X39949120Y31978600D03*
X40749220Y31978600D03*
X41546780Y31978600D03*
X42346880Y31978600D03*
X43146980Y31978600D03*
X43947080Y31978600D03*
%TD*%
D19*
%TO.C,P9*%
X31750000Y3302000D03*
D20*
X29210000Y3556000D03*
X26670000Y3302000D03*
X24130000Y3556000D03*
X21590000Y3302000D03*
X19050000Y3556000D03*
%TD*%
D21*
%TO.C,P2*%
X17907000Y12113000D03*
D22*
X22987000Y12113000D03*
X28067000Y12113000D03*
X33147000Y12113000D03*
D23*
X22527000Y14224000D03*
D24*
X24527000Y14224000D03*
X26527000Y14224000D03*
X28527000Y14224000D03*
%TD*%
D25*
%TO.C,P4*%
X36830000Y41656000D03*
X36830000Y44196000D03*
X34290000Y41656000D03*
X34290000Y44196000D03*
X31750000Y41656000D03*
X31750000Y44196000D03*
%TD*%
D26*
%TO.C,U1*%
X30988000Y19746000D03*
X30988000Y17846000D03*
X28288000Y19746000D03*
X28288000Y18796000D03*
X28288000Y17846000D03*
%TD*%
D27*
%TO.C,Y1*%
X48768000Y35941000D03*
X39116000Y35941000D03*
%TD*%
D28*
%TO.C,C6*%
X25988000Y35306000D03*
X30988000Y35306000D03*
%TD*%
D22*
%TO.C,P8*%
X20828000Y44196000D03*
X23368000Y44196000D03*
X25908000Y44196000D03*
D21*
X28448000Y44196000D03*
%TD*%
D29*
%TO.C,U3*%
X13196000Y34163000D03*
X18796000Y34163000D03*
X13196000Y35433000D03*
X13196000Y36703000D03*
X13196000Y37973000D03*
X18796000Y35433000D03*
X18796000Y36703000D03*
X18796000Y37973000D03*
%TD*%
D24*
%TO.C,P10*%
X3858000Y36353000D03*
X3858000Y34353000D03*
X3858000Y32353000D03*
D23*
X3858000Y30353000D03*
%TD*%
%TO.C,P1*%
X9192000Y30353000D03*
D24*
X9192000Y32353000D03*
X9192000Y34353000D03*
X9192000Y36353000D03*
%TD*%
D29*
%TO.C,U2*%
X13208000Y27051000D03*
X18808000Y27051000D03*
X13208000Y28321000D03*
X13208000Y29591000D03*
X13208000Y30861000D03*
X18808000Y28321000D03*
X18808000Y29591000D03*
X18808000Y30861000D03*
%TD*%
D30*
%TO.C,J1*%
X8128000Y11811000D03*
D31*
X8128000Y21971000D03*
D30*
X8128000Y16891000D03*
%TD*%
D21*
%TO.C,D1*%
X25781000Y24511000D03*
D22*
X28321000Y24511000D03*
%TD*%
M02*
