%TF.GenerationSoftware,KiCad,Pcbnew,(5.1.12)-1*%
%TF.CreationDate,2022-01-04T15:18:07+00:00*%
%TF.ProjectId,SolarSensorATMEGA328_PCB,536f6c61-7253-4656-9e73-6f7241544d45,rev?*%
%TF.SameCoordinates,PX5734380PY7df6180*%
%TF.FileFunction,Paste,Top*%
%TF.FilePolarity,Positive*%
%FSLAX46Y46*%
G04 Gerber Fmt 4.6, Leading zero omitted, Abs format (unit mm)*
G04 Created by KiCad (PCBNEW (5.1.12)-1) date 2022-01-04 15:18:07*
%MOMM*%
%LPD*%
G01*
G04 APERTURE LIST*
%ADD10R,2.197760X2.800000*%
%ADD11R,2.800000X2.197760*%
%ADD12R,0.998880X0.998880*%
%ADD13R,1.100000X1.300000*%
%ADD14R,1.300000X1.100000*%
%ADD15R,1.300000X0.800000*%
%ADD16R,1.070000X0.358800*%
%ADD17R,0.358800X1.070000*%
%ADD18R,0.847600X0.397600*%
%ADD19R,5.134000X1.730400*%
%ADD20R,3.000000X1.400000*%
%ADD21R,1.199540X0.399440*%
G04 APERTURE END LIST*
D10*
%TO.C,SW2*%
X14605000Y23876000D03*
X14579600Y19050000D03*
%TD*%
D11*
%TO.C,SW1*%
X38354000Y11455400D03*
X43180000Y11430000D03*
%TD*%
D12*
%TO.C,D2*%
X41716960Y15240000D03*
X43815000Y15240000D03*
%TD*%
D13*
%TO.C,R7*%
X36022200Y18034000D03*
X37922200Y18034000D03*
%TD*%
D14*
%TO.C,R1*%
X23368000Y20066000D03*
X23368000Y18166000D03*
%TD*%
%TO.C,R4*%
X51181000Y19426000D03*
X51181000Y17526000D03*
%TD*%
%TO.C,R5*%
X43053000Y20696000D03*
X43053000Y18796000D03*
%TD*%
D13*
%TO.C,R6*%
X36073000Y20574000D03*
X37973000Y20574000D03*
%TD*%
D14*
%TO.C,R2*%
X20828000Y20066000D03*
X20828000Y18166000D03*
%TD*%
D13*
%TO.C,C7*%
X28448000Y29591000D03*
X26548000Y29591000D03*
%TD*%
D14*
%TO.C,C8*%
X13970000Y10673000D03*
X13970000Y12573000D03*
%TD*%
D13*
%TO.C,C9*%
X47503000Y32131000D03*
X49403000Y32131000D03*
%TD*%
D14*
%TO.C,C10*%
X34798000Y34041000D03*
X34798000Y35941000D03*
%TD*%
%TO.C,C1*%
X25908000Y20066000D03*
X25908000Y18166000D03*
%TD*%
D13*
%TO.C,C2*%
X20777200Y25146000D03*
X22677200Y25146000D03*
%TD*%
D14*
%TO.C,C3*%
X22733000Y30226000D03*
X22733000Y28326000D03*
%TD*%
D13*
%TO.C,C4*%
X22733000Y40386000D03*
X20833000Y40386000D03*
%TD*%
%TO.C,C5*%
X30683200Y29591000D03*
X32583200Y29591000D03*
%TD*%
D14*
%TO.C,C11*%
X18288000Y18161000D03*
X18288000Y20061000D03*
%TD*%
D15*
%TO.C,P3*%
X51154000Y23876000D03*
X49403000Y23876000D03*
X51154000Y25273000D03*
X49403000Y25273000D03*
X51154000Y26670000D03*
X49403000Y26670000D03*
%TD*%
D16*
%TO.C,U4*%
X45440600Y30485080D03*
X45440600Y29684980D03*
X45440600Y28884880D03*
X45440600Y28084780D03*
X45440600Y27287220D03*
X45440600Y26487120D03*
X45440600Y25687020D03*
X45440600Y24886920D03*
D17*
X43947080Y23393400D03*
X43146980Y23393400D03*
X42346880Y23393400D03*
X41546780Y23393400D03*
X40749220Y23393400D03*
X39949120Y23393400D03*
X39149020Y23393400D03*
X38348920Y23393400D03*
D16*
X36855400Y24886920D03*
X36855400Y25687020D03*
X36855400Y26487120D03*
X36855400Y27287220D03*
X36855400Y28084780D03*
X36855400Y28884880D03*
X36855400Y29684980D03*
X36855400Y30485080D03*
D17*
X38348920Y31978600D03*
X39149020Y31978600D03*
X39949120Y31978600D03*
X40749220Y31978600D03*
X41546780Y31978600D03*
X42346880Y31978600D03*
X43146980Y31978600D03*
X43947080Y31978600D03*
%TD*%
D18*
%TO.C,U1*%
X30988000Y19746000D03*
X30988000Y17846000D03*
X28288000Y19746000D03*
X28288000Y18796000D03*
X28288000Y17846000D03*
%TD*%
D19*
%TO.C,Y1*%
X48768000Y35941000D03*
X39116000Y35941000D03*
%TD*%
D20*
%TO.C,C6*%
X25988000Y35306000D03*
X30988000Y35306000D03*
%TD*%
D21*
%TO.C,U3*%
X13196000Y34163000D03*
X18796000Y34163000D03*
X13196000Y35433000D03*
X13196000Y36703000D03*
X13196000Y37973000D03*
X18796000Y35433000D03*
X18796000Y36703000D03*
X18796000Y37973000D03*
%TD*%
%TO.C,U2*%
X13208000Y27051000D03*
X18808000Y27051000D03*
X13208000Y28321000D03*
X13208000Y29591000D03*
X13208000Y30861000D03*
X18808000Y28321000D03*
X18808000Y29591000D03*
X18808000Y30861000D03*
%TD*%
M02*
