%TF.GenerationSoftware,KiCad,Pcbnew,(5.1.10)-1*%
%TF.CreationDate,2021-08-07T16:57:51+01:00*%
%TF.ProjectId,SolarSensorATMEGA328_PCB,536f6c61-7253-4656-9e73-6f7241544d45,rev?*%
%TF.SameCoordinates,PX5734380PY7df6180*%
%TF.FileFunction,Soldermask,Top*%
%TF.FilePolarity,Negative*%
%FSLAX46Y46*%
G04 Gerber Fmt 4.6, Leading zero omitted, Abs format (unit mm)*
G04 Created by KiCad (PCBNEW (5.1.10)-1) date 2021-08-07 16:57:51*
%MOMM*%
%LPD*%
G01*
G04 APERTURE LIST*
%ADD10R,1.500000X1.000000*%
%ADD11R,0.558800X1.270000*%
%ADD12R,1.270000X0.558800*%
%ADD13C,2.032000*%
%ADD14R,2.032000X2.032000*%
%ADD15C,3.200000*%
%ADD16R,1.500000X1.300000*%
%ADD17R,2.100580X2.100580*%
%ADD18C,2.199640*%
%ADD19R,1.500000X1.500000*%
%ADD20C,1.500000*%
%ADD21C,1.600200*%
%ADD22R,2.397760X3.000000*%
%ADD23R,0.550000X1.000000*%
%ADD24R,1.930400X5.334000*%
%ADD25R,1.300000X1.500000*%
%ADD26R,3.200000X1.600000*%
%ADD27R,1.198880X1.198880*%
%ADD28R,1.399540X0.599440*%
G04 APERTURE END LIST*
D10*
%TO.C,P3*%
X75211000Y34544000D03*
X76962000Y34544000D03*
X75211000Y33147000D03*
X76962000Y33147000D03*
X75211000Y31750000D03*
X76962000Y31750000D03*
%TD*%
D11*
%TO.C,U4*%
X67685920Y26517600D03*
X68486020Y26517600D03*
X69286120Y26517600D03*
X70086220Y26517600D03*
X70883780Y26517600D03*
X71683880Y26517600D03*
X72483980Y26517600D03*
X73284080Y26517600D03*
D12*
X74777600Y25024080D03*
X74777600Y24223980D03*
X74777600Y23423880D03*
X74777600Y22623780D03*
X74777600Y21826220D03*
X74777600Y21026120D03*
X74777600Y20226020D03*
X74777600Y19425920D03*
D11*
X73284080Y17932400D03*
X72483980Y17932400D03*
X71683880Y17932400D03*
X70883780Y17932400D03*
X70086220Y17932400D03*
X69286120Y17932400D03*
X68486020Y17932400D03*
X67685920Y17932400D03*
D12*
X66192400Y19425920D03*
X66192400Y20226020D03*
X66192400Y21026120D03*
X66192400Y21826220D03*
X66192400Y22623780D03*
X66192400Y23423880D03*
X66192400Y24223980D03*
X66192400Y25024080D03*
%TD*%
D13*
%TO.C,D1*%
X55245000Y20955000D03*
D14*
X57785000Y20955000D03*
%TD*%
D15*
%TO.C,P6*%
X38271000Y39368000D03*
X76271000Y39268000D03*
X76271000Y1268000D03*
X38271000Y1368000D03*
%TD*%
D16*
%TO.C,C7*%
X78105000Y23169800D03*
X78105000Y25069800D03*
%TD*%
%TO.C,C8*%
X43180000Y1910000D03*
X43180000Y3810000D03*
%TD*%
%TO.C,C9*%
X58420000Y35560000D03*
X58420000Y33660000D03*
%TD*%
%TO.C,C10*%
X58420000Y30784800D03*
X58420000Y28884800D03*
%TD*%
D17*
%TO.C,P9*%
X37084000Y21590000D03*
D18*
X36830000Y19050000D03*
X37084000Y16510000D03*
X36830000Y13970000D03*
X37084000Y11430000D03*
X36830000Y8890000D03*
%TD*%
D14*
%TO.C,P2*%
X49530000Y5715000D03*
D13*
X54610000Y5715000D03*
X59690000Y5715000D03*
X64770000Y5715000D03*
D19*
X54150000Y7826000D03*
D20*
X56150000Y7826000D03*
X58150000Y7826000D03*
X60150000Y7826000D03*
%TD*%
D21*
%TO.C,P4*%
X68580000Y34925000D03*
X71120000Y34925000D03*
X68580000Y37465000D03*
X71120000Y37465000D03*
X68580000Y40005000D03*
X71120000Y40005000D03*
%TD*%
D16*
%TO.C,R7*%
X70485000Y29845000D03*
X70485000Y31745000D03*
%TD*%
D22*
%TO.C,SW2*%
X42545000Y11811000D03*
X42519600Y6985000D03*
%TD*%
D23*
%TO.C,U1*%
X52710000Y32545000D03*
X54610000Y32545000D03*
X52710000Y29845000D03*
X53660000Y29845000D03*
X54610000Y29845000D03*
%TD*%
D24*
%TO.C,Y1*%
X62230000Y34290000D03*
X62230000Y24638000D03*
%TD*%
D16*
%TO.C,C1*%
X52070000Y26035000D03*
X52070000Y27935000D03*
%TD*%
D25*
%TO.C,C2*%
X54610000Y34925000D03*
X52710000Y34925000D03*
%TD*%
%TO.C,C3*%
X43815000Y34798000D03*
X45715000Y34798000D03*
%TD*%
D16*
%TO.C,C4*%
X42545000Y19182000D03*
X42545000Y21082000D03*
%TD*%
D25*
%TO.C,C5*%
X75895200Y15875000D03*
X77795200Y15875000D03*
%TD*%
D26*
%TO.C,C6*%
X59135000Y13970000D03*
X64135000Y13970000D03*
%TD*%
D27*
%TO.C,D2*%
X77724000Y9083040D03*
X77724000Y6985000D03*
%TD*%
D13*
%TO.C,P8*%
X36830000Y27305000D03*
X36830000Y29845000D03*
X36830000Y32385000D03*
D14*
X36830000Y34925000D03*
%TD*%
D16*
%TO.C,R1*%
X55245000Y27940000D03*
X55245000Y26040000D03*
%TD*%
%TO.C,R4*%
X67945000Y11435000D03*
X67945000Y13335000D03*
%TD*%
D25*
%TO.C,R5*%
X41610200Y15494000D03*
X43510200Y15494000D03*
%TD*%
D16*
%TO.C,R6*%
X73025000Y31745000D03*
X73025000Y29845000D03*
%TD*%
D22*
%TO.C,SW1*%
X72263000Y6477000D03*
X72288400Y11303000D03*
%TD*%
D28*
%TO.C,U3*%
X46095000Y18415000D03*
X51695000Y18415000D03*
X46095000Y19685000D03*
X46095000Y20955000D03*
X46095000Y22225000D03*
X51695000Y19685000D03*
X51695000Y20955000D03*
X51695000Y22225000D03*
%TD*%
D20*
%TO.C,P10*%
X51720000Y40211000D03*
X49720000Y40211000D03*
X47720000Y40211000D03*
D19*
X45720000Y40211000D03*
%TD*%
%TO.C,P1*%
X58135000Y40211000D03*
D20*
X60135000Y40211000D03*
X62135000Y40211000D03*
X64135000Y40211000D03*
%TD*%
D28*
%TO.C,U2*%
X41910000Y27305000D03*
X47510000Y27305000D03*
X41910000Y28575000D03*
X41910000Y29845000D03*
X41910000Y31115000D03*
X47510000Y28575000D03*
X47510000Y29845000D03*
X47510000Y31115000D03*
%TD*%
M02*
