M48
; DRILL file {KiCad (5.1.12)-1} date 01/04/22 15:18:10
; FORMAT={-:-/ absolute / inch / decimal}
; #@! TF.CreationDate,2022-01-04T15:18:10+00:00
; #@! TF.GenerationSoftware,Kicad,Pcbnew,(5.1.12)-1
FMAT,2
INCH
T1C0.0157
T2C0.0315
T3C0.0320
T4C0.0394
T5C0.0394
T6C0.1181
%
G90
G05
T1
X0.445Y1.08
X0.48Y1.03
X0.505Y0.56
X0.52Y0.645
X0.61Y1.185
X0.665Y1.39
X0.68Y1.275
X0.68Y1.165
X0.73Y0.98
X0.77Y0.92
X0.795Y0.27
X0.805Y0.87
X0.845Y1.245
X0.965Y1.52
X1.065Y1.23
X1.1824Y1.23
X1.195Y0.315
X1.21Y0.4
X1.32Y0.84
X1.34Y0.66
X1.35Y1.17
X1.355Y0.71
X1.365Y1.01
X1.385Y1.135
X1.39Y0.975
X1.4012Y1.108
X1.425Y0.93
X1.455Y1.335
X1.58Y0.575
X1.585Y0.86
X1.62Y0.78
X1.62Y0.715
X1.71Y1.04
X1.71Y0.99
X1.775Y0.55
X1.795Y1.28
X1.845Y1.17
X1.8744Y1.14
X1.9502Y0.7648
X1.9593Y1.1057
X1.985Y0.87
T2
X0.1519Y1.4312
X0.1519Y1.3525
X0.1519Y1.2737
X0.1519Y1.195
X0.3619Y1.4312
X0.3619Y1.3525
X0.3619Y1.2737
X0.3619Y1.195
X0.8869Y0.56
X0.9656Y0.56
X1.0444Y0.56
X1.1231Y0.56
T3
X1.015Y0.965
X1.115Y0.965
T4
X0.75Y0.14
X0.85Y0.13
X0.95Y0.14
X1.05Y0.13
X1.15Y0.14
X1.25Y0.13
T5
X0.32Y0.865
X0.32Y0.665
X0.32Y0.465
X0.705Y0.4769
X0.82Y1.74
X0.905Y0.4769
X0.92Y1.74
X1.02Y1.74
X1.105Y0.4769
X1.12Y1.74
X1.25Y1.74
X1.25Y1.64
X1.305Y0.4769
X1.35Y1.74
X1.35Y1.64
X1.45Y1.74
X1.45Y1.64
T6
X0.48Y0.205
X1.645Y1.685
X1.915Y0.505
T0
M30
