M48
; DRILL file {KiCad (5.1.10)-1} date 08/07/21 16:57:58
; FORMAT={-:-/ absolute / inch / decimal}
; #@! TF.CreationDate,2021-08-07T16:57:58+01:00
; #@! TF.GenerationSoftware,Kicad,Pcbnew,(5.1.10)-1
FMAT,2
INCH
T1C0.0157
T2C0.0315
T3C0.0320
T4C0.0394
T5C0.0394
T6C0.1260
%
G90
G05
T1
X1.57Y1.42
X1.575Y1.17
X1.62Y1.29
X1.775Y0.61
X1.825Y1.465
X1.91Y1.295
X2.1Y0.7
X2.105Y0.745
X2.545Y0.825
X2.56Y1.19
X2.58Y1.33
X2.5856Y1.145
X2.69Y0.895
X2.76Y1.11
X2.855Y0.605
X2.885Y0.64
X2.89Y1.105
X2.895Y1.41
X2.985Y1.03
X3.005Y1.17
X3.005Y1.055
X3.015Y0.745
X3.025Y0.81
X3.03Y1.2
X3.05Y1.155
X3.075Y1.41
X3.0894Y1.245
X3.09Y1.36
X3.1Y0.81
T2
X1.8Y1.5831
X1.8787Y1.5831
X1.9575Y1.5831
X2.0362Y1.5831
X2.1319Y0.3081
X2.2106Y0.3081
X2.2888Y1.5831
X2.2894Y0.3081
X2.3675Y1.5831
X2.3681Y0.3081
X2.4463Y1.5831
X2.525Y1.5831
T3
X2.175Y0.825
X2.275Y0.825
T4
X1.45Y0.75
X1.45Y0.55
X1.45Y0.35
X1.46Y0.85
X1.46Y0.65
X1.46Y0.45
T5
X1.45Y1.375
X1.45Y1.275
X1.45Y1.175
X1.45Y1.075
X1.95Y0.225
X2.15Y0.225
X2.35Y0.225
X2.55Y0.225
X2.7Y1.575
X2.7Y1.475
X2.7Y1.375
X2.8Y1.575
X2.8Y1.475
X2.8Y1.375
T6
X1.5067Y1.5499
X1.5067Y0.0539
X3.0028Y1.546
X3.0028Y0.0499
T0
M30
