%TF.GenerationSoftware,KiCad,Pcbnew,(5.1.10)-1*%
%TF.CreationDate,2021-07-19T12:12:27+01:00*%
%TF.ProjectId,SolarSensorATMEGA328_PCB,536f6c61-7253-4656-9e73-6f7241544d45,rev?*%
%TF.SameCoordinates,PX5734380PY7df6180*%
%TF.FileFunction,Profile,NP*%
%FSLAX46Y46*%
G04 Gerber Fmt 4.6, Leading zero omitted, Abs format (unit mm)*
G04 Created by KiCad (PCBNEW (5.1.10)-1) date 2021-07-19 12:12:27*
%MOMM*%
%LPD*%
G01*
G04 APERTURE LIST*
%TA.AperFunction,Profile*%
%ADD10C,0.100000*%
%TD*%
G04 APERTURE END LIST*
D10*
%TO.C,P6*%
X37876200Y42791200D02*
X37555600Y42775100D01*
X37555600Y42775100D02*
X37244400Y42727800D01*
X37244400Y42727800D02*
X36944300Y42651000D01*
X36944300Y42651000D02*
X36656700Y42546100D01*
X36656700Y42546100D02*
X36383200Y42414700D01*
X36383200Y42414700D02*
X36125400Y42258400D01*
X36125400Y42258400D02*
X35884700Y42078700D01*
X35884700Y42078700D02*
X35662800Y41877100D01*
X35662800Y41877100D02*
X35461300Y41655200D01*
X35461300Y41655200D02*
X35281500Y41414600D01*
X35281500Y41414600D02*
X35125200Y41156700D01*
X35125200Y41156700D02*
X34993800Y40883200D01*
X34993800Y40883200D02*
X34888900Y40595600D01*
X34888900Y40595600D02*
X34812100Y40295500D01*
X34812100Y40295500D02*
X34764900Y39984300D01*
X34764900Y39984300D02*
X34748800Y39663700D01*
X34748800Y39663700D02*
X34748800Y1018000D01*
X34748800Y1018000D02*
X34764900Y697400D01*
X34764900Y697400D02*
X34812100Y386200D01*
X34812100Y386200D02*
X34888900Y86100D01*
X34888900Y86100D02*
X34993800Y-201500D01*
X34993800Y-201500D02*
X35125200Y-474900D01*
X35125200Y-474900D02*
X35281500Y-732700D01*
X35281500Y-732700D02*
X35461300Y-973300D01*
X35461300Y-973300D02*
X35662800Y-1195100D01*
X35662800Y-1195100D02*
X35884700Y-1396700D01*
X35884700Y-1396700D02*
X36125400Y-1576400D01*
X36125400Y-1576400D02*
X36383200Y-1732600D01*
X36383200Y-1732600D02*
X36656700Y-1864000D01*
X36656700Y-1864000D02*
X36944300Y-1968800D01*
X36944300Y-1968800D02*
X37244400Y-2045600D01*
X37244400Y-2045600D02*
X37555600Y-2092900D01*
X37555600Y-2092900D02*
X37876200Y-2108900D01*
X37876200Y-2108900D02*
X44749200Y-2108900D01*
X44749200Y-2108900D02*
X44749200Y2791000D01*
X44749200Y2791000D02*
X69649000Y2791000D01*
X69649000Y2791000D02*
X69649000Y-2108900D01*
X69649000Y-2108900D02*
X76521900Y-2108900D01*
X76521900Y-2108900D02*
X76842500Y-2092900D01*
X76842500Y-2092900D02*
X77153700Y-2045600D01*
X77153700Y-2045600D02*
X77453800Y-1968800D01*
X77453800Y-1968800D02*
X77741400Y-1864000D01*
X77741400Y-1864000D02*
X78014800Y-1732600D01*
X78014800Y-1732600D02*
X78272600Y-1576400D01*
X78272600Y-1576400D02*
X78513200Y-1396700D01*
X78513200Y-1396700D02*
X78735000Y-1195100D01*
X78735000Y-1195100D02*
X78936600Y-973300D01*
X78936600Y-973300D02*
X79116300Y-732700D01*
X79116300Y-732700D02*
X79272600Y-474900D01*
X79272600Y-474900D02*
X79403900Y-201500D01*
X79403900Y-201500D02*
X79508700Y86100D01*
X79508700Y86100D02*
X79585600Y386200D01*
X79585600Y386200D02*
X79632800Y697400D01*
X79632800Y697400D02*
X79648900Y1018000D01*
X79648900Y1018000D02*
X79648900Y39663700D01*
X79648900Y39663700D02*
X79632800Y39984300D01*
X79632800Y39984300D02*
X79585600Y40295500D01*
X79585600Y40295500D02*
X79508700Y40595600D01*
X79508700Y40595600D02*
X79403900Y40883200D01*
X79403900Y40883200D02*
X79272600Y41156700D01*
X79272600Y41156700D02*
X79116300Y41414600D01*
X79116300Y41414600D02*
X78936600Y41655200D01*
X78936600Y41655200D02*
X78735000Y41877100D01*
X78735000Y41877100D02*
X78513200Y42078700D01*
X78513200Y42078700D02*
X78272600Y42258400D01*
X78272600Y42258400D02*
X78014800Y42414700D01*
X78014800Y42414700D02*
X77741400Y42546100D01*
X77741400Y42546100D02*
X77453800Y42651000D01*
X77453800Y42651000D02*
X77153700Y42727800D01*
X77153700Y42727800D02*
X76842500Y42775100D01*
X76842500Y42775100D02*
X76521900Y42791200D01*
X76521900Y42791200D02*
X37876200Y42791200D01*
X37876200Y42791200D02*
X37876200Y42791200D01*
%TD*%
M02*
