%TF.GenerationSoftware,KiCad,Pcbnew,(5.1.10)-1*%
%TF.CreationDate,2021-07-19T12:12:27+01:00*%
%TF.ProjectId,SolarSensorATMEGA328_PCB,536f6c61-7253-4656-9e73-6f7241544d45,rev?*%
%TF.SameCoordinates,PX5734380PY7df6180*%
%TF.FileFunction,Soldermask,Bot*%
%TF.FilePolarity,Negative*%
%FSLAX46Y46*%
G04 Gerber Fmt 4.6, Leading zero omitted, Abs format (unit mm)*
G04 Created by KiCad (PCBNEW (5.1.10)-1) date 2021-07-19 12:12:27*
%MOMM*%
%LPD*%
G01*
G04 APERTURE LIST*
%ADD10C,2.232000*%
%ADD11C,3.400000*%
%ADD12C,2.399640*%
%ADD13C,1.700000*%
%ADD14C,1.800200*%
G04 APERTURE END LIST*
D10*
%TO.C,D1*%
X55245000Y20955000D03*
G36*
G01*
X56669000Y19939000D02*
X56669000Y21971000D01*
G75*
G02*
X56769000Y22071000I100000J0D01*
G01*
X58801000Y22071000D01*
G75*
G02*
X58901000Y21971000I0J-100000D01*
G01*
X58901000Y19939000D01*
G75*
G02*
X58801000Y19839000I-100000J0D01*
G01*
X56769000Y19839000D01*
G75*
G02*
X56669000Y19939000I0J100000D01*
G01*
G37*
%TD*%
D11*
%TO.C,P6*%
X38271000Y39368000D03*
X76271000Y39268000D03*
X76271000Y1268000D03*
X38271000Y1368000D03*
%TD*%
%TO.C,P9*%
G36*
G01*
X36033710Y22740290D02*
X38134290Y22740290D01*
G75*
G02*
X38234290Y22640290I0J-100000D01*
G01*
X38234290Y20539710D01*
G75*
G02*
X38134290Y20439710I-100000J0D01*
G01*
X36033710Y20439710D01*
G75*
G02*
X35933710Y20539710I0J100000D01*
G01*
X35933710Y22640290D01*
G75*
G02*
X36033710Y22740290I100000J0D01*
G01*
G37*
D12*
X36830000Y19050000D03*
X37084000Y16510000D03*
X36830000Y13970000D03*
X37084000Y11430000D03*
X36830000Y8890000D03*
%TD*%
%TO.C,P2*%
G36*
G01*
X48414000Y4699000D02*
X48414000Y6731000D01*
G75*
G02*
X48514000Y6831000I100000J0D01*
G01*
X50546000Y6831000D01*
G75*
G02*
X50646000Y6731000I0J-100000D01*
G01*
X50646000Y4699000D01*
G75*
G02*
X50546000Y4599000I-100000J0D01*
G01*
X48514000Y4599000D01*
G75*
G02*
X48414000Y4699000I0J100000D01*
G01*
G37*
D10*
X54610000Y5715000D03*
X59690000Y5715000D03*
X64770000Y5715000D03*
G36*
G01*
X53300000Y7076000D02*
X53300000Y8576000D01*
G75*
G02*
X53400000Y8676000I100000J0D01*
G01*
X54900000Y8676000D01*
G75*
G02*
X55000000Y8576000I0J-100000D01*
G01*
X55000000Y7076000D01*
G75*
G02*
X54900000Y6976000I-100000J0D01*
G01*
X53400000Y6976000D01*
G75*
G02*
X53300000Y7076000I0J100000D01*
G01*
G37*
D13*
X56150000Y7826000D03*
X58150000Y7826000D03*
X60150000Y7826000D03*
%TD*%
D14*
%TO.C,P4*%
X68580000Y34925000D03*
X71120000Y34925000D03*
X68580000Y37465000D03*
X71120000Y37465000D03*
X68580000Y40005000D03*
X71120000Y40005000D03*
%TD*%
D10*
%TO.C,P8*%
X36830000Y27305000D03*
X36830000Y29845000D03*
X36830000Y32385000D03*
G36*
G01*
X35814000Y36041000D02*
X37846000Y36041000D01*
G75*
G02*
X37946000Y35941000I0J-100000D01*
G01*
X37946000Y33909000D01*
G75*
G02*
X37846000Y33809000I-100000J0D01*
G01*
X35814000Y33809000D01*
G75*
G02*
X35714000Y33909000I0J100000D01*
G01*
X35714000Y35941000D01*
G75*
G02*
X35814000Y36041000I100000J0D01*
G01*
G37*
%TD*%
D13*
%TO.C,P10*%
X51720000Y40211000D03*
X49720000Y40211000D03*
X47720000Y40211000D03*
G36*
G01*
X44870000Y39461000D02*
X44870000Y40961000D01*
G75*
G02*
X44970000Y41061000I100000J0D01*
G01*
X46470000Y41061000D01*
G75*
G02*
X46570000Y40961000I0J-100000D01*
G01*
X46570000Y39461000D01*
G75*
G02*
X46470000Y39361000I-100000J0D01*
G01*
X44970000Y39361000D01*
G75*
G02*
X44870000Y39461000I0J100000D01*
G01*
G37*
%TD*%
%TO.C,P1*%
G36*
G01*
X57285000Y39461000D02*
X57285000Y40961000D01*
G75*
G02*
X57385000Y41061000I100000J0D01*
G01*
X58885000Y41061000D01*
G75*
G02*
X58985000Y40961000I0J-100000D01*
G01*
X58985000Y39461000D01*
G75*
G02*
X58885000Y39361000I-100000J0D01*
G01*
X57385000Y39361000D01*
G75*
G02*
X57285000Y39461000I0J100000D01*
G01*
G37*
X60135000Y40211000D03*
X62135000Y40211000D03*
X64135000Y40211000D03*
%TD*%
M02*
