%TF.GenerationSoftware,KiCad,Pcbnew,(5.1.10)-1*%
%TF.CreationDate,2021-07-19T12:12:26+01:00*%
%TF.ProjectId,SolarSensorATMEGA328_PCB,536f6c61-7253-4656-9e73-6f7241544d45,rev?*%
%TF.SameCoordinates,PX5734380PY7df6180*%
%TF.FileFunction,Legend,Top*%
%TF.FilePolarity,Positive*%
%FSLAX46Y46*%
G04 Gerber Fmt 4.6, Leading zero omitted, Abs format (unit mm)*
G04 Created by KiCad (PCBNEW (5.1.10)-1) date 2021-07-19 12:12:26*
%MOMM*%
%LPD*%
G01*
G04 APERTURE LIST*
%ADD10C,0.150000*%
%ADD11C,0.200000*%
%ADD12C,0.203200*%
%ADD13C,0.254000*%
%ADD14C,0.010000*%
%ADD15C,0.300000*%
%ADD16C,0.381000*%
%ADD17C,0.050800*%
%ADD18C,0.152400*%
%ADD19C,0.127000*%
%ADD20C,0.066040*%
%ADD21C,0.304800*%
G04 APERTURE END LIST*
D10*
X78041571Y35266334D02*
X78422523Y35266334D01*
X77965380Y34980620D02*
X78232047Y35980620D01*
X78498714Y34980620D01*
X78727285Y35885381D02*
X78765380Y35933000D01*
X78841571Y35980620D01*
X79032047Y35980620D01*
X79108238Y35933000D01*
X79146333Y35885381D01*
X79184428Y35790143D01*
X79184428Y35694905D01*
X79146333Y35552048D01*
X78689190Y34980620D01*
X79184428Y34980620D01*
X78041571Y32853334D02*
X78422523Y32853334D01*
X77965380Y32567620D02*
X78232047Y33567620D01*
X78498714Y32567620D01*
X79184428Y32567620D02*
X78727285Y32567620D01*
X78955857Y32567620D02*
X78955857Y33567620D01*
X78879666Y33424762D01*
X78803476Y33329524D01*
X78727285Y33281905D01*
X77914571Y30440334D02*
X78295523Y30440334D01*
X77838380Y30154620D02*
X78105047Y31154620D01*
X78371714Y30154620D01*
X78790761Y31154620D02*
X78866952Y31154620D01*
X78943142Y31107000D01*
X78981238Y31059381D01*
X79019333Y30964143D01*
X79057428Y30773667D01*
X79057428Y30535572D01*
X79019333Y30345096D01*
X78981238Y30249858D01*
X78943142Y30202239D01*
X78866952Y30154620D01*
X78790761Y30154620D01*
X78714571Y30202239D01*
X78676476Y30249858D01*
X78638380Y30345096D01*
X78600285Y30535572D01*
X78600285Y30773667D01*
X78638380Y30964143D01*
X78676476Y31059381D01*
X78714571Y31107000D01*
X78790761Y31154620D01*
D11*
X47898142Y14836620D02*
X47898142Y15836620D01*
X48088619Y15836620D01*
X48202904Y15789000D01*
X48279095Y15693762D01*
X48317190Y15598524D01*
X48355285Y15408048D01*
X48355285Y15265191D01*
X48317190Y15074715D01*
X48279095Y14979477D01*
X48202904Y14884239D01*
X48088619Y14836620D01*
X47898142Y14836620D01*
X48698142Y14836620D02*
X48698142Y15836620D01*
X49231476Y15312810D02*
X49231476Y14836620D01*
X48964809Y15836620D02*
X49231476Y15312810D01*
X49498142Y15836620D01*
X45383857Y13136620D02*
X45383857Y14136620D01*
X46221952Y13136620D02*
X45955285Y13612810D01*
X45764809Y13136620D02*
X45764809Y14136620D01*
X46069571Y14136620D01*
X46145761Y14089000D01*
X46183857Y14041381D01*
X46221952Y13946143D01*
X46221952Y13803286D01*
X46183857Y13708048D01*
X46145761Y13660429D01*
X46069571Y13612810D01*
X45764809Y13612810D01*
X47021952Y13136620D02*
X46755285Y13612810D01*
X46564809Y13136620D02*
X46564809Y14136620D01*
X46869571Y14136620D01*
X46945761Y14089000D01*
X46983857Y14041381D01*
X47021952Y13946143D01*
X47021952Y13803286D01*
X46983857Y13708048D01*
X46945761Y13660429D01*
X46869571Y13612810D01*
X46564809Y13612810D01*
X47326714Y13422334D02*
X47707666Y13422334D01*
X47250523Y13136620D02*
X47517190Y14136620D01*
X47783857Y13136620D01*
X48050523Y13136620D02*
X48050523Y14136620D01*
X48241000Y14136620D01*
X48355285Y14089000D01*
X48431476Y13993762D01*
X48469571Y13898524D01*
X48507666Y13708048D01*
X48507666Y13565191D01*
X48469571Y13374715D01*
X48431476Y13279477D01*
X48355285Y13184239D01*
X48241000Y13136620D01*
X48050523Y13136620D01*
X48850523Y13136620D02*
X48850523Y14136620D01*
X49193380Y13422334D02*
X49574333Y13422334D01*
X49117190Y13136620D02*
X49383857Y14136620D01*
X49650523Y13136620D01*
X49917190Y13136620D02*
X49917190Y14136620D01*
X50374333Y13136620D01*
X50374333Y14136620D01*
X51212428Y13231858D02*
X51174333Y13184239D01*
X51060047Y13136620D01*
X50983857Y13136620D01*
X50869571Y13184239D01*
X50793380Y13279477D01*
X50755285Y13374715D01*
X50717190Y13565191D01*
X50717190Y13708048D01*
X50755285Y13898524D01*
X50793380Y13993762D01*
X50869571Y14089000D01*
X50983857Y14136620D01*
X51060047Y14136620D01*
X51174333Y14089000D01*
X51212428Y14041381D01*
X51555285Y13660429D02*
X51821952Y13660429D01*
X51936238Y13136620D02*
X51555285Y13136620D01*
X51555285Y14136620D01*
X51936238Y14136620D01*
X46431476Y11484239D02*
X46545761Y11436620D01*
X46736238Y11436620D01*
X46812428Y11484239D01*
X46850523Y11531858D01*
X46888619Y11627096D01*
X46888619Y11722334D01*
X46850523Y11817572D01*
X46812428Y11865191D01*
X46736238Y11912810D01*
X46583857Y11960429D01*
X46507666Y12008048D01*
X46469571Y12055667D01*
X46431476Y12150905D01*
X46431476Y12246143D01*
X46469571Y12341381D01*
X46507666Y12389000D01*
X46583857Y12436620D01*
X46774333Y12436620D01*
X46888619Y12389000D01*
X47231476Y11960429D02*
X47498142Y11960429D01*
X47612428Y11436620D02*
X47231476Y11436620D01*
X47231476Y12436620D01*
X47612428Y12436620D01*
X47955285Y11436620D02*
X47955285Y12436620D01*
X48412428Y11436620D01*
X48412428Y12436620D01*
X48755285Y11484239D02*
X48869571Y11436620D01*
X49060047Y11436620D01*
X49136238Y11484239D01*
X49174333Y11531858D01*
X49212428Y11627096D01*
X49212428Y11722334D01*
X49174333Y11817572D01*
X49136238Y11865191D01*
X49060047Y11912810D01*
X48907666Y11960429D01*
X48831476Y12008048D01*
X48793380Y12055667D01*
X48755285Y12150905D01*
X48755285Y12246143D01*
X48793380Y12341381D01*
X48831476Y12389000D01*
X48907666Y12436620D01*
X49098142Y12436620D01*
X49212428Y12389000D01*
X49707666Y12436620D02*
X49860047Y12436620D01*
X49936238Y12389000D01*
X50012428Y12293762D01*
X50050523Y12103286D01*
X50050523Y11769953D01*
X50012428Y11579477D01*
X49936238Y11484239D01*
X49860047Y11436620D01*
X49707666Y11436620D01*
X49631476Y11484239D01*
X49555285Y11579477D01*
X49517190Y11769953D01*
X49517190Y12103286D01*
X49555285Y12293762D01*
X49631476Y12389000D01*
X49707666Y12436620D01*
X50850523Y11436620D02*
X50583857Y11912810D01*
X50393380Y11436620D02*
X50393380Y12436620D01*
X50698142Y12436620D01*
X50774333Y12389000D01*
X50812428Y12341381D01*
X50850523Y12246143D01*
X50850523Y12103286D01*
X50812428Y12008048D01*
X50774333Y11960429D01*
X50698142Y11912810D01*
X50393380Y11912810D01*
X65667000Y10312477D02*
X65619380Y10236286D01*
X65619380Y10122000D01*
X65667000Y10007715D01*
X65762238Y9931524D01*
X65857476Y9893429D01*
X66047952Y9855334D01*
X66190809Y9855334D01*
X66381285Y9893429D01*
X66476523Y9931524D01*
X66571761Y10007715D01*
X66619380Y10122000D01*
X66619380Y10198191D01*
X66571761Y10312477D01*
X66524142Y10350572D01*
X66190809Y10350572D01*
X66190809Y10198191D01*
X66619380Y10693429D02*
X65619380Y10693429D01*
X66619380Y11150572D01*
X65619380Y11150572D01*
X66619380Y11531524D02*
X65619380Y11531524D01*
X65619380Y11722000D01*
X65667000Y11836286D01*
X65762238Y11912477D01*
X65857476Y11950572D01*
X66047952Y11988667D01*
X66190809Y11988667D01*
X66381285Y11950572D01*
X66476523Y11912477D01*
X66571761Y11836286D01*
X66619380Y11722000D01*
X66619380Y11531524D01*
X57594571Y10560858D02*
X58737428Y10560858D01*
X58166000Y9989429D02*
X58166000Y11132286D01*
X54152809Y10088620D02*
X53886142Y10564810D01*
X53695666Y10088620D02*
X53695666Y11088620D01*
X54000428Y11088620D01*
X54076619Y11041000D01*
X54114714Y10993381D01*
X54152809Y10898143D01*
X54152809Y10755286D01*
X54114714Y10660048D01*
X54076619Y10612429D01*
X54000428Y10564810D01*
X53695666Y10564810D01*
X54419476Y10088620D02*
X54838523Y10755286D01*
X54419476Y10755286D02*
X54838523Y10088620D01*
X49104619Y11088620D02*
X49561761Y11088620D01*
X49333190Y10088620D02*
X49333190Y11088620D01*
X49752238Y10088620D02*
X50171285Y10755286D01*
X49752238Y10755286D02*
X50171285Y10088620D01*
X53092571Y16145620D02*
X53092571Y17145620D01*
X53397333Y17145620D01*
X53473523Y17098000D01*
X53511619Y17050381D01*
X53549714Y16955143D01*
X53549714Y16812286D01*
X53511619Y16717048D01*
X53473523Y16669429D01*
X53397333Y16621810D01*
X53092571Y16621810D01*
X53892571Y16145620D02*
X53892571Y17145620D01*
X53892571Y16669429D02*
X54349714Y16669429D01*
X54349714Y16145620D02*
X54349714Y17145620D01*
X54883047Y17145620D02*
X55035428Y17145620D01*
X55111619Y17098000D01*
X55187809Y17002762D01*
X55225904Y16812286D01*
X55225904Y16478953D01*
X55187809Y16288477D01*
X55111619Y16193239D01*
X55035428Y16145620D01*
X54883047Y16145620D01*
X54806857Y16193239D01*
X54730666Y16288477D01*
X54692571Y16478953D01*
X54692571Y16812286D01*
X54730666Y17002762D01*
X54806857Y17098000D01*
X54883047Y17145620D01*
X55454476Y17145620D02*
X55911619Y17145620D01*
X55683047Y16145620D02*
X55683047Y17145620D01*
X56330666Y17145620D02*
X56483047Y17145620D01*
X56559238Y17098000D01*
X56635428Y17002762D01*
X56673523Y16812286D01*
X56673523Y16478953D01*
X56635428Y16288477D01*
X56559238Y16193239D01*
X56483047Y16145620D01*
X56330666Y16145620D01*
X56254476Y16193239D01*
X56178285Y16288477D01*
X56140190Y16478953D01*
X56140190Y16812286D01*
X56178285Y17002762D01*
X56254476Y17098000D01*
X56330666Y17145620D01*
X53283047Y14445620D02*
X53283047Y15445620D01*
X53473523Y15445620D01*
X53587809Y15398000D01*
X53664000Y15302762D01*
X53702095Y15207524D01*
X53740190Y15017048D01*
X53740190Y14874191D01*
X53702095Y14683715D01*
X53664000Y14588477D01*
X53587809Y14493239D01*
X53473523Y14445620D01*
X53283047Y14445620D01*
X54083047Y14445620D02*
X54083047Y15445620D01*
X54616380Y15445620D02*
X54768761Y15445620D01*
X54844952Y15398000D01*
X54921142Y15302762D01*
X54959238Y15112286D01*
X54959238Y14778953D01*
X54921142Y14588477D01*
X54844952Y14493239D01*
X54768761Y14445620D01*
X54616380Y14445620D01*
X54540190Y14493239D01*
X54464000Y14588477D01*
X54425904Y14778953D01*
X54425904Y15112286D01*
X54464000Y15302762D01*
X54540190Y15398000D01*
X54616380Y15445620D01*
X55302095Y14445620D02*
X55302095Y15445620D01*
X55492571Y15445620D01*
X55606857Y15398000D01*
X55683047Y15302762D01*
X55721142Y15207524D01*
X55759238Y15017048D01*
X55759238Y14874191D01*
X55721142Y14683715D01*
X55683047Y14588477D01*
X55606857Y14493239D01*
X55492571Y14445620D01*
X55302095Y14445620D01*
X56102095Y14969429D02*
X56368761Y14969429D01*
X56483047Y14445620D02*
X56102095Y14445620D01*
X56102095Y15445620D01*
X56483047Y15445620D01*
%TO.C,U4*%
X68323447Y24714200D02*
G75*
G03*
X68323447Y24714200I-251447J0D01*
G01*
X66869355Y26353600D02*
G75*
G03*
X66869355Y26353600I-360555J0D01*
G01*
X67310000Y19050000D02*
X73660000Y19050000D01*
X67310000Y24638000D02*
X67310000Y19050000D01*
X67818000Y25273000D02*
X67310000Y24638000D01*
X73660000Y25273000D02*
X67818000Y25273000D01*
X73660000Y19050000D02*
X73660000Y25273000D01*
D12*
%TO.C,D1*%
X59359800Y19050000D02*
X59359800Y22860000D01*
D13*
X59306997Y22862668D02*
G75*
G03*
X59309000Y19050000I-2537997J-1907668D01*
G01*
D14*
%TO.C,P6*%
G36*
X38547358Y4318942D02*
G01*
X38883664Y4261984D01*
X39212564Y4166815D01*
X39530521Y4033449D01*
X39833997Y3861896D01*
X39857490Y3846558D01*
X40144262Y3632566D01*
X40400748Y3389612D01*
X40625691Y3119546D01*
X40817833Y2824216D01*
X40975919Y2505472D01*
X41098692Y2165164D01*
X41159681Y1930036D01*
X41185412Y1773782D01*
X41201701Y1588580D01*
X41208571Y1386745D01*
X41206045Y1180589D01*
X41194147Y982426D01*
X41172899Y804571D01*
X41157391Y720584D01*
X41061617Y372470D01*
X40929487Y44323D01*
X40762972Y-261864D01*
X40564044Y-544097D01*
X40334675Y-800384D01*
X40076837Y-1028731D01*
X39792502Y-1227144D01*
X39483641Y-1393631D01*
X39152227Y-1526199D01*
X38850242Y-1611658D01*
X38738374Y-1631219D01*
X38595514Y-1646686D01*
X38432569Y-1657760D01*
X38260447Y-1664144D01*
X38090055Y-1665540D01*
X37932303Y-1661650D01*
X37798097Y-1652177D01*
X37725666Y-1642360D01*
X37371005Y-1558929D01*
X37035560Y-1438843D01*
X36721347Y-1284034D01*
X36430385Y-1096436D01*
X36164692Y-877980D01*
X35926283Y-630598D01*
X35717178Y-356224D01*
X35539392Y-56788D01*
X35394944Y265775D01*
X35285852Y609535D01*
X35259623Y719667D01*
X35238998Y844291D01*
X35223769Y999029D01*
X35214210Y1171974D01*
X35213642Y1200159D01*
X35379821Y1200159D01*
X35414727Y860193D01*
X35463478Y625827D01*
X35565770Y306469D01*
X35704820Y4679D01*
X35877821Y-277038D01*
X36081969Y-536179D01*
X36314457Y-770237D01*
X36572480Y-976708D01*
X36853232Y-1153087D01*
X37153908Y-1296870D01*
X37471703Y-1405552D01*
X37803810Y-1476629D01*
X37821362Y-1479241D01*
X37945888Y-1491772D01*
X38096862Y-1498424D01*
X38258802Y-1499157D01*
X38416228Y-1493928D01*
X38553656Y-1482698D01*
X38566015Y-1481205D01*
X38896487Y-1418956D01*
X39213787Y-1318186D01*
X39515081Y-1181429D01*
X39797533Y-1011217D01*
X40058307Y-810081D01*
X40294566Y-580554D01*
X40503474Y-325168D01*
X40682197Y-46456D01*
X40827897Y253050D01*
X40937739Y570818D01*
X40960198Y656622D01*
X40997726Y841562D01*
X41024996Y1041209D01*
X41040518Y1239806D01*
X41042797Y1421594D01*
X41039266Y1491588D01*
X40992885Y1847253D01*
X40908456Y2184700D01*
X40786210Y2503420D01*
X40626377Y2802904D01*
X40429190Y3082643D01*
X40205005Y3332100D01*
X39948756Y3560653D01*
X39676008Y3751851D01*
X39383403Y3907509D01*
X39067584Y4029440D01*
X38762833Y4111378D01*
X38596543Y4138358D01*
X38402948Y4154077D01*
X38195544Y4158557D01*
X37987828Y4151823D01*
X37793295Y4133895D01*
X37646637Y4109501D01*
X37312197Y4017466D01*
X36995794Y3888892D01*
X36699966Y3726042D01*
X36427254Y3531179D01*
X36180195Y3306565D01*
X35961330Y3054462D01*
X35773198Y2777134D01*
X35618338Y2476842D01*
X35516936Y2211917D01*
X35431108Y1881452D01*
X35385342Y1542389D01*
X35379821Y1200159D01*
X35213642Y1200159D01*
X35210592Y1351217D01*
X35213191Y1524851D01*
X35222278Y1680967D01*
X35235077Y1789547D01*
X35310474Y2134292D01*
X35424035Y2465497D01*
X35573614Y2779845D01*
X35757069Y3074019D01*
X35972254Y3344701D01*
X36217024Y3588576D01*
X36489236Y3802325D01*
X36572083Y3857612D01*
X36878542Y4030164D01*
X37198819Y4164435D01*
X37529377Y4260437D01*
X37866677Y4318180D01*
X38207184Y4337678D01*
X38547358Y4318942D01*
G37*
X38547358Y4318942D02*
X38883664Y4261984D01*
X39212564Y4166815D01*
X39530521Y4033449D01*
X39833997Y3861896D01*
X39857490Y3846558D01*
X40144262Y3632566D01*
X40400748Y3389612D01*
X40625691Y3119546D01*
X40817833Y2824216D01*
X40975919Y2505472D01*
X41098692Y2165164D01*
X41159681Y1930036D01*
X41185412Y1773782D01*
X41201701Y1588580D01*
X41208571Y1386745D01*
X41206045Y1180589D01*
X41194147Y982426D01*
X41172899Y804571D01*
X41157391Y720584D01*
X41061617Y372470D01*
X40929487Y44323D01*
X40762972Y-261864D01*
X40564044Y-544097D01*
X40334675Y-800384D01*
X40076837Y-1028731D01*
X39792502Y-1227144D01*
X39483641Y-1393631D01*
X39152227Y-1526199D01*
X38850242Y-1611658D01*
X38738374Y-1631219D01*
X38595514Y-1646686D01*
X38432569Y-1657760D01*
X38260447Y-1664144D01*
X38090055Y-1665540D01*
X37932303Y-1661650D01*
X37798097Y-1652177D01*
X37725666Y-1642360D01*
X37371005Y-1558929D01*
X37035560Y-1438843D01*
X36721347Y-1284034D01*
X36430385Y-1096436D01*
X36164692Y-877980D01*
X35926283Y-630598D01*
X35717178Y-356224D01*
X35539392Y-56788D01*
X35394944Y265775D01*
X35285852Y609535D01*
X35259623Y719667D01*
X35238998Y844291D01*
X35223769Y999029D01*
X35214210Y1171974D01*
X35213642Y1200159D01*
X35379821Y1200159D01*
X35414727Y860193D01*
X35463478Y625827D01*
X35565770Y306469D01*
X35704820Y4679D01*
X35877821Y-277038D01*
X36081969Y-536179D01*
X36314457Y-770237D01*
X36572480Y-976708D01*
X36853232Y-1153087D01*
X37153908Y-1296870D01*
X37471703Y-1405552D01*
X37803810Y-1476629D01*
X37821362Y-1479241D01*
X37945888Y-1491772D01*
X38096862Y-1498424D01*
X38258802Y-1499157D01*
X38416228Y-1493928D01*
X38553656Y-1482698D01*
X38566015Y-1481205D01*
X38896487Y-1418956D01*
X39213787Y-1318186D01*
X39515081Y-1181429D01*
X39797533Y-1011217D01*
X40058307Y-810081D01*
X40294566Y-580554D01*
X40503474Y-325168D01*
X40682197Y-46456D01*
X40827897Y253050D01*
X40937739Y570818D01*
X40960198Y656622D01*
X40997726Y841562D01*
X41024996Y1041209D01*
X41040518Y1239806D01*
X41042797Y1421594D01*
X41039266Y1491588D01*
X40992885Y1847253D01*
X40908456Y2184700D01*
X40786210Y2503420D01*
X40626377Y2802904D01*
X40429190Y3082643D01*
X40205005Y3332100D01*
X39948756Y3560653D01*
X39676008Y3751851D01*
X39383403Y3907509D01*
X39067584Y4029440D01*
X38762833Y4111378D01*
X38596543Y4138358D01*
X38402948Y4154077D01*
X38195544Y4158557D01*
X37987828Y4151823D01*
X37793295Y4133895D01*
X37646637Y4109501D01*
X37312197Y4017466D01*
X36995794Y3888892D01*
X36699966Y3726042D01*
X36427254Y3531179D01*
X36180195Y3306565D01*
X35961330Y3054462D01*
X35773198Y2777134D01*
X35618338Y2476842D01*
X35516936Y2211917D01*
X35431108Y1881452D01*
X35385342Y1542389D01*
X35379821Y1200159D01*
X35213642Y1200159D01*
X35210592Y1351217D01*
X35213191Y1524851D01*
X35222278Y1680967D01*
X35235077Y1789547D01*
X35310474Y2134292D01*
X35424035Y2465497D01*
X35573614Y2779845D01*
X35757069Y3074019D01*
X35972254Y3344701D01*
X36217024Y3588576D01*
X36489236Y3802325D01*
X36572083Y3857612D01*
X36878542Y4030164D01*
X37198819Y4164435D01*
X37529377Y4260437D01*
X37866677Y4318180D01*
X38207184Y4337678D01*
X38547358Y4318942D01*
G36*
X76639001Y4308802D02*
G01*
X76976331Y4240534D01*
X77307709Y4132639D01*
X77590512Y4005187D01*
X77892944Y3826646D01*
X78169664Y3615822D01*
X78418663Y3375511D01*
X78637930Y3108507D01*
X78825457Y2817605D01*
X78979232Y2505599D01*
X79097246Y2175285D01*
X79177489Y1829455D01*
X79184089Y1789547D01*
X79198819Y1657257D01*
X79206832Y1497479D01*
X79208401Y1322121D01*
X79203798Y1143092D01*
X79193298Y972298D01*
X79177172Y821649D01*
X79159543Y719667D01*
X79062775Y373818D01*
X78929870Y46695D01*
X78762994Y-259355D01*
X78564316Y-541987D01*
X78336004Y-798857D01*
X78080226Y-1027619D01*
X77799150Y-1225929D01*
X77494944Y-1391440D01*
X77169776Y-1521808D01*
X77053964Y-1557962D01*
X76813658Y-1617141D01*
X76574103Y-1653264D01*
X76319342Y-1668394D01*
X76196083Y-1668910D01*
X76082662Y-1667195D01*
X75979489Y-1664661D01*
X75896459Y-1661616D01*
X75843465Y-1658374D01*
X75836250Y-1657593D01*
X75492445Y-1592279D01*
X75160502Y-1488226D01*
X74843765Y-1347711D01*
X74545580Y-1173007D01*
X74269291Y-966390D01*
X74018243Y-730135D01*
X73795782Y-466519D01*
X73605252Y-177815D01*
X73571039Y-116835D01*
X73466205Y98956D01*
X73372191Y337713D01*
X73296092Y580236D01*
X73261961Y719673D01*
X73235517Y881867D01*
X73218452Y1070987D01*
X73210911Y1271523D01*
X73382837Y1271523D01*
X73391370Y1070299D01*
X73410554Y886666D01*
X73429698Y778644D01*
X73525070Y434312D01*
X73655813Y111636D01*
X73820319Y-187588D01*
X74016980Y-461563D01*
X74244189Y-708492D01*
X74500338Y-926577D01*
X74783819Y-1114021D01*
X75093023Y-1269028D01*
X75347973Y-1365261D01*
X75630051Y-1439881D01*
X75927444Y-1486011D01*
X76227007Y-1502425D01*
X76515592Y-1487901D01*
X76579895Y-1479936D01*
X76919329Y-1412149D01*
X77242084Y-1306861D01*
X77545867Y-1166380D01*
X77828388Y-993018D01*
X78087356Y-789085D01*
X78320479Y-556892D01*
X78525467Y-298748D01*
X78700028Y-16965D01*
X78841872Y286148D01*
X78948707Y608279D01*
X79018242Y947119D01*
X79023376Y984250D01*
X79035338Y1123932D01*
X79039261Y1288571D01*
X79035646Y1464008D01*
X79024995Y1636086D01*
X79007809Y1790649D01*
X78991522Y1883834D01*
X78898005Y2223857D01*
X78768371Y2544326D01*
X78604326Y2842985D01*
X78407578Y3117582D01*
X78179833Y3365861D01*
X77922800Y3585569D01*
X77638185Y3774451D01*
X77504243Y3847424D01*
X77261839Y3961115D01*
X77032140Y4045860D01*
X76803221Y4104491D01*
X76563156Y4139842D01*
X76300022Y4154744D01*
X76206666Y4155658D01*
X75996786Y4151333D01*
X75814296Y4136801D01*
X75644986Y4109710D01*
X75474650Y4067714D01*
X75289079Y4008463D01*
X75264750Y3999954D01*
X74953182Y3868151D01*
X74662357Y3701025D01*
X74394701Y3501415D01*
X74152639Y3272165D01*
X73938598Y3016115D01*
X73755001Y2736105D01*
X73604275Y2434979D01*
X73488846Y2115576D01*
X73422133Y1841500D01*
X73398119Y1671049D01*
X73385053Y1476415D01*
X73382837Y1271523D01*
X73210911Y1271523D01*
X73210790Y1274717D01*
X73212558Y1480744D01*
X73223779Y1676752D01*
X73244479Y1850426D01*
X73259485Y1930036D01*
X73356082Y2281245D01*
X73485285Y2606429D01*
X73648552Y2908226D01*
X73847337Y3189275D01*
X74083098Y3452217D01*
X74118286Y3486907D01*
X74385574Y3718095D01*
X74673055Y3913558D01*
X74977463Y4072809D01*
X75295528Y4195359D01*
X75623983Y4280722D01*
X75959559Y4328408D01*
X76298987Y4337931D01*
X76639001Y4308802D01*
G37*
X76639001Y4308802D02*
X76976331Y4240534D01*
X77307709Y4132639D01*
X77590512Y4005187D01*
X77892944Y3826646D01*
X78169664Y3615822D01*
X78418663Y3375511D01*
X78637930Y3108507D01*
X78825457Y2817605D01*
X78979232Y2505599D01*
X79097246Y2175285D01*
X79177489Y1829455D01*
X79184089Y1789547D01*
X79198819Y1657257D01*
X79206832Y1497479D01*
X79208401Y1322121D01*
X79203798Y1143092D01*
X79193298Y972298D01*
X79177172Y821649D01*
X79159543Y719667D01*
X79062775Y373818D01*
X78929870Y46695D01*
X78762994Y-259355D01*
X78564316Y-541987D01*
X78336004Y-798857D01*
X78080226Y-1027619D01*
X77799150Y-1225929D01*
X77494944Y-1391440D01*
X77169776Y-1521808D01*
X77053964Y-1557962D01*
X76813658Y-1617141D01*
X76574103Y-1653264D01*
X76319342Y-1668394D01*
X76196083Y-1668910D01*
X76082662Y-1667195D01*
X75979489Y-1664661D01*
X75896459Y-1661616D01*
X75843465Y-1658374D01*
X75836250Y-1657593D01*
X75492445Y-1592279D01*
X75160502Y-1488226D01*
X74843765Y-1347711D01*
X74545580Y-1173007D01*
X74269291Y-966390D01*
X74018243Y-730135D01*
X73795782Y-466519D01*
X73605252Y-177815D01*
X73571039Y-116835D01*
X73466205Y98956D01*
X73372191Y337713D01*
X73296092Y580236D01*
X73261961Y719673D01*
X73235517Y881867D01*
X73218452Y1070987D01*
X73210911Y1271523D01*
X73382837Y1271523D01*
X73391370Y1070299D01*
X73410554Y886666D01*
X73429698Y778644D01*
X73525070Y434312D01*
X73655813Y111636D01*
X73820319Y-187588D01*
X74016980Y-461563D01*
X74244189Y-708492D01*
X74500338Y-926577D01*
X74783819Y-1114021D01*
X75093023Y-1269028D01*
X75347973Y-1365261D01*
X75630051Y-1439881D01*
X75927444Y-1486011D01*
X76227007Y-1502425D01*
X76515592Y-1487901D01*
X76579895Y-1479936D01*
X76919329Y-1412149D01*
X77242084Y-1306861D01*
X77545867Y-1166380D01*
X77828388Y-993018D01*
X78087356Y-789085D01*
X78320479Y-556892D01*
X78525467Y-298748D01*
X78700028Y-16965D01*
X78841872Y286148D01*
X78948707Y608279D01*
X79018242Y947119D01*
X79023376Y984250D01*
X79035338Y1123932D01*
X79039261Y1288571D01*
X79035646Y1464008D01*
X79024995Y1636086D01*
X79007809Y1790649D01*
X78991522Y1883834D01*
X78898005Y2223857D01*
X78768371Y2544326D01*
X78604326Y2842985D01*
X78407578Y3117582D01*
X78179833Y3365861D01*
X77922800Y3585569D01*
X77638185Y3774451D01*
X77504243Y3847424D01*
X77261839Y3961115D01*
X77032140Y4045860D01*
X76803221Y4104491D01*
X76563156Y4139842D01*
X76300022Y4154744D01*
X76206666Y4155658D01*
X75996786Y4151333D01*
X75814296Y4136801D01*
X75644986Y4109710D01*
X75474650Y4067714D01*
X75289079Y4008463D01*
X75264750Y3999954D01*
X74953182Y3868151D01*
X74662357Y3701025D01*
X74394701Y3501415D01*
X74152639Y3272165D01*
X73938598Y3016115D01*
X73755001Y2736105D01*
X73604275Y2434979D01*
X73488846Y2115576D01*
X73422133Y1841500D01*
X73398119Y1671049D01*
X73385053Y1476415D01*
X73382837Y1271523D01*
X73210911Y1271523D01*
X73210790Y1274717D01*
X73212558Y1480744D01*
X73223779Y1676752D01*
X73244479Y1850426D01*
X73259485Y1930036D01*
X73356082Y2281245D01*
X73485285Y2606429D01*
X73648552Y2908226D01*
X73847337Y3189275D01*
X74083098Y3452217D01*
X74118286Y3486907D01*
X74385574Y3718095D01*
X74673055Y3913558D01*
X74977463Y4072809D01*
X75295528Y4195359D01*
X75623983Y4280722D01*
X75959559Y4328408D01*
X76298987Y4337931D01*
X76639001Y4308802D01*
G36*
X38518959Y42320036D02*
G01*
X38813715Y42279136D01*
X39094561Y42208366D01*
X39371435Y42105546D01*
X39496040Y42048882D01*
X39815178Y41873533D01*
X40105259Y41667821D01*
X40365114Y41433232D01*
X40593574Y41171255D01*
X40789470Y40883375D01*
X40951631Y40571080D01*
X41078890Y40235856D01*
X41158548Y39934905D01*
X41184200Y39776962D01*
X41200773Y39591435D01*
X41208254Y39390627D01*
X41206632Y39186842D01*
X41195895Y38992382D01*
X41176033Y38819551D01*
X41159681Y38731132D01*
X41060254Y38374435D01*
X40924509Y38037572D01*
X40753411Y37722804D01*
X40684380Y37616846D01*
X40607865Y37515871D01*
X40506333Y37398045D01*
X40388298Y37271893D01*
X40262275Y37145943D01*
X40136778Y37028722D01*
X40020321Y36928757D01*
X39927000Y36858345D01*
X39651346Y36692756D01*
X39350471Y36552432D01*
X39036289Y36442317D01*
X38762833Y36375219D01*
X38641483Y36357259D01*
X38491219Y36343596D01*
X38325285Y36334666D01*
X38156924Y36330909D01*
X37999379Y36332762D01*
X37865894Y36340663D01*
X37831530Y36344402D01*
X37489567Y36407844D01*
X37161678Y36509524D01*
X36850377Y36646955D01*
X36558178Y36817650D01*
X36287596Y37019121D01*
X36041145Y37248884D01*
X35821338Y37504449D01*
X35630692Y37783331D01*
X35471719Y38083042D01*
X35346933Y38401097D01*
X35258851Y38735007D01*
X35227578Y38919962D01*
X35214267Y39066965D01*
X35209352Y39243410D01*
X35382506Y39243410D01*
X35382520Y39243000D01*
X35402871Y38960211D01*
X35445644Y38701979D01*
X35514149Y38455089D01*
X35611697Y38206325D01*
X35676735Y38068333D01*
X35845519Y37774757D01*
X36047599Y37505144D01*
X36279750Y37262048D01*
X36538747Y37048027D01*
X36821364Y36865635D01*
X37124374Y36717429D01*
X37444554Y36605964D01*
X37560010Y36576120D01*
X37884751Y36519378D01*
X38214016Y36499900D01*
X38538724Y36517925D01*
X38721213Y36545624D01*
X39047180Y36625584D01*
X39350113Y36738431D01*
X39634050Y36886322D01*
X39903027Y37071414D01*
X40161081Y37295863D01*
X40203598Y37337534D01*
X40430903Y37587848D01*
X40619635Y37849147D01*
X40772493Y38126499D01*
X40892170Y38424976D01*
X40981364Y38749646D01*
X40998708Y38832918D01*
X41019576Y38978720D01*
X41032108Y39151989D01*
X41036301Y39338895D01*
X41032147Y39525606D01*
X41019641Y39698290D01*
X40999121Y39841380D01*
X40911562Y40181148D01*
X40787286Y40501909D01*
X40628423Y40801489D01*
X40437099Y41077711D01*
X40215444Y41328400D01*
X39965585Y41551380D01*
X39689649Y41744476D01*
X39389766Y41905511D01*
X39068063Y42032310D01*
X38778671Y42111630D01*
X38649661Y42133073D01*
X38491678Y42148299D01*
X38317670Y42157000D01*
X38140584Y42158872D01*
X37973364Y42153605D01*
X37828959Y42140895D01*
X37788914Y42135080D01*
X37470971Y42064750D01*
X37161840Y41960901D01*
X36869668Y41826932D01*
X36602605Y41666238D01*
X36517589Y41605076D01*
X36251435Y41378943D01*
X36018263Y41127824D01*
X35819335Y40854343D01*
X35655912Y40561127D01*
X35529256Y40250800D01*
X35440629Y39925988D01*
X35391291Y39589316D01*
X35382506Y39243410D01*
X35209352Y39243410D01*
X35209186Y39249346D01*
X35212467Y39459712D01*
X35232210Y39739632D01*
X35273517Y39996351D01*
X35339426Y40244731D01*
X35417033Y40460323D01*
X35564187Y40772750D01*
X35746883Y41064890D01*
X35962125Y41333977D01*
X36206917Y41577242D01*
X36478264Y41791921D01*
X36773169Y41975245D01*
X37088638Y42124448D01*
X37302333Y42201514D01*
X37544364Y42267516D01*
X37786285Y42309723D01*
X38043044Y42330328D01*
X38200354Y42333249D01*
X38518959Y42320036D01*
G37*
X38518959Y42320036D02*
X38813715Y42279136D01*
X39094561Y42208366D01*
X39371435Y42105546D01*
X39496040Y42048882D01*
X39815178Y41873533D01*
X40105259Y41667821D01*
X40365114Y41433232D01*
X40593574Y41171255D01*
X40789470Y40883375D01*
X40951631Y40571080D01*
X41078890Y40235856D01*
X41158548Y39934905D01*
X41184200Y39776962D01*
X41200773Y39591435D01*
X41208254Y39390627D01*
X41206632Y39186842D01*
X41195895Y38992382D01*
X41176033Y38819551D01*
X41159681Y38731132D01*
X41060254Y38374435D01*
X40924509Y38037572D01*
X40753411Y37722804D01*
X40684380Y37616846D01*
X40607865Y37515871D01*
X40506333Y37398045D01*
X40388298Y37271893D01*
X40262275Y37145943D01*
X40136778Y37028722D01*
X40020321Y36928757D01*
X39927000Y36858345D01*
X39651346Y36692756D01*
X39350471Y36552432D01*
X39036289Y36442317D01*
X38762833Y36375219D01*
X38641483Y36357259D01*
X38491219Y36343596D01*
X38325285Y36334666D01*
X38156924Y36330909D01*
X37999379Y36332762D01*
X37865894Y36340663D01*
X37831530Y36344402D01*
X37489567Y36407844D01*
X37161678Y36509524D01*
X36850377Y36646955D01*
X36558178Y36817650D01*
X36287596Y37019121D01*
X36041145Y37248884D01*
X35821338Y37504449D01*
X35630692Y37783331D01*
X35471719Y38083042D01*
X35346933Y38401097D01*
X35258851Y38735007D01*
X35227578Y38919962D01*
X35214267Y39066965D01*
X35209352Y39243410D01*
X35382506Y39243410D01*
X35382520Y39243000D01*
X35402871Y38960211D01*
X35445644Y38701979D01*
X35514149Y38455089D01*
X35611697Y38206325D01*
X35676735Y38068333D01*
X35845519Y37774757D01*
X36047599Y37505144D01*
X36279750Y37262048D01*
X36538747Y37048027D01*
X36821364Y36865635D01*
X37124374Y36717429D01*
X37444554Y36605964D01*
X37560010Y36576120D01*
X37884751Y36519378D01*
X38214016Y36499900D01*
X38538724Y36517925D01*
X38721213Y36545624D01*
X39047180Y36625584D01*
X39350113Y36738431D01*
X39634050Y36886322D01*
X39903027Y37071414D01*
X40161081Y37295863D01*
X40203598Y37337534D01*
X40430903Y37587848D01*
X40619635Y37849147D01*
X40772493Y38126499D01*
X40892170Y38424976D01*
X40981364Y38749646D01*
X40998708Y38832918D01*
X41019576Y38978720D01*
X41032108Y39151989D01*
X41036301Y39338895D01*
X41032147Y39525606D01*
X41019641Y39698290D01*
X40999121Y39841380D01*
X40911562Y40181148D01*
X40787286Y40501909D01*
X40628423Y40801489D01*
X40437099Y41077711D01*
X40215444Y41328400D01*
X39965585Y41551380D01*
X39689649Y41744476D01*
X39389766Y41905511D01*
X39068063Y42032310D01*
X38778671Y42111630D01*
X38649661Y42133073D01*
X38491678Y42148299D01*
X38317670Y42157000D01*
X38140584Y42158872D01*
X37973364Y42153605D01*
X37828959Y42140895D01*
X37788914Y42135080D01*
X37470971Y42064750D01*
X37161840Y41960901D01*
X36869668Y41826932D01*
X36602605Y41666238D01*
X36517589Y41605076D01*
X36251435Y41378943D01*
X36018263Y41127824D01*
X35819335Y40854343D01*
X35655912Y40561127D01*
X35529256Y40250800D01*
X35440629Y39925988D01*
X35391291Y39589316D01*
X35382506Y39243410D01*
X35209352Y39243410D01*
X35209186Y39249346D01*
X35212467Y39459712D01*
X35232210Y39739632D01*
X35273517Y39996351D01*
X35339426Y40244731D01*
X35417033Y40460323D01*
X35564187Y40772750D01*
X35746883Y41064890D01*
X35962125Y41333977D01*
X36206917Y41577242D01*
X36478264Y41791921D01*
X36773169Y41975245D01*
X37088638Y42124448D01*
X37302333Y42201514D01*
X37544364Y42267516D01*
X37786285Y42309723D01*
X38043044Y42330328D01*
X38200354Y42333249D01*
X38518959Y42320036D01*
G36*
X76413473Y42326838D02*
G01*
X76574123Y42317170D01*
X76697073Y42302216D01*
X77047451Y42223211D01*
X77379976Y42105938D01*
X77693607Y41950931D01*
X77987304Y41758724D01*
X78260026Y41529850D01*
X78324925Y41466848D01*
X78548120Y41223573D01*
X78734318Y40974412D01*
X78887860Y40711736D01*
X79013084Y40427916D01*
X79114333Y40115324D01*
X79132373Y40047573D01*
X79158413Y39939928D01*
X79177147Y39843302D01*
X79190177Y39745007D01*
X79199109Y39632350D01*
X79205548Y39492640D01*
X79206698Y39459712D01*
X79206093Y39148183D01*
X79180951Y38863010D01*
X79129374Y38594778D01*
X79049461Y38334070D01*
X78939314Y38071470D01*
X78917423Y38025917D01*
X78741189Y37711769D01*
X78533827Y37424727D01*
X78297576Y37166610D01*
X78034678Y36939236D01*
X77747373Y36744426D01*
X77437901Y36583998D01*
X77108504Y36459773D01*
X76926333Y36409166D01*
X76662655Y36358751D01*
X76383288Y36330660D01*
X76104847Y36325881D01*
X75846833Y36345028D01*
X75498857Y36410548D01*
X75158561Y36515726D01*
X74832327Y36658145D01*
X74526537Y36835385D01*
X74492166Y36858438D01*
X74391984Y36934397D01*
X74274777Y37035606D01*
X74149054Y37153546D01*
X74023321Y37279699D01*
X73906084Y37405546D01*
X73805852Y37522570D01*
X73734785Y37616846D01*
X73551373Y37923231D01*
X73402973Y38252513D01*
X73290549Y38602430D01*
X73259485Y38731132D01*
X73234126Y38885023D01*
X73217900Y39067944D01*
X73210796Y39267593D01*
X73211445Y39333700D01*
X73382843Y39333700D01*
X73387360Y39146126D01*
X73400318Y38972450D01*
X73420813Y38831018D01*
X73507011Y38489475D01*
X73627257Y38172245D01*
X73782818Y37876856D01*
X73974964Y37600830D01*
X74161325Y37386562D01*
X74419025Y37145961D01*
X74697958Y36941540D01*
X74996439Y36774152D01*
X75312788Y36644649D01*
X75645321Y36553880D01*
X75885890Y36513961D01*
X76038674Y36502647D01*
X76217195Y36501648D01*
X76406309Y36510288D01*
X76590870Y36527890D01*
X76749394Y36552531D01*
X77081985Y36638187D01*
X77396678Y36760939D01*
X77691211Y36918542D01*
X77963322Y37108755D01*
X78210752Y37329334D01*
X78431237Y37578034D01*
X78622518Y37852614D01*
X78782333Y38150828D01*
X78908421Y38470435D01*
X78991805Y38777334D01*
X79014020Y38914231D01*
X79029287Y39079286D01*
X79037293Y39258846D01*
X79037725Y39439258D01*
X79030272Y39606870D01*
X79014620Y39748029D01*
X79014096Y39751252D01*
X78937087Y40099227D01*
X78823772Y40425504D01*
X78673961Y40730471D01*
X78487465Y41014514D01*
X78267354Y41274601D01*
X78023501Y41506001D01*
X77766075Y41700344D01*
X77489833Y41860702D01*
X77189531Y41990152D01*
X76884152Y42085470D01*
X76795160Y42108231D01*
X76720220Y42124924D01*
X76649776Y42136527D01*
X76574270Y42144018D01*
X76484146Y42148373D01*
X76369847Y42150570D01*
X76238416Y42151510D01*
X76073442Y42151170D01*
X75942263Y42148051D01*
X75836402Y42141632D01*
X75747380Y42131390D01*
X75666721Y42116802D01*
X75663544Y42116120D01*
X75322387Y42021775D01*
X75001576Y41891575D01*
X74703163Y41727601D01*
X74429201Y41531936D01*
X74181743Y41306659D01*
X73962842Y41053854D01*
X73774549Y40775600D01*
X73618919Y40473979D01*
X73498003Y40151073D01*
X73420044Y39841380D01*
X73399175Y39695171D01*
X73386778Y39521329D01*
X73382843Y39333700D01*
X73211445Y39333700D01*
X73212802Y39471667D01*
X73223906Y39667862D01*
X73244097Y39843875D01*
X73260618Y39934905D01*
X73356626Y40283607D01*
X73488986Y40612585D01*
X73655623Y40919752D01*
X73854460Y41203020D01*
X74083422Y41460299D01*
X74340430Y41689503D01*
X74623411Y41888543D01*
X74930287Y42055331D01*
X75258982Y42187778D01*
X75592833Y42280616D01*
X75720062Y42301701D01*
X75877506Y42317095D01*
X76053400Y42326570D01*
X76235977Y42329894D01*
X76413473Y42326838D01*
G37*
X76413473Y42326838D02*
X76574123Y42317170D01*
X76697073Y42302216D01*
X77047451Y42223211D01*
X77379976Y42105938D01*
X77693607Y41950931D01*
X77987304Y41758724D01*
X78260026Y41529850D01*
X78324925Y41466848D01*
X78548120Y41223573D01*
X78734318Y40974412D01*
X78887860Y40711736D01*
X79013084Y40427916D01*
X79114333Y40115324D01*
X79132373Y40047573D01*
X79158413Y39939928D01*
X79177147Y39843302D01*
X79190177Y39745007D01*
X79199109Y39632350D01*
X79205548Y39492640D01*
X79206698Y39459712D01*
X79206093Y39148183D01*
X79180951Y38863010D01*
X79129374Y38594778D01*
X79049461Y38334070D01*
X78939314Y38071470D01*
X78917423Y38025917D01*
X78741189Y37711769D01*
X78533827Y37424727D01*
X78297576Y37166610D01*
X78034678Y36939236D01*
X77747373Y36744426D01*
X77437901Y36583998D01*
X77108504Y36459773D01*
X76926333Y36409166D01*
X76662655Y36358751D01*
X76383288Y36330660D01*
X76104847Y36325881D01*
X75846833Y36345028D01*
X75498857Y36410548D01*
X75158561Y36515726D01*
X74832327Y36658145D01*
X74526537Y36835385D01*
X74492166Y36858438D01*
X74391984Y36934397D01*
X74274777Y37035606D01*
X74149054Y37153546D01*
X74023321Y37279699D01*
X73906084Y37405546D01*
X73805852Y37522570D01*
X73734785Y37616846D01*
X73551373Y37923231D01*
X73402973Y38252513D01*
X73290549Y38602430D01*
X73259485Y38731132D01*
X73234126Y38885023D01*
X73217900Y39067944D01*
X73210796Y39267593D01*
X73211445Y39333700D01*
X73382843Y39333700D01*
X73387360Y39146126D01*
X73400318Y38972450D01*
X73420813Y38831018D01*
X73507011Y38489475D01*
X73627257Y38172245D01*
X73782818Y37876856D01*
X73974964Y37600830D01*
X74161325Y37386562D01*
X74419025Y37145961D01*
X74697958Y36941540D01*
X74996439Y36774152D01*
X75312788Y36644649D01*
X75645321Y36553880D01*
X75885890Y36513961D01*
X76038674Y36502647D01*
X76217195Y36501648D01*
X76406309Y36510288D01*
X76590870Y36527890D01*
X76749394Y36552531D01*
X77081985Y36638187D01*
X77396678Y36760939D01*
X77691211Y36918542D01*
X77963322Y37108755D01*
X78210752Y37329334D01*
X78431237Y37578034D01*
X78622518Y37852614D01*
X78782333Y38150828D01*
X78908421Y38470435D01*
X78991805Y38777334D01*
X79014020Y38914231D01*
X79029287Y39079286D01*
X79037293Y39258846D01*
X79037725Y39439258D01*
X79030272Y39606870D01*
X79014620Y39748029D01*
X79014096Y39751252D01*
X78937087Y40099227D01*
X78823772Y40425504D01*
X78673961Y40730471D01*
X78487465Y41014514D01*
X78267354Y41274601D01*
X78023501Y41506001D01*
X77766075Y41700344D01*
X77489833Y41860702D01*
X77189531Y41990152D01*
X76884152Y42085470D01*
X76795160Y42108231D01*
X76720220Y42124924D01*
X76649776Y42136527D01*
X76574270Y42144018D01*
X76484146Y42148373D01*
X76369847Y42150570D01*
X76238416Y42151510D01*
X76073442Y42151170D01*
X75942263Y42148051D01*
X75836402Y42141632D01*
X75747380Y42131390D01*
X75666721Y42116802D01*
X75663544Y42116120D01*
X75322387Y42021775D01*
X75001576Y41891575D01*
X74703163Y41727601D01*
X74429201Y41531936D01*
X74181743Y41306659D01*
X73962842Y41053854D01*
X73774549Y40775600D01*
X73618919Y40473979D01*
X73498003Y40151073D01*
X73420044Y39841380D01*
X73399175Y39695171D01*
X73386778Y39521329D01*
X73382843Y39333700D01*
X73211445Y39333700D01*
X73212802Y39471667D01*
X73223906Y39667862D01*
X73244097Y39843875D01*
X73260618Y39934905D01*
X73356626Y40283607D01*
X73488986Y40612585D01*
X73655623Y40919752D01*
X73854460Y41203020D01*
X74083422Y41460299D01*
X74340430Y41689503D01*
X74623411Y41888543D01*
X74930287Y42055331D01*
X75258982Y42187778D01*
X75592833Y42280616D01*
X75720062Y42301701D01*
X75877506Y42317095D01*
X76053400Y42326570D01*
X76235977Y42329894D01*
X76413473Y42326838D01*
D10*
%TO.C,C7*%
X79132800Y23630000D02*
X79132800Y24630000D01*
X77077200Y24630000D02*
X77077200Y23630000D01*
%TO.C,C8*%
X44207800Y2349800D02*
X44207800Y3349800D01*
X42152200Y3349800D02*
X42152200Y2349800D01*
%TO.C,C9*%
X57392200Y35099800D02*
X57392200Y34099800D01*
X59447800Y34099800D02*
X59447800Y35099800D01*
%TO.C,C10*%
X57392200Y30345000D02*
X57392200Y29345000D01*
X59447800Y29345000D02*
X59447800Y30345000D01*
D11*
%TO.C,P9*%
X38430200Y7620000D02*
X35509200Y7620000D01*
X38430200Y20320000D02*
X35560000Y20320000D01*
X38430200Y22860000D02*
X35509200Y22860000D01*
X37211000Y23622000D02*
G75*
G03*
X37211000Y23622000I-254000J0D01*
G01*
X38404800Y22860000D02*
X38404800Y7620000D01*
X35483800Y7620000D02*
X35483800Y22860000D01*
D15*
%TO.C,P2*%
X46990000Y3175000D02*
X46990000Y9525000D01*
X67310000Y3175000D02*
X46990000Y3175000D01*
X67310000Y9525000D02*
X67310000Y3175000D01*
X46990000Y9525000D02*
X67310000Y9525000D01*
X52070000Y9525000D02*
X52070000Y3175000D01*
X57150000Y5715000D02*
X57150000Y3175000D01*
X62230000Y9525000D02*
X62230000Y3175000D01*
X48260000Y9525000D02*
G75*
G03*
X48260000Y9525000I-1270000J0D01*
G01*
X60325000Y3810000D02*
X60325000Y3175000D01*
X53975000Y3810000D02*
X60325000Y3810000D01*
X53975000Y3175000D02*
X53975000Y3810000D01*
%TO.C,P4*%
X68025000Y41275000D02*
G75*
G03*
X68025000Y41275000I-635000J0D01*
G01*
D16*
X72390000Y41275000D02*
X72390000Y33655000D01*
X72390000Y33655000D02*
X67310000Y33655000D01*
X67310000Y33655000D02*
X67310000Y41275000D01*
X67310000Y41275000D02*
X72390000Y41275000D01*
D11*
%TO.C,R7*%
X69418200Y31242000D02*
X69418200Y30353000D01*
X71551800Y31191200D02*
X71551800Y30302200D01*
%TO.C,SW2*%
X44424600Y5842000D02*
X43789600Y5842000D01*
X44424600Y12954000D02*
X44424600Y5842000D01*
X43789600Y12954000D02*
X44424600Y12954000D01*
X40614600Y5842000D02*
X41249600Y5842000D01*
X40614600Y12954000D02*
X40614600Y5842000D01*
X41249600Y12954000D02*
X40614600Y12954000D01*
%TO.C,U1*%
X52060000Y30645000D02*
X52060000Y31845000D01*
X55260000Y30645000D02*
X52060000Y30645000D01*
X55260000Y31845000D02*
X55260000Y30645000D01*
X52060000Y31845000D02*
X55260000Y31845000D01*
X52142843Y30445000D02*
G75*
G03*
X52142843Y30445000I-282843J0D01*
G01*
X52260000Y31445000D02*
X52060000Y31445000D01*
X52260000Y31045000D02*
X52260000Y31445000D01*
X52060000Y31045000D02*
X52260000Y31045000D01*
D17*
%TO.C,Y1*%
X62230000Y28829000D02*
X62230000Y28448000D01*
D18*
X62230000Y28829000D02*
X61595000Y28829000D01*
X62865000Y28829000D02*
X62230000Y28829000D01*
D17*
X62230000Y30099000D02*
X62230000Y30480000D01*
D18*
X62230000Y30099000D02*
X61595000Y30099000D01*
X62865000Y30099000D02*
X62230000Y30099000D01*
X62865000Y29210000D02*
X62865000Y29718000D01*
X61595000Y29210000D02*
X62865000Y29210000D01*
X61595000Y29718000D02*
X61595000Y29210000D01*
X62865000Y29718000D02*
X61595000Y29718000D01*
X64643000Y24003000D02*
X64643000Y34925000D01*
D17*
X64262000Y32893000D02*
X64262000Y26035000D01*
D18*
X60071000Y35179000D02*
X61087000Y35179000D01*
X60071000Y23749000D02*
X61087000Y23749000D01*
X59817000Y24003000D02*
X59817000Y34925000D01*
D17*
X63500000Y32893000D02*
X63500000Y26035000D01*
X60198000Y26035000D02*
X60198000Y32893000D01*
X60960000Y26035000D02*
X60960000Y32893000D01*
D18*
X63373000Y23749000D02*
X64389000Y23749000D01*
X63373000Y35179000D02*
X64389000Y35179000D01*
D17*
X64263178Y32893787D02*
G75*
G03*
X63373000Y34571940I-2033178J-3327D01*
G01*
X63375085Y24356368D02*
G75*
G03*
X64262000Y26035000I-1145085J1678632D01*
G01*
D18*
X59817000Y24003000D02*
G75*
G03*
X60071000Y23749000I254000J0D01*
G01*
D17*
X60961045Y26036231D02*
G75*
G03*
X61087000Y25483820I1268955J-1231D01*
G01*
X63373405Y25482257D02*
G75*
G03*
X63500000Y26035000I-1143405J552743D01*
G01*
X60198253Y26032114D02*
G75*
G03*
X61089540Y24356060I2031747J5426D01*
G01*
X61084915Y34571632D02*
G75*
G03*
X60198000Y32893000I1145085J-1678632D01*
G01*
X61086595Y33445743D02*
G75*
G03*
X60960000Y32893000I1143405J-552743D01*
G01*
X63498955Y32891769D02*
G75*
G03*
X63373000Y33444180I-1268955J1231D01*
G01*
D18*
X60071000Y35179000D02*
G75*
G03*
X59817000Y34925000I0J-254000D01*
G01*
X64389000Y23749000D02*
G75*
G03*
X64643000Y24003000I0J254000D01*
G01*
X64643000Y34925000D02*
G75*
G03*
X64389000Y35179000I-254000J0D01*
G01*
D10*
%TO.C,C1*%
X53097800Y26474800D02*
X53097800Y27474800D01*
X51042200Y27474800D02*
X51042200Y26474800D01*
%TO.C,C2*%
X54170200Y35952800D02*
X53170200Y35952800D01*
X53170200Y33897200D02*
X54170200Y33897200D01*
%TO.C,C3*%
X44275200Y33770200D02*
X45275200Y33770200D01*
X45275200Y35825800D02*
X44275200Y35825800D01*
%TO.C,C4*%
X43572800Y19642200D02*
X43572800Y20642200D01*
X41517200Y20642200D02*
X41517200Y19642200D01*
%TO.C,C5*%
X76335000Y14847200D02*
X77335000Y14847200D01*
X77335000Y16902800D02*
X76335000Y16902800D01*
D19*
%TO.C,C6*%
X59095000Y10515600D02*
X64937000Y10515600D01*
X58333000Y11277600D02*
X59095000Y10515600D01*
X59095000Y17449800D02*
X58333000Y16687800D01*
X64937000Y17449800D02*
X59095000Y17449800D01*
D10*
X58335000Y11317600D02*
X58335000Y12917600D01*
X59135000Y10517600D02*
X58335000Y11317600D01*
X64935000Y10517600D02*
X59135000Y10517600D01*
X64935000Y12917600D02*
X64935000Y10517600D01*
X58335000Y15047800D02*
X58335000Y16647800D01*
X64935000Y17447800D02*
X64935000Y15047800D01*
X59135000Y17447800D02*
X64935000Y17447800D01*
X58335000Y16647800D02*
X59135000Y17447800D01*
X65435000Y11717600D02*
G75*
G03*
X65435000Y11717600I-500000J0D01*
G01*
X64635000Y15047800D02*
G75*
G03*
X60735000Y17147800I-3000000J-900000D01*
G01*
X62535000Y17147800D02*
G75*
G03*
X58635000Y15047800I-900000J-3000000D01*
G01*
X58635000Y12917600D02*
G75*
G03*
X62535000Y10817600I3000000J900000D01*
G01*
X60735000Y10817600D02*
G75*
G03*
X64635000Y12917600I900000J3000000D01*
G01*
D20*
%TO.C,D2*%
X77873860Y8034020D02*
X77873860Y7734300D01*
X77873860Y7734300D02*
X77574140Y7734300D01*
X77574140Y8034020D02*
X77574140Y7734300D01*
X77873860Y8034020D02*
X77574140Y8034020D01*
D10*
X77724000Y7734020D02*
X77124000Y8334020D01*
X78324000Y8334020D02*
X77724000Y7734020D01*
X77724000Y7734020D02*
X78324000Y8334020D01*
X78765421Y7634020D02*
G75*
G03*
X78765421Y7634020I-141421J0D01*
G01*
D11*
X78524000Y9834020D02*
X78524000Y6234020D01*
X76924000Y9834020D02*
X78524000Y9834020D01*
X76924000Y9734020D02*
X76924000Y9834020D01*
X76924000Y6234020D02*
X76924000Y9734020D01*
X78524000Y6234020D02*
X76924000Y6234020D01*
D21*
%TO.C,P8*%
X38100000Y36195000D02*
X38100000Y36195000D01*
X35560000Y36195000D02*
X38100000Y36195000D01*
X38100000Y36195000D02*
X38100000Y36195000D01*
X38100000Y36195000D02*
X38100000Y26035000D01*
X38100000Y26035000D02*
X35560000Y26035000D01*
X35560000Y26035000D02*
X35560000Y36195000D01*
X35560000Y33655000D02*
X38100000Y33655000D01*
D11*
%TO.C,R1*%
X56311800Y26543000D02*
X56311800Y27432000D01*
X54178200Y26593800D02*
X54178200Y27482800D01*
%TO.C,R4*%
X66878200Y12832000D02*
X66878200Y11943000D01*
X69011800Y12781200D02*
X69011800Y11892200D01*
%TO.C,R5*%
X42164000Y16560800D02*
X43053000Y16560800D01*
X42113200Y14427200D02*
X43002200Y14427200D01*
%TO.C,R6*%
X74091800Y31191200D02*
X74091800Y30302200D01*
X71958200Y31242000D02*
X71958200Y30353000D01*
%TO.C,SW1*%
X70993000Y12446000D02*
X70358000Y12446000D01*
X70358000Y12446000D02*
X70358000Y5334000D01*
X70358000Y5334000D02*
X70993000Y5334000D01*
X73533000Y12446000D02*
X74168000Y12446000D01*
X74168000Y12446000D02*
X74168000Y5334000D01*
X74168000Y5334000D02*
X73533000Y5334000D01*
%TO.C,U3*%
X49453800Y18110200D02*
X49453800Y17602200D01*
X48437800Y18110200D02*
X49453800Y18110200D01*
X48437800Y17602200D02*
X48437800Y18110200D01*
X51101555Y17291400D02*
G75*
G03*
X51101555Y17291400I-360555J0D01*
G01*
X47398200Y17569200D02*
X47398200Y22969200D01*
X50493400Y17569200D02*
X50493400Y22969200D01*
X47396400Y17576800D02*
X50469800Y17576800D01*
X47371000Y22961600D02*
X50469800Y22961600D01*
D15*
%TO.C,P10*%
X45545000Y38100000D02*
X45545000Y38735000D01*
X45545000Y38735000D02*
X51895000Y38735000D01*
X51895000Y38735000D02*
X51895000Y38100000D01*
X44275000Y41910000D02*
G75*
G03*
X44275000Y41910000I-635000J0D01*
G01*
X53800000Y41910000D02*
X53800000Y38100000D01*
X43640000Y41910000D02*
X43640000Y38100000D01*
X43640000Y41910000D02*
X53800000Y41910000D01*
X53800000Y38100000D02*
X43640000Y38100000D01*
%TO.C,P1*%
X66215000Y38100000D02*
X56055000Y38100000D01*
X56055000Y41910000D02*
X66215000Y41910000D01*
X56055000Y41910000D02*
X56055000Y38100000D01*
X66215000Y41910000D02*
X66215000Y38100000D01*
X56690000Y41910000D02*
G75*
G03*
X56690000Y41910000I-635000J0D01*
G01*
X64310000Y38735000D02*
X64310000Y38100000D01*
X57960000Y38735000D02*
X64310000Y38735000D01*
X57960000Y38100000D02*
X57960000Y38735000D01*
D11*
%TO.C,U2*%
X43186000Y31851600D02*
X46284800Y31851600D01*
X43211400Y26466800D02*
X46284800Y26466800D01*
X46308400Y26459200D02*
X46308400Y31859200D01*
X43213200Y26459200D02*
X43213200Y31859200D01*
X46916555Y26181400D02*
G75*
G03*
X46916555Y26181400I-360555J0D01*
G01*
X44252800Y26492200D02*
X44252800Y27000200D01*
X44252800Y27000200D02*
X45268800Y27000200D01*
X45268800Y27000200D02*
X45268800Y26492200D01*
%TO.C,P3*%
D10*
X75636380Y29953000D02*
X74636380Y29953000D01*
X75636380Y30333953D02*
X74636380Y30333953D01*
X74636380Y30524429D01*
X74684000Y30638715D01*
X74779238Y30714905D01*
X74874476Y30753000D01*
X75064952Y30791096D01*
X75207809Y30791096D01*
X75398285Y30753000D01*
X75493523Y30714905D01*
X75588761Y30638715D01*
X75636380Y30524429D01*
X75636380Y30333953D01*
%TO.C,U4*%
X74066476Y26963620D02*
X74066476Y26154096D01*
X74104571Y26058858D01*
X74142666Y26011239D01*
X74218857Y25963620D01*
X74371238Y25963620D01*
X74447428Y26011239D01*
X74485523Y26058858D01*
X74523619Y26154096D01*
X74523619Y26963620D01*
X75247428Y26630286D02*
X75247428Y25963620D01*
X75056952Y27011239D02*
X74866476Y26296953D01*
X75361714Y26296953D01*
%TO.C,D1*%
X59861523Y19486620D02*
X59861523Y20486620D01*
X60052000Y20486620D01*
X60166285Y20439000D01*
X60242476Y20343762D01*
X60280571Y20248524D01*
X60318666Y20058048D01*
X60318666Y19915191D01*
X60280571Y19724715D01*
X60242476Y19629477D01*
X60166285Y19534239D01*
X60052000Y19486620D01*
X59861523Y19486620D01*
X61080571Y19486620D02*
X60623428Y19486620D01*
X60852000Y19486620D02*
X60852000Y20486620D01*
X60775809Y20343762D01*
X60699619Y20248524D01*
X60623428Y20200905D01*
D15*
X52853095Y23612143D02*
X54376904Y23612143D01*
X53615000Y22850239D02*
X53615000Y24374048D01*
%TO.C,C7*%
D10*
X78589142Y21329667D02*
X78636761Y21291572D01*
X78684380Y21177286D01*
X78684380Y21101096D01*
X78636761Y20986810D01*
X78541523Y20910620D01*
X78446285Y20872524D01*
X78255809Y20834429D01*
X78112952Y20834429D01*
X77922476Y20872524D01*
X77827238Y20910620D01*
X77732000Y20986810D01*
X77684380Y21101096D01*
X77684380Y21177286D01*
X77732000Y21291572D01*
X77779619Y21329667D01*
X77684380Y21596334D02*
X77684380Y22129667D01*
X78684380Y21786810D01*
%TO.C,C8*%
X43410142Y-6333D02*
X43457761Y-44428D01*
X43505380Y-158714D01*
X43505380Y-234904D01*
X43457761Y-349190D01*
X43362523Y-425380D01*
X43267285Y-463476D01*
X43076809Y-501571D01*
X42933952Y-501571D01*
X42743476Y-463476D01*
X42648238Y-425380D01*
X42553000Y-349190D01*
X42505380Y-234904D01*
X42505380Y-158714D01*
X42553000Y-44428D01*
X42600619Y-6333D01*
X42933952Y450810D02*
X42886333Y374620D01*
X42838714Y336524D01*
X42743476Y298429D01*
X42695857Y298429D01*
X42600619Y336524D01*
X42553000Y374620D01*
X42505380Y450810D01*
X42505380Y603191D01*
X42553000Y679381D01*
X42600619Y717477D01*
X42695857Y755572D01*
X42743476Y755572D01*
X42838714Y717477D01*
X42886333Y679381D01*
X42933952Y603191D01*
X42933952Y450810D01*
X42981571Y374620D01*
X43029190Y336524D01*
X43124428Y298429D01*
X43314904Y298429D01*
X43410142Y336524D01*
X43457761Y374620D01*
X43505380Y450810D01*
X43505380Y603191D01*
X43457761Y679381D01*
X43410142Y717477D01*
X43314904Y755572D01*
X43124428Y755572D01*
X43029190Y717477D01*
X42981571Y679381D01*
X42933952Y603191D01*
%TO.C,C9*%
X58159666Y36853858D02*
X58121571Y36806239D01*
X58007285Y36758620D01*
X57931095Y36758620D01*
X57816809Y36806239D01*
X57740619Y36901477D01*
X57702523Y36996715D01*
X57664428Y37187191D01*
X57664428Y37330048D01*
X57702523Y37520524D01*
X57740619Y37615762D01*
X57816809Y37711000D01*
X57931095Y37758620D01*
X58007285Y37758620D01*
X58121571Y37711000D01*
X58159666Y37663381D01*
X58540619Y36758620D02*
X58693000Y36758620D01*
X58769190Y36806239D01*
X58807285Y36853858D01*
X58883476Y36996715D01*
X58921571Y37187191D01*
X58921571Y37568143D01*
X58883476Y37663381D01*
X58845380Y37711000D01*
X58769190Y37758620D01*
X58616809Y37758620D01*
X58540619Y37711000D01*
X58502523Y37663381D01*
X58464428Y37568143D01*
X58464428Y37330048D01*
X58502523Y37234810D01*
X58540619Y37187191D01*
X58616809Y37139572D01*
X58769190Y37139572D01*
X58845380Y37187191D01*
X58883476Y37234810D01*
X58921571Y37330048D01*
%TO.C,C10*%
X57778714Y26947858D02*
X57740619Y26900239D01*
X57626333Y26852620D01*
X57550142Y26852620D01*
X57435857Y26900239D01*
X57359666Y26995477D01*
X57321571Y27090715D01*
X57283476Y27281191D01*
X57283476Y27424048D01*
X57321571Y27614524D01*
X57359666Y27709762D01*
X57435857Y27805000D01*
X57550142Y27852620D01*
X57626333Y27852620D01*
X57740619Y27805000D01*
X57778714Y27757381D01*
X58540619Y26852620D02*
X58083476Y26852620D01*
X58312047Y26852620D02*
X58312047Y27852620D01*
X58235857Y27709762D01*
X58159666Y27614524D01*
X58083476Y27566905D01*
X59035857Y27852620D02*
X59112047Y27852620D01*
X59188238Y27805000D01*
X59226333Y27757381D01*
X59264428Y27662143D01*
X59302523Y27471667D01*
X59302523Y27233572D01*
X59264428Y27043096D01*
X59226333Y26947858D01*
X59188238Y26900239D01*
X59112047Y26852620D01*
X59035857Y26852620D01*
X58959666Y26900239D01*
X58921571Y26947858D01*
X58883476Y27043096D01*
X58845380Y27233572D01*
X58845380Y27471667D01*
X58883476Y27662143D01*
X58921571Y27757381D01*
X58959666Y27805000D01*
X59035857Y27852620D01*
%TO.C,P9*%
X35401428Y5897620D02*
X35401428Y6897620D01*
X35706190Y6897620D01*
X35782380Y6850000D01*
X35820476Y6802381D01*
X35858571Y6707143D01*
X35858571Y6564286D01*
X35820476Y6469048D01*
X35782380Y6421429D01*
X35706190Y6373810D01*
X35401428Y6373810D01*
X36658571Y5897620D02*
X36391904Y6373810D01*
X36201428Y5897620D02*
X36201428Y6897620D01*
X36506190Y6897620D01*
X36582380Y6850000D01*
X36620476Y6802381D01*
X36658571Y6707143D01*
X36658571Y6564286D01*
X36620476Y6469048D01*
X36582380Y6421429D01*
X36506190Y6373810D01*
X36201428Y6373810D01*
X37153809Y6897620D02*
X37306190Y6897620D01*
X37382380Y6850000D01*
X37458571Y6754762D01*
X37496666Y6564286D01*
X37496666Y6230953D01*
X37458571Y6040477D01*
X37382380Y5945239D01*
X37306190Y5897620D01*
X37153809Y5897620D01*
X37077619Y5945239D01*
X37001428Y6040477D01*
X36963333Y6230953D01*
X36963333Y6564286D01*
X37001428Y6754762D01*
X37077619Y6850000D01*
X37153809Y6897620D01*
X38258571Y6850000D02*
X38182380Y6897620D01*
X38068095Y6897620D01*
X37953809Y6850000D01*
X37877619Y6754762D01*
X37839523Y6659524D01*
X37801428Y6469048D01*
X37801428Y6326191D01*
X37839523Y6135715D01*
X37877619Y6040477D01*
X37953809Y5945239D01*
X38068095Y5897620D01*
X38144285Y5897620D01*
X38258571Y5945239D01*
X38296666Y5992858D01*
X38296666Y6326191D01*
X38144285Y6326191D01*
%TO.C,P2*%
X46378761Y3486381D02*
X46426380Y3600667D01*
X46426380Y3791143D01*
X46378761Y3867334D01*
X46331142Y3905429D01*
X46235904Y3943524D01*
X46140666Y3943524D01*
X46045428Y3905429D01*
X45997809Y3867334D01*
X45950190Y3791143D01*
X45902571Y3638762D01*
X45854952Y3562572D01*
X45807333Y3524477D01*
X45712095Y3486381D01*
X45616857Y3486381D01*
X45521619Y3524477D01*
X45474000Y3562572D01*
X45426380Y3638762D01*
X45426380Y3829239D01*
X45474000Y3943524D01*
X45902571Y4286381D02*
X45902571Y4553048D01*
X46426380Y4667334D02*
X46426380Y4286381D01*
X45426380Y4286381D01*
X45426380Y4667334D01*
X46426380Y5467334D02*
X45950190Y5200667D01*
X46426380Y5010191D02*
X45426380Y5010191D01*
X45426380Y5314953D01*
X45474000Y5391143D01*
X45521619Y5429239D01*
X45616857Y5467334D01*
X45759714Y5467334D01*
X45854952Y5429239D01*
X45902571Y5391143D01*
X45950190Y5314953D01*
X45950190Y5010191D01*
X46426380Y5810191D02*
X45426380Y5810191D01*
X46140666Y6153048D02*
X46140666Y6534000D01*
X46426380Y6076858D02*
X45426380Y6343524D01*
X46426380Y6610191D01*
X46426380Y7257810D02*
X46426380Y6876858D01*
X45426380Y6876858D01*
%TO.C,P4*%
X66746380Y33636048D02*
X65746380Y33636048D01*
X66698761Y33978905D02*
X66746380Y34093191D01*
X66746380Y34283667D01*
X66698761Y34359858D01*
X66651142Y34397953D01*
X66555904Y34436048D01*
X66460666Y34436048D01*
X66365428Y34397953D01*
X66317809Y34359858D01*
X66270190Y34283667D01*
X66222571Y34131286D01*
X66174952Y34055096D01*
X66127333Y34017000D01*
X66032095Y33978905D01*
X65936857Y33978905D01*
X65841619Y34017000D01*
X65794000Y34055096D01*
X65746380Y34131286D01*
X65746380Y34321762D01*
X65794000Y34436048D01*
X66746380Y34778905D02*
X65746380Y34778905D01*
X65746380Y35083667D01*
X65794000Y35159858D01*
X65841619Y35197953D01*
X65936857Y35236048D01*
X66079714Y35236048D01*
X66174952Y35197953D01*
X66222571Y35159858D01*
X66270190Y35083667D01*
X66270190Y34778905D01*
%TO.C,R7*%
X70478666Y27741620D02*
X70212000Y28217810D01*
X70021523Y27741620D02*
X70021523Y28741620D01*
X70326285Y28741620D01*
X70402476Y28694000D01*
X70440571Y28646381D01*
X70478666Y28551143D01*
X70478666Y28408286D01*
X70440571Y28313048D01*
X70402476Y28265429D01*
X70326285Y28217810D01*
X70021523Y28217810D01*
X70745333Y28741620D02*
X71278666Y28741620D01*
X70935809Y27741620D01*
%TO.C,SW2*%
X40203380Y6546905D02*
X39727190Y6280239D01*
X40203380Y6089762D02*
X39203380Y6089762D01*
X39203380Y6394524D01*
X39251000Y6470715D01*
X39298619Y6508810D01*
X39393857Y6546905D01*
X39536714Y6546905D01*
X39631952Y6508810D01*
X39679571Y6470715D01*
X39727190Y6394524D01*
X39727190Y6089762D01*
X40155761Y6851667D02*
X40203380Y6965953D01*
X40203380Y7156429D01*
X40155761Y7232620D01*
X40108142Y7270715D01*
X40012904Y7308810D01*
X39917666Y7308810D01*
X39822428Y7270715D01*
X39774809Y7232620D01*
X39727190Y7156429D01*
X39679571Y7004048D01*
X39631952Y6927858D01*
X39584333Y6889762D01*
X39489095Y6851667D01*
X39393857Y6851667D01*
X39298619Y6889762D01*
X39251000Y6927858D01*
X39203380Y7004048D01*
X39203380Y7194524D01*
X39251000Y7308810D01*
X39203380Y7537381D02*
X39203380Y7994524D01*
X40203380Y7765953D02*
X39203380Y7765953D01*
%TO.C,U1*%
X50571476Y32170620D02*
X50571476Y31361096D01*
X50609571Y31265858D01*
X50647666Y31218239D01*
X50723857Y31170620D01*
X50876238Y31170620D01*
X50952428Y31218239D01*
X50990523Y31265858D01*
X51028619Y31361096D01*
X51028619Y32170620D01*
X51828619Y31170620D02*
X51371476Y31170620D01*
X51600047Y31170620D02*
X51600047Y32170620D01*
X51523857Y32027762D01*
X51447666Y31932524D01*
X51371476Y31884905D01*
%TO.C,Y1*%
X64238190Y35941048D02*
X64714380Y35941048D01*
X63714380Y35674381D02*
X64238190Y35941048D01*
X63714380Y36207715D01*
X64714380Y36893429D02*
X64714380Y36436286D01*
X64714380Y36664858D02*
X63714380Y36664858D01*
X63857238Y36588667D01*
X63952476Y36512477D01*
X64000095Y36436286D01*
%TO.C,C1*%
X52427142Y24250667D02*
X52474761Y24212572D01*
X52522380Y24098286D01*
X52522380Y24022096D01*
X52474761Y23907810D01*
X52379523Y23831620D01*
X52284285Y23793524D01*
X52093809Y23755429D01*
X51950952Y23755429D01*
X51760476Y23793524D01*
X51665238Y23831620D01*
X51570000Y23907810D01*
X51522380Y24022096D01*
X51522380Y24098286D01*
X51570000Y24212572D01*
X51617619Y24250667D01*
X52522380Y25012572D02*
X52522380Y24555429D01*
X52522380Y24784000D02*
X51522380Y24784000D01*
X51665238Y24707810D01*
X51760476Y24631620D01*
X51808095Y24555429D01*
%TO.C,C2*%
X50793666Y34440858D02*
X50755571Y34393239D01*
X50641285Y34345620D01*
X50565095Y34345620D01*
X50450809Y34393239D01*
X50374619Y34488477D01*
X50336523Y34583715D01*
X50298428Y34774191D01*
X50298428Y34917048D01*
X50336523Y35107524D01*
X50374619Y35202762D01*
X50450809Y35298000D01*
X50565095Y35345620D01*
X50641285Y35345620D01*
X50755571Y35298000D01*
X50793666Y35250381D01*
X51098428Y35250381D02*
X51136523Y35298000D01*
X51212714Y35345620D01*
X51403190Y35345620D01*
X51479380Y35298000D01*
X51517476Y35250381D01*
X51555571Y35155143D01*
X51555571Y35059905D01*
X51517476Y34917048D01*
X51060333Y34345620D01*
X51555571Y34345620D01*
%TO.C,C3*%
X41776666Y34440858D02*
X41738571Y34393239D01*
X41624285Y34345620D01*
X41548095Y34345620D01*
X41433809Y34393239D01*
X41357619Y34488477D01*
X41319523Y34583715D01*
X41281428Y34774191D01*
X41281428Y34917048D01*
X41319523Y35107524D01*
X41357619Y35202762D01*
X41433809Y35298000D01*
X41548095Y35345620D01*
X41624285Y35345620D01*
X41738571Y35298000D01*
X41776666Y35250381D01*
X42043333Y35345620D02*
X42538571Y35345620D01*
X42271904Y34964667D01*
X42386190Y34964667D01*
X42462380Y34917048D01*
X42500476Y34869429D01*
X42538571Y34774191D01*
X42538571Y34536096D01*
X42500476Y34440858D01*
X42462380Y34393239D01*
X42386190Y34345620D01*
X42157619Y34345620D01*
X42081428Y34393239D01*
X42043333Y34440858D01*
%TO.C,C4*%
X42284666Y22248858D02*
X42246571Y22201239D01*
X42132285Y22153620D01*
X42056095Y22153620D01*
X41941809Y22201239D01*
X41865619Y22296477D01*
X41827523Y22391715D01*
X41789428Y22582191D01*
X41789428Y22725048D01*
X41827523Y22915524D01*
X41865619Y23010762D01*
X41941809Y23106000D01*
X42056095Y23153620D01*
X42132285Y23153620D01*
X42246571Y23106000D01*
X42284666Y23058381D01*
X42970380Y22820286D02*
X42970380Y22153620D01*
X42779904Y23201239D02*
X42589428Y22486953D01*
X43084666Y22486953D01*
%TO.C,C5*%
X74034666Y15390858D02*
X73996571Y15343239D01*
X73882285Y15295620D01*
X73806095Y15295620D01*
X73691809Y15343239D01*
X73615619Y15438477D01*
X73577523Y15533715D01*
X73539428Y15724191D01*
X73539428Y15867048D01*
X73577523Y16057524D01*
X73615619Y16152762D01*
X73691809Y16248000D01*
X73806095Y16295620D01*
X73882285Y16295620D01*
X73996571Y16248000D01*
X74034666Y16200381D01*
X74758476Y16295620D02*
X74377523Y16295620D01*
X74339428Y15819429D01*
X74377523Y15867048D01*
X74453714Y15914667D01*
X74644190Y15914667D01*
X74720380Y15867048D01*
X74758476Y15819429D01*
X74796571Y15724191D01*
X74796571Y15486096D01*
X74758476Y15390858D01*
X74720380Y15343239D01*
X74644190Y15295620D01*
X74453714Y15295620D01*
X74377523Y15343239D01*
X74339428Y15390858D01*
%TO.C,C6*%
X63366666Y17803858D02*
X63328571Y17756239D01*
X63214285Y17708620D01*
X63138095Y17708620D01*
X63023809Y17756239D01*
X62947619Y17851477D01*
X62909523Y17946715D01*
X62871428Y18137191D01*
X62871428Y18280048D01*
X62909523Y18470524D01*
X62947619Y18565762D01*
X63023809Y18661000D01*
X63138095Y18708620D01*
X63214285Y18708620D01*
X63328571Y18661000D01*
X63366666Y18613381D01*
X64052380Y18708620D02*
X63900000Y18708620D01*
X63823809Y18661000D01*
X63785714Y18613381D01*
X63709523Y18470524D01*
X63671428Y18280048D01*
X63671428Y17899096D01*
X63709523Y17803858D01*
X63747619Y17756239D01*
X63823809Y17708620D01*
X63976190Y17708620D01*
X64052380Y17756239D01*
X64090476Y17803858D01*
X64128571Y17899096D01*
X64128571Y18137191D01*
X64090476Y18232429D01*
X64052380Y18280048D01*
X63976190Y18327667D01*
X63823809Y18327667D01*
X63747619Y18280048D01*
X63709523Y18232429D01*
X63671428Y18137191D01*
%TO.C,D2*%
X76525380Y7232762D02*
X76525380Y6851810D01*
X75525380Y6851810D01*
X76001571Y7499429D02*
X76001571Y7766096D01*
X76525380Y7880381D02*
X76525380Y7499429D01*
X75525380Y7499429D01*
X75525380Y7880381D01*
X76525380Y8223239D02*
X75525380Y8223239D01*
X75525380Y8413715D01*
X75573000Y8528000D01*
X75668238Y8604191D01*
X75763476Y8642286D01*
X75953952Y8680381D01*
X76096809Y8680381D01*
X76287285Y8642286D01*
X76382523Y8604191D01*
X76477761Y8528000D01*
X76525380Y8413715D01*
X76525380Y8223239D01*
X75525380Y9175620D02*
X75525380Y9251810D01*
X75573000Y9328000D01*
X75620619Y9366096D01*
X75715857Y9404191D01*
X75906333Y9442286D01*
X76144428Y9442286D01*
X76334904Y9404191D01*
X76430142Y9366096D01*
X76477761Y9328000D01*
X76525380Y9251810D01*
X76525380Y9175620D01*
X76477761Y9099429D01*
X76430142Y9061334D01*
X76334904Y9023239D01*
X76144428Y8985143D01*
X75906333Y8985143D01*
X75715857Y9023239D01*
X75620619Y9061334D01*
X75573000Y9099429D01*
X75525380Y9175620D01*
%TO.C,P8*%
X35839523Y24598334D02*
X36220476Y24598334D01*
X35763333Y24312620D02*
X36030000Y25312620D01*
X36296666Y24312620D01*
X36563333Y24312620D02*
X36563333Y25312620D01*
X36753809Y25312620D01*
X36868095Y25265000D01*
X36944285Y25169762D01*
X36982380Y25074524D01*
X37020476Y24884048D01*
X37020476Y24741191D01*
X36982380Y24550715D01*
X36944285Y24455477D01*
X36868095Y24360239D01*
X36753809Y24312620D01*
X36563333Y24312620D01*
X37820476Y24407858D02*
X37782380Y24360239D01*
X37668095Y24312620D01*
X37591904Y24312620D01*
X37477619Y24360239D01*
X37401428Y24455477D01*
X37363333Y24550715D01*
X37325238Y24741191D01*
X37325238Y24884048D01*
X37363333Y25074524D01*
X37401428Y25169762D01*
X37477619Y25265000D01*
X37591904Y25312620D01*
X37668095Y25312620D01*
X37782380Y25265000D01*
X37820476Y25217381D01*
%TO.C,R1*%
X57348380Y25393667D02*
X56872190Y25127000D01*
X57348380Y24936524D02*
X56348380Y24936524D01*
X56348380Y25241286D01*
X56396000Y25317477D01*
X56443619Y25355572D01*
X56538857Y25393667D01*
X56681714Y25393667D01*
X56776952Y25355572D01*
X56824571Y25317477D01*
X56872190Y25241286D01*
X56872190Y24936524D01*
X57348380Y26155572D02*
X57348380Y25698429D01*
X57348380Y25927000D02*
X56348380Y25927000D01*
X56491238Y25850810D01*
X56586476Y25774620D01*
X56634095Y25698429D01*
%TO.C,R4*%
X68524380Y14852667D02*
X68048190Y14586000D01*
X68524380Y14395524D02*
X67524380Y14395524D01*
X67524380Y14700286D01*
X67572000Y14776477D01*
X67619619Y14814572D01*
X67714857Y14852667D01*
X67857714Y14852667D01*
X67952952Y14814572D01*
X68000571Y14776477D01*
X68048190Y14700286D01*
X68048190Y14395524D01*
X67857714Y15538381D02*
X68524380Y15538381D01*
X67476761Y15347905D02*
X68191047Y15157429D01*
X68191047Y15652667D01*
%TO.C,R5*%
X39744666Y15041620D02*
X39478000Y15517810D01*
X39287523Y15041620D02*
X39287523Y16041620D01*
X39592285Y16041620D01*
X39668476Y15994000D01*
X39706571Y15946381D01*
X39744666Y15851143D01*
X39744666Y15708286D01*
X39706571Y15613048D01*
X39668476Y15565429D01*
X39592285Y15517810D01*
X39287523Y15517810D01*
X40468476Y16041620D02*
X40087523Y16041620D01*
X40049428Y15565429D01*
X40087523Y15613048D01*
X40163714Y15660667D01*
X40354190Y15660667D01*
X40430380Y15613048D01*
X40468476Y15565429D01*
X40506571Y15470191D01*
X40506571Y15232096D01*
X40468476Y15136858D01*
X40430380Y15089239D01*
X40354190Y15041620D01*
X40163714Y15041620D01*
X40087523Y15089239D01*
X40049428Y15136858D01*
%TO.C,R6*%
X72891666Y27741620D02*
X72625000Y28217810D01*
X72434523Y27741620D02*
X72434523Y28741620D01*
X72739285Y28741620D01*
X72815476Y28694000D01*
X72853571Y28646381D01*
X72891666Y28551143D01*
X72891666Y28408286D01*
X72853571Y28313048D01*
X72815476Y28265429D01*
X72739285Y28217810D01*
X72434523Y28217810D01*
X73577380Y28741620D02*
X73425000Y28741620D01*
X73348809Y28694000D01*
X73310714Y28646381D01*
X73234523Y28503524D01*
X73196428Y28313048D01*
X73196428Y27932096D01*
X73234523Y27836858D01*
X73272619Y27789239D01*
X73348809Y27741620D01*
X73501190Y27741620D01*
X73577380Y27789239D01*
X73615476Y27836858D01*
X73653571Y27932096D01*
X73653571Y28170191D01*
X73615476Y28265429D01*
X73577380Y28313048D01*
X73501190Y28360667D01*
X73348809Y28360667D01*
X73272619Y28313048D01*
X73234523Y28265429D01*
X73196428Y28170191D01*
%TO.C,SW1*%
X69746761Y5702429D02*
X69794380Y5816715D01*
X69794380Y6007191D01*
X69746761Y6083381D01*
X69699142Y6121477D01*
X69603904Y6159572D01*
X69508666Y6159572D01*
X69413428Y6121477D01*
X69365809Y6083381D01*
X69318190Y6007191D01*
X69270571Y5854810D01*
X69222952Y5778620D01*
X69175333Y5740524D01*
X69080095Y5702429D01*
X68984857Y5702429D01*
X68889619Y5740524D01*
X68842000Y5778620D01*
X68794380Y5854810D01*
X68794380Y6045286D01*
X68842000Y6159572D01*
X68794380Y6426239D02*
X69794380Y6616715D01*
X69080095Y6769096D01*
X69794380Y6921477D01*
X68794380Y7111953D01*
X69508666Y7378620D02*
X69508666Y7759572D01*
X69794380Y7302429D02*
X68794380Y7569096D01*
X69794380Y7835762D01*
%TO.C,U3*%
X48412476Y17311620D02*
X48412476Y16502096D01*
X48450571Y16406858D01*
X48488666Y16359239D01*
X48564857Y16311620D01*
X48717238Y16311620D01*
X48793428Y16359239D01*
X48831523Y16406858D01*
X48869619Y16502096D01*
X48869619Y17311620D01*
X49174380Y17311620D02*
X49669619Y17311620D01*
X49402952Y16930667D01*
X49517238Y16930667D01*
X49593428Y16883048D01*
X49631523Y16835429D01*
X49669619Y16740191D01*
X49669619Y16502096D01*
X49631523Y16406858D01*
X49593428Y16359239D01*
X49517238Y16311620D01*
X49288666Y16311620D01*
X49212476Y16359239D01*
X49174380Y16406858D01*
%TO.C,P10*%
X42997380Y38589048D02*
X41997380Y38589048D01*
X42092619Y38931905D02*
X42045000Y38970000D01*
X41997380Y39046191D01*
X41997380Y39236667D01*
X42045000Y39312858D01*
X42092619Y39350953D01*
X42187857Y39389048D01*
X42283095Y39389048D01*
X42425952Y39350953D01*
X42997380Y38893810D01*
X42997380Y39389048D01*
X42902142Y40189048D02*
X42949761Y40150953D01*
X42997380Y40036667D01*
X42997380Y39960477D01*
X42949761Y39846191D01*
X42854523Y39770000D01*
X42759285Y39731905D01*
X42568809Y39693810D01*
X42425952Y39693810D01*
X42235476Y39731905D01*
X42140238Y39770000D01*
X42045000Y39846191D01*
X41997380Y39960477D01*
X41997380Y40036667D01*
X42045000Y40150953D01*
X42092619Y40189048D01*
%TO.C,P1*%
X55697380Y38589048D02*
X54697380Y38589048D01*
X54792619Y38931905D02*
X54745000Y38970000D01*
X54697380Y39046191D01*
X54697380Y39236667D01*
X54745000Y39312858D01*
X54792619Y39350953D01*
X54887857Y39389048D01*
X54983095Y39389048D01*
X55125952Y39350953D01*
X55697380Y38893810D01*
X55697380Y39389048D01*
X55602142Y40189048D02*
X55649761Y40150953D01*
X55697380Y40036667D01*
X55697380Y39960477D01*
X55649761Y39846191D01*
X55554523Y39770000D01*
X55459285Y39731905D01*
X55268809Y39693810D01*
X55125952Y39693810D01*
X54935476Y39731905D01*
X54840238Y39770000D01*
X54745000Y39846191D01*
X54697380Y39960477D01*
X54697380Y40036667D01*
X54745000Y40150953D01*
X54792619Y40189048D01*
%TO.C,U2*%
X44221476Y26074620D02*
X44221476Y25265096D01*
X44259571Y25169858D01*
X44297666Y25122239D01*
X44373857Y25074620D01*
X44526238Y25074620D01*
X44602428Y25122239D01*
X44640523Y25169858D01*
X44678619Y25265096D01*
X44678619Y26074620D01*
X45021476Y25979381D02*
X45059571Y26027000D01*
X45135761Y26074620D01*
X45326238Y26074620D01*
X45402428Y26027000D01*
X45440523Y25979381D01*
X45478619Y25884143D01*
X45478619Y25788905D01*
X45440523Y25646048D01*
X44983380Y25074620D01*
X45478619Y25074620D01*
%TD*%
M02*
