%TF.GenerationSoftware,KiCad,Pcbnew,(5.1.10)-1*%
%TF.CreationDate,2021-08-07T16:57:48+01:00*%
%TF.ProjectId,SolarSensorATMEGA328_PCB,536f6c61-7253-4656-9e73-6f7241544d45,rev?*%
%TF.SameCoordinates,PX5734380PY7df6180*%
%TF.FileFunction,Copper,L1,Top*%
%TF.FilePolarity,Positive*%
%FSLAX46Y46*%
G04 Gerber Fmt 4.6, Leading zero omitted, Abs format (unit mm)*
G04 Created by KiCad (PCBNEW (5.1.10)-1) date 2021-08-07 16:57:48*
%MOMM*%
%LPD*%
G01*
G04 APERTURE LIST*
%TA.AperFunction,SMDPad,CuDef*%
%ADD10R,1.500000X1.000000*%
%TD*%
%TA.AperFunction,SMDPad,CuDef*%
%ADD11R,0.558800X1.270000*%
%TD*%
%TA.AperFunction,SMDPad,CuDef*%
%ADD12R,1.270000X0.558800*%
%TD*%
%TA.AperFunction,ComponentPad*%
%ADD13C,2.032000*%
%TD*%
%TA.AperFunction,ComponentPad*%
%ADD14R,2.032000X2.032000*%
%TD*%
%TA.AperFunction,SMDPad,CuDef*%
%ADD15R,1.500000X1.300000*%
%TD*%
%TA.AperFunction,ComponentPad*%
%ADD16R,2.100580X2.100580*%
%TD*%
%TA.AperFunction,ComponentPad*%
%ADD17C,2.199640*%
%TD*%
%TA.AperFunction,ComponentPad*%
%ADD18R,1.500000X1.500000*%
%TD*%
%TA.AperFunction,ComponentPad*%
%ADD19C,1.500000*%
%TD*%
%TA.AperFunction,ComponentPad*%
%ADD20C,1.600200*%
%TD*%
%TA.AperFunction,SMDPad,CuDef*%
%ADD21R,2.397760X3.000000*%
%TD*%
%TA.AperFunction,SMDPad,CuDef*%
%ADD22R,0.550000X1.000000*%
%TD*%
%TA.AperFunction,SMDPad,CuDef*%
%ADD23R,1.930400X5.334000*%
%TD*%
%TA.AperFunction,SMDPad,CuDef*%
%ADD24R,1.300000X1.500000*%
%TD*%
%TA.AperFunction,SMDPad,CuDef*%
%ADD25R,3.200000X1.600000*%
%TD*%
%TA.AperFunction,SMDPad,CuDef*%
%ADD26R,1.198880X1.198880*%
%TD*%
%TA.AperFunction,SMDPad,CuDef*%
%ADD27R,1.399540X0.599440*%
%TD*%
%TA.AperFunction,ViaPad*%
%ADD28C,0.600000*%
%TD*%
%TA.AperFunction,Conductor*%
%ADD29C,0.500000*%
%TD*%
%TA.AperFunction,Conductor*%
%ADD30C,0.300000*%
%TD*%
%TA.AperFunction,Conductor*%
%ADD31C,0.254000*%
%TD*%
%TA.AperFunction,Conductor*%
%ADD32C,0.100000*%
%TD*%
G04 APERTURE END LIST*
D10*
%TO.P,P3,6*%
%TO.N,GND*%
X75211000Y34544000D03*
%TO.P,P3,5*%
%TO.N,/ATMega328/A2*%
X76962000Y34544000D03*
%TO.P,P3,4*%
%TO.N,GND*%
X75211000Y33147000D03*
%TO.P,P3,3*%
%TO.N,/ATMega328/A1*%
X76962000Y33147000D03*
%TO.P,P3,2*%
%TO.N,GND*%
X75211000Y31750000D03*
%TO.P,P3,1*%
%TO.N,/ATMega328/A0*%
X76962000Y31750000D03*
%TD*%
D11*
%TO.P,U4,32*%
%TO.N,/ATMega328/D2*%
X67685920Y26517600D03*
%TO.P,U4,31*%
%TO.N,/Tx*%
X68486020Y26517600D03*
%TO.P,U4,30*%
%TO.N,/Rx*%
X69286120Y26517600D03*
%TO.P,U4,29*%
%TO.N,/ATMega328/RESET*%
X70086220Y26517600D03*
%TO.P,U4,28*%
%TO.N,/I2C_CLK*%
X70883780Y26517600D03*
%TO.P,U4,27*%
%TO.N,/I2C_SDA*%
X71683880Y26517600D03*
%TO.P,U4,26*%
%TO.N,/ATMega328/A3*%
X72483980Y26517600D03*
%TO.P,U4,25*%
%TO.N,/ATMega328/A2*%
X73284080Y26517600D03*
D12*
%TO.P,U4,24*%
%TO.N,/ATMega328/A1*%
X74777600Y25024080D03*
%TO.P,U4,23*%
%TO.N,/ATMega328/A0*%
X74777600Y24223980D03*
%TO.P,U4,22*%
%TO.N,/ATMega328/A7*%
X74777600Y23423880D03*
%TO.P,U4,21*%
%TO.N,GND*%
X74777600Y22623780D03*
%TO.P,U4,20*%
%TO.N,Net-(C5-Pad2)*%
X74777600Y21826220D03*
%TO.P,U4,19*%
%TO.N,/ATMega328/A6*%
X74777600Y21026120D03*
%TO.P,U4,18*%
%TO.N,VCC*%
X74777600Y20226020D03*
%TO.P,U4,17*%
%TO.N,/ATMega328/SCLK*%
X74777600Y19425920D03*
D11*
%TO.P,U4,16*%
%TO.N,/ATMega328/MISO*%
X73284080Y17932400D03*
%TO.P,U4,15*%
%TO.N,/ATMega328/MOSI*%
X72483980Y17932400D03*
%TO.P,U4,14*%
%TO.N,/ATMega328/D10*%
X71683880Y17932400D03*
%TO.P,U4,13*%
%TO.N,/ATMega328/D9*%
X70883780Y17932400D03*
%TO.P,U4,12*%
%TO.N,/ATMega328/D8_SWA*%
X70086220Y17932400D03*
%TO.P,U4,11*%
%TO.N,/ATMega328/D7_LED0*%
X69286120Y17932400D03*
%TO.P,U4,10*%
%TO.N,/ATMega328/D6*%
X68486020Y17932400D03*
%TO.P,U4,9*%
%TO.N,/ATMega328/D5*%
X67685920Y17932400D03*
D12*
%TO.P,U4,8*%
%TO.N,Net-(C10-Pad2)*%
X66192400Y19425920D03*
%TO.P,U4,7*%
%TO.N,Net-(C9-Pad2)*%
X66192400Y20226020D03*
%TO.P,U4,6*%
%TO.N,VCC*%
X66192400Y21026120D03*
%TO.P,U4,5*%
%TO.N,GND*%
X66192400Y21826220D03*
%TO.P,U4,4*%
%TO.N,VCC*%
X66192400Y22623780D03*
%TO.P,U4,3*%
%TO.N,GND*%
X66192400Y23423880D03*
%TO.P,U4,2*%
%TO.N,/ATMega328/D4*%
X66192400Y24223980D03*
%TO.P,U4,1*%
%TO.N,/ATMega328/D3*%
X66192400Y25024080D03*
%TD*%
D13*
%TO.P,D1,1*%
%TO.N,Net-(C1-Pad2)*%
X55245000Y20955000D03*
D14*
%TO.P,D1,2*%
%TO.N,GND*%
X57785000Y20955000D03*
%TD*%
D15*
%TO.P,C7,2*%
%TO.N,VCC*%
X78105000Y23169800D03*
%TO.P,C7,1*%
%TO.N,GND*%
X78105000Y25069800D03*
%TD*%
%TO.P,C8,1*%
%TO.N,/ATMega328/DTR*%
X43180000Y1910000D03*
%TO.P,C8,2*%
%TO.N,/ATMega328/RESET*%
X43180000Y3810000D03*
%TD*%
%TO.P,C9,2*%
%TO.N,Net-(C9-Pad2)*%
X58420000Y35560000D03*
%TO.P,C9,1*%
%TO.N,GND*%
X58420000Y33660000D03*
%TD*%
%TO.P,C10,1*%
%TO.N,GND*%
X58420000Y30784800D03*
%TO.P,C10,2*%
%TO.N,Net-(C10-Pad2)*%
X58420000Y28884800D03*
%TD*%
D16*
%TO.P,P9,1*%
%TO.N,GND*%
X37084000Y21590000D03*
D17*
%TO.P,P9,2*%
X36830000Y19050000D03*
%TO.P,P9,3*%
%TO.N,VCC*%
X37084000Y16510000D03*
%TO.P,P9,4*%
%TO.N,/Rx*%
X36830000Y13970000D03*
%TO.P,P9,5*%
%TO.N,/Tx*%
X37084000Y11430000D03*
%TO.P,P9,6*%
%TO.N,/ATMega328/DTR*%
X36830000Y8890000D03*
%TD*%
D14*
%TO.P,P2,1*%
%TO.N,/Tx*%
X49530000Y5715000D03*
D13*
%TO.P,P2,2*%
%TO.N,/Rx*%
X54610000Y5715000D03*
%TO.P,P2,3*%
%TO.N,VCC*%
X59690000Y5715000D03*
%TO.P,P2,4*%
%TO.N,GND*%
X64770000Y5715000D03*
D18*
%TO.P,P2,1*%
%TO.N,/Tx*%
X54150000Y7826000D03*
D19*
%TO.P,P2,2*%
%TO.N,/Rx*%
X56150000Y7826000D03*
%TO.P,P2,3*%
%TO.N,VCC*%
X58150000Y7826000D03*
%TO.P,P2,4*%
%TO.N,GND*%
X60150000Y7826000D03*
%TD*%
D20*
%TO.P,P4,5*%
%TO.N,/ATMega328/RESET*%
X68580000Y34925000D03*
%TO.P,P4,6*%
%TO.N,GND*%
X71120000Y34925000D03*
%TO.P,P4,3*%
%TO.N,/ATMega328/SCLK*%
X68580000Y37465000D03*
%TO.P,P4,4*%
%TO.N,/ATMega328/MOSI*%
X71120000Y37465000D03*
%TO.P,P4,1*%
%TO.N,/ATMega328/MISO*%
X68580000Y40005000D03*
%TO.P,P4,2*%
%TO.N,VCC*%
X71120000Y40005000D03*
%TD*%
D15*
%TO.P,R7,2*%
%TO.N,/I2C_CLK*%
X70485000Y29845000D03*
%TO.P,R7,1*%
%TO.N,VCC*%
X70485000Y31745000D03*
%TD*%
D21*
%TO.P,SW2,1*%
%TO.N,/ATMega328/RESET*%
X42545000Y11811000D03*
%TO.P,SW2,2*%
%TO.N,GND*%
X42519600Y6985000D03*
%TD*%
D22*
%TO.P,U1,5*%
%TO.N,VCC*%
X52710000Y32545000D03*
%TO.P,U1,4*%
%TO.N,GND*%
X54610000Y32545000D03*
%TO.P,U1,1*%
%TO.N,Net-(C1-Pad1)*%
X52710000Y29845000D03*
%TO.P,U1,2*%
%TO.N,GND*%
X53660000Y29845000D03*
%TO.P,U1,3*%
%TO.N,Net-(C1-Pad2)*%
X54610000Y29845000D03*
%TD*%
D23*
%TO.P,Y1,1*%
%TO.N,Net-(C9-Pad2)*%
X62230000Y34290000D03*
%TO.P,Y1,2*%
%TO.N,Net-(C10-Pad2)*%
X62230000Y24638000D03*
%TD*%
D15*
%TO.P,C1,1*%
%TO.N,Net-(C1-Pad1)*%
X52070000Y26035000D03*
%TO.P,C1,2*%
%TO.N,Net-(C1-Pad2)*%
X52070000Y27935000D03*
%TD*%
D24*
%TO.P,C2,1*%
%TO.N,GND*%
X54610000Y34925000D03*
%TO.P,C2,2*%
%TO.N,VCC*%
X52710000Y34925000D03*
%TD*%
%TO.P,C3,2*%
%TO.N,GND*%
X43815000Y34798000D03*
%TO.P,C3,1*%
%TO.N,VCC*%
X45715000Y34798000D03*
%TD*%
D15*
%TO.P,C4,2*%
%TO.N,VCC*%
X42545000Y19182000D03*
%TO.P,C4,1*%
%TO.N,GND*%
X42545000Y21082000D03*
%TD*%
D24*
%TO.P,C5,1*%
%TO.N,GND*%
X75895200Y15875000D03*
%TO.P,C5,2*%
%TO.N,Net-(C5-Pad2)*%
X77795200Y15875000D03*
%TD*%
D25*
%TO.P,C6,1*%
%TO.N,VCC*%
X59135000Y13970000D03*
%TO.P,C6,2*%
%TO.N,GND*%
X64135000Y13970000D03*
%TD*%
D26*
%TO.P,D2,2*%
%TO.N,Net-(D2-Pad2)*%
X77724000Y9083040D03*
%TO.P,D2,1*%
%TO.N,GND*%
X77724000Y6985000D03*
%TD*%
D13*
%TO.P,P8,4*%
%TO.N,Net-(P8-Pad4)*%
X36830000Y27305000D03*
%TO.P,P8,3*%
%TO.N,Net-(P8-Pad3)*%
X36830000Y29845000D03*
%TO.P,P8,2*%
%TO.N,VCC*%
X36830000Y32385000D03*
D14*
%TO.P,P8,1*%
%TO.N,GND*%
X36830000Y34925000D03*
%TD*%
D15*
%TO.P,R1,2*%
%TO.N,Net-(C1-Pad2)*%
X55245000Y27940000D03*
%TO.P,R1,1*%
%TO.N,Net-(C1-Pad1)*%
X55245000Y26040000D03*
%TD*%
%TO.P,R4,2*%
%TO.N,Net-(D2-Pad2)*%
X67945000Y11435000D03*
%TO.P,R4,1*%
%TO.N,/ATMega328/D7_LED0*%
X67945000Y13335000D03*
%TD*%
D24*
%TO.P,R5,1*%
%TO.N,VCC*%
X41610200Y15494000D03*
%TO.P,R5,2*%
%TO.N,/ATMega328/RESET*%
X43510200Y15494000D03*
%TD*%
D15*
%TO.P,R6,1*%
%TO.N,VCC*%
X73025000Y31745000D03*
%TO.P,R6,2*%
%TO.N,/I2C_SDA*%
X73025000Y29845000D03*
%TD*%
D21*
%TO.P,SW1,2*%
%TO.N,GND*%
X72263000Y6477000D03*
%TO.P,SW1,1*%
%TO.N,/ATMega328/D8_SWA*%
X72288400Y11303000D03*
%TD*%
D27*
%TO.P,U3,8*%
%TO.N,VCC*%
X46095000Y18415000D03*
%TO.P,U3,1*%
%TO.N,/I2C_SDA*%
X51695000Y18415000D03*
%TO.P,U3,7*%
%TO.N,GND*%
X46095000Y19685000D03*
%TO.P,U3,6*%
X46095000Y20955000D03*
%TO.P,U3,5*%
X46095000Y22225000D03*
%TO.P,U3,2*%
%TO.N,/I2C_CLK*%
X51695000Y19685000D03*
%TO.P,U3,3*%
%TO.N,Net-(U3-Pad3)*%
X51695000Y20955000D03*
%TO.P,U3,4*%
%TO.N,GND*%
X51695000Y22225000D03*
%TD*%
D19*
%TO.P,P10,4*%
%TO.N,GND*%
X51720000Y40211000D03*
%TO.P,P10,3*%
%TO.N,VCC*%
X49720000Y40211000D03*
%TO.P,P10,2*%
%TO.N,/I2C_SDA*%
X47720000Y40211000D03*
D18*
%TO.P,P10,1*%
%TO.N,/I2C_CLK*%
X45720000Y40211000D03*
%TD*%
%TO.P,P1,1*%
%TO.N,/I2C_CLK*%
X58135000Y40211000D03*
D19*
%TO.P,P1,2*%
%TO.N,/I2C_SDA*%
X60135000Y40211000D03*
%TO.P,P1,3*%
%TO.N,VCC*%
X62135000Y40211000D03*
%TO.P,P1,4*%
%TO.N,GND*%
X64135000Y40211000D03*
%TD*%
D27*
%TO.P,U2,8*%
%TO.N,Net-(P8-Pad3)*%
X41910000Y27305000D03*
%TO.P,U2,1*%
%TO.N,Net-(C1-Pad1)*%
X47510000Y27305000D03*
%TO.P,U2,7*%
%TO.N,Net-(P8-Pad4)*%
X41910000Y28575000D03*
%TO.P,U2,6*%
%TO.N,GND*%
X41910000Y29845000D03*
%TO.P,U2,5*%
%TO.N,/I2C_CLK*%
X41910000Y31115000D03*
%TO.P,U2,2*%
%TO.N,GND*%
X47510000Y28575000D03*
%TO.P,U2,3*%
%TO.N,VCC*%
X47510000Y29845000D03*
%TO.P,U2,4*%
%TO.N,/I2C_SDA*%
X47510000Y31115000D03*
%TD*%
D28*
%TO.N,GND*%
X68326000Y22733000D03*
X76327000Y26797000D03*
X76327000Y29718000D03*
%TO.N,VCC*%
X76835000Y20574000D03*
X78740000Y20574000D03*
X39878000Y36068000D03*
X64643000Y20955000D03*
X78105000Y35814000D03*
X77470000Y29337000D03*
X46355000Y37211000D03*
%TO.N,/ATMega328/RESET*%
X45085000Y15494000D03*
X70104000Y28194000D03*
X65532000Y33782000D03*
%TO.N,/Rx*%
X65674000Y29083000D03*
%TO.N,/Tx*%
X65024000Y30226000D03*
%TO.N,/I2C_SDA*%
X53340000Y17780000D03*
X48514000Y32893000D03*
X73406000Y28067000D03*
%TO.N,/I2C_CLK*%
X53467000Y18923000D03*
X41148000Y32766000D03*
%TO.N,/ATMega328/A0*%
X76962000Y30480000D03*
X75819000Y26162000D03*
%TO.N,/ATMega328/SCLK*%
X76581000Y18923000D03*
%TO.N,/ATMega328/MOSI*%
X72517000Y15367000D03*
X73533000Y35814000D03*
%TO.N,/ATMega328/MISO*%
X73279000Y16256000D03*
%TO.N,/ATMega328/A2*%
X78471000Y31623000D03*
X78486000Y34544000D03*
%TO.N,Net-(P8-Pad4)*%
X40005000Y29718000D03*
%TD*%
D29*
%TO.N,GND*%
X75701902Y22623780D02*
X76708000Y23629878D01*
X74777600Y22623780D02*
X75701902Y22623780D01*
X77794998Y25069800D02*
X78105000Y25069800D01*
X76708000Y23982802D02*
X77794998Y25069800D01*
X76708000Y23629878D02*
X76708000Y23982802D01*
X75311000Y34544000D02*
X75311000Y31750000D01*
X58420000Y33660000D02*
X58420000Y30784800D01*
X53660000Y29845000D02*
X53660000Y31181000D01*
X54610000Y32131000D02*
X54610000Y32545000D01*
X53660000Y31181000D02*
X54610000Y32131000D01*
X54610000Y32545000D02*
X54610000Y34925000D01*
X41910000Y29845000D02*
X43180000Y29845000D01*
X43815000Y30480000D02*
X43815000Y34798000D01*
X43180000Y29845000D02*
X43815000Y30480000D01*
X71010780Y22623780D02*
X70213220Y21826220D01*
X74777600Y22623780D02*
X71010780Y22623780D01*
X70213220Y21826220D02*
X66192400Y21826220D01*
X70210680Y23423880D02*
X71010780Y22623780D01*
X45968000Y21082000D02*
X46095000Y20955000D01*
X46095000Y19685000D02*
X44958000Y19685000D01*
X44450000Y20193000D02*
X44450000Y21082000D01*
X44958000Y19685000D02*
X44450000Y20193000D01*
X44450000Y21082000D02*
X45968000Y21082000D01*
X42545000Y21082000D02*
X44450000Y21082000D01*
X46095000Y22225000D02*
X44831000Y22225000D01*
X44450000Y21844000D02*
X44450000Y21082000D01*
X44831000Y22225000D02*
X44450000Y21844000D01*
X46095000Y22225000D02*
X51695000Y22225000D01*
X47510000Y28575000D02*
X48768000Y28575000D01*
X51374000Y31181000D02*
X53660000Y31181000D01*
X48768000Y28575000D02*
X51374000Y31181000D01*
X54610000Y32545000D02*
X55786000Y32545000D01*
X56901000Y33660000D02*
X58420000Y33660000D01*
X55786000Y32545000D02*
X56901000Y33660000D01*
X51720000Y40211000D02*
X51720000Y39085000D01*
X51720000Y39085000D02*
X53213000Y37592000D01*
X64135000Y38354000D02*
X64135000Y40211000D01*
X63373000Y37592000D02*
X64135000Y38354000D01*
X54610000Y34925000D02*
X54610000Y37592000D01*
X54610000Y37592000D02*
X63373000Y37592000D01*
X53213000Y37592000D02*
X54610000Y37592000D01*
X36830000Y21336000D02*
X37084000Y21590000D01*
X36830000Y19050000D02*
X36830000Y21336000D01*
X37084000Y21590000D02*
X39624000Y21590000D01*
X40132000Y21082000D02*
X42545000Y21082000D01*
X39624000Y21590000D02*
X40132000Y21082000D01*
X51695000Y22225000D02*
X52451000Y22225000D01*
X52451000Y22225000D02*
X53594000Y21082000D01*
X53594000Y21082000D02*
X53594000Y20066000D01*
X53594000Y20066000D02*
X54610000Y19050000D01*
X57785000Y19177000D02*
X57785000Y20955000D01*
X57658000Y19050000D02*
X57785000Y19177000D01*
X57404000Y19050000D02*
X62230000Y19050000D01*
X54610000Y19050000D02*
X57404000Y19050000D01*
X57404000Y19050000D02*
X57658000Y19050000D01*
X64135000Y17145000D02*
X64135000Y13970000D01*
X62230000Y19050000D02*
X64135000Y17145000D01*
X71120000Y34925000D02*
X73279000Y34925000D01*
X73660000Y34544000D02*
X75311000Y34544000D01*
X73279000Y34925000D02*
X73660000Y34544000D01*
X43688000Y34925000D02*
X43815000Y34798000D01*
X36830000Y34925000D02*
X43688000Y34925000D01*
X45720000Y28575000D02*
X43815000Y30480000D01*
X47510000Y28575000D02*
X45720000Y28575000D01*
X77724000Y6985000D02*
X78105000Y6985000D01*
X78105000Y6985000D02*
X79121000Y8001000D01*
X79121000Y8001000D02*
X79121000Y10922000D01*
X75895200Y14147800D02*
X75895200Y15875000D01*
X79121000Y10922000D02*
X75895200Y14147800D01*
X68326000Y22733000D02*
X68326000Y23352760D01*
X68397120Y23423880D02*
X70210680Y23423880D01*
X68326000Y23352760D02*
X68397120Y23423880D01*
X66192400Y23423880D02*
X68397120Y23423880D01*
X75438000Y31623000D02*
X75311000Y31750000D01*
D30*
X75311000Y30353000D02*
X75311000Y31750000D01*
X75946000Y29718000D02*
X75311000Y30353000D01*
D29*
X76708000Y23982802D02*
X76708000Y26416000D01*
X76708000Y26416000D02*
X76327000Y26797000D01*
X44450000Y29845000D02*
X43815000Y30480000D01*
X44450000Y21844000D02*
X44450000Y29845000D01*
X62659000Y7826000D02*
X64770000Y5715000D01*
X60150000Y7826000D02*
X62659000Y7826000D01*
X62738000Y3683000D02*
X64770000Y5715000D01*
X47752000Y3683000D02*
X62738000Y3683000D01*
X44450000Y6985000D02*
X47752000Y3683000D01*
X42519600Y6985000D02*
X44450000Y6985000D01*
X71501000Y5715000D02*
X72263000Y6477000D01*
X64770000Y5715000D02*
X71501000Y5715000D01*
X77216000Y6477000D02*
X77724000Y6985000D01*
X72263000Y6477000D02*
X77216000Y6477000D01*
X62659000Y10716000D02*
X64135000Y12192000D01*
X62659000Y7826000D02*
X62659000Y10716000D01*
X64135000Y12192000D02*
X64135000Y13970000D01*
%TO.N,Net-(C1-Pad2)*%
X55245000Y20955000D02*
X55245000Y22479000D01*
X55245000Y22479000D02*
X56896000Y24130000D01*
X56896000Y24130000D02*
X56896000Y27559000D01*
X56515000Y27940000D02*
X55245000Y27940000D01*
X56896000Y27559000D02*
X56515000Y27940000D01*
X55240000Y27935000D02*
X55245000Y27940000D01*
X52070000Y27935000D02*
X55240000Y27935000D01*
X54610000Y28575000D02*
X55245000Y27940000D01*
X54610000Y29845000D02*
X54610000Y28575000D01*
%TO.N,Net-(C1-Pad1)*%
X52710000Y29845000D02*
X51181000Y29845000D01*
X51181000Y29845000D02*
X50419000Y29083000D01*
X55240000Y26035000D02*
X55245000Y26040000D01*
X52070000Y26035000D02*
X55240000Y26035000D01*
X50292000Y27305000D02*
X50419000Y27432000D01*
X47510000Y27305000D02*
X50292000Y27305000D01*
X50419000Y29083000D02*
X50419000Y27432000D01*
X50419000Y27432000D02*
X50419000Y26416000D01*
X50800000Y26035000D02*
X52070000Y26035000D01*
X50419000Y26416000D02*
X50800000Y26035000D01*
%TO.N,VCC*%
X70485000Y31745000D02*
X73025000Y31745000D01*
X66184780Y22623780D02*
X66116621Y22555621D01*
X66192400Y22623780D02*
X66184780Y22623780D01*
X52710000Y32545000D02*
X52710000Y34925000D01*
X47510000Y29845000D02*
X46228000Y29845000D01*
X45715000Y30358000D02*
X45715000Y34798000D01*
X46228000Y29845000D02*
X45715000Y30358000D01*
X71556880Y21026120D02*
X72356980Y20226020D01*
X66192400Y21026120D02*
X71556880Y21026120D01*
X72356980Y20226020D02*
X74777600Y20226020D01*
X65257400Y21026120D02*
X64947520Y21336000D01*
X66192400Y21026120D02*
X65257400Y21026120D01*
X64947520Y21336000D02*
X64947520Y22148520D01*
X65422780Y22623780D02*
X64947520Y22148520D01*
X66192400Y22623780D02*
X65422780Y22623780D01*
X37084000Y16510000D02*
X39116000Y16510000D01*
X74777600Y20226020D02*
X76487020Y20226020D01*
X76487020Y20226020D02*
X76835000Y20574000D01*
X78740000Y22534800D02*
X78105000Y23169800D01*
X78740000Y20574000D02*
X78740000Y22534800D01*
X49720000Y30925000D02*
X49784000Y30861000D01*
X48768000Y29845000D02*
X49784000Y30861000D01*
X49720000Y36639000D02*
X49720000Y40211000D01*
X49783000Y34925000D02*
X49720000Y34988000D01*
X52710000Y34925000D02*
X49783000Y34925000D01*
X49720000Y36639000D02*
X49720000Y34988000D01*
X49817000Y32545000D02*
X49720000Y32448000D01*
X52710000Y32545000D02*
X49817000Y32545000D01*
X49720000Y32448000D02*
X49720000Y30925000D01*
X49720000Y34988000D02*
X49720000Y32448000D01*
X64947520Y21336000D02*
X64947520Y21259520D01*
X64947520Y21259520D02*
X64643000Y20955000D01*
X73025000Y31745000D02*
X73284000Y31745000D01*
D30*
X73284000Y31672880D02*
X76000880Y28956000D01*
D29*
X73284000Y31745000D02*
X73284000Y31672880D01*
X76000880Y28956000D02*
X77089000Y28956000D01*
X77089000Y28956000D02*
X77470000Y29337000D01*
X58150000Y12985000D02*
X59135000Y13970000D01*
X58150000Y7826000D02*
X58150000Y12985000D01*
X58150000Y7826000D02*
X58150000Y8906000D01*
X53086000Y13970000D02*
X52641500Y14414500D01*
X59135000Y13970000D02*
X53086000Y13970000D01*
X37084000Y16510000D02*
X39243000Y16510000D01*
X39243000Y16510000D02*
X40005000Y17272000D01*
X49784000Y17272000D02*
X50038000Y17018000D01*
X52641500Y14414500D02*
X50038000Y17018000D01*
X41610200Y15494000D02*
X41610200Y17190800D01*
X41610200Y17190800D02*
X41529000Y17272000D01*
X40005000Y17272000D02*
X41529000Y17272000D01*
X42545000Y19182000D02*
X42545000Y17399000D01*
X42545000Y17399000D02*
X42672000Y17272000D01*
X41529000Y17272000D02*
X42672000Y17272000D01*
X46095000Y17278000D02*
X46101000Y17272000D01*
X46095000Y18415000D02*
X46095000Y17278000D01*
X46101000Y17272000D02*
X49784000Y17272000D01*
X42672000Y17272000D02*
X46101000Y17272000D01*
X36830000Y32385000D02*
X35280179Y30835179D01*
X36270358Y16510000D02*
X35280179Y17500179D01*
X37084000Y16510000D02*
X36270358Y16510000D01*
X35280179Y30835179D02*
X35280179Y17500179D01*
X39878000Y36068000D02*
X41021000Y37211000D01*
X41021000Y37211000D02*
X44948000Y37211000D01*
X44948000Y37211000D02*
X45715000Y36444000D01*
X45715000Y36444000D02*
X45715000Y34798000D01*
X49720000Y30797000D02*
X48768000Y29845000D01*
X49720000Y40211000D02*
X49720000Y30797000D01*
X47510000Y29845000D02*
X48768000Y29845000D01*
X44948000Y37211000D02*
X46355000Y37211000D01*
X72771000Y37973000D02*
X74930000Y35814000D01*
X72771000Y38354000D02*
X72771000Y37973000D01*
X74930000Y35814000D02*
X78105000Y35814000D01*
X72771000Y38354000D02*
X71120000Y40005000D01*
%TO.N,Net-(C5-Pad2)*%
X77795200Y21264800D02*
X77233780Y21826220D01*
X77795200Y15875000D02*
X77795200Y21264800D01*
X77233780Y21826220D02*
X74777600Y21826220D01*
D30*
%TO.N,/ATMega328/DTR*%
X41905000Y1910000D02*
X43180000Y1910000D01*
X41656000Y2159000D02*
X41905000Y1910000D01*
X36830000Y8890000D02*
X36830000Y6858000D01*
X36830000Y6858000D02*
X38862000Y4826000D01*
X39751000Y4826000D02*
X41656000Y2921000D01*
X38862000Y4826000D02*
X39751000Y4826000D01*
X41656000Y2921000D02*
X41656000Y2159000D01*
%TO.N,/ATMega328/RESET*%
X43180000Y3810000D02*
X41529000Y3810000D01*
X41529000Y3810000D02*
X39116000Y6223000D01*
D29*
X39116000Y6223000D02*
X39116000Y10287000D01*
X40640000Y11811000D02*
X42545000Y11811000D01*
X39116000Y10287000D02*
X40640000Y11811000D01*
X43510200Y12776200D02*
X42545000Y11811000D01*
X43510200Y15494000D02*
X43510200Y12776200D01*
X43510200Y15494000D02*
X45085000Y15494000D01*
X70104000Y26535380D02*
X70086220Y26517600D01*
X70104000Y28194000D02*
X70104000Y26535380D01*
X68580000Y34925000D02*
X66675000Y34925000D01*
X66675000Y34925000D02*
X65532000Y33782000D01*
%TO.N,Net-(C9-Pad2)*%
X60960000Y35560000D02*
X62230000Y34290000D01*
X58420000Y35560000D02*
X60960000Y35560000D01*
D30*
X62230000Y32258000D02*
X62230000Y34290000D01*
X66192400Y20226020D02*
X64228980Y20226020D01*
X64228980Y20226020D02*
X63881000Y20574000D01*
X63881000Y20574000D02*
X63881000Y30607000D01*
X63881000Y30607000D02*
X62230000Y32258000D01*
D29*
%TO.N,Net-(C10-Pad2)*%
X58420000Y28884800D02*
X58420000Y27305000D01*
X61087000Y24638000D02*
X62230000Y24638000D01*
X58420000Y27305000D02*
X61087000Y24638000D01*
D30*
X66192400Y19425920D02*
X62997080Y19425920D01*
X62997080Y19425920D02*
X62230000Y20193000D01*
X62230000Y20193000D02*
X62230000Y24638000D01*
D29*
%TO.N,Net-(D2-Pad2)*%
X67945000Y11435000D02*
X67945000Y10160000D01*
X67945000Y10160000D02*
X69215000Y8890000D01*
X69215000Y8890000D02*
X75819000Y8890000D01*
X76012040Y9083040D02*
X77724000Y9083040D01*
X75819000Y8890000D02*
X76012040Y9083040D01*
%TO.N,/Rx*%
X56150000Y8620000D02*
X56150000Y7826000D01*
X65674000Y29083000D02*
X68326000Y29083000D01*
X69286120Y28122880D02*
X69286120Y26517600D01*
X68326000Y29083000D02*
X69286120Y28122880D01*
D30*
%TO.N,/Tx*%
X65023999Y28770999D02*
X65473998Y28321000D01*
X65024000Y30226000D02*
X65023999Y28770999D01*
D29*
X68072000Y28321000D02*
X68486020Y27906980D01*
X65473998Y28321000D02*
X68072000Y28321000D01*
X68486020Y27906980D02*
X68486020Y26517600D01*
X49530000Y5715000D02*
X49530000Y6604000D01*
X50752000Y7826000D02*
X54150000Y7826000D01*
X49530000Y6604000D02*
X50752000Y7826000D01*
%TO.N,/I2C_SDA*%
X72953880Y29773880D02*
X73025000Y29845000D01*
X47510000Y40001000D02*
X47720000Y40211000D01*
X71683880Y26517600D02*
X71683880Y27487880D01*
X73025000Y28829000D02*
X73025000Y29845000D01*
X51695000Y18415000D02*
X52705000Y18415000D01*
X52705000Y18415000D02*
X53340000Y17780000D01*
X47522000Y32893000D02*
X47510000Y32905000D01*
X48514000Y32893000D02*
X47522000Y32893000D01*
X47510000Y32905000D02*
X47510000Y40001000D01*
X47510000Y31115000D02*
X47510000Y32905000D01*
X73406000Y28067000D02*
X72834500Y28638500D01*
X72834500Y28638500D02*
X73025000Y28829000D01*
X71683880Y27487880D02*
X72834500Y28638500D01*
%TO.N,/I2C_CLK*%
X70485000Y29464000D02*
X70485000Y29845000D01*
X45720000Y40211000D02*
X45720000Y41275000D01*
X45720000Y41275000D02*
X46609000Y42164000D01*
X70883780Y29446220D02*
X70485000Y29845000D01*
X70883780Y26517600D02*
X70883780Y29446220D01*
X46609000Y42164000D02*
X57150000Y42164000D01*
X58135000Y42068000D02*
X58039000Y42164000D01*
X58135000Y40211000D02*
X58135000Y42068000D01*
X58039000Y42164000D02*
X57150000Y42164000D01*
X64516000Y42164000D02*
X58039000Y42164000D01*
X65659000Y41021000D02*
X64516000Y42164000D01*
X65659000Y38608000D02*
X65659000Y41021000D01*
X64516000Y37465000D02*
X65659000Y38608000D01*
X64516000Y33274000D02*
X64516000Y37465000D01*
X67945000Y29845000D02*
X64516000Y33274000D01*
X70485000Y29845000D02*
X67945000Y29845000D01*
X51695000Y19685000D02*
X52705000Y19685000D01*
X52705000Y19685000D02*
X53467000Y18923000D01*
X41910000Y32004000D02*
X41910000Y31623000D01*
X41148000Y32766000D02*
X41910000Y32004000D01*
X41910000Y31115000D02*
X41910000Y31623000D01*
%TO.N,/ATMega328/A0*%
X76962000Y30480000D02*
X76962000Y31750000D01*
D30*
X75819000Y24630899D02*
X75762601Y24574500D01*
X75819000Y26162000D02*
X75819000Y24630899D01*
X75412081Y24223980D02*
X75819000Y24630899D01*
D29*
X74777600Y24223980D02*
X75412081Y24223980D01*
D30*
%TO.N,/ATMega328/A1*%
X74777600Y25024080D02*
X74777600Y26390600D01*
X75834001Y27447001D02*
X78089999Y27447001D01*
X74777600Y26390600D02*
X75834001Y27447001D01*
X79121001Y28478003D02*
X79121001Y32765999D01*
X78089999Y27447001D02*
X79121001Y28478003D01*
X78740000Y33147000D02*
X76962000Y33147000D01*
X79121001Y32765999D02*
X78740000Y33147000D01*
D29*
%TO.N,/ATMega328/SCLK*%
X76581000Y18923000D02*
X76073000Y19431000D01*
X74782680Y19431000D02*
X74777600Y19425920D01*
X76073000Y19431000D02*
X74782680Y19431000D01*
%TO.N,/ATMega328/MOSI*%
X72517000Y17899380D02*
X72483980Y17932400D01*
X72517000Y15367000D02*
X72517000Y17899380D01*
X71120000Y37465000D02*
X72771000Y35814000D01*
X72771000Y35814000D02*
X73533000Y35814000D01*
%TO.N,/ATMega328/MISO*%
X73279000Y17927320D02*
X73284080Y17932400D01*
X73279000Y16256000D02*
X73279000Y17927320D01*
%TO.N,/ATMega328/D7_LED0*%
X67945000Y13335000D02*
X67945000Y14605000D01*
X69286120Y15946120D02*
X69286120Y17932400D01*
X67945000Y14605000D02*
X69286120Y15946120D01*
%TO.N,/ATMega328/D8_SWA*%
X70086220Y17932400D02*
X70086220Y16273780D01*
X72288400Y14071600D02*
X72288400Y11303000D01*
X70086220Y16273780D02*
X72288400Y14071600D01*
%TO.N,/ATMega328/A2*%
X78486000Y34544000D02*
X76962000Y34544000D01*
D30*
X77851000Y28067000D02*
X78486000Y28702000D01*
X73888600Y26517600D02*
X75438000Y28067000D01*
D29*
X73284080Y26517600D02*
X73888600Y26517600D01*
D30*
X75438000Y28067000D02*
X77851000Y28067000D01*
X78486000Y31608000D02*
X78471000Y31623000D01*
X78486000Y28702000D02*
X78486000Y31608000D01*
D29*
%TO.N,Net-(P8-Pad4)*%
X41148000Y28575000D02*
X41910000Y28575000D01*
X40005000Y29718000D02*
X41148000Y28575000D01*
%TO.N,Net-(P8-Pad3)*%
X36830000Y29845000D02*
X38354000Y29845000D01*
X40894000Y27305000D02*
X41910000Y27305000D01*
X38354000Y29845000D02*
X40894000Y27305000D01*
%TD*%
D31*
%TO.N,GND*%
X45124951Y41931529D02*
X45091184Y41903817D01*
X45063471Y41870049D01*
X45063468Y41870046D01*
X44980590Y41769059D01*
X44898412Y41615313D01*
X44891129Y41591304D01*
X44845518Y41586812D01*
X44725820Y41550502D01*
X44615506Y41491537D01*
X44518815Y41412185D01*
X44439463Y41315494D01*
X44380498Y41205180D01*
X44344188Y41085482D01*
X44331928Y40961000D01*
X44331928Y39461000D01*
X44344188Y39336518D01*
X44380498Y39216820D01*
X44439463Y39106506D01*
X44518815Y39009815D01*
X44615506Y38930463D01*
X44725820Y38871498D01*
X44845518Y38835188D01*
X44970000Y38822928D01*
X46470000Y38822928D01*
X46594482Y38835188D01*
X46625001Y38844446D01*
X46625001Y38110611D01*
X46447089Y38146000D01*
X46262911Y38146000D01*
X46082271Y38110068D01*
X46048308Y38096000D01*
X44991469Y38096000D01*
X44948000Y38100281D01*
X44904531Y38096000D01*
X41064465Y38096000D01*
X41020999Y38100281D01*
X40977533Y38096000D01*
X40977523Y38096000D01*
X40847510Y38083195D01*
X40680687Y38032589D01*
X40526941Y37950411D01*
X40526939Y37950410D01*
X40526940Y37950410D01*
X40425953Y37867532D01*
X40425951Y37867530D01*
X40392183Y37839817D01*
X40364470Y37806049D01*
X39469077Y36910655D01*
X39435111Y36896586D01*
X39281972Y36794262D01*
X39151738Y36664028D01*
X39049414Y36510889D01*
X38978932Y36340729D01*
X38943000Y36160089D01*
X38943000Y35975911D01*
X38978932Y35795271D01*
X39049414Y35625111D01*
X39151738Y35471972D01*
X39281972Y35341738D01*
X39435111Y35239414D01*
X39605271Y35168932D01*
X39785911Y35133000D01*
X39970089Y35133000D01*
X40150729Y35168932D01*
X40320889Y35239414D01*
X40474028Y35341738D01*
X40604262Y35471972D01*
X40655062Y35548000D01*
X42526928Y35548000D01*
X42530000Y35083750D01*
X42688750Y34925000D01*
X43688000Y34925000D01*
X43688000Y36024250D01*
X43529250Y36183000D01*
X43165000Y36186072D01*
X43040518Y36173812D01*
X42920820Y36137502D01*
X42810506Y36078537D01*
X42713815Y35999185D01*
X42634463Y35902494D01*
X42575498Y35792180D01*
X42539188Y35672482D01*
X42526928Y35548000D01*
X40655062Y35548000D01*
X40706586Y35625111D01*
X40720655Y35659077D01*
X41387579Y36326000D01*
X44581422Y36326000D01*
X44787650Y36119772D01*
X44765000Y36107665D01*
X44709180Y36137502D01*
X44589482Y36173812D01*
X44465000Y36186072D01*
X44100750Y36183000D01*
X43942000Y36024250D01*
X43942000Y34925000D01*
X43962000Y34925000D01*
X43962000Y34671000D01*
X43942000Y34671000D01*
X43942000Y33571750D01*
X44100750Y33413000D01*
X44465000Y33409928D01*
X44589482Y33422188D01*
X44709180Y33458498D01*
X44765000Y33488335D01*
X44820820Y33458498D01*
X44830001Y33455713D01*
X44830000Y30401469D01*
X44825719Y30358000D01*
X44830000Y30314531D01*
X44830000Y30314524D01*
X44834601Y30267809D01*
X44842805Y30184510D01*
X44847758Y30168183D01*
X44893411Y30017688D01*
X44975589Y29863942D01*
X45086183Y29729183D01*
X45119956Y29701466D01*
X45571466Y29249956D01*
X45599183Y29216183D01*
X45715727Y29120537D01*
X45733941Y29105589D01*
X45887686Y29023411D01*
X46038927Y28977532D01*
X46054510Y28972805D01*
X46180595Y28960387D01*
X46172158Y28874720D01*
X46175230Y28860750D01*
X46333980Y28702000D01*
X47383000Y28702000D01*
X47383000Y28722000D01*
X47637000Y28722000D01*
X47637000Y28702000D01*
X48686020Y28702000D01*
X48844770Y28860750D01*
X48847842Y28874720D01*
X48839174Y28962728D01*
X48941490Y28972805D01*
X49108313Y29023411D01*
X49262059Y29105589D01*
X49396817Y29216183D01*
X49424534Y29249956D01*
X49597202Y29422624D01*
X49566999Y29323059D01*
X49550090Y29267317D01*
X49546805Y29256489D01*
X49534000Y29126476D01*
X49534000Y29126469D01*
X49529719Y29083000D01*
X49534000Y29039531D01*
X49534001Y28190000D01*
X48839443Y28190000D01*
X48847842Y28275280D01*
X48844770Y28289250D01*
X48686020Y28448000D01*
X47637000Y28448000D01*
X47637000Y28428000D01*
X47383000Y28428000D01*
X47383000Y28448000D01*
X46333980Y28448000D01*
X46175230Y28289250D01*
X46172158Y28275280D01*
X46184418Y28150798D01*
X46220728Y28031100D01*
X46269423Y27940000D01*
X46220728Y27848900D01*
X46184418Y27729202D01*
X46172158Y27604720D01*
X46172158Y27005280D01*
X46184418Y26880798D01*
X46220728Y26761100D01*
X46279693Y26650786D01*
X46359045Y26554095D01*
X46455736Y26474743D01*
X46566050Y26415778D01*
X46685748Y26379468D01*
X46810230Y26367208D01*
X48209770Y26367208D01*
X48334252Y26379468D01*
X48453950Y26415778D01*
X48461849Y26420000D01*
X49530113Y26420000D01*
X49529719Y26416000D01*
X49546805Y26242510D01*
X49597412Y26075687D01*
X49679590Y25921941D01*
X49762468Y25820954D01*
X49762471Y25820951D01*
X49790184Y25787183D01*
X49823952Y25759470D01*
X50143466Y25439956D01*
X50171183Y25406183D01*
X50305941Y25295589D01*
X50459687Y25213411D01*
X50626510Y25162805D01*
X50726826Y25152925D01*
X50730498Y25140820D01*
X50789463Y25030506D01*
X50868815Y24933815D01*
X50965506Y24854463D01*
X51075820Y24795498D01*
X51195518Y24759188D01*
X51320000Y24746928D01*
X52820000Y24746928D01*
X52944482Y24759188D01*
X53064180Y24795498D01*
X53174494Y24854463D01*
X53271185Y24933815D01*
X53350537Y25030506D01*
X53409502Y25140820D01*
X53412287Y25150000D01*
X53904230Y25150000D01*
X53905498Y25145820D01*
X53964463Y25035506D01*
X54043815Y24938815D01*
X54140506Y24859463D01*
X54250820Y24800498D01*
X54370518Y24764188D01*
X54495000Y24751928D01*
X55995000Y24751928D01*
X56011000Y24753504D01*
X56011000Y24496579D01*
X54649951Y23135529D01*
X54616184Y23107817D01*
X54588471Y23074049D01*
X54588468Y23074046D01*
X54505590Y22973059D01*
X54423412Y22819313D01*
X54372805Y22652490D01*
X54355719Y22479000D01*
X54360001Y22435521D01*
X54360001Y22349303D01*
X54192549Y22237415D01*
X53962585Y22007451D01*
X53781903Y21737042D01*
X53657447Y21436579D01*
X53594000Y21117609D01*
X53594000Y20792391D01*
X53657447Y20473421D01*
X53781903Y20172958D01*
X53962585Y19902549D01*
X54192549Y19672585D01*
X54462958Y19491903D01*
X54763421Y19367447D01*
X55082391Y19304000D01*
X55407609Y19304000D01*
X55726579Y19367447D01*
X56027042Y19491903D01*
X56219296Y19620364D01*
X56238463Y19584506D01*
X56317815Y19487815D01*
X56414506Y19408463D01*
X56524820Y19349498D01*
X56644518Y19313188D01*
X56769000Y19300928D01*
X57499250Y19304000D01*
X57658000Y19462750D01*
X57658000Y20828000D01*
X57912000Y20828000D01*
X57912000Y19462750D01*
X58070750Y19304000D01*
X58801000Y19300928D01*
X58925482Y19313188D01*
X59045180Y19349498D01*
X59155494Y19408463D01*
X59252185Y19487815D01*
X59331537Y19584506D01*
X59390502Y19694820D01*
X59426812Y19814518D01*
X59439072Y19939000D01*
X59436000Y20669250D01*
X59277250Y20828000D01*
X57912000Y20828000D01*
X57658000Y20828000D01*
X57638000Y20828000D01*
X57638000Y21082000D01*
X57658000Y21082000D01*
X57658000Y22447250D01*
X57912000Y22447250D01*
X57912000Y21082000D01*
X59277250Y21082000D01*
X59436000Y21240750D01*
X59439072Y21971000D01*
X59426812Y22095482D01*
X59390502Y22215180D01*
X59331537Y22325494D01*
X59252185Y22422185D01*
X59155494Y22501537D01*
X59045180Y22560502D01*
X58925482Y22596812D01*
X58801000Y22609072D01*
X58070750Y22606000D01*
X57912000Y22447250D01*
X57658000Y22447250D01*
X57499250Y22606000D01*
X56769000Y22609072D01*
X56644518Y22596812D01*
X56601272Y22583693D01*
X57491050Y23473471D01*
X57524817Y23501183D01*
X57579751Y23568119D01*
X57635411Y23635941D01*
X57717589Y23789686D01*
X57768195Y23956510D01*
X57771630Y23991388D01*
X57781000Y24086523D01*
X57781000Y24086531D01*
X57785281Y24130000D01*
X57781000Y24173469D01*
X57781000Y26688592D01*
X57791184Y26676183D01*
X57824951Y26648471D01*
X60430470Y24042951D01*
X60458183Y24009183D01*
X60491951Y23981470D01*
X60491953Y23981468D01*
X60592941Y23898589D01*
X60626728Y23880530D01*
X60626728Y21971000D01*
X60638988Y21846518D01*
X60675298Y21726820D01*
X60734263Y21616506D01*
X60813615Y21519815D01*
X60910306Y21440463D01*
X61020620Y21381498D01*
X61140318Y21345188D01*
X61264800Y21332928D01*
X61445000Y21332928D01*
X61445000Y20231553D01*
X61441203Y20193000D01*
X61445000Y20154447D01*
X61445000Y20154440D01*
X61456359Y20039114D01*
X61501246Y19891141D01*
X61574138Y19754768D01*
X61672236Y19635236D01*
X61702189Y19610653D01*
X62414737Y18898105D01*
X62439316Y18868156D01*
X62469264Y18843578D01*
X62469267Y18843575D01*
X62484698Y18830911D01*
X62558847Y18770058D01*
X62695220Y18697166D01*
X62843193Y18652278D01*
X62918106Y18644900D01*
X62958519Y18640920D01*
X62958524Y18640920D01*
X62997080Y18637123D01*
X63035635Y18640920D01*
X65172520Y18640920D01*
X65202906Y18615983D01*
X65313220Y18557018D01*
X65432918Y18520708D01*
X65557400Y18508448D01*
X66768448Y18508448D01*
X66768448Y17297400D01*
X66780708Y17172918D01*
X66817018Y17053220D01*
X66875983Y16942906D01*
X66955335Y16846215D01*
X67052026Y16766863D01*
X67162340Y16707898D01*
X67282038Y16671588D01*
X67406520Y16659328D01*
X67965320Y16659328D01*
X68085970Y16671211D01*
X68206620Y16659328D01*
X68401120Y16659328D01*
X68401120Y16312699D01*
X67349951Y15261529D01*
X67316184Y15233817D01*
X67288471Y15200049D01*
X67288468Y15200046D01*
X67205590Y15099059D01*
X67123412Y14945313D01*
X67072805Y14778490D01*
X67055853Y14606364D01*
X66950820Y14574502D01*
X66840506Y14515537D01*
X66743815Y14436185D01*
X66664463Y14339494D01*
X66605498Y14229180D01*
X66569188Y14109482D01*
X66556928Y13985000D01*
X66556928Y12685000D01*
X66569188Y12560518D01*
X66605498Y12440820D01*
X66635335Y12385000D01*
X66605498Y12329180D01*
X66569188Y12209482D01*
X66556928Y12085000D01*
X66556928Y10785000D01*
X66569188Y10660518D01*
X66605498Y10540820D01*
X66664463Y10430506D01*
X66743815Y10333815D01*
X66840506Y10254463D01*
X66950820Y10195498D01*
X67056071Y10163571D01*
X67055719Y10160000D01*
X67072805Y9986510D01*
X67123412Y9819687D01*
X67205590Y9665941D01*
X67288468Y9564954D01*
X67288471Y9564951D01*
X67316184Y9531183D01*
X67349951Y9503471D01*
X68558470Y8294951D01*
X68586183Y8261183D01*
X68619951Y8233470D01*
X68619953Y8233468D01*
X68647519Y8210845D01*
X68720941Y8150589D01*
X68874687Y8068411D01*
X69041510Y8017805D01*
X69171523Y8005000D01*
X69171533Y8005000D01*
X69214999Y8000719D01*
X69258465Y8005000D01*
X70428806Y8005000D01*
X70426048Y7977000D01*
X70429120Y6762750D01*
X70587870Y6604000D01*
X72136000Y6604000D01*
X72136000Y6624000D01*
X72390000Y6624000D01*
X72390000Y6604000D01*
X73938130Y6604000D01*
X74096880Y6762750D01*
X74099952Y7977000D01*
X74097194Y8005000D01*
X75775531Y8005000D01*
X75819000Y8000719D01*
X75862469Y8005000D01*
X75862477Y8005000D01*
X75992490Y8017805D01*
X76159313Y8068411D01*
X76313059Y8150589D01*
X76370878Y8198040D01*
X76557176Y8198040D01*
X76594023Y8129106D01*
X76672058Y8034020D01*
X76594023Y7938934D01*
X76535058Y7828620D01*
X76498748Y7708922D01*
X76486488Y7584440D01*
X76489560Y7270750D01*
X76648310Y7112000D01*
X77597000Y7112000D01*
X77597000Y7132000D01*
X77851000Y7132000D01*
X77851000Y7112000D01*
X78799690Y7112000D01*
X78958440Y7270750D01*
X78961512Y7584440D01*
X78949252Y7708922D01*
X78912942Y7828620D01*
X78853977Y7938934D01*
X78775942Y8034020D01*
X78853977Y8129106D01*
X78912942Y8239420D01*
X78949252Y8359118D01*
X78961512Y8483600D01*
X78961512Y9682480D01*
X78949252Y9806962D01*
X78912942Y9926660D01*
X78853977Y10036974D01*
X78774625Y10133665D01*
X78677934Y10213017D01*
X78567620Y10271982D01*
X78447922Y10308292D01*
X78323440Y10320552D01*
X77124560Y10320552D01*
X77000078Y10308292D01*
X76880380Y10271982D01*
X76770066Y10213017D01*
X76673375Y10133665D01*
X76594023Y10036974D01*
X76557176Y9968040D01*
X76055509Y9968040D01*
X76012040Y9972321D01*
X75968571Y9968040D01*
X75968563Y9968040D01*
X75838550Y9955235D01*
X75671727Y9904629D01*
X75517981Y9822451D01*
X75460162Y9775000D01*
X74122594Y9775000D01*
X74125352Y9803000D01*
X74125352Y12803000D01*
X74113092Y12927482D01*
X74076782Y13047180D01*
X74017817Y13157494D01*
X73938465Y13254185D01*
X73841774Y13333537D01*
X73731460Y13392502D01*
X73611762Y13428812D01*
X73487280Y13441072D01*
X73173400Y13441072D01*
X73173400Y14028131D01*
X73177681Y14071600D01*
X73173400Y14115069D01*
X73173400Y14115077D01*
X73160595Y14245090D01*
X73109989Y14411913D01*
X73027811Y14565659D01*
X73018197Y14577374D01*
X73113028Y14640738D01*
X73243262Y14770972D01*
X73345586Y14924111D01*
X73416068Y15094271D01*
X73422180Y15125000D01*
X74607128Y15125000D01*
X74619388Y15000518D01*
X74655698Y14880820D01*
X74714663Y14770506D01*
X74794015Y14673815D01*
X74890706Y14594463D01*
X75001020Y14535498D01*
X75120718Y14499188D01*
X75245200Y14486928D01*
X75609450Y14490000D01*
X75768200Y14648750D01*
X75768200Y15748000D01*
X74768950Y15748000D01*
X74610200Y15589250D01*
X74607128Y15125000D01*
X73422180Y15125000D01*
X73452000Y15274911D01*
X73452000Y15337094D01*
X73551729Y15356932D01*
X73721889Y15427414D01*
X73875028Y15529738D01*
X74005262Y15659972D01*
X74107586Y15813111D01*
X74178068Y15983271D01*
X74214000Y16163911D01*
X74214000Y16348089D01*
X74178068Y16528729D01*
X74164000Y16562692D01*
X74164000Y16625000D01*
X74607128Y16625000D01*
X74610200Y16160750D01*
X74768950Y16002000D01*
X75768200Y16002000D01*
X75768200Y17101250D01*
X75609450Y17260000D01*
X75245200Y17263072D01*
X75120718Y17250812D01*
X75001020Y17214502D01*
X74890706Y17155537D01*
X74794015Y17076185D01*
X74714663Y16979494D01*
X74655698Y16869180D01*
X74619388Y16749482D01*
X74607128Y16625000D01*
X74164000Y16625000D01*
X74164000Y17089541D01*
X74189292Y17172918D01*
X74201552Y17297400D01*
X74201552Y18508448D01*
X75412600Y18508448D01*
X75537082Y18520708D01*
X75620459Y18546000D01*
X75706422Y18546000D01*
X75738345Y18514077D01*
X75752414Y18480111D01*
X75854738Y18326972D01*
X75984972Y18196738D01*
X76138111Y18094414D01*
X76308271Y18023932D01*
X76488911Y17988000D01*
X76673089Y17988000D01*
X76853729Y18023932D01*
X76910200Y18047323D01*
X76910200Y17217287D01*
X76901020Y17214502D01*
X76845200Y17184665D01*
X76789380Y17214502D01*
X76669682Y17250812D01*
X76545200Y17263072D01*
X76180950Y17260000D01*
X76022200Y17101250D01*
X76022200Y16002000D01*
X76042200Y16002000D01*
X76042200Y15748000D01*
X76022200Y15748000D01*
X76022200Y14648750D01*
X76180950Y14490000D01*
X76545200Y14486928D01*
X76669682Y14499188D01*
X76789380Y14535498D01*
X76845200Y14565335D01*
X76901020Y14535498D01*
X77020718Y14499188D01*
X77145200Y14486928D01*
X78445200Y14486928D01*
X78569682Y14499188D01*
X78689380Y14535498D01*
X78799694Y14594463D01*
X78896385Y14673815D01*
X78963900Y14756083D01*
X78963900Y1035181D01*
X78950388Y766107D01*
X78913502Y522917D01*
X78853529Y288872D01*
X78771834Y64680D01*
X78669557Y-148287D01*
X78547692Y-349291D01*
X78407515Y-536974D01*
X78250082Y-710180D01*
X78076869Y-867619D01*
X77889269Y-1007734D01*
X77688192Y-1129565D01*
X77475131Y-1231966D01*
X77251131Y-1313591D01*
X77016986Y-1373512D01*
X76773783Y-1410477D01*
X76504827Y-1423900D01*
X70334000Y-1423900D01*
X70334000Y1488128D01*
X74036000Y1488128D01*
X74036000Y1047872D01*
X74121890Y616075D01*
X74290369Y209331D01*
X74534962Y-156729D01*
X74846271Y-468038D01*
X75212331Y-712631D01*
X75619075Y-881110D01*
X76050872Y-967000D01*
X76491128Y-967000D01*
X76922925Y-881110D01*
X77329669Y-712631D01*
X77695729Y-468038D01*
X78007038Y-156729D01*
X78251631Y209331D01*
X78420110Y616075D01*
X78506000Y1047872D01*
X78506000Y1488128D01*
X78420110Y1919925D01*
X78251631Y2326669D01*
X78007038Y2692729D01*
X77695729Y3004038D01*
X77329669Y3248631D01*
X76922925Y3417110D01*
X76491128Y3503000D01*
X76050872Y3503000D01*
X75619075Y3417110D01*
X75212331Y3248631D01*
X74846271Y3004038D01*
X74534962Y2692729D01*
X74290369Y2326669D01*
X74121890Y1919925D01*
X74036000Y1488128D01*
X70334000Y1488128D01*
X70334000Y2757353D01*
X70337314Y2791000D01*
X70324088Y2925283D01*
X70284919Y3054406D01*
X70221312Y3173407D01*
X70135711Y3277711D01*
X70031407Y3363312D01*
X69912406Y3426919D01*
X69783283Y3466088D01*
X69682647Y3476000D01*
X69649000Y3479314D01*
X69615353Y3476000D01*
X44782847Y3476000D01*
X44749200Y3479314D01*
X44715553Y3476000D01*
X44614917Y3466088D01*
X44568072Y3451878D01*
X44568072Y4460000D01*
X44555812Y4584482D01*
X44519502Y4704180D01*
X44460537Y4814494D01*
X44381185Y4911185D01*
X44284494Y4990537D01*
X44179990Y5046396D01*
X44249017Y5130506D01*
X44307982Y5240820D01*
X44344292Y5360518D01*
X44356552Y5485000D01*
X44353480Y6699250D01*
X44194730Y6858000D01*
X42646600Y6858000D01*
X42646600Y6838000D01*
X42392600Y6838000D01*
X42392600Y6858000D01*
X40844470Y6858000D01*
X40685720Y6699250D01*
X40683358Y5765799D01*
X40001000Y6448157D01*
X40001000Y8485000D01*
X40682648Y8485000D01*
X40685720Y7270750D01*
X40844470Y7112000D01*
X42392600Y7112000D01*
X42392600Y8961250D01*
X42646600Y8961250D01*
X42646600Y7112000D01*
X44194730Y7112000D01*
X44353480Y7270750D01*
X44356552Y8485000D01*
X44344292Y8609482D01*
X44307982Y8729180D01*
X44249017Y8839494D01*
X44169665Y8936185D01*
X44072974Y9015537D01*
X43962660Y9074502D01*
X43842962Y9110812D01*
X43718480Y9123072D01*
X42805350Y9120000D01*
X42646600Y8961250D01*
X42392600Y8961250D01*
X42233850Y9120000D01*
X41320720Y9123072D01*
X41196238Y9110812D01*
X41076540Y9074502D01*
X40966226Y9015537D01*
X40869535Y8936185D01*
X40790183Y8839494D01*
X40731218Y8729180D01*
X40694908Y8609482D01*
X40682648Y8485000D01*
X40001000Y8485000D01*
X40001000Y9920422D01*
X40708048Y10627469D01*
X40708048Y10311000D01*
X40720308Y10186518D01*
X40756618Y10066820D01*
X40815583Y9956506D01*
X40894935Y9859815D01*
X40991626Y9780463D01*
X41101940Y9721498D01*
X41221638Y9685188D01*
X41346120Y9672928D01*
X43743880Y9672928D01*
X43868362Y9685188D01*
X43988060Y9721498D01*
X44098374Y9780463D01*
X44195065Y9859815D01*
X44274417Y9956506D01*
X44333382Y10066820D01*
X44369692Y10186518D01*
X44381952Y10311000D01*
X44381952Y12601250D01*
X44382395Y12602710D01*
X44395200Y12732723D01*
X44395200Y12732731D01*
X44399481Y12776200D01*
X44395200Y12819669D01*
X44395200Y14151713D01*
X44404380Y14154498D01*
X44514694Y14213463D01*
X44611385Y14292815D01*
X44690737Y14389506D01*
X44749702Y14499820D01*
X44782318Y14607339D01*
X44812271Y14594932D01*
X44992911Y14559000D01*
X45177089Y14559000D01*
X45357729Y14594932D01*
X45527889Y14665414D01*
X45681028Y14767738D01*
X45811262Y14897972D01*
X45913586Y15051111D01*
X45984068Y15221271D01*
X46020000Y15401911D01*
X46020000Y15586089D01*
X45984068Y15766729D01*
X45913586Y15936889D01*
X45811262Y16090028D01*
X45681028Y16220262D01*
X45527889Y16322586D01*
X45372379Y16387000D01*
X46057533Y16387000D01*
X46100999Y16382719D01*
X46144465Y16387000D01*
X49417422Y16387000D01*
X52046453Y13757968D01*
X52046459Y13757963D01*
X52429466Y13374956D01*
X52457183Y13341183D01*
X52591941Y13230589D01*
X52745687Y13148411D01*
X52850839Y13116513D01*
X52912509Y13097805D01*
X52927306Y13096348D01*
X53042523Y13085000D01*
X53042531Y13085000D01*
X53086000Y13080719D01*
X53129469Y13085000D01*
X56905299Y13085000D01*
X56909188Y13045518D01*
X56945498Y12925820D01*
X57004463Y12815506D01*
X57083815Y12718815D01*
X57180506Y12639463D01*
X57265001Y12594299D01*
X57265000Y8899685D01*
X57150000Y8784685D01*
X57032886Y8901799D01*
X56978269Y8938293D01*
X56971589Y8960313D01*
X56889411Y9114059D01*
X56778817Y9248817D01*
X56644058Y9359411D01*
X56490312Y9441589D01*
X56323489Y9492195D01*
X56150000Y9509282D01*
X55976510Y9492195D01*
X55809687Y9441589D01*
X55655941Y9359411D01*
X55521183Y9248817D01*
X55410589Y9114058D01*
X55359039Y9017614D01*
X55351185Y9027185D01*
X55254494Y9106537D01*
X55144180Y9165502D01*
X55024482Y9201812D01*
X54900000Y9214072D01*
X53400000Y9214072D01*
X53275518Y9201812D01*
X53155820Y9165502D01*
X53045506Y9106537D01*
X52948815Y9027185D01*
X52869463Y8930494D01*
X52810498Y8820180D01*
X52777379Y8711000D01*
X50795469Y8711000D01*
X50752000Y8715281D01*
X50708531Y8711000D01*
X50708523Y8711000D01*
X50601731Y8700482D01*
X50578509Y8698195D01*
X50527903Y8682843D01*
X50411687Y8647589D01*
X50257941Y8565411D01*
X50257939Y8565410D01*
X50257940Y8565410D01*
X50156953Y8482532D01*
X50156951Y8482530D01*
X50123183Y8454817D01*
X50095470Y8421049D01*
X49043494Y7369072D01*
X48514000Y7369072D01*
X48389518Y7356812D01*
X48269820Y7320502D01*
X48159506Y7261537D01*
X48062815Y7182185D01*
X47983463Y7085494D01*
X47924498Y6975180D01*
X47888188Y6855482D01*
X47875928Y6731000D01*
X47875928Y4699000D01*
X47888188Y4574518D01*
X47924498Y4454820D01*
X47983463Y4344506D01*
X48062815Y4247815D01*
X48159506Y4168463D01*
X48269820Y4109498D01*
X48389518Y4073188D01*
X48514000Y4060928D01*
X50546000Y4060928D01*
X50670482Y4073188D01*
X50790180Y4109498D01*
X50900494Y4168463D01*
X50997185Y4247815D01*
X51076537Y4344506D01*
X51135502Y4454820D01*
X51171812Y4574518D01*
X51184072Y4699000D01*
X51184072Y6731000D01*
X51171812Y6855482D01*
X51145870Y6941000D01*
X52777379Y6941000D01*
X52810498Y6831820D01*
X52869463Y6721506D01*
X52948815Y6624815D01*
X53045506Y6545463D01*
X53144944Y6492312D01*
X53022447Y6196579D01*
X52959000Y5877609D01*
X52959000Y5552391D01*
X53022447Y5233421D01*
X53146903Y4932958D01*
X53327585Y4662549D01*
X53557549Y4432585D01*
X53827958Y4251903D01*
X54128421Y4127447D01*
X54447391Y4064000D01*
X54772609Y4064000D01*
X55091579Y4127447D01*
X55392042Y4251903D01*
X55662451Y4432585D01*
X55892415Y4662549D01*
X56073097Y4932958D01*
X56197553Y5233421D01*
X56261000Y5552391D01*
X56261000Y5877609D01*
X56197553Y6196579D01*
X56096310Y6441000D01*
X56286411Y6441000D01*
X56553989Y6494225D01*
X56806043Y6598629D01*
X57032886Y6750201D01*
X57150000Y6867315D01*
X57267114Y6750201D01*
X57493957Y6598629D01*
X57746011Y6494225D01*
X58013589Y6441000D01*
X58203690Y6441000D01*
X58102447Y6196579D01*
X58039000Y5877609D01*
X58039000Y5552391D01*
X58102447Y5233421D01*
X58226903Y4932958D01*
X58407585Y4662549D01*
X58637549Y4432585D01*
X58907958Y4251903D01*
X59208421Y4127447D01*
X59527391Y4064000D01*
X59852609Y4064000D01*
X60171579Y4127447D01*
X60472042Y4251903D01*
X60742451Y4432585D01*
X60878043Y4568177D01*
X63802782Y4568177D01*
X63900478Y4302140D01*
X64192821Y4159652D01*
X64507344Y4076936D01*
X64831962Y4057169D01*
X65154198Y4101112D01*
X65461670Y4207076D01*
X65639522Y4302140D01*
X65737218Y4568177D01*
X64770000Y5535395D01*
X63802782Y4568177D01*
X60878043Y4568177D01*
X60972415Y4662549D01*
X61153097Y4932958D01*
X61277553Y5233421D01*
X61341000Y5552391D01*
X61341000Y5653038D01*
X63112169Y5653038D01*
X63156112Y5330802D01*
X63262076Y5023330D01*
X63357140Y4845478D01*
X63623177Y4747782D01*
X64590395Y5715000D01*
X64949605Y5715000D01*
X65916823Y4747782D01*
X66182860Y4845478D01*
X66246963Y4977000D01*
X70426048Y4977000D01*
X70438308Y4852518D01*
X70474618Y4732820D01*
X70533583Y4622506D01*
X70612935Y4525815D01*
X70709626Y4446463D01*
X70819940Y4387498D01*
X70939638Y4351188D01*
X71064120Y4338928D01*
X71977250Y4342000D01*
X72136000Y4500750D01*
X72136000Y6350000D01*
X72390000Y6350000D01*
X72390000Y4500750D01*
X72548750Y4342000D01*
X73461880Y4338928D01*
X73586362Y4351188D01*
X73706060Y4387498D01*
X73816374Y4446463D01*
X73913065Y4525815D01*
X73992417Y4622506D01*
X74051382Y4732820D01*
X74087692Y4852518D01*
X74099952Y4977000D01*
X74096880Y6191250D01*
X73938130Y6350000D01*
X72390000Y6350000D01*
X72136000Y6350000D01*
X70587870Y6350000D01*
X70429120Y6191250D01*
X70426048Y4977000D01*
X66246963Y4977000D01*
X66325348Y5137821D01*
X66408064Y5452344D01*
X66427831Y5776962D01*
X66383888Y6099198D01*
X66285200Y6385560D01*
X76486488Y6385560D01*
X76498748Y6261078D01*
X76535058Y6141380D01*
X76594023Y6031066D01*
X76673375Y5934375D01*
X76770066Y5855023D01*
X76880380Y5796058D01*
X77000078Y5759748D01*
X77124560Y5747488D01*
X77438250Y5750560D01*
X77597000Y5909310D01*
X77597000Y6858000D01*
X77851000Y6858000D01*
X77851000Y5909310D01*
X78009750Y5750560D01*
X78323440Y5747488D01*
X78447922Y5759748D01*
X78567620Y5796058D01*
X78677934Y5855023D01*
X78774625Y5934375D01*
X78853977Y6031066D01*
X78912942Y6141380D01*
X78949252Y6261078D01*
X78961512Y6385560D01*
X78958440Y6699250D01*
X78799690Y6858000D01*
X77851000Y6858000D01*
X77597000Y6858000D01*
X76648310Y6858000D01*
X76489560Y6699250D01*
X76486488Y6385560D01*
X66285200Y6385560D01*
X66277924Y6406670D01*
X66182860Y6584522D01*
X65916823Y6682218D01*
X64949605Y5715000D01*
X64590395Y5715000D01*
X63623177Y6682218D01*
X63357140Y6584522D01*
X63214652Y6292179D01*
X63131936Y5977656D01*
X63112169Y5653038D01*
X61341000Y5653038D01*
X61341000Y5877609D01*
X61277553Y6196579D01*
X61153097Y6497042D01*
X60972415Y6767451D01*
X60915219Y6824647D01*
X60925417Y6861823D01*
X63802782Y6861823D01*
X64770000Y5894605D01*
X65737218Y6861823D01*
X65639522Y7127860D01*
X65347179Y7270348D01*
X65032656Y7353064D01*
X64708038Y7372831D01*
X64385802Y7328888D01*
X64078330Y7222924D01*
X63900478Y7127860D01*
X63802782Y6861823D01*
X60925417Y6861823D01*
X60927388Y6869007D01*
X60150000Y7646395D01*
X60135858Y7632252D01*
X59956253Y7811857D01*
X59970395Y7826000D01*
X60329605Y7826000D01*
X61106993Y7048612D01*
X61345860Y7114137D01*
X61461760Y7361116D01*
X61527250Y7625960D01*
X61539812Y7898492D01*
X61498965Y8168238D01*
X61406277Y8424832D01*
X61345860Y8537863D01*
X61106993Y8603388D01*
X60329605Y7826000D01*
X59970395Y7826000D01*
X59421932Y8374463D01*
X59377371Y8482043D01*
X59225799Y8708886D01*
X59151692Y8782993D01*
X59372612Y8782993D01*
X60150000Y8005605D01*
X60927388Y8782993D01*
X60861863Y9021860D01*
X60614884Y9137760D01*
X60350040Y9203250D01*
X60077508Y9215812D01*
X59807762Y9174965D01*
X59551168Y9082277D01*
X59438137Y9021860D01*
X59372612Y8782993D01*
X59151692Y8782993D01*
X59035000Y8899685D01*
X59035000Y12531928D01*
X60735000Y12531928D01*
X60859482Y12544188D01*
X60979180Y12580498D01*
X61089494Y12639463D01*
X61186185Y12718815D01*
X61265537Y12815506D01*
X61324502Y12925820D01*
X61360812Y13045518D01*
X61373072Y13170000D01*
X61896928Y13170000D01*
X61909188Y13045518D01*
X61945498Y12925820D01*
X62004463Y12815506D01*
X62083815Y12718815D01*
X62180506Y12639463D01*
X62290820Y12580498D01*
X62410518Y12544188D01*
X62535000Y12531928D01*
X63849250Y12535000D01*
X64008000Y12693750D01*
X64008000Y13843000D01*
X64262000Y13843000D01*
X64262000Y12693750D01*
X64420750Y12535000D01*
X65735000Y12531928D01*
X65859482Y12544188D01*
X65979180Y12580498D01*
X66089494Y12639463D01*
X66186185Y12718815D01*
X66265537Y12815506D01*
X66324502Y12925820D01*
X66360812Y13045518D01*
X66373072Y13170000D01*
X66370000Y13684250D01*
X66211250Y13843000D01*
X64262000Y13843000D01*
X64008000Y13843000D01*
X62058750Y13843000D01*
X61900000Y13684250D01*
X61896928Y13170000D01*
X61373072Y13170000D01*
X61373072Y14770000D01*
X61896928Y14770000D01*
X61900000Y14255750D01*
X62058750Y14097000D01*
X64008000Y14097000D01*
X64008000Y15246250D01*
X64262000Y15246250D01*
X64262000Y14097000D01*
X66211250Y14097000D01*
X66370000Y14255750D01*
X66373072Y14770000D01*
X66360812Y14894482D01*
X66324502Y15014180D01*
X66265537Y15124494D01*
X66186185Y15221185D01*
X66089494Y15300537D01*
X65979180Y15359502D01*
X65859482Y15395812D01*
X65735000Y15408072D01*
X64420750Y15405000D01*
X64262000Y15246250D01*
X64008000Y15246250D01*
X63849250Y15405000D01*
X62535000Y15408072D01*
X62410518Y15395812D01*
X62290820Y15359502D01*
X62180506Y15300537D01*
X62083815Y15221185D01*
X62004463Y15124494D01*
X61945498Y15014180D01*
X61909188Y14894482D01*
X61896928Y14770000D01*
X61373072Y14770000D01*
X61360812Y14894482D01*
X61324502Y15014180D01*
X61265537Y15124494D01*
X61186185Y15221185D01*
X61089494Y15300537D01*
X60979180Y15359502D01*
X60859482Y15395812D01*
X60735000Y15408072D01*
X57535000Y15408072D01*
X57410518Y15395812D01*
X57290820Y15359502D01*
X57180506Y15300537D01*
X57083815Y15221185D01*
X57004463Y15124494D01*
X56945498Y15014180D01*
X56909188Y14894482D01*
X56905299Y14855000D01*
X53452578Y14855000D01*
X53298037Y15009541D01*
X53298032Y15009547D01*
X50795190Y17512388D01*
X50870748Y17489468D01*
X50995230Y17477208D01*
X52391214Y17477208D01*
X52497345Y17371076D01*
X52511414Y17337111D01*
X52613738Y17183972D01*
X52743972Y17053738D01*
X52897111Y16951414D01*
X53067271Y16880932D01*
X53247911Y16845000D01*
X53432089Y16845000D01*
X53612729Y16880932D01*
X53782889Y16951414D01*
X53936028Y17053738D01*
X54066262Y17183972D01*
X54168586Y17337111D01*
X54239068Y17507271D01*
X54275000Y17687911D01*
X54275000Y17872089D01*
X54239068Y18052729D01*
X54168586Y18222889D01*
X54136780Y18270490D01*
X54193262Y18326972D01*
X54295586Y18480111D01*
X54366068Y18650271D01*
X54402000Y18830911D01*
X54402000Y19015089D01*
X54366068Y19195729D01*
X54295586Y19365889D01*
X54193262Y19519028D01*
X54063028Y19649262D01*
X53909889Y19751586D01*
X53875924Y19765655D01*
X53361534Y20280044D01*
X53333817Y20313817D01*
X53199059Y20424411D01*
X53045313Y20506589D01*
X53015941Y20515499D01*
X53020582Y20530798D01*
X53032842Y20655280D01*
X53032842Y21254720D01*
X53020582Y21379202D01*
X52984272Y21498900D01*
X52935577Y21590000D01*
X52984272Y21681100D01*
X53020582Y21800798D01*
X53032842Y21925280D01*
X53029770Y21939250D01*
X52871020Y22098000D01*
X51822000Y22098000D01*
X51822000Y22078000D01*
X51568000Y22078000D01*
X51568000Y22098000D01*
X50518980Y22098000D01*
X50360230Y21939250D01*
X50357158Y21925280D01*
X50369418Y21800798D01*
X50405728Y21681100D01*
X50454423Y21590000D01*
X50405728Y21498900D01*
X50369418Y21379202D01*
X50357158Y21254720D01*
X50357158Y20655280D01*
X50369418Y20530798D01*
X50405728Y20411100D01*
X50454423Y20320000D01*
X50405728Y20228900D01*
X50369418Y20109202D01*
X50357158Y19984720D01*
X50357158Y19385280D01*
X50369418Y19260798D01*
X50405728Y19141100D01*
X50454423Y19050000D01*
X50405728Y18958900D01*
X50369418Y18839202D01*
X50357158Y18714720D01*
X50357158Y18115280D01*
X50369418Y17990798D01*
X50391376Y17918414D01*
X50278059Y18011411D01*
X50124313Y18093589D01*
X49957490Y18144195D01*
X49827477Y18157000D01*
X49827469Y18157000D01*
X49784000Y18161281D01*
X49740531Y18157000D01*
X47432842Y18157000D01*
X47432842Y18714720D01*
X47420582Y18839202D01*
X47384272Y18958900D01*
X47335577Y19050000D01*
X47384272Y19141100D01*
X47420582Y19260798D01*
X47432842Y19385280D01*
X47429770Y19399250D01*
X47271020Y19558000D01*
X46222000Y19558000D01*
X46222000Y19538000D01*
X45968000Y19538000D01*
X45968000Y19558000D01*
X44918980Y19558000D01*
X44760230Y19399250D01*
X44757158Y19385280D01*
X44769418Y19260798D01*
X44805728Y19141100D01*
X44854423Y19050000D01*
X44805728Y18958900D01*
X44769418Y18839202D01*
X44757158Y18714720D01*
X44757158Y18157000D01*
X43808708Y18157000D01*
X43825537Y18177506D01*
X43884502Y18287820D01*
X43920812Y18407518D01*
X43933072Y18532000D01*
X43933072Y19832000D01*
X43920812Y19956482D01*
X43884502Y20076180D01*
X43854665Y20132000D01*
X43884502Y20187820D01*
X43920812Y20307518D01*
X43933072Y20432000D01*
X43931189Y20655280D01*
X44757158Y20655280D01*
X44769418Y20530798D01*
X44805728Y20411100D01*
X44854423Y20320000D01*
X44805728Y20228900D01*
X44769418Y20109202D01*
X44757158Y19984720D01*
X44760230Y19970750D01*
X44918980Y19812000D01*
X45968000Y19812000D01*
X45968000Y20828000D01*
X46222000Y20828000D01*
X46222000Y19812000D01*
X47271020Y19812000D01*
X47429770Y19970750D01*
X47432842Y19984720D01*
X47420582Y20109202D01*
X47384272Y20228900D01*
X47335577Y20320000D01*
X47384272Y20411100D01*
X47420582Y20530798D01*
X47432842Y20655280D01*
X47429770Y20669250D01*
X47271020Y20828000D01*
X46222000Y20828000D01*
X45968000Y20828000D01*
X44918980Y20828000D01*
X44760230Y20669250D01*
X44757158Y20655280D01*
X43931189Y20655280D01*
X43930000Y20796250D01*
X43771250Y20955000D01*
X42672000Y20955000D01*
X42672000Y20935000D01*
X42418000Y20935000D01*
X42418000Y20955000D01*
X41318750Y20955000D01*
X41160000Y20796250D01*
X41156928Y20432000D01*
X41169188Y20307518D01*
X41205498Y20187820D01*
X41235335Y20132000D01*
X41205498Y20076180D01*
X41169188Y19956482D01*
X41156928Y19832000D01*
X41156928Y18532000D01*
X41169188Y18407518D01*
X41205498Y18287820D01*
X41264463Y18177506D01*
X41281292Y18157000D01*
X40048469Y18157000D01*
X40005000Y18161281D01*
X39961531Y18157000D01*
X39961523Y18157000D01*
X39831510Y18144195D01*
X39664687Y18093589D01*
X39512771Y18012389D01*
X39510941Y18011411D01*
X39409953Y17928532D01*
X39409951Y17928530D01*
X39376183Y17900817D01*
X39348470Y17867049D01*
X38876422Y17395000D01*
X38579112Y17395000D01*
X38431523Y17615883D01*
X38189883Y17857523D01*
X38137160Y17892752D01*
X38152008Y17907600D01*
X38036585Y18023023D01*
X38311191Y18130833D01*
X38462052Y18437460D01*
X38550194Y18767628D01*
X38572228Y19108647D01*
X38527310Y19447412D01*
X38417166Y19770905D01*
X38329298Y19935292D01*
X38378470Y19950208D01*
X38488784Y20009173D01*
X38585475Y20088525D01*
X38664827Y20185216D01*
X38723792Y20295530D01*
X38760102Y20415228D01*
X38772362Y20539710D01*
X38769290Y21304250D01*
X38610540Y21463000D01*
X37211000Y21463000D01*
X37211000Y21443000D01*
X36957000Y21443000D01*
X36957000Y21463000D01*
X36937000Y21463000D01*
X36937000Y21717000D01*
X36957000Y21717000D01*
X36957000Y23116540D01*
X37211000Y23116540D01*
X37211000Y21717000D01*
X38610540Y21717000D01*
X38625540Y21732000D01*
X41156928Y21732000D01*
X41160000Y21367750D01*
X41318750Y21209000D01*
X42418000Y21209000D01*
X42418000Y22208250D01*
X42672000Y22208250D01*
X42672000Y21209000D01*
X43771250Y21209000D01*
X43930000Y21367750D01*
X43933072Y21732000D01*
X43920812Y21856482D01*
X43899943Y21925280D01*
X44757158Y21925280D01*
X44769418Y21800798D01*
X44805728Y21681100D01*
X44854423Y21590000D01*
X44805728Y21498900D01*
X44769418Y21379202D01*
X44757158Y21254720D01*
X44760230Y21240750D01*
X44918980Y21082000D01*
X45968000Y21082000D01*
X45968000Y22098000D01*
X46222000Y22098000D01*
X46222000Y21082000D01*
X47271020Y21082000D01*
X47429770Y21240750D01*
X47432842Y21254720D01*
X47420582Y21379202D01*
X47384272Y21498900D01*
X47335577Y21590000D01*
X47384272Y21681100D01*
X47420582Y21800798D01*
X47432842Y21925280D01*
X47429770Y21939250D01*
X47271020Y22098000D01*
X46222000Y22098000D01*
X45968000Y22098000D01*
X44918980Y22098000D01*
X44760230Y21939250D01*
X44757158Y21925280D01*
X43899943Y21925280D01*
X43884502Y21976180D01*
X43825537Y22086494D01*
X43746185Y22183185D01*
X43649494Y22262537D01*
X43539180Y22321502D01*
X43419482Y22357812D01*
X43295000Y22370072D01*
X42830750Y22367000D01*
X42672000Y22208250D01*
X42418000Y22208250D01*
X42259250Y22367000D01*
X41795000Y22370072D01*
X41670518Y22357812D01*
X41550820Y22321502D01*
X41440506Y22262537D01*
X41343815Y22183185D01*
X41264463Y22086494D01*
X41205498Y21976180D01*
X41169188Y21856482D01*
X41156928Y21732000D01*
X38625540Y21732000D01*
X38769290Y21875750D01*
X38771897Y22524720D01*
X44757158Y22524720D01*
X44760230Y22510750D01*
X44918980Y22352000D01*
X45968000Y22352000D01*
X45968000Y23000970D01*
X46222000Y23000970D01*
X46222000Y22352000D01*
X47271020Y22352000D01*
X47429770Y22510750D01*
X47432842Y22524720D01*
X50357158Y22524720D01*
X50360230Y22510750D01*
X50518980Y22352000D01*
X51568000Y22352000D01*
X51568000Y23000970D01*
X51822000Y23000970D01*
X51822000Y22352000D01*
X52871020Y22352000D01*
X53029770Y22510750D01*
X53032842Y22524720D01*
X53020582Y22649202D01*
X52984272Y22768900D01*
X52925307Y22879214D01*
X52845955Y22975905D01*
X52749264Y23055257D01*
X52638950Y23114222D01*
X52519252Y23150532D01*
X52394770Y23162792D01*
X51980750Y23159720D01*
X51822000Y23000970D01*
X51568000Y23000970D01*
X51409250Y23159720D01*
X50995230Y23162792D01*
X50870748Y23150532D01*
X50751050Y23114222D01*
X50640736Y23055257D01*
X50544045Y22975905D01*
X50464693Y22879214D01*
X50405728Y22768900D01*
X50369418Y22649202D01*
X50357158Y22524720D01*
X47432842Y22524720D01*
X47420582Y22649202D01*
X47384272Y22768900D01*
X47325307Y22879214D01*
X47245955Y22975905D01*
X47149264Y23055257D01*
X47038950Y23114222D01*
X46919252Y23150532D01*
X46794770Y23162792D01*
X46380750Y23159720D01*
X46222000Y23000970D01*
X45968000Y23000970D01*
X45809250Y23159720D01*
X45395230Y23162792D01*
X45270748Y23150532D01*
X45151050Y23114222D01*
X45040736Y23055257D01*
X44944045Y22975905D01*
X44864693Y22879214D01*
X44805728Y22768900D01*
X44769418Y22649202D01*
X44757158Y22524720D01*
X38771897Y22524720D01*
X38772362Y22640290D01*
X38760102Y22764772D01*
X38723792Y22884470D01*
X38664827Y22994784D01*
X38585475Y23091475D01*
X38488784Y23170827D01*
X38378470Y23229792D01*
X38258772Y23266102D01*
X38134290Y23278362D01*
X37369750Y23275290D01*
X37211000Y23116540D01*
X36957000Y23116540D01*
X36798250Y23275290D01*
X36165179Y23277834D01*
X36165179Y25793348D01*
X36348421Y25717447D01*
X36667391Y25654000D01*
X36992609Y25654000D01*
X37311579Y25717447D01*
X37612042Y25841903D01*
X37882451Y26022585D01*
X38112415Y26252549D01*
X38293097Y26522958D01*
X38417553Y26823421D01*
X38481000Y27142391D01*
X38481000Y27467609D01*
X38417553Y27786579D01*
X38293097Y28087042D01*
X38112415Y28357451D01*
X37894866Y28575000D01*
X38112415Y28792549D01*
X38129421Y28818001D01*
X40237470Y26709951D01*
X40265183Y26676183D01*
X40298951Y26648470D01*
X40298953Y26648468D01*
X40370452Y26589790D01*
X40399941Y26565589D01*
X40553687Y26483411D01*
X40720510Y26432805D01*
X40850523Y26420000D01*
X40850533Y26420000D01*
X40893999Y26415719D01*
X40937465Y26420000D01*
X40958151Y26420000D01*
X40966050Y26415778D01*
X41085748Y26379468D01*
X41210230Y26367208D01*
X42609770Y26367208D01*
X42734252Y26379468D01*
X42853950Y26415778D01*
X42964264Y26474743D01*
X43060955Y26554095D01*
X43140307Y26650786D01*
X43199272Y26761100D01*
X43235582Y26880798D01*
X43247842Y27005280D01*
X43247842Y27604720D01*
X43235582Y27729202D01*
X43199272Y27848900D01*
X43150577Y27940000D01*
X43199272Y28031100D01*
X43235582Y28150798D01*
X43247842Y28275280D01*
X43247842Y28874720D01*
X43235582Y28999202D01*
X43199272Y29118900D01*
X43150577Y29210000D01*
X43199272Y29301100D01*
X43235582Y29420798D01*
X43247842Y29545280D01*
X43244770Y29559250D01*
X43086020Y29718000D01*
X42037000Y29718000D01*
X42037000Y29698000D01*
X41783000Y29698000D01*
X41783000Y29718000D01*
X41763000Y29718000D01*
X41763000Y29972000D01*
X41783000Y29972000D01*
X41783000Y29992000D01*
X42037000Y29992000D01*
X42037000Y29972000D01*
X43086020Y29972000D01*
X43244770Y30130750D01*
X43247842Y30144720D01*
X43235582Y30269202D01*
X43199272Y30388900D01*
X43150577Y30480000D01*
X43199272Y30571100D01*
X43235582Y30690798D01*
X43247842Y30815280D01*
X43247842Y31414720D01*
X43235582Y31539202D01*
X43199272Y31658900D01*
X43140307Y31769214D01*
X43060955Y31865905D01*
X42964264Y31945257D01*
X42853950Y32004222D01*
X42797575Y32021323D01*
X42795000Y32047469D01*
X42795000Y32047477D01*
X42782195Y32177490D01*
X42731589Y32344313D01*
X42649411Y32498059D01*
X42637738Y32512282D01*
X42566532Y32599047D01*
X42566530Y32599049D01*
X42538817Y32632817D01*
X42505050Y32660529D01*
X41990655Y33174923D01*
X41976586Y33208889D01*
X41874262Y33362028D01*
X41744028Y33492262D01*
X41590889Y33594586D01*
X41420729Y33665068D01*
X41240089Y33701000D01*
X41055911Y33701000D01*
X40875271Y33665068D01*
X40705111Y33594586D01*
X40551972Y33492262D01*
X40421738Y33362028D01*
X40319414Y33208889D01*
X40248932Y33038729D01*
X40213000Y32858089D01*
X40213000Y32673911D01*
X40248932Y32493271D01*
X40319414Y32323111D01*
X40421738Y32169972D01*
X40551972Y32039738D01*
X40705111Y31937414D01*
X40739077Y31923345D01*
X40779626Y31882795D01*
X40759045Y31865905D01*
X40679693Y31769214D01*
X40620728Y31658900D01*
X40584418Y31539202D01*
X40572158Y31414720D01*
X40572158Y30815280D01*
X40584418Y30690798D01*
X40620728Y30571100D01*
X40669423Y30480000D01*
X40633150Y30412140D01*
X40601028Y30444262D01*
X40447889Y30546586D01*
X40277729Y30617068D01*
X40097089Y30653000D01*
X39912911Y30653000D01*
X39732271Y30617068D01*
X39562111Y30546586D01*
X39408972Y30444262D01*
X39278738Y30314028D01*
X39221786Y30228793D01*
X39010532Y30440046D01*
X38982817Y30473817D01*
X38848059Y30584411D01*
X38694313Y30666589D01*
X38527490Y30717195D01*
X38397477Y30730000D01*
X38397469Y30730000D01*
X38354000Y30734281D01*
X38310531Y30730000D01*
X38224302Y30730000D01*
X38112415Y30897451D01*
X37894866Y31115000D01*
X38112415Y31332549D01*
X38293097Y31602958D01*
X38417553Y31903421D01*
X38481000Y32222391D01*
X38481000Y32547609D01*
X38417553Y32866579D01*
X38293097Y33167042D01*
X38164636Y33359296D01*
X38200494Y33378463D01*
X38297185Y33457815D01*
X38376537Y33554506D01*
X38435502Y33664820D01*
X38471812Y33784518D01*
X38484072Y33909000D01*
X38483488Y34048000D01*
X42526928Y34048000D01*
X42539188Y33923518D01*
X42575498Y33803820D01*
X42634463Y33693506D01*
X42713815Y33596815D01*
X42810506Y33517463D01*
X42920820Y33458498D01*
X43040518Y33422188D01*
X43165000Y33409928D01*
X43529250Y33413000D01*
X43688000Y33571750D01*
X43688000Y34671000D01*
X42688750Y34671000D01*
X42530000Y34512250D01*
X42526928Y34048000D01*
X38483488Y34048000D01*
X38481000Y34639250D01*
X38322250Y34798000D01*
X36957000Y34798000D01*
X36957000Y34778000D01*
X36703000Y34778000D01*
X36703000Y34798000D01*
X36683000Y34798000D01*
X36683000Y35052000D01*
X36703000Y35052000D01*
X36703000Y36417250D01*
X36957000Y36417250D01*
X36957000Y35052000D01*
X38322250Y35052000D01*
X38481000Y35210750D01*
X38484072Y35941000D01*
X38471812Y36065482D01*
X38435502Y36185180D01*
X38376537Y36295494D01*
X38297185Y36392185D01*
X38200494Y36471537D01*
X38090180Y36530502D01*
X37970482Y36566812D01*
X37846000Y36579072D01*
X37115750Y36576000D01*
X36957000Y36417250D01*
X36703000Y36417250D01*
X36544250Y36576000D01*
X35814000Y36579072D01*
X35689518Y36566812D01*
X35569820Y36530502D01*
X35459506Y36471537D01*
X35433800Y36450441D01*
X35433800Y39588128D01*
X36036000Y39588128D01*
X36036000Y39147872D01*
X36121890Y38716075D01*
X36290369Y38309331D01*
X36534962Y37943271D01*
X36846271Y37631962D01*
X37212331Y37387369D01*
X37619075Y37218890D01*
X38050872Y37133000D01*
X38491128Y37133000D01*
X38922925Y37218890D01*
X39329669Y37387369D01*
X39695729Y37631962D01*
X40007038Y37943271D01*
X40251631Y38309331D01*
X40420110Y38716075D01*
X40506000Y39147872D01*
X40506000Y39588128D01*
X40420110Y40019925D01*
X40251631Y40426669D01*
X40007038Y40792729D01*
X39695729Y41104038D01*
X39329669Y41348631D01*
X38922925Y41517110D01*
X38491128Y41603000D01*
X38050872Y41603000D01*
X37619075Y41517110D01*
X37212331Y41348631D01*
X36846271Y41104038D01*
X36534962Y40792729D01*
X36290369Y40426669D01*
X36121890Y40019925D01*
X36036000Y39588128D01*
X35433800Y39588128D01*
X35433800Y39646518D01*
X35447312Y39915593D01*
X35484214Y40158891D01*
X35544081Y40392823D01*
X35625806Y40616884D01*
X35728244Y40830101D01*
X35850092Y41031154D01*
X35990424Y41218940D01*
X36147787Y41392234D01*
X36320912Y41549522D01*
X36508752Y41689757D01*
X36709858Y41811685D01*
X36923016Y41914094D01*
X37147074Y41995818D01*
X37381113Y42055712D01*
X37624421Y42092693D01*
X37893381Y42106200D01*
X45299622Y42106200D01*
X45124951Y41931529D01*
%TA.AperFunction,Conductor*%
D32*
G36*
X45124951Y41931529D02*
G01*
X45091184Y41903817D01*
X45063471Y41870049D01*
X45063468Y41870046D01*
X44980590Y41769059D01*
X44898412Y41615313D01*
X44891129Y41591304D01*
X44845518Y41586812D01*
X44725820Y41550502D01*
X44615506Y41491537D01*
X44518815Y41412185D01*
X44439463Y41315494D01*
X44380498Y41205180D01*
X44344188Y41085482D01*
X44331928Y40961000D01*
X44331928Y39461000D01*
X44344188Y39336518D01*
X44380498Y39216820D01*
X44439463Y39106506D01*
X44518815Y39009815D01*
X44615506Y38930463D01*
X44725820Y38871498D01*
X44845518Y38835188D01*
X44970000Y38822928D01*
X46470000Y38822928D01*
X46594482Y38835188D01*
X46625001Y38844446D01*
X46625001Y38110611D01*
X46447089Y38146000D01*
X46262911Y38146000D01*
X46082271Y38110068D01*
X46048308Y38096000D01*
X44991469Y38096000D01*
X44948000Y38100281D01*
X44904531Y38096000D01*
X41064465Y38096000D01*
X41020999Y38100281D01*
X40977533Y38096000D01*
X40977523Y38096000D01*
X40847510Y38083195D01*
X40680687Y38032589D01*
X40526941Y37950411D01*
X40526939Y37950410D01*
X40526940Y37950410D01*
X40425953Y37867532D01*
X40425951Y37867530D01*
X40392183Y37839817D01*
X40364470Y37806049D01*
X39469077Y36910655D01*
X39435111Y36896586D01*
X39281972Y36794262D01*
X39151738Y36664028D01*
X39049414Y36510889D01*
X38978932Y36340729D01*
X38943000Y36160089D01*
X38943000Y35975911D01*
X38978932Y35795271D01*
X39049414Y35625111D01*
X39151738Y35471972D01*
X39281972Y35341738D01*
X39435111Y35239414D01*
X39605271Y35168932D01*
X39785911Y35133000D01*
X39970089Y35133000D01*
X40150729Y35168932D01*
X40320889Y35239414D01*
X40474028Y35341738D01*
X40604262Y35471972D01*
X40655062Y35548000D01*
X42526928Y35548000D01*
X42530000Y35083750D01*
X42688750Y34925000D01*
X43688000Y34925000D01*
X43688000Y36024250D01*
X43529250Y36183000D01*
X43165000Y36186072D01*
X43040518Y36173812D01*
X42920820Y36137502D01*
X42810506Y36078537D01*
X42713815Y35999185D01*
X42634463Y35902494D01*
X42575498Y35792180D01*
X42539188Y35672482D01*
X42526928Y35548000D01*
X40655062Y35548000D01*
X40706586Y35625111D01*
X40720655Y35659077D01*
X41387579Y36326000D01*
X44581422Y36326000D01*
X44787650Y36119772D01*
X44765000Y36107665D01*
X44709180Y36137502D01*
X44589482Y36173812D01*
X44465000Y36186072D01*
X44100750Y36183000D01*
X43942000Y36024250D01*
X43942000Y34925000D01*
X43962000Y34925000D01*
X43962000Y34671000D01*
X43942000Y34671000D01*
X43942000Y33571750D01*
X44100750Y33413000D01*
X44465000Y33409928D01*
X44589482Y33422188D01*
X44709180Y33458498D01*
X44765000Y33488335D01*
X44820820Y33458498D01*
X44830001Y33455713D01*
X44830000Y30401469D01*
X44825719Y30358000D01*
X44830000Y30314531D01*
X44830000Y30314524D01*
X44834601Y30267809D01*
X44842805Y30184510D01*
X44847758Y30168183D01*
X44893411Y30017688D01*
X44975589Y29863942D01*
X45086183Y29729183D01*
X45119956Y29701466D01*
X45571466Y29249956D01*
X45599183Y29216183D01*
X45715727Y29120537D01*
X45733941Y29105589D01*
X45887686Y29023411D01*
X46038927Y28977532D01*
X46054510Y28972805D01*
X46180595Y28960387D01*
X46172158Y28874720D01*
X46175230Y28860750D01*
X46333980Y28702000D01*
X47383000Y28702000D01*
X47383000Y28722000D01*
X47637000Y28722000D01*
X47637000Y28702000D01*
X48686020Y28702000D01*
X48844770Y28860750D01*
X48847842Y28874720D01*
X48839174Y28962728D01*
X48941490Y28972805D01*
X49108313Y29023411D01*
X49262059Y29105589D01*
X49396817Y29216183D01*
X49424534Y29249956D01*
X49597202Y29422624D01*
X49566999Y29323059D01*
X49550090Y29267317D01*
X49546805Y29256489D01*
X49534000Y29126476D01*
X49534000Y29126469D01*
X49529719Y29083000D01*
X49534000Y29039531D01*
X49534001Y28190000D01*
X48839443Y28190000D01*
X48847842Y28275280D01*
X48844770Y28289250D01*
X48686020Y28448000D01*
X47637000Y28448000D01*
X47637000Y28428000D01*
X47383000Y28428000D01*
X47383000Y28448000D01*
X46333980Y28448000D01*
X46175230Y28289250D01*
X46172158Y28275280D01*
X46184418Y28150798D01*
X46220728Y28031100D01*
X46269423Y27940000D01*
X46220728Y27848900D01*
X46184418Y27729202D01*
X46172158Y27604720D01*
X46172158Y27005280D01*
X46184418Y26880798D01*
X46220728Y26761100D01*
X46279693Y26650786D01*
X46359045Y26554095D01*
X46455736Y26474743D01*
X46566050Y26415778D01*
X46685748Y26379468D01*
X46810230Y26367208D01*
X48209770Y26367208D01*
X48334252Y26379468D01*
X48453950Y26415778D01*
X48461849Y26420000D01*
X49530113Y26420000D01*
X49529719Y26416000D01*
X49546805Y26242510D01*
X49597412Y26075687D01*
X49679590Y25921941D01*
X49762468Y25820954D01*
X49762471Y25820951D01*
X49790184Y25787183D01*
X49823952Y25759470D01*
X50143466Y25439956D01*
X50171183Y25406183D01*
X50305941Y25295589D01*
X50459687Y25213411D01*
X50626510Y25162805D01*
X50726826Y25152925D01*
X50730498Y25140820D01*
X50789463Y25030506D01*
X50868815Y24933815D01*
X50965506Y24854463D01*
X51075820Y24795498D01*
X51195518Y24759188D01*
X51320000Y24746928D01*
X52820000Y24746928D01*
X52944482Y24759188D01*
X53064180Y24795498D01*
X53174494Y24854463D01*
X53271185Y24933815D01*
X53350537Y25030506D01*
X53409502Y25140820D01*
X53412287Y25150000D01*
X53904230Y25150000D01*
X53905498Y25145820D01*
X53964463Y25035506D01*
X54043815Y24938815D01*
X54140506Y24859463D01*
X54250820Y24800498D01*
X54370518Y24764188D01*
X54495000Y24751928D01*
X55995000Y24751928D01*
X56011000Y24753504D01*
X56011000Y24496579D01*
X54649951Y23135529D01*
X54616184Y23107817D01*
X54588471Y23074049D01*
X54588468Y23074046D01*
X54505590Y22973059D01*
X54423412Y22819313D01*
X54372805Y22652490D01*
X54355719Y22479000D01*
X54360001Y22435521D01*
X54360001Y22349303D01*
X54192549Y22237415D01*
X53962585Y22007451D01*
X53781903Y21737042D01*
X53657447Y21436579D01*
X53594000Y21117609D01*
X53594000Y20792391D01*
X53657447Y20473421D01*
X53781903Y20172958D01*
X53962585Y19902549D01*
X54192549Y19672585D01*
X54462958Y19491903D01*
X54763421Y19367447D01*
X55082391Y19304000D01*
X55407609Y19304000D01*
X55726579Y19367447D01*
X56027042Y19491903D01*
X56219296Y19620364D01*
X56238463Y19584506D01*
X56317815Y19487815D01*
X56414506Y19408463D01*
X56524820Y19349498D01*
X56644518Y19313188D01*
X56769000Y19300928D01*
X57499250Y19304000D01*
X57658000Y19462750D01*
X57658000Y20828000D01*
X57912000Y20828000D01*
X57912000Y19462750D01*
X58070750Y19304000D01*
X58801000Y19300928D01*
X58925482Y19313188D01*
X59045180Y19349498D01*
X59155494Y19408463D01*
X59252185Y19487815D01*
X59331537Y19584506D01*
X59390502Y19694820D01*
X59426812Y19814518D01*
X59439072Y19939000D01*
X59436000Y20669250D01*
X59277250Y20828000D01*
X57912000Y20828000D01*
X57658000Y20828000D01*
X57638000Y20828000D01*
X57638000Y21082000D01*
X57658000Y21082000D01*
X57658000Y22447250D01*
X57912000Y22447250D01*
X57912000Y21082000D01*
X59277250Y21082000D01*
X59436000Y21240750D01*
X59439072Y21971000D01*
X59426812Y22095482D01*
X59390502Y22215180D01*
X59331537Y22325494D01*
X59252185Y22422185D01*
X59155494Y22501537D01*
X59045180Y22560502D01*
X58925482Y22596812D01*
X58801000Y22609072D01*
X58070750Y22606000D01*
X57912000Y22447250D01*
X57658000Y22447250D01*
X57499250Y22606000D01*
X56769000Y22609072D01*
X56644518Y22596812D01*
X56601272Y22583693D01*
X57491050Y23473471D01*
X57524817Y23501183D01*
X57579751Y23568119D01*
X57635411Y23635941D01*
X57717589Y23789686D01*
X57768195Y23956510D01*
X57771630Y23991388D01*
X57781000Y24086523D01*
X57781000Y24086531D01*
X57785281Y24130000D01*
X57781000Y24173469D01*
X57781000Y26688592D01*
X57791184Y26676183D01*
X57824951Y26648471D01*
X60430470Y24042951D01*
X60458183Y24009183D01*
X60491951Y23981470D01*
X60491953Y23981468D01*
X60592941Y23898589D01*
X60626728Y23880530D01*
X60626728Y21971000D01*
X60638988Y21846518D01*
X60675298Y21726820D01*
X60734263Y21616506D01*
X60813615Y21519815D01*
X60910306Y21440463D01*
X61020620Y21381498D01*
X61140318Y21345188D01*
X61264800Y21332928D01*
X61445000Y21332928D01*
X61445000Y20231553D01*
X61441203Y20193000D01*
X61445000Y20154447D01*
X61445000Y20154440D01*
X61456359Y20039114D01*
X61501246Y19891141D01*
X61574138Y19754768D01*
X61672236Y19635236D01*
X61702189Y19610653D01*
X62414737Y18898105D01*
X62439316Y18868156D01*
X62469264Y18843578D01*
X62469267Y18843575D01*
X62484698Y18830911D01*
X62558847Y18770058D01*
X62695220Y18697166D01*
X62843193Y18652278D01*
X62918106Y18644900D01*
X62958519Y18640920D01*
X62958524Y18640920D01*
X62997080Y18637123D01*
X63035635Y18640920D01*
X65172520Y18640920D01*
X65202906Y18615983D01*
X65313220Y18557018D01*
X65432918Y18520708D01*
X65557400Y18508448D01*
X66768448Y18508448D01*
X66768448Y17297400D01*
X66780708Y17172918D01*
X66817018Y17053220D01*
X66875983Y16942906D01*
X66955335Y16846215D01*
X67052026Y16766863D01*
X67162340Y16707898D01*
X67282038Y16671588D01*
X67406520Y16659328D01*
X67965320Y16659328D01*
X68085970Y16671211D01*
X68206620Y16659328D01*
X68401120Y16659328D01*
X68401120Y16312699D01*
X67349951Y15261529D01*
X67316184Y15233817D01*
X67288471Y15200049D01*
X67288468Y15200046D01*
X67205590Y15099059D01*
X67123412Y14945313D01*
X67072805Y14778490D01*
X67055853Y14606364D01*
X66950820Y14574502D01*
X66840506Y14515537D01*
X66743815Y14436185D01*
X66664463Y14339494D01*
X66605498Y14229180D01*
X66569188Y14109482D01*
X66556928Y13985000D01*
X66556928Y12685000D01*
X66569188Y12560518D01*
X66605498Y12440820D01*
X66635335Y12385000D01*
X66605498Y12329180D01*
X66569188Y12209482D01*
X66556928Y12085000D01*
X66556928Y10785000D01*
X66569188Y10660518D01*
X66605498Y10540820D01*
X66664463Y10430506D01*
X66743815Y10333815D01*
X66840506Y10254463D01*
X66950820Y10195498D01*
X67056071Y10163571D01*
X67055719Y10160000D01*
X67072805Y9986510D01*
X67123412Y9819687D01*
X67205590Y9665941D01*
X67288468Y9564954D01*
X67288471Y9564951D01*
X67316184Y9531183D01*
X67349951Y9503471D01*
X68558470Y8294951D01*
X68586183Y8261183D01*
X68619951Y8233470D01*
X68619953Y8233468D01*
X68647519Y8210845D01*
X68720941Y8150589D01*
X68874687Y8068411D01*
X69041510Y8017805D01*
X69171523Y8005000D01*
X69171533Y8005000D01*
X69214999Y8000719D01*
X69258465Y8005000D01*
X70428806Y8005000D01*
X70426048Y7977000D01*
X70429120Y6762750D01*
X70587870Y6604000D01*
X72136000Y6604000D01*
X72136000Y6624000D01*
X72390000Y6624000D01*
X72390000Y6604000D01*
X73938130Y6604000D01*
X74096880Y6762750D01*
X74099952Y7977000D01*
X74097194Y8005000D01*
X75775531Y8005000D01*
X75819000Y8000719D01*
X75862469Y8005000D01*
X75862477Y8005000D01*
X75992490Y8017805D01*
X76159313Y8068411D01*
X76313059Y8150589D01*
X76370878Y8198040D01*
X76557176Y8198040D01*
X76594023Y8129106D01*
X76672058Y8034020D01*
X76594023Y7938934D01*
X76535058Y7828620D01*
X76498748Y7708922D01*
X76486488Y7584440D01*
X76489560Y7270750D01*
X76648310Y7112000D01*
X77597000Y7112000D01*
X77597000Y7132000D01*
X77851000Y7132000D01*
X77851000Y7112000D01*
X78799690Y7112000D01*
X78958440Y7270750D01*
X78961512Y7584440D01*
X78949252Y7708922D01*
X78912942Y7828620D01*
X78853977Y7938934D01*
X78775942Y8034020D01*
X78853977Y8129106D01*
X78912942Y8239420D01*
X78949252Y8359118D01*
X78961512Y8483600D01*
X78961512Y9682480D01*
X78949252Y9806962D01*
X78912942Y9926660D01*
X78853977Y10036974D01*
X78774625Y10133665D01*
X78677934Y10213017D01*
X78567620Y10271982D01*
X78447922Y10308292D01*
X78323440Y10320552D01*
X77124560Y10320552D01*
X77000078Y10308292D01*
X76880380Y10271982D01*
X76770066Y10213017D01*
X76673375Y10133665D01*
X76594023Y10036974D01*
X76557176Y9968040D01*
X76055509Y9968040D01*
X76012040Y9972321D01*
X75968571Y9968040D01*
X75968563Y9968040D01*
X75838550Y9955235D01*
X75671727Y9904629D01*
X75517981Y9822451D01*
X75460162Y9775000D01*
X74122594Y9775000D01*
X74125352Y9803000D01*
X74125352Y12803000D01*
X74113092Y12927482D01*
X74076782Y13047180D01*
X74017817Y13157494D01*
X73938465Y13254185D01*
X73841774Y13333537D01*
X73731460Y13392502D01*
X73611762Y13428812D01*
X73487280Y13441072D01*
X73173400Y13441072D01*
X73173400Y14028131D01*
X73177681Y14071600D01*
X73173400Y14115069D01*
X73173400Y14115077D01*
X73160595Y14245090D01*
X73109989Y14411913D01*
X73027811Y14565659D01*
X73018197Y14577374D01*
X73113028Y14640738D01*
X73243262Y14770972D01*
X73345586Y14924111D01*
X73416068Y15094271D01*
X73422180Y15125000D01*
X74607128Y15125000D01*
X74619388Y15000518D01*
X74655698Y14880820D01*
X74714663Y14770506D01*
X74794015Y14673815D01*
X74890706Y14594463D01*
X75001020Y14535498D01*
X75120718Y14499188D01*
X75245200Y14486928D01*
X75609450Y14490000D01*
X75768200Y14648750D01*
X75768200Y15748000D01*
X74768950Y15748000D01*
X74610200Y15589250D01*
X74607128Y15125000D01*
X73422180Y15125000D01*
X73452000Y15274911D01*
X73452000Y15337094D01*
X73551729Y15356932D01*
X73721889Y15427414D01*
X73875028Y15529738D01*
X74005262Y15659972D01*
X74107586Y15813111D01*
X74178068Y15983271D01*
X74214000Y16163911D01*
X74214000Y16348089D01*
X74178068Y16528729D01*
X74164000Y16562692D01*
X74164000Y16625000D01*
X74607128Y16625000D01*
X74610200Y16160750D01*
X74768950Y16002000D01*
X75768200Y16002000D01*
X75768200Y17101250D01*
X75609450Y17260000D01*
X75245200Y17263072D01*
X75120718Y17250812D01*
X75001020Y17214502D01*
X74890706Y17155537D01*
X74794015Y17076185D01*
X74714663Y16979494D01*
X74655698Y16869180D01*
X74619388Y16749482D01*
X74607128Y16625000D01*
X74164000Y16625000D01*
X74164000Y17089541D01*
X74189292Y17172918D01*
X74201552Y17297400D01*
X74201552Y18508448D01*
X75412600Y18508448D01*
X75537082Y18520708D01*
X75620459Y18546000D01*
X75706422Y18546000D01*
X75738345Y18514077D01*
X75752414Y18480111D01*
X75854738Y18326972D01*
X75984972Y18196738D01*
X76138111Y18094414D01*
X76308271Y18023932D01*
X76488911Y17988000D01*
X76673089Y17988000D01*
X76853729Y18023932D01*
X76910200Y18047323D01*
X76910200Y17217287D01*
X76901020Y17214502D01*
X76845200Y17184665D01*
X76789380Y17214502D01*
X76669682Y17250812D01*
X76545200Y17263072D01*
X76180950Y17260000D01*
X76022200Y17101250D01*
X76022200Y16002000D01*
X76042200Y16002000D01*
X76042200Y15748000D01*
X76022200Y15748000D01*
X76022200Y14648750D01*
X76180950Y14490000D01*
X76545200Y14486928D01*
X76669682Y14499188D01*
X76789380Y14535498D01*
X76845200Y14565335D01*
X76901020Y14535498D01*
X77020718Y14499188D01*
X77145200Y14486928D01*
X78445200Y14486928D01*
X78569682Y14499188D01*
X78689380Y14535498D01*
X78799694Y14594463D01*
X78896385Y14673815D01*
X78963900Y14756083D01*
X78963900Y1035181D01*
X78950388Y766107D01*
X78913502Y522917D01*
X78853529Y288872D01*
X78771834Y64680D01*
X78669557Y-148287D01*
X78547692Y-349291D01*
X78407515Y-536974D01*
X78250082Y-710180D01*
X78076869Y-867619D01*
X77889269Y-1007734D01*
X77688192Y-1129565D01*
X77475131Y-1231966D01*
X77251131Y-1313591D01*
X77016986Y-1373512D01*
X76773783Y-1410477D01*
X76504827Y-1423900D01*
X70334000Y-1423900D01*
X70334000Y1488128D01*
X74036000Y1488128D01*
X74036000Y1047872D01*
X74121890Y616075D01*
X74290369Y209331D01*
X74534962Y-156729D01*
X74846271Y-468038D01*
X75212331Y-712631D01*
X75619075Y-881110D01*
X76050872Y-967000D01*
X76491128Y-967000D01*
X76922925Y-881110D01*
X77329669Y-712631D01*
X77695729Y-468038D01*
X78007038Y-156729D01*
X78251631Y209331D01*
X78420110Y616075D01*
X78506000Y1047872D01*
X78506000Y1488128D01*
X78420110Y1919925D01*
X78251631Y2326669D01*
X78007038Y2692729D01*
X77695729Y3004038D01*
X77329669Y3248631D01*
X76922925Y3417110D01*
X76491128Y3503000D01*
X76050872Y3503000D01*
X75619075Y3417110D01*
X75212331Y3248631D01*
X74846271Y3004038D01*
X74534962Y2692729D01*
X74290369Y2326669D01*
X74121890Y1919925D01*
X74036000Y1488128D01*
X70334000Y1488128D01*
X70334000Y2757353D01*
X70337314Y2791000D01*
X70324088Y2925283D01*
X70284919Y3054406D01*
X70221312Y3173407D01*
X70135711Y3277711D01*
X70031407Y3363312D01*
X69912406Y3426919D01*
X69783283Y3466088D01*
X69682647Y3476000D01*
X69649000Y3479314D01*
X69615353Y3476000D01*
X44782847Y3476000D01*
X44749200Y3479314D01*
X44715553Y3476000D01*
X44614917Y3466088D01*
X44568072Y3451878D01*
X44568072Y4460000D01*
X44555812Y4584482D01*
X44519502Y4704180D01*
X44460537Y4814494D01*
X44381185Y4911185D01*
X44284494Y4990537D01*
X44179990Y5046396D01*
X44249017Y5130506D01*
X44307982Y5240820D01*
X44344292Y5360518D01*
X44356552Y5485000D01*
X44353480Y6699250D01*
X44194730Y6858000D01*
X42646600Y6858000D01*
X42646600Y6838000D01*
X42392600Y6838000D01*
X42392600Y6858000D01*
X40844470Y6858000D01*
X40685720Y6699250D01*
X40683358Y5765799D01*
X40001000Y6448157D01*
X40001000Y8485000D01*
X40682648Y8485000D01*
X40685720Y7270750D01*
X40844470Y7112000D01*
X42392600Y7112000D01*
X42392600Y8961250D01*
X42646600Y8961250D01*
X42646600Y7112000D01*
X44194730Y7112000D01*
X44353480Y7270750D01*
X44356552Y8485000D01*
X44344292Y8609482D01*
X44307982Y8729180D01*
X44249017Y8839494D01*
X44169665Y8936185D01*
X44072974Y9015537D01*
X43962660Y9074502D01*
X43842962Y9110812D01*
X43718480Y9123072D01*
X42805350Y9120000D01*
X42646600Y8961250D01*
X42392600Y8961250D01*
X42233850Y9120000D01*
X41320720Y9123072D01*
X41196238Y9110812D01*
X41076540Y9074502D01*
X40966226Y9015537D01*
X40869535Y8936185D01*
X40790183Y8839494D01*
X40731218Y8729180D01*
X40694908Y8609482D01*
X40682648Y8485000D01*
X40001000Y8485000D01*
X40001000Y9920422D01*
X40708048Y10627469D01*
X40708048Y10311000D01*
X40720308Y10186518D01*
X40756618Y10066820D01*
X40815583Y9956506D01*
X40894935Y9859815D01*
X40991626Y9780463D01*
X41101940Y9721498D01*
X41221638Y9685188D01*
X41346120Y9672928D01*
X43743880Y9672928D01*
X43868362Y9685188D01*
X43988060Y9721498D01*
X44098374Y9780463D01*
X44195065Y9859815D01*
X44274417Y9956506D01*
X44333382Y10066820D01*
X44369692Y10186518D01*
X44381952Y10311000D01*
X44381952Y12601250D01*
X44382395Y12602710D01*
X44395200Y12732723D01*
X44395200Y12732731D01*
X44399481Y12776200D01*
X44395200Y12819669D01*
X44395200Y14151713D01*
X44404380Y14154498D01*
X44514694Y14213463D01*
X44611385Y14292815D01*
X44690737Y14389506D01*
X44749702Y14499820D01*
X44782318Y14607339D01*
X44812271Y14594932D01*
X44992911Y14559000D01*
X45177089Y14559000D01*
X45357729Y14594932D01*
X45527889Y14665414D01*
X45681028Y14767738D01*
X45811262Y14897972D01*
X45913586Y15051111D01*
X45984068Y15221271D01*
X46020000Y15401911D01*
X46020000Y15586089D01*
X45984068Y15766729D01*
X45913586Y15936889D01*
X45811262Y16090028D01*
X45681028Y16220262D01*
X45527889Y16322586D01*
X45372379Y16387000D01*
X46057533Y16387000D01*
X46100999Y16382719D01*
X46144465Y16387000D01*
X49417422Y16387000D01*
X52046453Y13757968D01*
X52046459Y13757963D01*
X52429466Y13374956D01*
X52457183Y13341183D01*
X52591941Y13230589D01*
X52745687Y13148411D01*
X52850839Y13116513D01*
X52912509Y13097805D01*
X52927306Y13096348D01*
X53042523Y13085000D01*
X53042531Y13085000D01*
X53086000Y13080719D01*
X53129469Y13085000D01*
X56905299Y13085000D01*
X56909188Y13045518D01*
X56945498Y12925820D01*
X57004463Y12815506D01*
X57083815Y12718815D01*
X57180506Y12639463D01*
X57265001Y12594299D01*
X57265000Y8899685D01*
X57150000Y8784685D01*
X57032886Y8901799D01*
X56978269Y8938293D01*
X56971589Y8960313D01*
X56889411Y9114059D01*
X56778817Y9248817D01*
X56644058Y9359411D01*
X56490312Y9441589D01*
X56323489Y9492195D01*
X56150000Y9509282D01*
X55976510Y9492195D01*
X55809687Y9441589D01*
X55655941Y9359411D01*
X55521183Y9248817D01*
X55410589Y9114058D01*
X55359039Y9017614D01*
X55351185Y9027185D01*
X55254494Y9106537D01*
X55144180Y9165502D01*
X55024482Y9201812D01*
X54900000Y9214072D01*
X53400000Y9214072D01*
X53275518Y9201812D01*
X53155820Y9165502D01*
X53045506Y9106537D01*
X52948815Y9027185D01*
X52869463Y8930494D01*
X52810498Y8820180D01*
X52777379Y8711000D01*
X50795469Y8711000D01*
X50752000Y8715281D01*
X50708531Y8711000D01*
X50708523Y8711000D01*
X50601731Y8700482D01*
X50578509Y8698195D01*
X50527903Y8682843D01*
X50411687Y8647589D01*
X50257941Y8565411D01*
X50257939Y8565410D01*
X50257940Y8565410D01*
X50156953Y8482532D01*
X50156951Y8482530D01*
X50123183Y8454817D01*
X50095470Y8421049D01*
X49043494Y7369072D01*
X48514000Y7369072D01*
X48389518Y7356812D01*
X48269820Y7320502D01*
X48159506Y7261537D01*
X48062815Y7182185D01*
X47983463Y7085494D01*
X47924498Y6975180D01*
X47888188Y6855482D01*
X47875928Y6731000D01*
X47875928Y4699000D01*
X47888188Y4574518D01*
X47924498Y4454820D01*
X47983463Y4344506D01*
X48062815Y4247815D01*
X48159506Y4168463D01*
X48269820Y4109498D01*
X48389518Y4073188D01*
X48514000Y4060928D01*
X50546000Y4060928D01*
X50670482Y4073188D01*
X50790180Y4109498D01*
X50900494Y4168463D01*
X50997185Y4247815D01*
X51076537Y4344506D01*
X51135502Y4454820D01*
X51171812Y4574518D01*
X51184072Y4699000D01*
X51184072Y6731000D01*
X51171812Y6855482D01*
X51145870Y6941000D01*
X52777379Y6941000D01*
X52810498Y6831820D01*
X52869463Y6721506D01*
X52948815Y6624815D01*
X53045506Y6545463D01*
X53144944Y6492312D01*
X53022447Y6196579D01*
X52959000Y5877609D01*
X52959000Y5552391D01*
X53022447Y5233421D01*
X53146903Y4932958D01*
X53327585Y4662549D01*
X53557549Y4432585D01*
X53827958Y4251903D01*
X54128421Y4127447D01*
X54447391Y4064000D01*
X54772609Y4064000D01*
X55091579Y4127447D01*
X55392042Y4251903D01*
X55662451Y4432585D01*
X55892415Y4662549D01*
X56073097Y4932958D01*
X56197553Y5233421D01*
X56261000Y5552391D01*
X56261000Y5877609D01*
X56197553Y6196579D01*
X56096310Y6441000D01*
X56286411Y6441000D01*
X56553989Y6494225D01*
X56806043Y6598629D01*
X57032886Y6750201D01*
X57150000Y6867315D01*
X57267114Y6750201D01*
X57493957Y6598629D01*
X57746011Y6494225D01*
X58013589Y6441000D01*
X58203690Y6441000D01*
X58102447Y6196579D01*
X58039000Y5877609D01*
X58039000Y5552391D01*
X58102447Y5233421D01*
X58226903Y4932958D01*
X58407585Y4662549D01*
X58637549Y4432585D01*
X58907958Y4251903D01*
X59208421Y4127447D01*
X59527391Y4064000D01*
X59852609Y4064000D01*
X60171579Y4127447D01*
X60472042Y4251903D01*
X60742451Y4432585D01*
X60878043Y4568177D01*
X63802782Y4568177D01*
X63900478Y4302140D01*
X64192821Y4159652D01*
X64507344Y4076936D01*
X64831962Y4057169D01*
X65154198Y4101112D01*
X65461670Y4207076D01*
X65639522Y4302140D01*
X65737218Y4568177D01*
X64770000Y5535395D01*
X63802782Y4568177D01*
X60878043Y4568177D01*
X60972415Y4662549D01*
X61153097Y4932958D01*
X61277553Y5233421D01*
X61341000Y5552391D01*
X61341000Y5653038D01*
X63112169Y5653038D01*
X63156112Y5330802D01*
X63262076Y5023330D01*
X63357140Y4845478D01*
X63623177Y4747782D01*
X64590395Y5715000D01*
X64949605Y5715000D01*
X65916823Y4747782D01*
X66182860Y4845478D01*
X66246963Y4977000D01*
X70426048Y4977000D01*
X70438308Y4852518D01*
X70474618Y4732820D01*
X70533583Y4622506D01*
X70612935Y4525815D01*
X70709626Y4446463D01*
X70819940Y4387498D01*
X70939638Y4351188D01*
X71064120Y4338928D01*
X71977250Y4342000D01*
X72136000Y4500750D01*
X72136000Y6350000D01*
X72390000Y6350000D01*
X72390000Y4500750D01*
X72548750Y4342000D01*
X73461880Y4338928D01*
X73586362Y4351188D01*
X73706060Y4387498D01*
X73816374Y4446463D01*
X73913065Y4525815D01*
X73992417Y4622506D01*
X74051382Y4732820D01*
X74087692Y4852518D01*
X74099952Y4977000D01*
X74096880Y6191250D01*
X73938130Y6350000D01*
X72390000Y6350000D01*
X72136000Y6350000D01*
X70587870Y6350000D01*
X70429120Y6191250D01*
X70426048Y4977000D01*
X66246963Y4977000D01*
X66325348Y5137821D01*
X66408064Y5452344D01*
X66427831Y5776962D01*
X66383888Y6099198D01*
X66285200Y6385560D01*
X76486488Y6385560D01*
X76498748Y6261078D01*
X76535058Y6141380D01*
X76594023Y6031066D01*
X76673375Y5934375D01*
X76770066Y5855023D01*
X76880380Y5796058D01*
X77000078Y5759748D01*
X77124560Y5747488D01*
X77438250Y5750560D01*
X77597000Y5909310D01*
X77597000Y6858000D01*
X77851000Y6858000D01*
X77851000Y5909310D01*
X78009750Y5750560D01*
X78323440Y5747488D01*
X78447922Y5759748D01*
X78567620Y5796058D01*
X78677934Y5855023D01*
X78774625Y5934375D01*
X78853977Y6031066D01*
X78912942Y6141380D01*
X78949252Y6261078D01*
X78961512Y6385560D01*
X78958440Y6699250D01*
X78799690Y6858000D01*
X77851000Y6858000D01*
X77597000Y6858000D01*
X76648310Y6858000D01*
X76489560Y6699250D01*
X76486488Y6385560D01*
X66285200Y6385560D01*
X66277924Y6406670D01*
X66182860Y6584522D01*
X65916823Y6682218D01*
X64949605Y5715000D01*
X64590395Y5715000D01*
X63623177Y6682218D01*
X63357140Y6584522D01*
X63214652Y6292179D01*
X63131936Y5977656D01*
X63112169Y5653038D01*
X61341000Y5653038D01*
X61341000Y5877609D01*
X61277553Y6196579D01*
X61153097Y6497042D01*
X60972415Y6767451D01*
X60915219Y6824647D01*
X60925417Y6861823D01*
X63802782Y6861823D01*
X64770000Y5894605D01*
X65737218Y6861823D01*
X65639522Y7127860D01*
X65347179Y7270348D01*
X65032656Y7353064D01*
X64708038Y7372831D01*
X64385802Y7328888D01*
X64078330Y7222924D01*
X63900478Y7127860D01*
X63802782Y6861823D01*
X60925417Y6861823D01*
X60927388Y6869007D01*
X60150000Y7646395D01*
X60135858Y7632252D01*
X59956253Y7811857D01*
X59970395Y7826000D01*
X60329605Y7826000D01*
X61106993Y7048612D01*
X61345860Y7114137D01*
X61461760Y7361116D01*
X61527250Y7625960D01*
X61539812Y7898492D01*
X61498965Y8168238D01*
X61406277Y8424832D01*
X61345860Y8537863D01*
X61106993Y8603388D01*
X60329605Y7826000D01*
X59970395Y7826000D01*
X59421932Y8374463D01*
X59377371Y8482043D01*
X59225799Y8708886D01*
X59151692Y8782993D01*
X59372612Y8782993D01*
X60150000Y8005605D01*
X60927388Y8782993D01*
X60861863Y9021860D01*
X60614884Y9137760D01*
X60350040Y9203250D01*
X60077508Y9215812D01*
X59807762Y9174965D01*
X59551168Y9082277D01*
X59438137Y9021860D01*
X59372612Y8782993D01*
X59151692Y8782993D01*
X59035000Y8899685D01*
X59035000Y12531928D01*
X60735000Y12531928D01*
X60859482Y12544188D01*
X60979180Y12580498D01*
X61089494Y12639463D01*
X61186185Y12718815D01*
X61265537Y12815506D01*
X61324502Y12925820D01*
X61360812Y13045518D01*
X61373072Y13170000D01*
X61896928Y13170000D01*
X61909188Y13045518D01*
X61945498Y12925820D01*
X62004463Y12815506D01*
X62083815Y12718815D01*
X62180506Y12639463D01*
X62290820Y12580498D01*
X62410518Y12544188D01*
X62535000Y12531928D01*
X63849250Y12535000D01*
X64008000Y12693750D01*
X64008000Y13843000D01*
X64262000Y13843000D01*
X64262000Y12693750D01*
X64420750Y12535000D01*
X65735000Y12531928D01*
X65859482Y12544188D01*
X65979180Y12580498D01*
X66089494Y12639463D01*
X66186185Y12718815D01*
X66265537Y12815506D01*
X66324502Y12925820D01*
X66360812Y13045518D01*
X66373072Y13170000D01*
X66370000Y13684250D01*
X66211250Y13843000D01*
X64262000Y13843000D01*
X64008000Y13843000D01*
X62058750Y13843000D01*
X61900000Y13684250D01*
X61896928Y13170000D01*
X61373072Y13170000D01*
X61373072Y14770000D01*
X61896928Y14770000D01*
X61900000Y14255750D01*
X62058750Y14097000D01*
X64008000Y14097000D01*
X64008000Y15246250D01*
X64262000Y15246250D01*
X64262000Y14097000D01*
X66211250Y14097000D01*
X66370000Y14255750D01*
X66373072Y14770000D01*
X66360812Y14894482D01*
X66324502Y15014180D01*
X66265537Y15124494D01*
X66186185Y15221185D01*
X66089494Y15300537D01*
X65979180Y15359502D01*
X65859482Y15395812D01*
X65735000Y15408072D01*
X64420750Y15405000D01*
X64262000Y15246250D01*
X64008000Y15246250D01*
X63849250Y15405000D01*
X62535000Y15408072D01*
X62410518Y15395812D01*
X62290820Y15359502D01*
X62180506Y15300537D01*
X62083815Y15221185D01*
X62004463Y15124494D01*
X61945498Y15014180D01*
X61909188Y14894482D01*
X61896928Y14770000D01*
X61373072Y14770000D01*
X61360812Y14894482D01*
X61324502Y15014180D01*
X61265537Y15124494D01*
X61186185Y15221185D01*
X61089494Y15300537D01*
X60979180Y15359502D01*
X60859482Y15395812D01*
X60735000Y15408072D01*
X57535000Y15408072D01*
X57410518Y15395812D01*
X57290820Y15359502D01*
X57180506Y15300537D01*
X57083815Y15221185D01*
X57004463Y15124494D01*
X56945498Y15014180D01*
X56909188Y14894482D01*
X56905299Y14855000D01*
X53452578Y14855000D01*
X53298037Y15009541D01*
X53298032Y15009547D01*
X50795190Y17512388D01*
X50870748Y17489468D01*
X50995230Y17477208D01*
X52391214Y17477208D01*
X52497345Y17371076D01*
X52511414Y17337111D01*
X52613738Y17183972D01*
X52743972Y17053738D01*
X52897111Y16951414D01*
X53067271Y16880932D01*
X53247911Y16845000D01*
X53432089Y16845000D01*
X53612729Y16880932D01*
X53782889Y16951414D01*
X53936028Y17053738D01*
X54066262Y17183972D01*
X54168586Y17337111D01*
X54239068Y17507271D01*
X54275000Y17687911D01*
X54275000Y17872089D01*
X54239068Y18052729D01*
X54168586Y18222889D01*
X54136780Y18270490D01*
X54193262Y18326972D01*
X54295586Y18480111D01*
X54366068Y18650271D01*
X54402000Y18830911D01*
X54402000Y19015089D01*
X54366068Y19195729D01*
X54295586Y19365889D01*
X54193262Y19519028D01*
X54063028Y19649262D01*
X53909889Y19751586D01*
X53875924Y19765655D01*
X53361534Y20280044D01*
X53333817Y20313817D01*
X53199059Y20424411D01*
X53045313Y20506589D01*
X53015941Y20515499D01*
X53020582Y20530798D01*
X53032842Y20655280D01*
X53032842Y21254720D01*
X53020582Y21379202D01*
X52984272Y21498900D01*
X52935577Y21590000D01*
X52984272Y21681100D01*
X53020582Y21800798D01*
X53032842Y21925280D01*
X53029770Y21939250D01*
X52871020Y22098000D01*
X51822000Y22098000D01*
X51822000Y22078000D01*
X51568000Y22078000D01*
X51568000Y22098000D01*
X50518980Y22098000D01*
X50360230Y21939250D01*
X50357158Y21925280D01*
X50369418Y21800798D01*
X50405728Y21681100D01*
X50454423Y21590000D01*
X50405728Y21498900D01*
X50369418Y21379202D01*
X50357158Y21254720D01*
X50357158Y20655280D01*
X50369418Y20530798D01*
X50405728Y20411100D01*
X50454423Y20320000D01*
X50405728Y20228900D01*
X50369418Y20109202D01*
X50357158Y19984720D01*
X50357158Y19385280D01*
X50369418Y19260798D01*
X50405728Y19141100D01*
X50454423Y19050000D01*
X50405728Y18958900D01*
X50369418Y18839202D01*
X50357158Y18714720D01*
X50357158Y18115280D01*
X50369418Y17990798D01*
X50391376Y17918414D01*
X50278059Y18011411D01*
X50124313Y18093589D01*
X49957490Y18144195D01*
X49827477Y18157000D01*
X49827469Y18157000D01*
X49784000Y18161281D01*
X49740531Y18157000D01*
X47432842Y18157000D01*
X47432842Y18714720D01*
X47420582Y18839202D01*
X47384272Y18958900D01*
X47335577Y19050000D01*
X47384272Y19141100D01*
X47420582Y19260798D01*
X47432842Y19385280D01*
X47429770Y19399250D01*
X47271020Y19558000D01*
X46222000Y19558000D01*
X46222000Y19538000D01*
X45968000Y19538000D01*
X45968000Y19558000D01*
X44918980Y19558000D01*
X44760230Y19399250D01*
X44757158Y19385280D01*
X44769418Y19260798D01*
X44805728Y19141100D01*
X44854423Y19050000D01*
X44805728Y18958900D01*
X44769418Y18839202D01*
X44757158Y18714720D01*
X44757158Y18157000D01*
X43808708Y18157000D01*
X43825537Y18177506D01*
X43884502Y18287820D01*
X43920812Y18407518D01*
X43933072Y18532000D01*
X43933072Y19832000D01*
X43920812Y19956482D01*
X43884502Y20076180D01*
X43854665Y20132000D01*
X43884502Y20187820D01*
X43920812Y20307518D01*
X43933072Y20432000D01*
X43931189Y20655280D01*
X44757158Y20655280D01*
X44769418Y20530798D01*
X44805728Y20411100D01*
X44854423Y20320000D01*
X44805728Y20228900D01*
X44769418Y20109202D01*
X44757158Y19984720D01*
X44760230Y19970750D01*
X44918980Y19812000D01*
X45968000Y19812000D01*
X45968000Y20828000D01*
X46222000Y20828000D01*
X46222000Y19812000D01*
X47271020Y19812000D01*
X47429770Y19970750D01*
X47432842Y19984720D01*
X47420582Y20109202D01*
X47384272Y20228900D01*
X47335577Y20320000D01*
X47384272Y20411100D01*
X47420582Y20530798D01*
X47432842Y20655280D01*
X47429770Y20669250D01*
X47271020Y20828000D01*
X46222000Y20828000D01*
X45968000Y20828000D01*
X44918980Y20828000D01*
X44760230Y20669250D01*
X44757158Y20655280D01*
X43931189Y20655280D01*
X43930000Y20796250D01*
X43771250Y20955000D01*
X42672000Y20955000D01*
X42672000Y20935000D01*
X42418000Y20935000D01*
X42418000Y20955000D01*
X41318750Y20955000D01*
X41160000Y20796250D01*
X41156928Y20432000D01*
X41169188Y20307518D01*
X41205498Y20187820D01*
X41235335Y20132000D01*
X41205498Y20076180D01*
X41169188Y19956482D01*
X41156928Y19832000D01*
X41156928Y18532000D01*
X41169188Y18407518D01*
X41205498Y18287820D01*
X41264463Y18177506D01*
X41281292Y18157000D01*
X40048469Y18157000D01*
X40005000Y18161281D01*
X39961531Y18157000D01*
X39961523Y18157000D01*
X39831510Y18144195D01*
X39664687Y18093589D01*
X39512771Y18012389D01*
X39510941Y18011411D01*
X39409953Y17928532D01*
X39409951Y17928530D01*
X39376183Y17900817D01*
X39348470Y17867049D01*
X38876422Y17395000D01*
X38579112Y17395000D01*
X38431523Y17615883D01*
X38189883Y17857523D01*
X38137160Y17892752D01*
X38152008Y17907600D01*
X38036585Y18023023D01*
X38311191Y18130833D01*
X38462052Y18437460D01*
X38550194Y18767628D01*
X38572228Y19108647D01*
X38527310Y19447412D01*
X38417166Y19770905D01*
X38329298Y19935292D01*
X38378470Y19950208D01*
X38488784Y20009173D01*
X38585475Y20088525D01*
X38664827Y20185216D01*
X38723792Y20295530D01*
X38760102Y20415228D01*
X38772362Y20539710D01*
X38769290Y21304250D01*
X38610540Y21463000D01*
X37211000Y21463000D01*
X37211000Y21443000D01*
X36957000Y21443000D01*
X36957000Y21463000D01*
X36937000Y21463000D01*
X36937000Y21717000D01*
X36957000Y21717000D01*
X36957000Y23116540D01*
X37211000Y23116540D01*
X37211000Y21717000D01*
X38610540Y21717000D01*
X38625540Y21732000D01*
X41156928Y21732000D01*
X41160000Y21367750D01*
X41318750Y21209000D01*
X42418000Y21209000D01*
X42418000Y22208250D01*
X42672000Y22208250D01*
X42672000Y21209000D01*
X43771250Y21209000D01*
X43930000Y21367750D01*
X43933072Y21732000D01*
X43920812Y21856482D01*
X43899943Y21925280D01*
X44757158Y21925280D01*
X44769418Y21800798D01*
X44805728Y21681100D01*
X44854423Y21590000D01*
X44805728Y21498900D01*
X44769418Y21379202D01*
X44757158Y21254720D01*
X44760230Y21240750D01*
X44918980Y21082000D01*
X45968000Y21082000D01*
X45968000Y22098000D01*
X46222000Y22098000D01*
X46222000Y21082000D01*
X47271020Y21082000D01*
X47429770Y21240750D01*
X47432842Y21254720D01*
X47420582Y21379202D01*
X47384272Y21498900D01*
X47335577Y21590000D01*
X47384272Y21681100D01*
X47420582Y21800798D01*
X47432842Y21925280D01*
X47429770Y21939250D01*
X47271020Y22098000D01*
X46222000Y22098000D01*
X45968000Y22098000D01*
X44918980Y22098000D01*
X44760230Y21939250D01*
X44757158Y21925280D01*
X43899943Y21925280D01*
X43884502Y21976180D01*
X43825537Y22086494D01*
X43746185Y22183185D01*
X43649494Y22262537D01*
X43539180Y22321502D01*
X43419482Y22357812D01*
X43295000Y22370072D01*
X42830750Y22367000D01*
X42672000Y22208250D01*
X42418000Y22208250D01*
X42259250Y22367000D01*
X41795000Y22370072D01*
X41670518Y22357812D01*
X41550820Y22321502D01*
X41440506Y22262537D01*
X41343815Y22183185D01*
X41264463Y22086494D01*
X41205498Y21976180D01*
X41169188Y21856482D01*
X41156928Y21732000D01*
X38625540Y21732000D01*
X38769290Y21875750D01*
X38771897Y22524720D01*
X44757158Y22524720D01*
X44760230Y22510750D01*
X44918980Y22352000D01*
X45968000Y22352000D01*
X45968000Y23000970D01*
X46222000Y23000970D01*
X46222000Y22352000D01*
X47271020Y22352000D01*
X47429770Y22510750D01*
X47432842Y22524720D01*
X50357158Y22524720D01*
X50360230Y22510750D01*
X50518980Y22352000D01*
X51568000Y22352000D01*
X51568000Y23000970D01*
X51822000Y23000970D01*
X51822000Y22352000D01*
X52871020Y22352000D01*
X53029770Y22510750D01*
X53032842Y22524720D01*
X53020582Y22649202D01*
X52984272Y22768900D01*
X52925307Y22879214D01*
X52845955Y22975905D01*
X52749264Y23055257D01*
X52638950Y23114222D01*
X52519252Y23150532D01*
X52394770Y23162792D01*
X51980750Y23159720D01*
X51822000Y23000970D01*
X51568000Y23000970D01*
X51409250Y23159720D01*
X50995230Y23162792D01*
X50870748Y23150532D01*
X50751050Y23114222D01*
X50640736Y23055257D01*
X50544045Y22975905D01*
X50464693Y22879214D01*
X50405728Y22768900D01*
X50369418Y22649202D01*
X50357158Y22524720D01*
X47432842Y22524720D01*
X47420582Y22649202D01*
X47384272Y22768900D01*
X47325307Y22879214D01*
X47245955Y22975905D01*
X47149264Y23055257D01*
X47038950Y23114222D01*
X46919252Y23150532D01*
X46794770Y23162792D01*
X46380750Y23159720D01*
X46222000Y23000970D01*
X45968000Y23000970D01*
X45809250Y23159720D01*
X45395230Y23162792D01*
X45270748Y23150532D01*
X45151050Y23114222D01*
X45040736Y23055257D01*
X44944045Y22975905D01*
X44864693Y22879214D01*
X44805728Y22768900D01*
X44769418Y22649202D01*
X44757158Y22524720D01*
X38771897Y22524720D01*
X38772362Y22640290D01*
X38760102Y22764772D01*
X38723792Y22884470D01*
X38664827Y22994784D01*
X38585475Y23091475D01*
X38488784Y23170827D01*
X38378470Y23229792D01*
X38258772Y23266102D01*
X38134290Y23278362D01*
X37369750Y23275290D01*
X37211000Y23116540D01*
X36957000Y23116540D01*
X36798250Y23275290D01*
X36165179Y23277834D01*
X36165179Y25793348D01*
X36348421Y25717447D01*
X36667391Y25654000D01*
X36992609Y25654000D01*
X37311579Y25717447D01*
X37612042Y25841903D01*
X37882451Y26022585D01*
X38112415Y26252549D01*
X38293097Y26522958D01*
X38417553Y26823421D01*
X38481000Y27142391D01*
X38481000Y27467609D01*
X38417553Y27786579D01*
X38293097Y28087042D01*
X38112415Y28357451D01*
X37894866Y28575000D01*
X38112415Y28792549D01*
X38129421Y28818001D01*
X40237470Y26709951D01*
X40265183Y26676183D01*
X40298951Y26648470D01*
X40298953Y26648468D01*
X40370452Y26589790D01*
X40399941Y26565589D01*
X40553687Y26483411D01*
X40720510Y26432805D01*
X40850523Y26420000D01*
X40850533Y26420000D01*
X40893999Y26415719D01*
X40937465Y26420000D01*
X40958151Y26420000D01*
X40966050Y26415778D01*
X41085748Y26379468D01*
X41210230Y26367208D01*
X42609770Y26367208D01*
X42734252Y26379468D01*
X42853950Y26415778D01*
X42964264Y26474743D01*
X43060955Y26554095D01*
X43140307Y26650786D01*
X43199272Y26761100D01*
X43235582Y26880798D01*
X43247842Y27005280D01*
X43247842Y27604720D01*
X43235582Y27729202D01*
X43199272Y27848900D01*
X43150577Y27940000D01*
X43199272Y28031100D01*
X43235582Y28150798D01*
X43247842Y28275280D01*
X43247842Y28874720D01*
X43235582Y28999202D01*
X43199272Y29118900D01*
X43150577Y29210000D01*
X43199272Y29301100D01*
X43235582Y29420798D01*
X43247842Y29545280D01*
X43244770Y29559250D01*
X43086020Y29718000D01*
X42037000Y29718000D01*
X42037000Y29698000D01*
X41783000Y29698000D01*
X41783000Y29718000D01*
X41763000Y29718000D01*
X41763000Y29972000D01*
X41783000Y29972000D01*
X41783000Y29992000D01*
X42037000Y29992000D01*
X42037000Y29972000D01*
X43086020Y29972000D01*
X43244770Y30130750D01*
X43247842Y30144720D01*
X43235582Y30269202D01*
X43199272Y30388900D01*
X43150577Y30480000D01*
X43199272Y30571100D01*
X43235582Y30690798D01*
X43247842Y30815280D01*
X43247842Y31414720D01*
X43235582Y31539202D01*
X43199272Y31658900D01*
X43140307Y31769214D01*
X43060955Y31865905D01*
X42964264Y31945257D01*
X42853950Y32004222D01*
X42797575Y32021323D01*
X42795000Y32047469D01*
X42795000Y32047477D01*
X42782195Y32177490D01*
X42731589Y32344313D01*
X42649411Y32498059D01*
X42637738Y32512282D01*
X42566532Y32599047D01*
X42566530Y32599049D01*
X42538817Y32632817D01*
X42505050Y32660529D01*
X41990655Y33174923D01*
X41976586Y33208889D01*
X41874262Y33362028D01*
X41744028Y33492262D01*
X41590889Y33594586D01*
X41420729Y33665068D01*
X41240089Y33701000D01*
X41055911Y33701000D01*
X40875271Y33665068D01*
X40705111Y33594586D01*
X40551972Y33492262D01*
X40421738Y33362028D01*
X40319414Y33208889D01*
X40248932Y33038729D01*
X40213000Y32858089D01*
X40213000Y32673911D01*
X40248932Y32493271D01*
X40319414Y32323111D01*
X40421738Y32169972D01*
X40551972Y32039738D01*
X40705111Y31937414D01*
X40739077Y31923345D01*
X40779626Y31882795D01*
X40759045Y31865905D01*
X40679693Y31769214D01*
X40620728Y31658900D01*
X40584418Y31539202D01*
X40572158Y31414720D01*
X40572158Y30815280D01*
X40584418Y30690798D01*
X40620728Y30571100D01*
X40669423Y30480000D01*
X40633150Y30412140D01*
X40601028Y30444262D01*
X40447889Y30546586D01*
X40277729Y30617068D01*
X40097089Y30653000D01*
X39912911Y30653000D01*
X39732271Y30617068D01*
X39562111Y30546586D01*
X39408972Y30444262D01*
X39278738Y30314028D01*
X39221786Y30228793D01*
X39010532Y30440046D01*
X38982817Y30473817D01*
X38848059Y30584411D01*
X38694313Y30666589D01*
X38527490Y30717195D01*
X38397477Y30730000D01*
X38397469Y30730000D01*
X38354000Y30734281D01*
X38310531Y30730000D01*
X38224302Y30730000D01*
X38112415Y30897451D01*
X37894866Y31115000D01*
X38112415Y31332549D01*
X38293097Y31602958D01*
X38417553Y31903421D01*
X38481000Y32222391D01*
X38481000Y32547609D01*
X38417553Y32866579D01*
X38293097Y33167042D01*
X38164636Y33359296D01*
X38200494Y33378463D01*
X38297185Y33457815D01*
X38376537Y33554506D01*
X38435502Y33664820D01*
X38471812Y33784518D01*
X38484072Y33909000D01*
X38483488Y34048000D01*
X42526928Y34048000D01*
X42539188Y33923518D01*
X42575498Y33803820D01*
X42634463Y33693506D01*
X42713815Y33596815D01*
X42810506Y33517463D01*
X42920820Y33458498D01*
X43040518Y33422188D01*
X43165000Y33409928D01*
X43529250Y33413000D01*
X43688000Y33571750D01*
X43688000Y34671000D01*
X42688750Y34671000D01*
X42530000Y34512250D01*
X42526928Y34048000D01*
X38483488Y34048000D01*
X38481000Y34639250D01*
X38322250Y34798000D01*
X36957000Y34798000D01*
X36957000Y34778000D01*
X36703000Y34778000D01*
X36703000Y34798000D01*
X36683000Y34798000D01*
X36683000Y35052000D01*
X36703000Y35052000D01*
X36703000Y36417250D01*
X36957000Y36417250D01*
X36957000Y35052000D01*
X38322250Y35052000D01*
X38481000Y35210750D01*
X38484072Y35941000D01*
X38471812Y36065482D01*
X38435502Y36185180D01*
X38376537Y36295494D01*
X38297185Y36392185D01*
X38200494Y36471537D01*
X38090180Y36530502D01*
X37970482Y36566812D01*
X37846000Y36579072D01*
X37115750Y36576000D01*
X36957000Y36417250D01*
X36703000Y36417250D01*
X36544250Y36576000D01*
X35814000Y36579072D01*
X35689518Y36566812D01*
X35569820Y36530502D01*
X35459506Y36471537D01*
X35433800Y36450441D01*
X35433800Y39588128D01*
X36036000Y39588128D01*
X36036000Y39147872D01*
X36121890Y38716075D01*
X36290369Y38309331D01*
X36534962Y37943271D01*
X36846271Y37631962D01*
X37212331Y37387369D01*
X37619075Y37218890D01*
X38050872Y37133000D01*
X38491128Y37133000D01*
X38922925Y37218890D01*
X39329669Y37387369D01*
X39695729Y37631962D01*
X40007038Y37943271D01*
X40251631Y38309331D01*
X40420110Y38716075D01*
X40506000Y39147872D01*
X40506000Y39588128D01*
X40420110Y40019925D01*
X40251631Y40426669D01*
X40007038Y40792729D01*
X39695729Y41104038D01*
X39329669Y41348631D01*
X38922925Y41517110D01*
X38491128Y41603000D01*
X38050872Y41603000D01*
X37619075Y41517110D01*
X37212331Y41348631D01*
X36846271Y41104038D01*
X36534962Y40792729D01*
X36290369Y40426669D01*
X36121890Y40019925D01*
X36036000Y39588128D01*
X35433800Y39588128D01*
X35433800Y39646518D01*
X35447312Y39915593D01*
X35484214Y40158891D01*
X35544081Y40392823D01*
X35625806Y40616884D01*
X35728244Y40830101D01*
X35850092Y41031154D01*
X35990424Y41218940D01*
X36147787Y41392234D01*
X36320912Y41549522D01*
X36508752Y41689757D01*
X36709858Y41811685D01*
X36923016Y41914094D01*
X37147074Y41995818D01*
X37381113Y42055712D01*
X37624421Y42092693D01*
X37893381Y42106200D01*
X45299622Y42106200D01*
X45124951Y41931529D01*
G37*
%TD.AperFunction*%
D31*
X37023748Y19064142D02*
X37009605Y19050000D01*
X37023748Y19035857D01*
X36844143Y18856252D01*
X36830000Y18870395D01*
X36815858Y18856252D01*
X36636253Y19035857D01*
X36650395Y19050000D01*
X36636253Y19064142D01*
X36815858Y19243747D01*
X36830000Y19229605D01*
X36844143Y19243747D01*
X37023748Y19064142D01*
%TA.AperFunction,Conductor*%
D32*
G36*
X37023748Y19064142D02*
G01*
X37009605Y19050000D01*
X37023748Y19035857D01*
X36844143Y18856252D01*
X36830000Y18870395D01*
X36815858Y18856252D01*
X36636253Y19035857D01*
X36650395Y19050000D01*
X36636253Y19064142D01*
X36815858Y19243747D01*
X36830000Y19229605D01*
X36844143Y19243747D01*
X37023748Y19064142D01*
G37*
%TD.AperFunction*%
D31*
X73004680Y25244528D02*
X73504528Y25244528D01*
X73504528Y24744680D01*
X73516411Y24624030D01*
X73504528Y24503380D01*
X73504528Y23944580D01*
X73516411Y23823930D01*
X73504528Y23703280D01*
X73504528Y23144480D01*
X73516589Y23022016D01*
X73507600Y22909530D01*
X73594745Y22822385D01*
X73612063Y22789986D01*
X73691415Y22693295D01*
X73774572Y22625050D01*
X73691415Y22556805D01*
X73612063Y22460114D01*
X73591828Y22422258D01*
X73507600Y22338030D01*
X73516477Y22226946D01*
X73504528Y22105620D01*
X73504528Y21546820D01*
X73516411Y21426170D01*
X73504528Y21305520D01*
X73504528Y21111020D01*
X72723559Y21111020D01*
X72213412Y21621166D01*
X72185697Y21654937D01*
X72050939Y21765531D01*
X71897193Y21847709D01*
X71730370Y21898315D01*
X71600357Y21911120D01*
X71600349Y21911120D01*
X71556880Y21915401D01*
X71513411Y21911120D01*
X67462400Y21911120D01*
X67462400Y21953222D01*
X67327848Y21953222D01*
X67357937Y21989886D01*
X67378172Y22027742D01*
X67462400Y22111970D01*
X67453523Y22223054D01*
X67465472Y22344380D01*
X67465472Y22903180D01*
X67453411Y23025644D01*
X67462400Y23138130D01*
X67375255Y23225275D01*
X67357937Y23257674D01*
X67278585Y23354365D01*
X67193880Y23423880D01*
X67278585Y23493395D01*
X67357937Y23590086D01*
X67375255Y23622485D01*
X67462400Y23709630D01*
X67453411Y23822116D01*
X67465472Y23944580D01*
X67465472Y24503380D01*
X67453589Y24624030D01*
X67465472Y24744680D01*
X67465472Y25244528D01*
X67965320Y25244528D01*
X68085970Y25256411D01*
X68206620Y25244528D01*
X68765420Y25244528D01*
X68886070Y25256411D01*
X69006720Y25244528D01*
X69565520Y25244528D01*
X69686170Y25256411D01*
X69806820Y25244528D01*
X70365620Y25244528D01*
X70485000Y25256286D01*
X70604380Y25244528D01*
X71163180Y25244528D01*
X71283830Y25256411D01*
X71404480Y25244528D01*
X71963280Y25244528D01*
X72083930Y25256411D01*
X72204580Y25244528D01*
X72763380Y25244528D01*
X72884030Y25256411D01*
X73004680Y25244528D01*
%TA.AperFunction,Conductor*%
D32*
G36*
X73004680Y25244528D02*
G01*
X73504528Y25244528D01*
X73504528Y24744680D01*
X73516411Y24624030D01*
X73504528Y24503380D01*
X73504528Y23944580D01*
X73516411Y23823930D01*
X73504528Y23703280D01*
X73504528Y23144480D01*
X73516589Y23022016D01*
X73507600Y22909530D01*
X73594745Y22822385D01*
X73612063Y22789986D01*
X73691415Y22693295D01*
X73774572Y22625050D01*
X73691415Y22556805D01*
X73612063Y22460114D01*
X73591828Y22422258D01*
X73507600Y22338030D01*
X73516477Y22226946D01*
X73504528Y22105620D01*
X73504528Y21546820D01*
X73516411Y21426170D01*
X73504528Y21305520D01*
X73504528Y21111020D01*
X72723559Y21111020D01*
X72213412Y21621166D01*
X72185697Y21654937D01*
X72050939Y21765531D01*
X71897193Y21847709D01*
X71730370Y21898315D01*
X71600357Y21911120D01*
X71600349Y21911120D01*
X71556880Y21915401D01*
X71513411Y21911120D01*
X67462400Y21911120D01*
X67462400Y21953222D01*
X67327848Y21953222D01*
X67357937Y21989886D01*
X67378172Y22027742D01*
X67462400Y22111970D01*
X67453523Y22223054D01*
X67465472Y22344380D01*
X67465472Y22903180D01*
X67453411Y23025644D01*
X67462400Y23138130D01*
X67375255Y23225275D01*
X67357937Y23257674D01*
X67278585Y23354365D01*
X67193880Y23423880D01*
X67278585Y23493395D01*
X67357937Y23590086D01*
X67375255Y23622485D01*
X67462400Y23709630D01*
X67453411Y23822116D01*
X67465472Y23944580D01*
X67465472Y24503380D01*
X67453589Y24624030D01*
X67465472Y24744680D01*
X67465472Y25244528D01*
X67965320Y25244528D01*
X68085970Y25256411D01*
X68206620Y25244528D01*
X68765420Y25244528D01*
X68886070Y25256411D01*
X69006720Y25244528D01*
X69565520Y25244528D01*
X69686170Y25256411D01*
X69806820Y25244528D01*
X70365620Y25244528D01*
X70485000Y25256286D01*
X70604380Y25244528D01*
X71163180Y25244528D01*
X71283830Y25256411D01*
X71404480Y25244528D01*
X71963280Y25244528D01*
X72083930Y25256411D01*
X72204580Y25244528D01*
X72763380Y25244528D01*
X72884030Y25256411D01*
X73004680Y25244528D01*
G37*
%TD.AperFunction*%
D31*
X78963901Y26347147D02*
X78855000Y26357872D01*
X78390750Y26354800D01*
X78232000Y26196050D01*
X78232000Y25196800D01*
X78252000Y25196800D01*
X78252000Y24942800D01*
X78232000Y24942800D01*
X78232000Y24922800D01*
X77978000Y24922800D01*
X77978000Y24942800D01*
X76878750Y24942800D01*
X76720000Y24784050D01*
X76716928Y24419800D01*
X76729188Y24295318D01*
X76765498Y24175620D01*
X76795335Y24119800D01*
X76765498Y24063980D01*
X76729188Y23944282D01*
X76716928Y23819800D01*
X76716928Y22711220D01*
X76047600Y22711220D01*
X76047600Y22750782D01*
X75910963Y22750782D01*
X75943137Y22789986D01*
X75960455Y22822385D01*
X76047600Y22909530D01*
X76038611Y23022016D01*
X76050672Y23144480D01*
X76050672Y23607073D01*
X76151492Y23729921D01*
X76233670Y23883667D01*
X76256202Y23957944D01*
X76346810Y24048552D01*
X76376764Y24073135D01*
X76474862Y24192666D01*
X76547754Y24329039D01*
X76588849Y24464510D01*
X76592641Y24477011D01*
X76597450Y24525839D01*
X76604000Y24592338D01*
X76604000Y24592345D01*
X76607797Y24630898D01*
X76604000Y24669451D01*
X76604000Y25653880D01*
X76647586Y25719111D01*
X76647871Y25719800D01*
X76716928Y25719800D01*
X76720000Y25355550D01*
X76878750Y25196800D01*
X77978000Y25196800D01*
X77978000Y26196050D01*
X77819250Y26354800D01*
X77355000Y26357872D01*
X77230518Y26345612D01*
X77110820Y26309302D01*
X77000506Y26250337D01*
X76903815Y26170985D01*
X76824463Y26074294D01*
X76765498Y25963980D01*
X76729188Y25844282D01*
X76716928Y25719800D01*
X76647871Y25719800D01*
X76718068Y25889271D01*
X76754000Y26069911D01*
X76754000Y26254089D01*
X76718068Y26434729D01*
X76647586Y26604889D01*
X76609425Y26662001D01*
X78051446Y26662001D01*
X78089999Y26658204D01*
X78128552Y26662001D01*
X78128560Y26662001D01*
X78243886Y26673360D01*
X78391859Y26718247D01*
X78528232Y26791139D01*
X78647763Y26889237D01*
X78672346Y26919191D01*
X78963901Y27210745D01*
X78963901Y26347147D01*
%TA.AperFunction,Conductor*%
D32*
G36*
X78963901Y26347147D02*
G01*
X78855000Y26357872D01*
X78390750Y26354800D01*
X78232000Y26196050D01*
X78232000Y25196800D01*
X78252000Y25196800D01*
X78252000Y24942800D01*
X78232000Y24942800D01*
X78232000Y24922800D01*
X77978000Y24922800D01*
X77978000Y24942800D01*
X76878750Y24942800D01*
X76720000Y24784050D01*
X76716928Y24419800D01*
X76729188Y24295318D01*
X76765498Y24175620D01*
X76795335Y24119800D01*
X76765498Y24063980D01*
X76729188Y23944282D01*
X76716928Y23819800D01*
X76716928Y22711220D01*
X76047600Y22711220D01*
X76047600Y22750782D01*
X75910963Y22750782D01*
X75943137Y22789986D01*
X75960455Y22822385D01*
X76047600Y22909530D01*
X76038611Y23022016D01*
X76050672Y23144480D01*
X76050672Y23607073D01*
X76151492Y23729921D01*
X76233670Y23883667D01*
X76256202Y23957944D01*
X76346810Y24048552D01*
X76376764Y24073135D01*
X76474862Y24192666D01*
X76547754Y24329039D01*
X76588849Y24464510D01*
X76592641Y24477011D01*
X76597450Y24525839D01*
X76604000Y24592338D01*
X76604000Y24592345D01*
X76607797Y24630898D01*
X76604000Y24669451D01*
X76604000Y25653880D01*
X76647586Y25719111D01*
X76647871Y25719800D01*
X76716928Y25719800D01*
X76720000Y25355550D01*
X76878750Y25196800D01*
X77978000Y25196800D01*
X77978000Y26196050D01*
X77819250Y26354800D01*
X77355000Y26357872D01*
X77230518Y26345612D01*
X77110820Y26309302D01*
X77000506Y26250337D01*
X76903815Y26170985D01*
X76824463Y26074294D01*
X76765498Y25963980D01*
X76729188Y25844282D01*
X76716928Y25719800D01*
X76647871Y25719800D01*
X76718068Y25889271D01*
X76754000Y26069911D01*
X76754000Y26254089D01*
X76718068Y26434729D01*
X76647586Y26604889D01*
X76609425Y26662001D01*
X78051446Y26662001D01*
X78089999Y26658204D01*
X78128552Y26662001D01*
X78128560Y26662001D01*
X78243886Y26673360D01*
X78391859Y26718247D01*
X78528232Y26791139D01*
X78647763Y26889237D01*
X78672346Y26919191D01*
X78963901Y27210745D01*
X78963901Y26347147D01*
G37*
%TD.AperFunction*%
D31*
X50942612Y41167993D02*
X51720000Y40390605D01*
X52497388Y41167993D01*
X52466937Y41279000D01*
X56834956Y41279000D01*
X56795498Y41205180D01*
X56759188Y41085482D01*
X56746928Y40961000D01*
X56746928Y39461000D01*
X56759188Y39336518D01*
X56795498Y39216820D01*
X56854463Y39106506D01*
X56933815Y39009815D01*
X57030506Y38930463D01*
X57140820Y38871498D01*
X57260518Y38835188D01*
X57385000Y38822928D01*
X58885000Y38822928D01*
X59009482Y38835188D01*
X59129180Y38871498D01*
X59239494Y38930463D01*
X59336185Y39009815D01*
X59372869Y39054515D01*
X59478957Y38983629D01*
X59731011Y38879225D01*
X59998589Y38826000D01*
X60271411Y38826000D01*
X60538989Y38879225D01*
X60791043Y38983629D01*
X61017886Y39135201D01*
X61135000Y39252315D01*
X61252114Y39135201D01*
X61478957Y38983629D01*
X61731011Y38879225D01*
X61998589Y38826000D01*
X62271411Y38826000D01*
X62538989Y38879225D01*
X62791043Y38983629D01*
X63017886Y39135201D01*
X63210799Y39328114D01*
X63362371Y39554957D01*
X63406932Y39662537D01*
X63955395Y40211000D01*
X63406932Y40759463D01*
X63362371Y40867043D01*
X63210799Y41093886D01*
X63025685Y41279000D01*
X63388063Y41279000D01*
X63357612Y41167993D01*
X64135000Y40390605D01*
X64149143Y40404747D01*
X64328748Y40225142D01*
X64314605Y40211000D01*
X64328748Y40196857D01*
X64149143Y40017252D01*
X64135000Y40031395D01*
X63357612Y39254007D01*
X63423137Y39015140D01*
X63670116Y38899240D01*
X63934960Y38833750D01*
X64207492Y38821188D01*
X64477238Y38862035D01*
X64733832Y38954723D01*
X64774000Y38976194D01*
X64774000Y38974579D01*
X63920951Y38121529D01*
X63887184Y38093817D01*
X63859471Y38060049D01*
X63859468Y38060046D01*
X63776590Y37959059D01*
X63694412Y37805313D01*
X63643805Y37638490D01*
X63626719Y37465000D01*
X63631001Y37421521D01*
X63631001Y37420810D01*
X63549694Y37487537D01*
X63439380Y37546502D01*
X63319682Y37582812D01*
X63195200Y37595072D01*
X61264800Y37595072D01*
X61140318Y37582812D01*
X61020620Y37546502D01*
X60910306Y37487537D01*
X60813615Y37408185D01*
X60734263Y37311494D01*
X60675298Y37201180D01*
X60638988Y37081482D01*
X60626728Y36957000D01*
X60626728Y36445000D01*
X59762287Y36445000D01*
X59759502Y36454180D01*
X59700537Y36564494D01*
X59621185Y36661185D01*
X59524494Y36740537D01*
X59414180Y36799502D01*
X59294482Y36835812D01*
X59170000Y36848072D01*
X57670000Y36848072D01*
X57545518Y36835812D01*
X57425820Y36799502D01*
X57315506Y36740537D01*
X57218815Y36661185D01*
X57139463Y36564494D01*
X57080498Y36454180D01*
X57044188Y36334482D01*
X57031928Y36210000D01*
X57031928Y34910000D01*
X57044188Y34785518D01*
X57080498Y34665820D01*
X57110335Y34610000D01*
X57080498Y34554180D01*
X57044188Y34434482D01*
X57031928Y34310000D01*
X57035000Y33945750D01*
X57193750Y33787000D01*
X58293000Y33787000D01*
X58293000Y33807000D01*
X58547000Y33807000D01*
X58547000Y33787000D01*
X59646250Y33787000D01*
X59805000Y33945750D01*
X59808072Y34310000D01*
X59795812Y34434482D01*
X59759502Y34554180D01*
X59729665Y34610000D01*
X59759502Y34665820D01*
X59762287Y34675000D01*
X60593422Y34675000D01*
X60626728Y34641694D01*
X60626728Y31623000D01*
X60638988Y31498518D01*
X60675298Y31378820D01*
X60734263Y31268506D01*
X60813615Y31171815D01*
X60910306Y31092463D01*
X61020620Y31033498D01*
X61140318Y30997188D01*
X61264800Y30984928D01*
X62392915Y30984928D01*
X63096001Y30281842D01*
X63096001Y27943072D01*
X61264800Y27943072D01*
X61140318Y27930812D01*
X61020620Y27894502D01*
X60910306Y27835537D01*
X60813615Y27756185D01*
X60734263Y27659494D01*
X60675298Y27549180D01*
X60638988Y27429482D01*
X60626728Y27305000D01*
X60626728Y26349851D01*
X59350575Y27626004D01*
X59414180Y27645298D01*
X59524494Y27704263D01*
X59621185Y27783615D01*
X59700537Y27880306D01*
X59759502Y27990620D01*
X59795812Y28110318D01*
X59808072Y28234800D01*
X59808072Y29534800D01*
X59795812Y29659282D01*
X59759502Y29778980D01*
X59729665Y29834800D01*
X59759502Y29890620D01*
X59795812Y30010318D01*
X59808072Y30134800D01*
X59805000Y30499050D01*
X59646250Y30657800D01*
X58547000Y30657800D01*
X58547000Y30637800D01*
X58293000Y30637800D01*
X58293000Y30657800D01*
X57193750Y30657800D01*
X57035000Y30499050D01*
X57031928Y30134800D01*
X57044188Y30010318D01*
X57080498Y29890620D01*
X57110335Y29834800D01*
X57080498Y29778980D01*
X57044188Y29659282D01*
X57031928Y29534800D01*
X57031928Y28660643D01*
X57009059Y28679411D01*
X56855313Y28761589D01*
X56688490Y28812195D01*
X56588174Y28822075D01*
X56584502Y28834180D01*
X56525537Y28944494D01*
X56446185Y29041185D01*
X56349494Y29120537D01*
X56239180Y29179502D01*
X56119482Y29215812D01*
X55995000Y29228072D01*
X55511556Y29228072D01*
X55523072Y29345000D01*
X55523072Y30345000D01*
X55510812Y30469482D01*
X55474502Y30589180D01*
X55415537Y30699494D01*
X55336185Y30796185D01*
X55239494Y30875537D01*
X55129180Y30934502D01*
X55009482Y30970812D01*
X54885000Y30983072D01*
X54335000Y30983072D01*
X54210518Y30970812D01*
X54134839Y30947855D01*
X54063594Y30969980D01*
X53945750Y30980000D01*
X53787000Y30821250D01*
X53787000Y30666824D01*
X53745498Y30589180D01*
X53709188Y30469482D01*
X53696928Y30345000D01*
X53696928Y29698000D01*
X53623072Y29698000D01*
X53623072Y30345000D01*
X53610812Y30469482D01*
X53574502Y30589180D01*
X53533000Y30666824D01*
X53533000Y30821250D01*
X53374250Y30980000D01*
X53256406Y30969980D01*
X53185161Y30947855D01*
X53109482Y30970812D01*
X52985000Y30983072D01*
X52435000Y30983072D01*
X52310518Y30970812D01*
X52190820Y30934502D01*
X52080506Y30875537D01*
X51983815Y30796185D01*
X51929499Y30730000D01*
X51224469Y30730000D01*
X51181000Y30734281D01*
X51137531Y30730000D01*
X51137523Y30730000D01*
X51007510Y30717195D01*
X50840687Y30666589D01*
X50729728Y30607281D01*
X50686941Y30584411D01*
X50602694Y30515271D01*
X50605589Y30520687D01*
X50645726Y30653000D01*
X50656195Y30687509D01*
X50673281Y30861000D01*
X50656195Y31034490D01*
X50643594Y31076028D01*
X50605589Y31201313D01*
X50605000Y31202415D01*
X50605000Y31660000D01*
X51929499Y31660000D01*
X51983815Y31593815D01*
X52080506Y31514463D01*
X52190820Y31455498D01*
X52310518Y31419188D01*
X52435000Y31406928D01*
X52985000Y31406928D01*
X53109482Y31419188D01*
X53229180Y31455498D01*
X53339494Y31514463D01*
X53436185Y31593815D01*
X53515537Y31690506D01*
X53574502Y31800820D01*
X53610812Y31920518D01*
X53623072Y32045000D01*
X53623072Y32049195D01*
X53696942Y32049195D01*
X53708383Y31924636D01*
X53743906Y31804702D01*
X53802143Y31694002D01*
X53880858Y31596791D01*
X53977026Y31516805D01*
X54086950Y31457117D01*
X54206406Y31420020D01*
X54324250Y31410000D01*
X54483000Y31568750D01*
X54483000Y32418000D01*
X54737000Y32418000D01*
X54737000Y31568750D01*
X54895750Y31410000D01*
X55013594Y31420020D01*
X55061187Y31434800D01*
X57031928Y31434800D01*
X57035000Y31070550D01*
X57193750Y30911800D01*
X58293000Y30911800D01*
X58293000Y31911050D01*
X58547000Y31911050D01*
X58547000Y30911800D01*
X59646250Y30911800D01*
X59805000Y31070550D01*
X59808072Y31434800D01*
X59795812Y31559282D01*
X59759502Y31678980D01*
X59700537Y31789294D01*
X59621185Y31885985D01*
X59524494Y31965337D01*
X59414180Y32024302D01*
X59294482Y32060612D01*
X59170000Y32072872D01*
X58705750Y32069800D01*
X58547000Y31911050D01*
X58293000Y31911050D01*
X58134250Y32069800D01*
X57670000Y32072872D01*
X57545518Y32060612D01*
X57425820Y32024302D01*
X57315506Y31965337D01*
X57218815Y31885985D01*
X57139463Y31789294D01*
X57080498Y31678980D01*
X57044188Y31559282D01*
X57031928Y31434800D01*
X55061187Y31434800D01*
X55133050Y31457117D01*
X55242974Y31516805D01*
X55339142Y31596791D01*
X55417857Y31694002D01*
X55476094Y31804702D01*
X55511617Y31924636D01*
X55523058Y32049195D01*
X55520000Y32259250D01*
X55361250Y32418000D01*
X54737000Y32418000D01*
X54483000Y32418000D01*
X53858750Y32418000D01*
X53700000Y32259250D01*
X53696942Y32049195D01*
X53623072Y32049195D01*
X53623072Y33045000D01*
X53610812Y33169482D01*
X53595000Y33221607D01*
X53595000Y33582713D01*
X53604180Y33585498D01*
X53660000Y33615335D01*
X53715820Y33585498D01*
X53835518Y33549188D01*
X53936236Y33539268D01*
X53880858Y33493209D01*
X53802143Y33395998D01*
X53743906Y33285298D01*
X53708383Y33165364D01*
X53696942Y33040805D01*
X53700000Y32830750D01*
X53858750Y32672000D01*
X54483000Y32672000D01*
X54483000Y33521250D01*
X54394250Y33610000D01*
X54483000Y33698750D01*
X54483000Y34798000D01*
X54737000Y34798000D01*
X54737000Y33698750D01*
X54825750Y33610000D01*
X54737000Y33521250D01*
X54737000Y32672000D01*
X55361250Y32672000D01*
X55520000Y32830750D01*
X55522609Y33010000D01*
X57031928Y33010000D01*
X57044188Y32885518D01*
X57080498Y32765820D01*
X57139463Y32655506D01*
X57218815Y32558815D01*
X57315506Y32479463D01*
X57425820Y32420498D01*
X57545518Y32384188D01*
X57670000Y32371928D01*
X58134250Y32375000D01*
X58293000Y32533750D01*
X58293000Y33533000D01*
X58547000Y33533000D01*
X58547000Y32533750D01*
X58705750Y32375000D01*
X59170000Y32371928D01*
X59294482Y32384188D01*
X59414180Y32420498D01*
X59524494Y32479463D01*
X59621185Y32558815D01*
X59700537Y32655506D01*
X59759502Y32765820D01*
X59795812Y32885518D01*
X59808072Y33010000D01*
X59805000Y33374250D01*
X59646250Y33533000D01*
X58547000Y33533000D01*
X58293000Y33533000D01*
X57193750Y33533000D01*
X57035000Y33374250D01*
X57031928Y33010000D01*
X55522609Y33010000D01*
X55523058Y33040805D01*
X55511617Y33165364D01*
X55476094Y33285298D01*
X55417857Y33395998D01*
X55339142Y33493209D01*
X55283764Y33539268D01*
X55384482Y33549188D01*
X55504180Y33585498D01*
X55614494Y33644463D01*
X55711185Y33723815D01*
X55790537Y33820506D01*
X55849502Y33930820D01*
X55885812Y34050518D01*
X55898072Y34175000D01*
X55895000Y34639250D01*
X55736250Y34798000D01*
X54737000Y34798000D01*
X54483000Y34798000D01*
X54463000Y34798000D01*
X54463000Y35052000D01*
X54483000Y35052000D01*
X54483000Y36151250D01*
X54737000Y36151250D01*
X54737000Y35052000D01*
X55736250Y35052000D01*
X55895000Y35210750D01*
X55898072Y35675000D01*
X55885812Y35799482D01*
X55849502Y35919180D01*
X55790537Y36029494D01*
X55711185Y36126185D01*
X55614494Y36205537D01*
X55504180Y36264502D01*
X55384482Y36300812D01*
X55260000Y36313072D01*
X54895750Y36310000D01*
X54737000Y36151250D01*
X54483000Y36151250D01*
X54324250Y36310000D01*
X53960000Y36313072D01*
X53835518Y36300812D01*
X53715820Y36264502D01*
X53660000Y36234665D01*
X53604180Y36264502D01*
X53484482Y36300812D01*
X53360000Y36313072D01*
X52060000Y36313072D01*
X51935518Y36300812D01*
X51815820Y36264502D01*
X51705506Y36205537D01*
X51608815Y36126185D01*
X51529463Y36029494D01*
X51470498Y35919180D01*
X51437379Y35810000D01*
X50605000Y35810000D01*
X50605000Y39137315D01*
X50721692Y39254007D01*
X50942612Y39254007D01*
X51008137Y39015140D01*
X51255116Y38899240D01*
X51519960Y38833750D01*
X51792492Y38821188D01*
X52062238Y38862035D01*
X52318832Y38954723D01*
X52431863Y39015140D01*
X52497388Y39254007D01*
X51720000Y40031395D01*
X50942612Y39254007D01*
X50721692Y39254007D01*
X50795799Y39328114D01*
X50947371Y39554957D01*
X50991932Y39662537D01*
X51540395Y40211000D01*
X51899605Y40211000D01*
X52676993Y39433612D01*
X52915860Y39499137D01*
X53031760Y39746116D01*
X53097250Y40010960D01*
X53109812Y40283492D01*
X53068965Y40553238D01*
X52976277Y40809832D01*
X52915860Y40922863D01*
X52676993Y40988388D01*
X51899605Y40211000D01*
X51540395Y40211000D01*
X50991932Y40759463D01*
X50947371Y40867043D01*
X50795799Y41093886D01*
X50610685Y41279000D01*
X50973063Y41279000D01*
X50942612Y41167993D01*
%TA.AperFunction,Conductor*%
D32*
G36*
X50942612Y41167993D02*
G01*
X51720000Y40390605D01*
X52497388Y41167993D01*
X52466937Y41279000D01*
X56834956Y41279000D01*
X56795498Y41205180D01*
X56759188Y41085482D01*
X56746928Y40961000D01*
X56746928Y39461000D01*
X56759188Y39336518D01*
X56795498Y39216820D01*
X56854463Y39106506D01*
X56933815Y39009815D01*
X57030506Y38930463D01*
X57140820Y38871498D01*
X57260518Y38835188D01*
X57385000Y38822928D01*
X58885000Y38822928D01*
X59009482Y38835188D01*
X59129180Y38871498D01*
X59239494Y38930463D01*
X59336185Y39009815D01*
X59372869Y39054515D01*
X59478957Y38983629D01*
X59731011Y38879225D01*
X59998589Y38826000D01*
X60271411Y38826000D01*
X60538989Y38879225D01*
X60791043Y38983629D01*
X61017886Y39135201D01*
X61135000Y39252315D01*
X61252114Y39135201D01*
X61478957Y38983629D01*
X61731011Y38879225D01*
X61998589Y38826000D01*
X62271411Y38826000D01*
X62538989Y38879225D01*
X62791043Y38983629D01*
X63017886Y39135201D01*
X63210799Y39328114D01*
X63362371Y39554957D01*
X63406932Y39662537D01*
X63955395Y40211000D01*
X63406932Y40759463D01*
X63362371Y40867043D01*
X63210799Y41093886D01*
X63025685Y41279000D01*
X63388063Y41279000D01*
X63357612Y41167993D01*
X64135000Y40390605D01*
X64149143Y40404747D01*
X64328748Y40225142D01*
X64314605Y40211000D01*
X64328748Y40196857D01*
X64149143Y40017252D01*
X64135000Y40031395D01*
X63357612Y39254007D01*
X63423137Y39015140D01*
X63670116Y38899240D01*
X63934960Y38833750D01*
X64207492Y38821188D01*
X64477238Y38862035D01*
X64733832Y38954723D01*
X64774000Y38976194D01*
X64774000Y38974579D01*
X63920951Y38121529D01*
X63887184Y38093817D01*
X63859471Y38060049D01*
X63859468Y38060046D01*
X63776590Y37959059D01*
X63694412Y37805313D01*
X63643805Y37638490D01*
X63626719Y37465000D01*
X63631001Y37421521D01*
X63631001Y37420810D01*
X63549694Y37487537D01*
X63439380Y37546502D01*
X63319682Y37582812D01*
X63195200Y37595072D01*
X61264800Y37595072D01*
X61140318Y37582812D01*
X61020620Y37546502D01*
X60910306Y37487537D01*
X60813615Y37408185D01*
X60734263Y37311494D01*
X60675298Y37201180D01*
X60638988Y37081482D01*
X60626728Y36957000D01*
X60626728Y36445000D01*
X59762287Y36445000D01*
X59759502Y36454180D01*
X59700537Y36564494D01*
X59621185Y36661185D01*
X59524494Y36740537D01*
X59414180Y36799502D01*
X59294482Y36835812D01*
X59170000Y36848072D01*
X57670000Y36848072D01*
X57545518Y36835812D01*
X57425820Y36799502D01*
X57315506Y36740537D01*
X57218815Y36661185D01*
X57139463Y36564494D01*
X57080498Y36454180D01*
X57044188Y36334482D01*
X57031928Y36210000D01*
X57031928Y34910000D01*
X57044188Y34785518D01*
X57080498Y34665820D01*
X57110335Y34610000D01*
X57080498Y34554180D01*
X57044188Y34434482D01*
X57031928Y34310000D01*
X57035000Y33945750D01*
X57193750Y33787000D01*
X58293000Y33787000D01*
X58293000Y33807000D01*
X58547000Y33807000D01*
X58547000Y33787000D01*
X59646250Y33787000D01*
X59805000Y33945750D01*
X59808072Y34310000D01*
X59795812Y34434482D01*
X59759502Y34554180D01*
X59729665Y34610000D01*
X59759502Y34665820D01*
X59762287Y34675000D01*
X60593422Y34675000D01*
X60626728Y34641694D01*
X60626728Y31623000D01*
X60638988Y31498518D01*
X60675298Y31378820D01*
X60734263Y31268506D01*
X60813615Y31171815D01*
X60910306Y31092463D01*
X61020620Y31033498D01*
X61140318Y30997188D01*
X61264800Y30984928D01*
X62392915Y30984928D01*
X63096001Y30281842D01*
X63096001Y27943072D01*
X61264800Y27943072D01*
X61140318Y27930812D01*
X61020620Y27894502D01*
X60910306Y27835537D01*
X60813615Y27756185D01*
X60734263Y27659494D01*
X60675298Y27549180D01*
X60638988Y27429482D01*
X60626728Y27305000D01*
X60626728Y26349851D01*
X59350575Y27626004D01*
X59414180Y27645298D01*
X59524494Y27704263D01*
X59621185Y27783615D01*
X59700537Y27880306D01*
X59759502Y27990620D01*
X59795812Y28110318D01*
X59808072Y28234800D01*
X59808072Y29534800D01*
X59795812Y29659282D01*
X59759502Y29778980D01*
X59729665Y29834800D01*
X59759502Y29890620D01*
X59795812Y30010318D01*
X59808072Y30134800D01*
X59805000Y30499050D01*
X59646250Y30657800D01*
X58547000Y30657800D01*
X58547000Y30637800D01*
X58293000Y30637800D01*
X58293000Y30657800D01*
X57193750Y30657800D01*
X57035000Y30499050D01*
X57031928Y30134800D01*
X57044188Y30010318D01*
X57080498Y29890620D01*
X57110335Y29834800D01*
X57080498Y29778980D01*
X57044188Y29659282D01*
X57031928Y29534800D01*
X57031928Y28660643D01*
X57009059Y28679411D01*
X56855313Y28761589D01*
X56688490Y28812195D01*
X56588174Y28822075D01*
X56584502Y28834180D01*
X56525537Y28944494D01*
X56446185Y29041185D01*
X56349494Y29120537D01*
X56239180Y29179502D01*
X56119482Y29215812D01*
X55995000Y29228072D01*
X55511556Y29228072D01*
X55523072Y29345000D01*
X55523072Y30345000D01*
X55510812Y30469482D01*
X55474502Y30589180D01*
X55415537Y30699494D01*
X55336185Y30796185D01*
X55239494Y30875537D01*
X55129180Y30934502D01*
X55009482Y30970812D01*
X54885000Y30983072D01*
X54335000Y30983072D01*
X54210518Y30970812D01*
X54134839Y30947855D01*
X54063594Y30969980D01*
X53945750Y30980000D01*
X53787000Y30821250D01*
X53787000Y30666824D01*
X53745498Y30589180D01*
X53709188Y30469482D01*
X53696928Y30345000D01*
X53696928Y29698000D01*
X53623072Y29698000D01*
X53623072Y30345000D01*
X53610812Y30469482D01*
X53574502Y30589180D01*
X53533000Y30666824D01*
X53533000Y30821250D01*
X53374250Y30980000D01*
X53256406Y30969980D01*
X53185161Y30947855D01*
X53109482Y30970812D01*
X52985000Y30983072D01*
X52435000Y30983072D01*
X52310518Y30970812D01*
X52190820Y30934502D01*
X52080506Y30875537D01*
X51983815Y30796185D01*
X51929499Y30730000D01*
X51224469Y30730000D01*
X51181000Y30734281D01*
X51137531Y30730000D01*
X51137523Y30730000D01*
X51007510Y30717195D01*
X50840687Y30666589D01*
X50729728Y30607281D01*
X50686941Y30584411D01*
X50602694Y30515271D01*
X50605589Y30520687D01*
X50645726Y30653000D01*
X50656195Y30687509D01*
X50673281Y30861000D01*
X50656195Y31034490D01*
X50643594Y31076028D01*
X50605589Y31201313D01*
X50605000Y31202415D01*
X50605000Y31660000D01*
X51929499Y31660000D01*
X51983815Y31593815D01*
X52080506Y31514463D01*
X52190820Y31455498D01*
X52310518Y31419188D01*
X52435000Y31406928D01*
X52985000Y31406928D01*
X53109482Y31419188D01*
X53229180Y31455498D01*
X53339494Y31514463D01*
X53436185Y31593815D01*
X53515537Y31690506D01*
X53574502Y31800820D01*
X53610812Y31920518D01*
X53623072Y32045000D01*
X53623072Y32049195D01*
X53696942Y32049195D01*
X53708383Y31924636D01*
X53743906Y31804702D01*
X53802143Y31694002D01*
X53880858Y31596791D01*
X53977026Y31516805D01*
X54086950Y31457117D01*
X54206406Y31420020D01*
X54324250Y31410000D01*
X54483000Y31568750D01*
X54483000Y32418000D01*
X54737000Y32418000D01*
X54737000Y31568750D01*
X54895750Y31410000D01*
X55013594Y31420020D01*
X55061187Y31434800D01*
X57031928Y31434800D01*
X57035000Y31070550D01*
X57193750Y30911800D01*
X58293000Y30911800D01*
X58293000Y31911050D01*
X58547000Y31911050D01*
X58547000Y30911800D01*
X59646250Y30911800D01*
X59805000Y31070550D01*
X59808072Y31434800D01*
X59795812Y31559282D01*
X59759502Y31678980D01*
X59700537Y31789294D01*
X59621185Y31885985D01*
X59524494Y31965337D01*
X59414180Y32024302D01*
X59294482Y32060612D01*
X59170000Y32072872D01*
X58705750Y32069800D01*
X58547000Y31911050D01*
X58293000Y31911050D01*
X58134250Y32069800D01*
X57670000Y32072872D01*
X57545518Y32060612D01*
X57425820Y32024302D01*
X57315506Y31965337D01*
X57218815Y31885985D01*
X57139463Y31789294D01*
X57080498Y31678980D01*
X57044188Y31559282D01*
X57031928Y31434800D01*
X55061187Y31434800D01*
X55133050Y31457117D01*
X55242974Y31516805D01*
X55339142Y31596791D01*
X55417857Y31694002D01*
X55476094Y31804702D01*
X55511617Y31924636D01*
X55523058Y32049195D01*
X55520000Y32259250D01*
X55361250Y32418000D01*
X54737000Y32418000D01*
X54483000Y32418000D01*
X53858750Y32418000D01*
X53700000Y32259250D01*
X53696942Y32049195D01*
X53623072Y32049195D01*
X53623072Y33045000D01*
X53610812Y33169482D01*
X53595000Y33221607D01*
X53595000Y33582713D01*
X53604180Y33585498D01*
X53660000Y33615335D01*
X53715820Y33585498D01*
X53835518Y33549188D01*
X53936236Y33539268D01*
X53880858Y33493209D01*
X53802143Y33395998D01*
X53743906Y33285298D01*
X53708383Y33165364D01*
X53696942Y33040805D01*
X53700000Y32830750D01*
X53858750Y32672000D01*
X54483000Y32672000D01*
X54483000Y33521250D01*
X54394250Y33610000D01*
X54483000Y33698750D01*
X54483000Y34798000D01*
X54737000Y34798000D01*
X54737000Y33698750D01*
X54825750Y33610000D01*
X54737000Y33521250D01*
X54737000Y32672000D01*
X55361250Y32672000D01*
X55520000Y32830750D01*
X55522609Y33010000D01*
X57031928Y33010000D01*
X57044188Y32885518D01*
X57080498Y32765820D01*
X57139463Y32655506D01*
X57218815Y32558815D01*
X57315506Y32479463D01*
X57425820Y32420498D01*
X57545518Y32384188D01*
X57670000Y32371928D01*
X58134250Y32375000D01*
X58293000Y32533750D01*
X58293000Y33533000D01*
X58547000Y33533000D01*
X58547000Y32533750D01*
X58705750Y32375000D01*
X59170000Y32371928D01*
X59294482Y32384188D01*
X59414180Y32420498D01*
X59524494Y32479463D01*
X59621185Y32558815D01*
X59700537Y32655506D01*
X59759502Y32765820D01*
X59795812Y32885518D01*
X59808072Y33010000D01*
X59805000Y33374250D01*
X59646250Y33533000D01*
X58547000Y33533000D01*
X58293000Y33533000D01*
X57193750Y33533000D01*
X57035000Y33374250D01*
X57031928Y33010000D01*
X55522609Y33010000D01*
X55523058Y33040805D01*
X55511617Y33165364D01*
X55476094Y33285298D01*
X55417857Y33395998D01*
X55339142Y33493209D01*
X55283764Y33539268D01*
X55384482Y33549188D01*
X55504180Y33585498D01*
X55614494Y33644463D01*
X55711185Y33723815D01*
X55790537Y33820506D01*
X55849502Y33930820D01*
X55885812Y34050518D01*
X55898072Y34175000D01*
X55895000Y34639250D01*
X55736250Y34798000D01*
X54737000Y34798000D01*
X54483000Y34798000D01*
X54463000Y34798000D01*
X54463000Y35052000D01*
X54483000Y35052000D01*
X54483000Y36151250D01*
X54737000Y36151250D01*
X54737000Y35052000D01*
X55736250Y35052000D01*
X55895000Y35210750D01*
X55898072Y35675000D01*
X55885812Y35799482D01*
X55849502Y35919180D01*
X55790537Y36029494D01*
X55711185Y36126185D01*
X55614494Y36205537D01*
X55504180Y36264502D01*
X55384482Y36300812D01*
X55260000Y36313072D01*
X54895750Y36310000D01*
X54737000Y36151250D01*
X54483000Y36151250D01*
X54324250Y36310000D01*
X53960000Y36313072D01*
X53835518Y36300812D01*
X53715820Y36264502D01*
X53660000Y36234665D01*
X53604180Y36264502D01*
X53484482Y36300812D01*
X53360000Y36313072D01*
X52060000Y36313072D01*
X51935518Y36300812D01*
X51815820Y36264502D01*
X51705506Y36205537D01*
X51608815Y36126185D01*
X51529463Y36029494D01*
X51470498Y35919180D01*
X51437379Y35810000D01*
X50605000Y35810000D01*
X50605000Y39137315D01*
X50721692Y39254007D01*
X50942612Y39254007D01*
X51008137Y39015140D01*
X51255116Y38899240D01*
X51519960Y38833750D01*
X51792492Y38821188D01*
X52062238Y38862035D01*
X52318832Y38954723D01*
X52431863Y39015140D01*
X52497388Y39254007D01*
X51720000Y40031395D01*
X50942612Y39254007D01*
X50721692Y39254007D01*
X50795799Y39328114D01*
X50947371Y39554957D01*
X50991932Y39662537D01*
X51540395Y40211000D01*
X51899605Y40211000D01*
X52676993Y39433612D01*
X52915860Y39499137D01*
X53031760Y39746116D01*
X53097250Y40010960D01*
X53109812Y40283492D01*
X53068965Y40553238D01*
X52976277Y40809832D01*
X52915860Y40922863D01*
X52676993Y40988388D01*
X51899605Y40211000D01*
X51540395Y40211000D01*
X50991932Y40759463D01*
X50947371Y40867043D01*
X50795799Y41093886D01*
X50610685Y41279000D01*
X50973063Y41279000D01*
X50942612Y41167993D01*
G37*
%TD.AperFunction*%
D31*
X70005285Y36550177D02*
X70205177Y36350285D01*
X70438932Y36194095D01*
X70378426Y36161754D01*
X70306831Y35917774D01*
X71120000Y35104605D01*
X71134143Y35118747D01*
X71313748Y34939142D01*
X71299605Y34925000D01*
X72112774Y34111831D01*
X72356754Y34183426D01*
X72477664Y34438954D01*
X72546400Y34713161D01*
X72558259Y34953712D01*
X72597510Y34941805D01*
X72727523Y34929000D01*
X72727531Y34929000D01*
X72771000Y34924719D01*
X72814469Y34929000D01*
X73226308Y34929000D01*
X73260271Y34914932D01*
X73440911Y34879000D01*
X73625089Y34879000D01*
X73805729Y34914932D01*
X73824666Y34922776D01*
X73826000Y34829750D01*
X73984750Y34671000D01*
X75084000Y34671000D01*
X75084000Y34691000D01*
X75338000Y34691000D01*
X75338000Y34671000D01*
X75358000Y34671000D01*
X75358000Y34417000D01*
X75338000Y34417000D01*
X75338000Y33274000D01*
X75358000Y33274000D01*
X75358000Y33020000D01*
X75338000Y33020000D01*
X75338000Y31877000D01*
X75358000Y31877000D01*
X75358000Y31623000D01*
X75338000Y31623000D01*
X75338000Y31603000D01*
X75084000Y31603000D01*
X75084000Y31623000D01*
X75064000Y31623000D01*
X75064000Y31877000D01*
X75084000Y31877000D01*
X75084000Y33020000D01*
X73984750Y33020000D01*
X73965527Y33000777D01*
X73899482Y33020812D01*
X73775000Y33033072D01*
X72275000Y33033072D01*
X72150518Y33020812D01*
X72030820Y32984502D01*
X71920506Y32925537D01*
X71823815Y32846185D01*
X71755000Y32762333D01*
X71686185Y32846185D01*
X71589494Y32925537D01*
X71479180Y32984502D01*
X71359482Y33020812D01*
X71235000Y33033072D01*
X69735000Y33033072D01*
X69610518Y33020812D01*
X69490820Y32984502D01*
X69380506Y32925537D01*
X69283815Y32846185D01*
X69204463Y32749494D01*
X69145498Y32639180D01*
X69109188Y32519482D01*
X69096928Y32395000D01*
X69096928Y31095000D01*
X69109188Y30970518D01*
X69145498Y30850820D01*
X69175335Y30795000D01*
X69145498Y30739180D01*
X69142713Y30730000D01*
X68311579Y30730000D01*
X66042793Y32998786D01*
X66128028Y33055738D01*
X66258262Y33185972D01*
X66360586Y33339111D01*
X66374655Y33373077D01*
X67041579Y34040000D01*
X67445358Y34040000D01*
X67465285Y34010177D01*
X67665177Y33810285D01*
X67900225Y33653231D01*
X68161397Y33545050D01*
X68438655Y33489900D01*
X68721345Y33489900D01*
X68998603Y33545050D01*
X69259775Y33653231D01*
X69494823Y33810285D01*
X69616764Y33932226D01*
X70306831Y33932226D01*
X70378426Y33688246D01*
X70633954Y33567336D01*
X70908161Y33498600D01*
X71190508Y33484680D01*
X71470147Y33526111D01*
X71736328Y33621300D01*
X71861574Y33688246D01*
X71933169Y33932226D01*
X71821395Y34044000D01*
X73822928Y34044000D01*
X73835188Y33919518D01*
X73857641Y33845500D01*
X73835188Y33771482D01*
X73822928Y33647000D01*
X73826000Y33432750D01*
X73984750Y33274000D01*
X75084000Y33274000D01*
X75084000Y34417000D01*
X73984750Y34417000D01*
X73826000Y34258250D01*
X73822928Y34044000D01*
X71821395Y34044000D01*
X71120000Y34745395D01*
X70306831Y33932226D01*
X69616764Y33932226D01*
X69694715Y34010177D01*
X69850905Y34243932D01*
X69883246Y34183426D01*
X70127226Y34111831D01*
X70940395Y34925000D01*
X70127226Y35738169D01*
X69883246Y35666574D01*
X69852812Y35602256D01*
X69851769Y35604775D01*
X69694715Y35839823D01*
X69494823Y36039715D01*
X69262422Y36195000D01*
X69494823Y36350285D01*
X69694715Y36550177D01*
X69850000Y36782578D01*
X70005285Y36550177D01*
%TA.AperFunction,Conductor*%
D32*
G36*
X70005285Y36550177D02*
G01*
X70205177Y36350285D01*
X70438932Y36194095D01*
X70378426Y36161754D01*
X70306831Y35917774D01*
X71120000Y35104605D01*
X71134143Y35118747D01*
X71313748Y34939142D01*
X71299605Y34925000D01*
X72112774Y34111831D01*
X72356754Y34183426D01*
X72477664Y34438954D01*
X72546400Y34713161D01*
X72558259Y34953712D01*
X72597510Y34941805D01*
X72727523Y34929000D01*
X72727531Y34929000D01*
X72771000Y34924719D01*
X72814469Y34929000D01*
X73226308Y34929000D01*
X73260271Y34914932D01*
X73440911Y34879000D01*
X73625089Y34879000D01*
X73805729Y34914932D01*
X73824666Y34922776D01*
X73826000Y34829750D01*
X73984750Y34671000D01*
X75084000Y34671000D01*
X75084000Y34691000D01*
X75338000Y34691000D01*
X75338000Y34671000D01*
X75358000Y34671000D01*
X75358000Y34417000D01*
X75338000Y34417000D01*
X75338000Y33274000D01*
X75358000Y33274000D01*
X75358000Y33020000D01*
X75338000Y33020000D01*
X75338000Y31877000D01*
X75358000Y31877000D01*
X75358000Y31623000D01*
X75338000Y31623000D01*
X75338000Y31603000D01*
X75084000Y31603000D01*
X75084000Y31623000D01*
X75064000Y31623000D01*
X75064000Y31877000D01*
X75084000Y31877000D01*
X75084000Y33020000D01*
X73984750Y33020000D01*
X73965527Y33000777D01*
X73899482Y33020812D01*
X73775000Y33033072D01*
X72275000Y33033072D01*
X72150518Y33020812D01*
X72030820Y32984502D01*
X71920506Y32925537D01*
X71823815Y32846185D01*
X71755000Y32762333D01*
X71686185Y32846185D01*
X71589494Y32925537D01*
X71479180Y32984502D01*
X71359482Y33020812D01*
X71235000Y33033072D01*
X69735000Y33033072D01*
X69610518Y33020812D01*
X69490820Y32984502D01*
X69380506Y32925537D01*
X69283815Y32846185D01*
X69204463Y32749494D01*
X69145498Y32639180D01*
X69109188Y32519482D01*
X69096928Y32395000D01*
X69096928Y31095000D01*
X69109188Y30970518D01*
X69145498Y30850820D01*
X69175335Y30795000D01*
X69145498Y30739180D01*
X69142713Y30730000D01*
X68311579Y30730000D01*
X66042793Y32998786D01*
X66128028Y33055738D01*
X66258262Y33185972D01*
X66360586Y33339111D01*
X66374655Y33373077D01*
X67041579Y34040000D01*
X67445358Y34040000D01*
X67465285Y34010177D01*
X67665177Y33810285D01*
X67900225Y33653231D01*
X68161397Y33545050D01*
X68438655Y33489900D01*
X68721345Y33489900D01*
X68998603Y33545050D01*
X69259775Y33653231D01*
X69494823Y33810285D01*
X69616764Y33932226D01*
X70306831Y33932226D01*
X70378426Y33688246D01*
X70633954Y33567336D01*
X70908161Y33498600D01*
X71190508Y33484680D01*
X71470147Y33526111D01*
X71736328Y33621300D01*
X71861574Y33688246D01*
X71933169Y33932226D01*
X71821395Y34044000D01*
X73822928Y34044000D01*
X73835188Y33919518D01*
X73857641Y33845500D01*
X73835188Y33771482D01*
X73822928Y33647000D01*
X73826000Y33432750D01*
X73984750Y33274000D01*
X75084000Y33274000D01*
X75084000Y34417000D01*
X73984750Y34417000D01*
X73826000Y34258250D01*
X73822928Y34044000D01*
X71821395Y34044000D01*
X71120000Y34745395D01*
X70306831Y33932226D01*
X69616764Y33932226D01*
X69694715Y34010177D01*
X69850905Y34243932D01*
X69883246Y34183426D01*
X70127226Y34111831D01*
X70940395Y34925000D01*
X70127226Y35738169D01*
X69883246Y35666574D01*
X69852812Y35602256D01*
X69851769Y35604775D01*
X69694715Y35839823D01*
X69494823Y36039715D01*
X69262422Y36195000D01*
X69494823Y36350285D01*
X69694715Y36550177D01*
X69850000Y36782578D01*
X70005285Y36550177D01*
G37*
%TD.AperFunction*%
%TD*%
M02*
