%TF.GenerationSoftware,KiCad,Pcbnew,(5.1.12)-1*%
%TF.CreationDate,2022-01-04T15:18:07+00:00*%
%TF.ProjectId,SolarSensorATMEGA328_PCB,536f6c61-7253-4656-9e73-6f7241544d45,rev?*%
%TF.SameCoordinates,PX5734380PY7df6180*%
%TF.FileFunction,Copper,L2,Bot*%
%TF.FilePolarity,Positive*%
%FSLAX46Y46*%
G04 Gerber Fmt 4.6, Leading zero omitted, Abs format (unit mm)*
G04 Created by KiCad (PCBNEW (5.1.12)-1) date 2022-01-04 15:18:07*
%MOMM*%
%LPD*%
G01*
G04 APERTURE LIST*
%TA.AperFunction,ComponentPad*%
%ADD10R,2.100580X2.100580*%
%TD*%
%TA.AperFunction,ComponentPad*%
%ADD11C,2.199640*%
%TD*%
%TA.AperFunction,ComponentPad*%
%ADD12R,2.032000X2.032000*%
%TD*%
%TA.AperFunction,ComponentPad*%
%ADD13C,2.032000*%
%TD*%
%TA.AperFunction,ComponentPad*%
%ADD14R,1.500000X1.500000*%
%TD*%
%TA.AperFunction,ComponentPad*%
%ADD15C,1.500000*%
%TD*%
%TA.AperFunction,ComponentPad*%
%ADD16C,1.600200*%
%TD*%
%TA.AperFunction,ComponentPad*%
%ADD17C,2.499360*%
%TD*%
%TA.AperFunction,ComponentPad*%
%ADD18R,2.499360X2.499360*%
%TD*%
%TA.AperFunction,ViaPad*%
%ADD19C,0.600000*%
%TD*%
%TA.AperFunction,Conductor*%
%ADD20C,0.500000*%
%TD*%
%TA.AperFunction,Conductor*%
%ADD21C,0.300000*%
%TD*%
%TA.AperFunction,Conductor*%
%ADD22C,0.254000*%
%TD*%
%TA.AperFunction,Conductor*%
%ADD23C,0.100000*%
%TD*%
G04 APERTURE END LIST*
D10*
%TO.P,P9,1*%
%TO.N,GND*%
X31750000Y3302000D03*
D11*
%TO.P,P9,2*%
X29210000Y3556000D03*
%TO.P,P9,3*%
%TO.N,VCC*%
X26670000Y3302000D03*
%TO.P,P9,4*%
%TO.N,/Rx*%
X24130000Y3556000D03*
%TO.P,P9,5*%
%TO.N,/Tx*%
X21590000Y3302000D03*
%TO.P,P9,6*%
%TO.N,/ATMega328/DTR*%
X19050000Y3556000D03*
%TD*%
D12*
%TO.P,P2,1*%
%TO.N,/Tx*%
X17907000Y12113000D03*
D13*
%TO.P,P2,2*%
%TO.N,/Rx*%
X22987000Y12113000D03*
%TO.P,P2,3*%
%TO.N,VCC*%
X28067000Y12113000D03*
%TO.P,P2,4*%
%TO.N,GND*%
X33147000Y12113000D03*
D14*
%TO.P,P2,1*%
%TO.N,/Tx*%
X22527000Y14224000D03*
D15*
%TO.P,P2,2*%
%TO.N,/Rx*%
X24527000Y14224000D03*
%TO.P,P2,3*%
%TO.N,VCC*%
X26527000Y14224000D03*
%TO.P,P2,4*%
%TO.N,GND*%
X28527000Y14224000D03*
%TD*%
D16*
%TO.P,P4,5*%
%TO.N,/ATMega328/RESET*%
X36830000Y41656000D03*
%TO.P,P4,6*%
%TO.N,GND*%
X36830000Y44196000D03*
%TO.P,P4,3*%
%TO.N,/ATMega328/SCLK*%
X34290000Y41656000D03*
%TO.P,P4,4*%
%TO.N,/ATMega328/MOSI*%
X34290000Y44196000D03*
%TO.P,P4,1*%
%TO.N,/ATMega328/MISO*%
X31750000Y41656000D03*
%TO.P,P4,2*%
%TO.N,VCC*%
X31750000Y44196000D03*
%TD*%
D13*
%TO.P,P8,4*%
%TO.N,Net-(P8-Pad4)*%
X20828000Y44196000D03*
%TO.P,P8,3*%
%TO.N,Net-(P8-Pad3)*%
X23368000Y44196000D03*
%TO.P,P8,2*%
%TO.N,VCC*%
X25908000Y44196000D03*
D12*
%TO.P,P8,1*%
%TO.N,GND*%
X28448000Y44196000D03*
%TD*%
D15*
%TO.P,P10,4*%
%TO.N,GND*%
X3858000Y36353000D03*
%TO.P,P10,3*%
%TO.N,VCC*%
X3858000Y34353000D03*
%TO.P,P10,2*%
%TO.N,/I2C_SDA*%
X3858000Y32353000D03*
D14*
%TO.P,P10,1*%
%TO.N,/I2C_CLK*%
X3858000Y30353000D03*
%TD*%
%TO.P,P1,1*%
%TO.N,/I2C_CLK*%
X9192000Y30353000D03*
D15*
%TO.P,P1,2*%
%TO.N,/I2C_SDA*%
X9192000Y32353000D03*
%TO.P,P1,3*%
%TO.N,VCC*%
X9192000Y34353000D03*
%TO.P,P1,4*%
%TO.N,GND*%
X9192000Y36353000D03*
%TD*%
D17*
%TO.P,J1,3*%
%TO.N,GND*%
X8128000Y11811000D03*
D18*
%TO.P,J1,1*%
%TO.N,VCC*%
X8128000Y21971000D03*
D17*
%TO.P,J1,2*%
%TO.N,/IRR_A*%
X8128000Y16891000D03*
%TD*%
D12*
%TO.P,D1,1*%
%TO.N,GND*%
X25781000Y24511000D03*
D13*
%TO.P,D1,2*%
%TO.N,Net-(C1-Pad2)*%
X28321000Y24511000D03*
%TD*%
D19*
%TO.N,GND*%
X45593000Y32512000D03*
X36957000Y33909000D03*
X34417000Y18034000D03*
X30353000Y8001000D03*
%TO.N,Net-(C1-Pad1)*%
X19558000Y23368000D03*
X18542000Y24892000D03*
%TO.N,VCC*%
X17272000Y32385000D03*
X17272000Y29591000D03*
X24511000Y38608000D03*
%TO.N,Net-(C5-Pad2)*%
X40259000Y21844000D03*
X33528000Y21336000D03*
%TO.N,/ATMega328/RESET*%
X50419000Y22098000D03*
X49766220Y28084780D03*
X20193000Y6858000D03*
%TO.N,VCC*%
X30734000Y10160000D03*
%TO.N,/ATMega328/RESET*%
X40132000Y14605000D03*
X13208000Y16383000D03*
X12827000Y14224000D03*
%TO.N,/Rx*%
X47610000Y28956000D03*
%TO.N,/Tx*%
X46863000Y29718000D03*
%TO.N,/I2C_SDA*%
X41148000Y19812000D03*
X43434000Y26416000D03*
X21463000Y31623000D03*
%TO.N,/I2C_CLK*%
X43434000Y25146000D03*
X41148000Y18161000D03*
X15494000Y30099000D03*
X16891000Y35306000D03*
X34036000Y16764000D03*
%TO.N,/ATMega328/SCLK*%
X36195000Y23622000D03*
%TO.N,/ATMega328/MOSI*%
X34671000Y25654000D03*
%TO.N,/ATMega328/MISO*%
X35306000Y24765000D03*
%TO.N,/ATMega328/D7_LED0*%
X49535000Y19426000D03*
X35179000Y28829000D03*
%TO.N,/ATMega328/D8_SWA*%
X35590598Y28143004D03*
X45085000Y13970000D03*
%TO.N,/ATMega328/D6*%
X20447000Y22098000D03*
X34290000Y29718000D03*
X27051000Y31242000D03*
X30033200Y31242000D03*
%TO.N,Net-(P8-Pad4)*%
X11303000Y27432000D03*
%TO.N,Net-(P8-Pad3)*%
X12192000Y26162000D03*
%TD*%
D20*
%TO.N,GND*%
X45593000Y32512000D02*
X45593000Y33274000D01*
X45593000Y33274000D02*
X44958000Y33909000D01*
X44958000Y33909000D02*
X36957000Y33909000D01*
X8509000Y11811000D02*
X11303000Y9017000D01*
D21*
X31036000Y14224000D02*
X33147000Y12113000D01*
X28527000Y14224000D02*
X31036000Y14224000D01*
D20*
X29337000Y9017000D02*
X28194000Y9017000D01*
X30353000Y8001000D02*
X29337000Y9017000D01*
X11303000Y9017000D02*
X28194000Y9017000D01*
X25781000Y24511000D02*
X25781000Y22860000D01*
X30607000Y18034000D02*
X32004000Y18034000D01*
X25781000Y22860000D02*
X30607000Y18034000D01*
X34417000Y18034000D02*
X32004000Y18034000D01*
D21*
%TO.N,Net-(C1-Pad1)*%
X19558000Y23368000D02*
X19558000Y23876000D01*
X19558000Y23876000D02*
X18542000Y24892000D01*
D20*
%TO.N,VCC*%
X17272000Y32385000D02*
X17272000Y29591000D01*
X25908000Y44196000D02*
X25908000Y42799000D01*
X25908000Y42799000D02*
X26416000Y42291000D01*
X29845000Y42291000D02*
X31750000Y44196000D01*
X26416000Y42291000D02*
X29845000Y42291000D01*
X26416000Y42291000D02*
X26416000Y39370000D01*
X26416000Y39370000D02*
X25654000Y38608000D01*
X25654000Y38608000D02*
X24511000Y38608000D01*
X11176000Y12700000D02*
X13716000Y10160000D01*
X7239000Y27940000D02*
X11176000Y24003000D01*
X7239000Y32400000D02*
X7239000Y27940000D01*
X9192000Y34353000D02*
X7239000Y32400000D01*
D21*
%TO.N,Net-(C5-Pad2)*%
X40259000Y21844000D02*
X39751000Y21336000D01*
X39751000Y21336000D02*
X33528000Y21336000D01*
%TO.N,/ATMega328/RESET*%
X43688000Y37846000D02*
X46355000Y37846000D01*
X46355000Y37846000D02*
X50419000Y33782000D01*
X50419000Y22860000D02*
X50419000Y24003000D01*
X50419000Y22098000D02*
X50419000Y22860000D01*
X50401220Y28084780D02*
X50419000Y28067000D01*
X49766220Y28084780D02*
X50401220Y28084780D01*
X50419000Y28067000D02*
X50419000Y22860000D01*
X50419000Y33782000D02*
X50419000Y28067000D01*
X43942000Y37846000D02*
X38735000Y37846000D01*
X43688000Y37846000D02*
X43942000Y37846000D01*
X43942000Y37846000D02*
X45212000Y37846000D01*
X36830000Y39751000D02*
X36830000Y40513000D01*
X38735000Y37846000D02*
X36830000Y39751000D01*
X36830000Y40513000D02*
X36830000Y40132000D01*
X36830000Y41656000D02*
X36830000Y40513000D01*
%TO.N,VCC*%
X26527000Y14224000D02*
X26527000Y12716000D01*
X27130000Y12113000D02*
X28067000Y12113000D01*
X26527000Y12716000D02*
X27130000Y12113000D01*
D20*
X27432000Y10160000D02*
X30734000Y10160000D01*
X13716000Y10160000D02*
X27432000Y10160000D01*
X27432000Y10160000D02*
X30226000Y10160000D01*
X11049000Y21971000D02*
X11176000Y21844000D01*
X8509000Y21971000D02*
X11049000Y21971000D01*
X11176000Y21844000D02*
X11176000Y12700000D01*
X11176000Y24003000D02*
X11176000Y21844000D01*
%TO.N,/ATMega328/RESET*%
X33020000Y8636000D02*
X38608000Y14224000D01*
X33020000Y7487120D02*
X33020000Y8636000D01*
X32136880Y6604000D02*
X33020000Y7487120D01*
X20447000Y6604000D02*
X32136880Y6604000D01*
X20193000Y6858000D02*
X20447000Y6604000D01*
X38608000Y14224000D02*
X38989000Y14605000D01*
X38989000Y14605000D02*
X40132000Y14605000D01*
X13208000Y16383000D02*
X12827000Y16002000D01*
X12827000Y16002000D02*
X12827000Y14224000D01*
D21*
%TO.N,/Rx*%
X24527000Y14875000D02*
X24527000Y14224000D01*
X41656000Y15494000D02*
X25146000Y15494000D01*
X47610000Y21448000D02*
X41656000Y15494000D01*
X25146000Y15494000D02*
X24527000Y14875000D01*
X47610000Y28956000D02*
X47610000Y21448000D01*
X22987000Y12113000D02*
X23670000Y12113000D01*
X24527000Y12970000D02*
X24527000Y14224000D01*
X23670000Y12113000D02*
X24527000Y12970000D01*
%TO.N,/Tx*%
X22527000Y15288000D02*
X22527000Y14224000D01*
X23352999Y16113999D02*
X22527000Y15288000D01*
X41005999Y16113999D02*
X23352999Y16113999D01*
X46863000Y21971000D02*
X41005999Y16113999D01*
X46863000Y29718000D02*
X46863000Y21971000D01*
%TO.N,/I2C_SDA*%
X41148000Y24130000D02*
X43434000Y26416000D01*
X41148000Y19812000D02*
X41148000Y20828000D01*
X41148000Y20828000D02*
X41148000Y24130000D01*
X21463000Y31623000D02*
X25781000Y27305000D01*
X25781000Y27305000D02*
X29972000Y27305000D01*
X29972000Y27305000D02*
X31750000Y25527000D01*
X31750000Y25527000D02*
X31750000Y21082000D01*
X31750000Y21082000D02*
X32766000Y20066000D01*
X34798000Y20066000D02*
X35560000Y20828000D01*
X32766000Y20066000D02*
X34798000Y20066000D01*
X41148000Y20828000D02*
X35560000Y20828000D01*
%TO.N,/I2C_CLK*%
X43434000Y25146000D02*
X41910000Y23622000D01*
X41910000Y23622000D02*
X41910000Y19050000D01*
X41148000Y18288000D02*
X41148000Y18161000D01*
X41910000Y19050000D02*
X41148000Y18288000D01*
X15494000Y30099000D02*
X15113000Y30480000D01*
X15113000Y30480000D02*
X15113000Y34417000D01*
X15113000Y34417000D02*
X16002000Y35306000D01*
X16002000Y35306000D02*
X16891000Y35306000D01*
X15494000Y22860000D02*
X15494000Y30099000D01*
X21590000Y16764000D02*
X18224500Y20129500D01*
X34036000Y16764000D02*
X21590000Y16764000D01*
X18224500Y20129500D02*
X15494000Y22860000D01*
%TO.N,/ATMega328/SCLK*%
X34020999Y26304001D02*
X35417999Y26304001D01*
X28956000Y31369000D02*
X34020999Y26304001D01*
X35417999Y26304001D02*
X36195000Y25527000D01*
X36195000Y25527000D02*
X36195000Y23622000D01*
X34290000Y40386000D02*
X34290000Y38608000D01*
X34290000Y41656000D02*
X34290000Y40386000D01*
X34290000Y40386000D02*
X34290000Y39751000D01*
X28956000Y33274000D02*
X28956000Y32512000D01*
X34290000Y38608000D02*
X28956000Y33274000D01*
X28956000Y32512000D02*
X28956000Y31369000D01*
%TO.N,/ATMega328/MOSI*%
X34290000Y44196000D02*
X33020000Y42926000D01*
X33020000Y42926000D02*
X33020000Y41223850D01*
X28440010Y30941110D02*
X33727120Y25654000D01*
X33727120Y25654000D02*
X34671000Y25654000D01*
X33020000Y39878000D02*
X33020000Y38496980D01*
X28440010Y33916990D02*
X28440010Y30941110D01*
X33020000Y41223850D02*
X33020000Y39878000D01*
X33020000Y38496980D02*
X28440010Y33916990D01*
X33020000Y39878000D02*
X33020000Y39624000D01*
%TO.N,/ATMega328/MISO*%
X27940000Y30734000D02*
X33909000Y24765000D01*
X33909000Y24765000D02*
X35306000Y24765000D01*
X31750000Y41656000D02*
X31750000Y38354000D01*
X27940000Y34544000D02*
X27940000Y33909000D01*
X31750000Y38354000D02*
X27940000Y34544000D01*
X27940000Y33909000D02*
X27940000Y30734000D01*
%TO.N,/ATMega328/D7_LED0*%
X49535000Y27353998D02*
X49535000Y23754000D01*
X48895000Y27993998D02*
X49535000Y27353998D01*
X49535000Y23754000D02*
X49535000Y19426000D01*
X48133000Y31369000D02*
X48895000Y30607000D01*
X48895000Y30607000D02*
X48895000Y27993998D01*
X44704000Y31369000D02*
X48133000Y31369000D01*
X42164000Y28829000D02*
X44704000Y31369000D01*
X35179000Y28829000D02*
X42164000Y28829000D01*
%TO.N,/ATMega328/D8_SWA*%
X49022000Y26924000D02*
X49022000Y21323010D01*
X48260000Y27686000D02*
X49022000Y26924000D01*
X48260000Y30480000D02*
X48260000Y27686000D01*
X47879000Y30861000D02*
X48260000Y30480000D01*
X45212000Y30861000D02*
X47879000Y30861000D01*
X42545000Y28194000D02*
X45212000Y30861000D01*
X35560000Y28173602D02*
X35560000Y28194000D01*
X35560000Y28194000D02*
X42545000Y28194000D01*
X35590598Y28143004D02*
X35560000Y28173602D01*
X48202995Y20504005D02*
X48190005Y20504005D01*
X49022000Y21323010D02*
X48202995Y20504005D01*
X48202995Y20504005D02*
X47650400Y19951410D01*
X48190005Y20504005D02*
X45085000Y17399000D01*
X45085000Y17399000D02*
X45085000Y13970000D01*
%TO.N,/ATMega328/D6*%
X20447000Y22098000D02*
X20447000Y22522264D01*
X32766000Y31242000D02*
X34290000Y29718000D01*
X30033200Y31242000D02*
X32766000Y31242000D01*
X26098500Y32194500D02*
X27051000Y31242000D01*
X24765000Y33528000D02*
X26098500Y32194500D01*
X22352000Y33528000D02*
X24765000Y33528000D01*
X20447000Y31623000D02*
X22352000Y33528000D01*
X20447000Y22098000D02*
X20447000Y31623000D01*
%TO.N,Net-(P8-Pad4)*%
X20828000Y44196000D02*
X20828000Y38862000D01*
X20828000Y38862000D02*
X18923000Y36957000D01*
X11303000Y32021240D02*
X11303000Y31877000D01*
X16238760Y36957000D02*
X11303000Y32021240D01*
X18923000Y36957000D02*
X16238760Y36957000D01*
X11303000Y27432000D02*
X11303000Y31877000D01*
%TO.N,Net-(P8-Pad3)*%
X23368000Y44196000D02*
X23368000Y43434000D01*
X11803010Y28455990D02*
X12192000Y28067000D01*
X12192000Y28067000D02*
X12192000Y26162000D01*
X23368000Y44196000D02*
X23368000Y40513000D01*
X23368000Y40513000D02*
X19304000Y36449000D01*
X11803010Y31814130D02*
X11803010Y31742010D01*
X16437880Y36449000D02*
X11803010Y31814130D01*
X19304000Y36449000D02*
X16437880Y36449000D01*
X11803010Y31742010D02*
X11803010Y28455990D01*
%TD*%
D22*
%TO.N,GND*%
X19545585Y43143549D02*
X19775549Y42913585D01*
X20043000Y42734879D01*
X20043001Y39187158D01*
X18597843Y37742000D01*
X16277316Y37742000D01*
X16238760Y37745797D01*
X16200204Y37742000D01*
X16200199Y37742000D01*
X16159786Y37738020D01*
X16084873Y37730642D01*
X15936900Y37685754D01*
X15800527Y37612862D01*
X15680996Y37514764D01*
X15656415Y37484812D01*
X10775190Y32603587D01*
X10745236Y32579004D01*
X10647138Y32459472D01*
X10577000Y32328251D01*
X10577000Y32489411D01*
X10523775Y32756989D01*
X10419371Y33009043D01*
X10267799Y33235886D01*
X10150685Y33353000D01*
X10267799Y33470114D01*
X10419371Y33696957D01*
X10523775Y33949011D01*
X10577000Y34216589D01*
X10577000Y34489411D01*
X10523775Y34756989D01*
X10419371Y35009043D01*
X10267799Y35235886D01*
X10074886Y35428799D01*
X9848043Y35580371D01*
X9740463Y35624932D01*
X9192000Y36173395D01*
X8643537Y35624932D01*
X8535957Y35580371D01*
X8309114Y35428799D01*
X8116201Y35235886D01*
X7964629Y35009043D01*
X7860225Y34756989D01*
X7807000Y34489411D01*
X7807000Y34219579D01*
X6643956Y33056534D01*
X6610183Y33028817D01*
X6499589Y32894058D01*
X6417411Y32740312D01*
X6366805Y32573489D01*
X6354000Y32443476D01*
X6354000Y32443469D01*
X6349719Y32400000D01*
X6354000Y32356531D01*
X6354001Y27983479D01*
X6349719Y27940000D01*
X6366805Y27766510D01*
X6417412Y27599687D01*
X6499590Y27445941D01*
X6582468Y27344954D01*
X6582471Y27344951D01*
X6610184Y27311183D01*
X6643951Y27283470D01*
X10291000Y23636421D01*
X10291001Y22856000D01*
X10015752Y22856000D01*
X10015752Y23220680D01*
X10003492Y23345162D01*
X9967182Y23464860D01*
X9908217Y23575174D01*
X9828865Y23671865D01*
X9732174Y23751217D01*
X9621860Y23810182D01*
X9502162Y23846492D01*
X9377680Y23858752D01*
X6878320Y23858752D01*
X6753838Y23846492D01*
X6634140Y23810182D01*
X6523826Y23751217D01*
X6427135Y23671865D01*
X6347783Y23575174D01*
X6288818Y23464860D01*
X6252508Y23345162D01*
X6240248Y23220680D01*
X6240248Y20721320D01*
X6252508Y20596838D01*
X6288818Y20477140D01*
X6347783Y20366826D01*
X6427135Y20270135D01*
X6523826Y20190783D01*
X6634140Y20131818D01*
X6753838Y20095508D01*
X6878320Y20083248D01*
X9377680Y20083248D01*
X9502162Y20095508D01*
X9621860Y20131818D01*
X9732174Y20190783D01*
X9828865Y20270135D01*
X9908217Y20366826D01*
X9967182Y20477140D01*
X10003492Y20596838D01*
X10015752Y20721320D01*
X10015752Y21086000D01*
X10291000Y21086000D01*
X10291001Y12743479D01*
X10286719Y12700000D01*
X10303805Y12526510D01*
X10354412Y12359687D01*
X10436590Y12205941D01*
X10519468Y12104954D01*
X10519471Y12104951D01*
X10547184Y12071183D01*
X10580951Y12043471D01*
X13059470Y9564951D01*
X13087183Y9531183D01*
X13120951Y9503470D01*
X13120953Y9503468D01*
X13176857Y9457589D01*
X13221941Y9420589D01*
X13375687Y9338411D01*
X13542510Y9287805D01*
X13672523Y9275000D01*
X13672533Y9275000D01*
X13715999Y9270719D01*
X13759465Y9275000D01*
X30427308Y9275000D01*
X30461271Y9260932D01*
X30641911Y9225000D01*
X30826089Y9225000D01*
X31006729Y9260932D01*
X31176889Y9331414D01*
X31330028Y9433738D01*
X31460262Y9563972D01*
X31562586Y9717111D01*
X31633068Y9887271D01*
X31669000Y10067911D01*
X31669000Y10252089D01*
X31633068Y10432729D01*
X31562586Y10602889D01*
X31460262Y10756028D01*
X31330028Y10886262D01*
X31176889Y10988586D01*
X31006729Y11059068D01*
X30826089Y11095000D01*
X30641911Y11095000D01*
X30461271Y11059068D01*
X30427308Y11045000D01*
X29333866Y11045000D01*
X29349415Y11060549D01*
X29530097Y11330958D01*
X29654553Y11631421D01*
X29718000Y11950391D01*
X29718000Y12051038D01*
X31489169Y12051038D01*
X31533112Y11728802D01*
X31639076Y11421330D01*
X31734140Y11243478D01*
X32000177Y11145782D01*
X32967395Y12113000D01*
X32000177Y13080218D01*
X31734140Y12982522D01*
X31591652Y12690179D01*
X31508936Y12375656D01*
X31489169Y12051038D01*
X29718000Y12051038D01*
X29718000Y12275609D01*
X29654553Y12594579D01*
X29530097Y12895042D01*
X29349415Y13165451D01*
X29292219Y13222647D01*
X29302417Y13259823D01*
X32179782Y13259823D01*
X33147000Y12292605D01*
X34114218Y13259823D01*
X34016522Y13525860D01*
X33724179Y13668348D01*
X33409656Y13751064D01*
X33085038Y13770831D01*
X32762802Y13726888D01*
X32455330Y13620924D01*
X32277478Y13525860D01*
X32179782Y13259823D01*
X29302417Y13259823D01*
X29304388Y13267007D01*
X28527000Y14044395D01*
X28512858Y14030252D01*
X28333253Y14209857D01*
X28347395Y14224000D01*
X28333253Y14238142D01*
X28512858Y14417747D01*
X28527000Y14403605D01*
X28541143Y14417747D01*
X28720748Y14238142D01*
X28706605Y14224000D01*
X29483993Y13446612D01*
X29722860Y13512137D01*
X29838760Y13759116D01*
X29904250Y14023960D01*
X29916812Y14296492D01*
X29875965Y14566238D01*
X29824396Y14709000D01*
X37841421Y14709000D01*
X34714518Y11582096D01*
X34785064Y11850344D01*
X34804831Y12174962D01*
X34760888Y12497198D01*
X34654924Y12804670D01*
X34559860Y12982522D01*
X34293823Y13080218D01*
X33326605Y12113000D01*
X33340748Y12098857D01*
X33161143Y11919252D01*
X33147000Y11933395D01*
X32179782Y10966177D01*
X32277478Y10700140D01*
X32569821Y10557652D01*
X32884344Y10474936D01*
X33208962Y10455169D01*
X33531198Y10499112D01*
X33684296Y10551874D01*
X32424952Y9292530D01*
X32391184Y9264817D01*
X32363471Y9231049D01*
X32363468Y9231046D01*
X32280590Y9130059D01*
X32198412Y8976313D01*
X32147805Y8809490D01*
X32130719Y8636000D01*
X32135001Y8592522D01*
X32135000Y7853699D01*
X31770302Y7489000D01*
X20884290Y7489000D01*
X20789028Y7584262D01*
X20635889Y7686586D01*
X20465729Y7757068D01*
X20285089Y7793000D01*
X20100911Y7793000D01*
X19920271Y7757068D01*
X19750111Y7686586D01*
X19596972Y7584262D01*
X19466738Y7454028D01*
X19364414Y7300889D01*
X19293932Y7130729D01*
X19258000Y6950089D01*
X19258000Y6765911D01*
X19293932Y6585271D01*
X19364414Y6415111D01*
X19466738Y6261972D01*
X19596972Y6131738D01*
X19750111Y6029414D01*
X19784077Y6015345D01*
X19790466Y6008956D01*
X19818183Y5975183D01*
X19952941Y5864589D01*
X20106687Y5782411D01*
X20273510Y5731805D01*
X20403523Y5719000D01*
X20403533Y5719000D01*
X20446999Y5714719D01*
X20490465Y5719000D01*
X32093411Y5719000D01*
X32136880Y5714719D01*
X32180349Y5719000D01*
X32180357Y5719000D01*
X32310370Y5731805D01*
X32477193Y5782411D01*
X32630939Y5864589D01*
X32765697Y5975183D01*
X32793414Y6008956D01*
X33615050Y6830591D01*
X33648817Y6858303D01*
X33724145Y6950089D01*
X33759410Y6993060D01*
X33759411Y6993061D01*
X33841589Y7146807D01*
X33892195Y7313630D01*
X33905000Y7443643D01*
X33905000Y7443653D01*
X33909281Y7487119D01*
X33905000Y7530585D01*
X33905000Y8269422D01*
X34514801Y8879223D01*
X34514800Y1916300D01*
X33341028Y1916300D01*
X33389792Y2007530D01*
X33426102Y2127228D01*
X33438362Y2251710D01*
X33435290Y3016250D01*
X33276540Y3175000D01*
X31877000Y3175000D01*
X31877000Y3155000D01*
X31623000Y3155000D01*
X31623000Y3175000D01*
X31603000Y3175000D01*
X31603000Y3429000D01*
X31623000Y3429000D01*
X31623000Y4828540D01*
X31877000Y4828540D01*
X31877000Y3429000D01*
X33276540Y3429000D01*
X33435290Y3587750D01*
X33438362Y4352290D01*
X33426102Y4476772D01*
X33389792Y4596470D01*
X33330827Y4706784D01*
X33251475Y4803475D01*
X33154784Y4882827D01*
X33044470Y4941792D01*
X32924772Y4978102D01*
X32800290Y4990362D01*
X32035750Y4987290D01*
X31877000Y4828540D01*
X31623000Y4828540D01*
X31464250Y4987290D01*
X30699710Y4990362D01*
X30575228Y4978102D01*
X30455530Y4941792D01*
X30345216Y4882827D01*
X30248525Y4803475D01*
X30229855Y4780726D01*
X30129167Y5037191D01*
X29822540Y5188052D01*
X29492372Y5276194D01*
X29151353Y5298228D01*
X28812588Y5253310D01*
X28489095Y5143166D01*
X28290833Y5037191D01*
X28183022Y4762583D01*
X29210000Y3735605D01*
X29224143Y3749747D01*
X29403748Y3570142D01*
X29389605Y3556000D01*
X29403748Y3541857D01*
X29224143Y3362252D01*
X29210000Y3376395D01*
X29195858Y3362252D01*
X29016253Y3541857D01*
X29030395Y3556000D01*
X28003417Y4582978D01*
X27887814Y4537592D01*
X27775883Y4649523D01*
X27491745Y4839377D01*
X27176028Y4970152D01*
X26840865Y5036820D01*
X26499135Y5036820D01*
X26163972Y4970152D01*
X25848255Y4839377D01*
X25564117Y4649523D01*
X25517158Y4602564D01*
X25477523Y4661883D01*
X25235883Y4903523D01*
X24951745Y5093377D01*
X24636028Y5224152D01*
X24300865Y5290820D01*
X23959135Y5290820D01*
X23623972Y5224152D01*
X23308255Y5093377D01*
X23024117Y4903523D01*
X22782477Y4661883D01*
X22742842Y4602564D01*
X22695883Y4649523D01*
X22411745Y4839377D01*
X22096028Y4970152D01*
X21760865Y5036820D01*
X21419135Y5036820D01*
X21083972Y4970152D01*
X20768255Y4839377D01*
X20484117Y4649523D01*
X20437158Y4602564D01*
X20397523Y4661883D01*
X20155883Y4903523D01*
X19871745Y5093377D01*
X19556028Y5224152D01*
X19220865Y5290820D01*
X18879135Y5290820D01*
X18543972Y5224152D01*
X18228255Y5093377D01*
X17944117Y4903523D01*
X17702477Y4661883D01*
X17512623Y4377745D01*
X17381848Y4062028D01*
X17315180Y3726865D01*
X17315180Y3385135D01*
X17381848Y3049972D01*
X17512623Y2734255D01*
X17702477Y2450117D01*
X17944117Y2208477D01*
X18228255Y2018623D01*
X18475283Y1916300D01*
X9053700Y1916300D01*
X9053700Y5417279D01*
X10057000Y5417279D01*
X10057000Y4996721D01*
X10139047Y4584244D01*
X10299988Y4195698D01*
X10533637Y3846017D01*
X10831017Y3548637D01*
X11180698Y3314988D01*
X11569244Y3154047D01*
X11981721Y3072000D01*
X12402279Y3072000D01*
X12814756Y3154047D01*
X13203302Y3314988D01*
X13552983Y3548637D01*
X13850363Y3846017D01*
X14084012Y4195698D01*
X14244953Y4584244D01*
X14327000Y4996721D01*
X14327000Y5417279D01*
X14244953Y5829756D01*
X14084012Y6218302D01*
X13850363Y6567983D01*
X13552983Y6865363D01*
X13203302Y7099012D01*
X12814756Y7259953D01*
X12402279Y7342000D01*
X11981721Y7342000D01*
X11569244Y7259953D01*
X11180698Y7099012D01*
X10831017Y6865363D01*
X10533637Y6567983D01*
X10299988Y6218302D01*
X10139047Y5829756D01*
X10057000Y5417279D01*
X9053700Y5417279D01*
X9053700Y8899153D01*
X9057014Y8932800D01*
X9043788Y9067083D01*
X9004619Y9196206D01*
X8941012Y9315207D01*
X8855411Y9419511D01*
X8751107Y9505112D01*
X8632106Y9568719D01*
X8502983Y9607888D01*
X8402347Y9617800D01*
X8368700Y9621114D01*
X8335053Y9617800D01*
X2077400Y9617800D01*
X2077400Y10497623D01*
X6994229Y10497623D01*
X7120104Y10207685D01*
X7452262Y10041861D01*
X7810387Y9944025D01*
X8180719Y9917935D01*
X8549025Y9964595D01*
X8901151Y10082211D01*
X9135896Y10207685D01*
X9261771Y10497623D01*
X8128000Y11631395D01*
X6994229Y10497623D01*
X2077400Y10497623D01*
X2077400Y11758281D01*
X6234935Y11758281D01*
X6281595Y11389975D01*
X6399211Y11037849D01*
X6524685Y10803104D01*
X6814623Y10677229D01*
X7948395Y11811000D01*
X8307605Y11811000D01*
X9441377Y10677229D01*
X9731315Y10803104D01*
X9897139Y11135262D01*
X9994975Y11493387D01*
X10021065Y11863719D01*
X9974405Y12232025D01*
X9856789Y12584151D01*
X9731315Y12818896D01*
X9441377Y12944771D01*
X8307605Y11811000D01*
X7948395Y11811000D01*
X6814623Y12944771D01*
X6524685Y12818896D01*
X6358861Y12486738D01*
X6261025Y12128613D01*
X6234935Y11758281D01*
X2077400Y11758281D01*
X2077400Y13124377D01*
X6994229Y13124377D01*
X8128000Y11990605D01*
X9261771Y13124377D01*
X9135896Y13414315D01*
X8803738Y13580139D01*
X8445613Y13677975D01*
X8075281Y13704065D01*
X7706975Y13657405D01*
X7354849Y13539789D01*
X7120104Y13414315D01*
X6994229Y13124377D01*
X2077400Y13124377D01*
X2077400Y17076625D01*
X6243320Y17076625D01*
X6243320Y16705375D01*
X6315747Y16341259D01*
X6457818Y15998269D01*
X6664074Y15689587D01*
X6926587Y15427074D01*
X7235269Y15220818D01*
X7578259Y15078747D01*
X7942375Y15006320D01*
X8313625Y15006320D01*
X8677741Y15078747D01*
X9020731Y15220818D01*
X9329413Y15427074D01*
X9591926Y15689587D01*
X9798182Y15998269D01*
X9940253Y16341259D01*
X10012680Y16705375D01*
X10012680Y17076625D01*
X9940253Y17440741D01*
X9798182Y17783731D01*
X9591926Y18092413D01*
X9329413Y18354926D01*
X9020731Y18561182D01*
X8677741Y18703253D01*
X8313625Y18775680D01*
X7942375Y18775680D01*
X7578259Y18703253D01*
X7235269Y18561182D01*
X6926587Y18354926D01*
X6664074Y18092413D01*
X6457818Y17783731D01*
X6315747Y17440741D01*
X6243320Y17076625D01*
X2077400Y17076625D01*
X2077400Y31103000D01*
X2469928Y31103000D01*
X2469928Y29603000D01*
X2482188Y29478518D01*
X2518498Y29358820D01*
X2577463Y29248506D01*
X2656815Y29151815D01*
X2753506Y29072463D01*
X2863820Y29013498D01*
X2983518Y28977188D01*
X3108000Y28964928D01*
X4608000Y28964928D01*
X4732482Y28977188D01*
X4852180Y29013498D01*
X4962494Y29072463D01*
X5059185Y29151815D01*
X5138537Y29248506D01*
X5197502Y29358820D01*
X5233812Y29478518D01*
X5246072Y29603000D01*
X5246072Y31103000D01*
X5233812Y31227482D01*
X5197502Y31347180D01*
X5138537Y31457494D01*
X5059185Y31554185D01*
X5014485Y31590869D01*
X5085371Y31696957D01*
X5189775Y31949011D01*
X5243000Y32216589D01*
X5243000Y32489411D01*
X5189775Y32756989D01*
X5085371Y33009043D01*
X4933799Y33235886D01*
X4816685Y33353000D01*
X4933799Y33470114D01*
X5085371Y33696957D01*
X5189775Y33949011D01*
X5243000Y34216589D01*
X5243000Y34489411D01*
X5189775Y34756989D01*
X5085371Y35009043D01*
X4933799Y35235886D01*
X4740886Y35428799D01*
X4514043Y35580371D01*
X4406463Y35624932D01*
X3858000Y36173395D01*
X3309537Y35624932D01*
X3201957Y35580371D01*
X2975114Y35428799D01*
X2782201Y35235886D01*
X2630629Y35009043D01*
X2526225Y34756989D01*
X2473000Y34489411D01*
X2473000Y34216589D01*
X2526225Y33949011D01*
X2630629Y33696957D01*
X2782201Y33470114D01*
X2899315Y33353000D01*
X2782201Y33235886D01*
X2630629Y33009043D01*
X2526225Y32756989D01*
X2473000Y32489411D01*
X2473000Y32216589D01*
X2526225Y31949011D01*
X2630629Y31696957D01*
X2701515Y31590869D01*
X2656815Y31554185D01*
X2577463Y31457494D01*
X2518498Y31347180D01*
X2482188Y31227482D01*
X2469928Y31103000D01*
X2077400Y31103000D01*
X2077400Y36280508D01*
X2468188Y36280508D01*
X2509035Y36010762D01*
X2601723Y35754168D01*
X2662140Y35641137D01*
X2901007Y35575612D01*
X3678395Y36353000D01*
X4037605Y36353000D01*
X4814993Y35575612D01*
X5053860Y35641137D01*
X5169760Y35888116D01*
X5235250Y36152960D01*
X5241129Y36280508D01*
X7802188Y36280508D01*
X7843035Y36010762D01*
X7935723Y35754168D01*
X7996140Y35641137D01*
X8235007Y35575612D01*
X9012395Y36353000D01*
X9371605Y36353000D01*
X10148993Y35575612D01*
X10387860Y35641137D01*
X10503760Y35888116D01*
X10569250Y36152960D01*
X10581812Y36425492D01*
X10540965Y36695238D01*
X10448277Y36951832D01*
X10387860Y37064863D01*
X10148993Y37130388D01*
X9371605Y36353000D01*
X9012395Y36353000D01*
X8235007Y37130388D01*
X7996140Y37064863D01*
X7880240Y36817884D01*
X7814750Y36553040D01*
X7802188Y36280508D01*
X5241129Y36280508D01*
X5247812Y36425492D01*
X5206965Y36695238D01*
X5114277Y36951832D01*
X5053860Y37064863D01*
X4814993Y37130388D01*
X4037605Y36353000D01*
X3678395Y36353000D01*
X2901007Y37130388D01*
X2662140Y37064863D01*
X2546240Y36817884D01*
X2480750Y36553040D01*
X2468188Y36280508D01*
X2077400Y36280508D01*
X2077400Y37309993D01*
X3080612Y37309993D01*
X3858000Y36532605D01*
X4635388Y37309993D01*
X8414612Y37309993D01*
X9192000Y36532605D01*
X9969388Y37309993D01*
X9903863Y37548860D01*
X9656884Y37664760D01*
X9392040Y37730250D01*
X9119508Y37742812D01*
X8849762Y37701965D01*
X8593168Y37609277D01*
X8480137Y37548860D01*
X8414612Y37309993D01*
X4635388Y37309993D01*
X4569863Y37548860D01*
X4322884Y37664760D01*
X4058040Y37730250D01*
X3785508Y37742812D01*
X3515762Y37701965D01*
X3259168Y37609277D01*
X3146137Y37548860D01*
X3080612Y37309993D01*
X2077400Y37309993D01*
X2077400Y38391800D01*
X18745353Y38391800D01*
X18779000Y38388486D01*
X18913283Y38401712D01*
X19042406Y38440881D01*
X19161407Y38504488D01*
X19265711Y38590089D01*
X19351312Y38694393D01*
X19414919Y38813394D01*
X19454088Y38942517D01*
X19464000Y39043153D01*
X19467314Y39076800D01*
X19464000Y39110447D01*
X19464000Y43265649D01*
X19545585Y43143549D01*
%TA.AperFunction,Conductor*%
D23*
G36*
X19545585Y43143549D02*
G01*
X19775549Y42913585D01*
X20043000Y42734879D01*
X20043001Y39187158D01*
X18597843Y37742000D01*
X16277316Y37742000D01*
X16238760Y37745797D01*
X16200204Y37742000D01*
X16200199Y37742000D01*
X16159786Y37738020D01*
X16084873Y37730642D01*
X15936900Y37685754D01*
X15800527Y37612862D01*
X15680996Y37514764D01*
X15656415Y37484812D01*
X10775190Y32603587D01*
X10745236Y32579004D01*
X10647138Y32459472D01*
X10577000Y32328251D01*
X10577000Y32489411D01*
X10523775Y32756989D01*
X10419371Y33009043D01*
X10267799Y33235886D01*
X10150685Y33353000D01*
X10267799Y33470114D01*
X10419371Y33696957D01*
X10523775Y33949011D01*
X10577000Y34216589D01*
X10577000Y34489411D01*
X10523775Y34756989D01*
X10419371Y35009043D01*
X10267799Y35235886D01*
X10074886Y35428799D01*
X9848043Y35580371D01*
X9740463Y35624932D01*
X9192000Y36173395D01*
X8643537Y35624932D01*
X8535957Y35580371D01*
X8309114Y35428799D01*
X8116201Y35235886D01*
X7964629Y35009043D01*
X7860225Y34756989D01*
X7807000Y34489411D01*
X7807000Y34219579D01*
X6643956Y33056534D01*
X6610183Y33028817D01*
X6499589Y32894058D01*
X6417411Y32740312D01*
X6366805Y32573489D01*
X6354000Y32443476D01*
X6354000Y32443469D01*
X6349719Y32400000D01*
X6354000Y32356531D01*
X6354001Y27983479D01*
X6349719Y27940000D01*
X6366805Y27766510D01*
X6417412Y27599687D01*
X6499590Y27445941D01*
X6582468Y27344954D01*
X6582471Y27344951D01*
X6610184Y27311183D01*
X6643951Y27283470D01*
X10291000Y23636421D01*
X10291001Y22856000D01*
X10015752Y22856000D01*
X10015752Y23220680D01*
X10003492Y23345162D01*
X9967182Y23464860D01*
X9908217Y23575174D01*
X9828865Y23671865D01*
X9732174Y23751217D01*
X9621860Y23810182D01*
X9502162Y23846492D01*
X9377680Y23858752D01*
X6878320Y23858752D01*
X6753838Y23846492D01*
X6634140Y23810182D01*
X6523826Y23751217D01*
X6427135Y23671865D01*
X6347783Y23575174D01*
X6288818Y23464860D01*
X6252508Y23345162D01*
X6240248Y23220680D01*
X6240248Y20721320D01*
X6252508Y20596838D01*
X6288818Y20477140D01*
X6347783Y20366826D01*
X6427135Y20270135D01*
X6523826Y20190783D01*
X6634140Y20131818D01*
X6753838Y20095508D01*
X6878320Y20083248D01*
X9377680Y20083248D01*
X9502162Y20095508D01*
X9621860Y20131818D01*
X9732174Y20190783D01*
X9828865Y20270135D01*
X9908217Y20366826D01*
X9967182Y20477140D01*
X10003492Y20596838D01*
X10015752Y20721320D01*
X10015752Y21086000D01*
X10291000Y21086000D01*
X10291001Y12743479D01*
X10286719Y12700000D01*
X10303805Y12526510D01*
X10354412Y12359687D01*
X10436590Y12205941D01*
X10519468Y12104954D01*
X10519471Y12104951D01*
X10547184Y12071183D01*
X10580951Y12043471D01*
X13059470Y9564951D01*
X13087183Y9531183D01*
X13120951Y9503470D01*
X13120953Y9503468D01*
X13176857Y9457589D01*
X13221941Y9420589D01*
X13375687Y9338411D01*
X13542510Y9287805D01*
X13672523Y9275000D01*
X13672533Y9275000D01*
X13715999Y9270719D01*
X13759465Y9275000D01*
X30427308Y9275000D01*
X30461271Y9260932D01*
X30641911Y9225000D01*
X30826089Y9225000D01*
X31006729Y9260932D01*
X31176889Y9331414D01*
X31330028Y9433738D01*
X31460262Y9563972D01*
X31562586Y9717111D01*
X31633068Y9887271D01*
X31669000Y10067911D01*
X31669000Y10252089D01*
X31633068Y10432729D01*
X31562586Y10602889D01*
X31460262Y10756028D01*
X31330028Y10886262D01*
X31176889Y10988586D01*
X31006729Y11059068D01*
X30826089Y11095000D01*
X30641911Y11095000D01*
X30461271Y11059068D01*
X30427308Y11045000D01*
X29333866Y11045000D01*
X29349415Y11060549D01*
X29530097Y11330958D01*
X29654553Y11631421D01*
X29718000Y11950391D01*
X29718000Y12051038D01*
X31489169Y12051038D01*
X31533112Y11728802D01*
X31639076Y11421330D01*
X31734140Y11243478D01*
X32000177Y11145782D01*
X32967395Y12113000D01*
X32000177Y13080218D01*
X31734140Y12982522D01*
X31591652Y12690179D01*
X31508936Y12375656D01*
X31489169Y12051038D01*
X29718000Y12051038D01*
X29718000Y12275609D01*
X29654553Y12594579D01*
X29530097Y12895042D01*
X29349415Y13165451D01*
X29292219Y13222647D01*
X29302417Y13259823D01*
X32179782Y13259823D01*
X33147000Y12292605D01*
X34114218Y13259823D01*
X34016522Y13525860D01*
X33724179Y13668348D01*
X33409656Y13751064D01*
X33085038Y13770831D01*
X32762802Y13726888D01*
X32455330Y13620924D01*
X32277478Y13525860D01*
X32179782Y13259823D01*
X29302417Y13259823D01*
X29304388Y13267007D01*
X28527000Y14044395D01*
X28512858Y14030252D01*
X28333253Y14209857D01*
X28347395Y14224000D01*
X28333253Y14238142D01*
X28512858Y14417747D01*
X28527000Y14403605D01*
X28541143Y14417747D01*
X28720748Y14238142D01*
X28706605Y14224000D01*
X29483993Y13446612D01*
X29722860Y13512137D01*
X29838760Y13759116D01*
X29904250Y14023960D01*
X29916812Y14296492D01*
X29875965Y14566238D01*
X29824396Y14709000D01*
X37841421Y14709000D01*
X34714518Y11582096D01*
X34785064Y11850344D01*
X34804831Y12174962D01*
X34760888Y12497198D01*
X34654924Y12804670D01*
X34559860Y12982522D01*
X34293823Y13080218D01*
X33326605Y12113000D01*
X33340748Y12098857D01*
X33161143Y11919252D01*
X33147000Y11933395D01*
X32179782Y10966177D01*
X32277478Y10700140D01*
X32569821Y10557652D01*
X32884344Y10474936D01*
X33208962Y10455169D01*
X33531198Y10499112D01*
X33684296Y10551874D01*
X32424952Y9292530D01*
X32391184Y9264817D01*
X32363471Y9231049D01*
X32363468Y9231046D01*
X32280590Y9130059D01*
X32198412Y8976313D01*
X32147805Y8809490D01*
X32130719Y8636000D01*
X32135001Y8592522D01*
X32135000Y7853699D01*
X31770302Y7489000D01*
X20884290Y7489000D01*
X20789028Y7584262D01*
X20635889Y7686586D01*
X20465729Y7757068D01*
X20285089Y7793000D01*
X20100911Y7793000D01*
X19920271Y7757068D01*
X19750111Y7686586D01*
X19596972Y7584262D01*
X19466738Y7454028D01*
X19364414Y7300889D01*
X19293932Y7130729D01*
X19258000Y6950089D01*
X19258000Y6765911D01*
X19293932Y6585271D01*
X19364414Y6415111D01*
X19466738Y6261972D01*
X19596972Y6131738D01*
X19750111Y6029414D01*
X19784077Y6015345D01*
X19790466Y6008956D01*
X19818183Y5975183D01*
X19952941Y5864589D01*
X20106687Y5782411D01*
X20273510Y5731805D01*
X20403523Y5719000D01*
X20403533Y5719000D01*
X20446999Y5714719D01*
X20490465Y5719000D01*
X32093411Y5719000D01*
X32136880Y5714719D01*
X32180349Y5719000D01*
X32180357Y5719000D01*
X32310370Y5731805D01*
X32477193Y5782411D01*
X32630939Y5864589D01*
X32765697Y5975183D01*
X32793414Y6008956D01*
X33615050Y6830591D01*
X33648817Y6858303D01*
X33724145Y6950089D01*
X33759410Y6993060D01*
X33759411Y6993061D01*
X33841589Y7146807D01*
X33892195Y7313630D01*
X33905000Y7443643D01*
X33905000Y7443653D01*
X33909281Y7487119D01*
X33905000Y7530585D01*
X33905000Y8269422D01*
X34514801Y8879223D01*
X34514800Y1916300D01*
X33341028Y1916300D01*
X33389792Y2007530D01*
X33426102Y2127228D01*
X33438362Y2251710D01*
X33435290Y3016250D01*
X33276540Y3175000D01*
X31877000Y3175000D01*
X31877000Y3155000D01*
X31623000Y3155000D01*
X31623000Y3175000D01*
X31603000Y3175000D01*
X31603000Y3429000D01*
X31623000Y3429000D01*
X31623000Y4828540D01*
X31877000Y4828540D01*
X31877000Y3429000D01*
X33276540Y3429000D01*
X33435290Y3587750D01*
X33438362Y4352290D01*
X33426102Y4476772D01*
X33389792Y4596470D01*
X33330827Y4706784D01*
X33251475Y4803475D01*
X33154784Y4882827D01*
X33044470Y4941792D01*
X32924772Y4978102D01*
X32800290Y4990362D01*
X32035750Y4987290D01*
X31877000Y4828540D01*
X31623000Y4828540D01*
X31464250Y4987290D01*
X30699710Y4990362D01*
X30575228Y4978102D01*
X30455530Y4941792D01*
X30345216Y4882827D01*
X30248525Y4803475D01*
X30229855Y4780726D01*
X30129167Y5037191D01*
X29822540Y5188052D01*
X29492372Y5276194D01*
X29151353Y5298228D01*
X28812588Y5253310D01*
X28489095Y5143166D01*
X28290833Y5037191D01*
X28183022Y4762583D01*
X29210000Y3735605D01*
X29224143Y3749747D01*
X29403748Y3570142D01*
X29389605Y3556000D01*
X29403748Y3541857D01*
X29224143Y3362252D01*
X29210000Y3376395D01*
X29195858Y3362252D01*
X29016253Y3541857D01*
X29030395Y3556000D01*
X28003417Y4582978D01*
X27887814Y4537592D01*
X27775883Y4649523D01*
X27491745Y4839377D01*
X27176028Y4970152D01*
X26840865Y5036820D01*
X26499135Y5036820D01*
X26163972Y4970152D01*
X25848255Y4839377D01*
X25564117Y4649523D01*
X25517158Y4602564D01*
X25477523Y4661883D01*
X25235883Y4903523D01*
X24951745Y5093377D01*
X24636028Y5224152D01*
X24300865Y5290820D01*
X23959135Y5290820D01*
X23623972Y5224152D01*
X23308255Y5093377D01*
X23024117Y4903523D01*
X22782477Y4661883D01*
X22742842Y4602564D01*
X22695883Y4649523D01*
X22411745Y4839377D01*
X22096028Y4970152D01*
X21760865Y5036820D01*
X21419135Y5036820D01*
X21083972Y4970152D01*
X20768255Y4839377D01*
X20484117Y4649523D01*
X20437158Y4602564D01*
X20397523Y4661883D01*
X20155883Y4903523D01*
X19871745Y5093377D01*
X19556028Y5224152D01*
X19220865Y5290820D01*
X18879135Y5290820D01*
X18543972Y5224152D01*
X18228255Y5093377D01*
X17944117Y4903523D01*
X17702477Y4661883D01*
X17512623Y4377745D01*
X17381848Y4062028D01*
X17315180Y3726865D01*
X17315180Y3385135D01*
X17381848Y3049972D01*
X17512623Y2734255D01*
X17702477Y2450117D01*
X17944117Y2208477D01*
X18228255Y2018623D01*
X18475283Y1916300D01*
X9053700Y1916300D01*
X9053700Y5417279D01*
X10057000Y5417279D01*
X10057000Y4996721D01*
X10139047Y4584244D01*
X10299988Y4195698D01*
X10533637Y3846017D01*
X10831017Y3548637D01*
X11180698Y3314988D01*
X11569244Y3154047D01*
X11981721Y3072000D01*
X12402279Y3072000D01*
X12814756Y3154047D01*
X13203302Y3314988D01*
X13552983Y3548637D01*
X13850363Y3846017D01*
X14084012Y4195698D01*
X14244953Y4584244D01*
X14327000Y4996721D01*
X14327000Y5417279D01*
X14244953Y5829756D01*
X14084012Y6218302D01*
X13850363Y6567983D01*
X13552983Y6865363D01*
X13203302Y7099012D01*
X12814756Y7259953D01*
X12402279Y7342000D01*
X11981721Y7342000D01*
X11569244Y7259953D01*
X11180698Y7099012D01*
X10831017Y6865363D01*
X10533637Y6567983D01*
X10299988Y6218302D01*
X10139047Y5829756D01*
X10057000Y5417279D01*
X9053700Y5417279D01*
X9053700Y8899153D01*
X9057014Y8932800D01*
X9043788Y9067083D01*
X9004619Y9196206D01*
X8941012Y9315207D01*
X8855411Y9419511D01*
X8751107Y9505112D01*
X8632106Y9568719D01*
X8502983Y9607888D01*
X8402347Y9617800D01*
X8368700Y9621114D01*
X8335053Y9617800D01*
X2077400Y9617800D01*
X2077400Y10497623D01*
X6994229Y10497623D01*
X7120104Y10207685D01*
X7452262Y10041861D01*
X7810387Y9944025D01*
X8180719Y9917935D01*
X8549025Y9964595D01*
X8901151Y10082211D01*
X9135896Y10207685D01*
X9261771Y10497623D01*
X8128000Y11631395D01*
X6994229Y10497623D01*
X2077400Y10497623D01*
X2077400Y11758281D01*
X6234935Y11758281D01*
X6281595Y11389975D01*
X6399211Y11037849D01*
X6524685Y10803104D01*
X6814623Y10677229D01*
X7948395Y11811000D01*
X8307605Y11811000D01*
X9441377Y10677229D01*
X9731315Y10803104D01*
X9897139Y11135262D01*
X9994975Y11493387D01*
X10021065Y11863719D01*
X9974405Y12232025D01*
X9856789Y12584151D01*
X9731315Y12818896D01*
X9441377Y12944771D01*
X8307605Y11811000D01*
X7948395Y11811000D01*
X6814623Y12944771D01*
X6524685Y12818896D01*
X6358861Y12486738D01*
X6261025Y12128613D01*
X6234935Y11758281D01*
X2077400Y11758281D01*
X2077400Y13124377D01*
X6994229Y13124377D01*
X8128000Y11990605D01*
X9261771Y13124377D01*
X9135896Y13414315D01*
X8803738Y13580139D01*
X8445613Y13677975D01*
X8075281Y13704065D01*
X7706975Y13657405D01*
X7354849Y13539789D01*
X7120104Y13414315D01*
X6994229Y13124377D01*
X2077400Y13124377D01*
X2077400Y17076625D01*
X6243320Y17076625D01*
X6243320Y16705375D01*
X6315747Y16341259D01*
X6457818Y15998269D01*
X6664074Y15689587D01*
X6926587Y15427074D01*
X7235269Y15220818D01*
X7578259Y15078747D01*
X7942375Y15006320D01*
X8313625Y15006320D01*
X8677741Y15078747D01*
X9020731Y15220818D01*
X9329413Y15427074D01*
X9591926Y15689587D01*
X9798182Y15998269D01*
X9940253Y16341259D01*
X10012680Y16705375D01*
X10012680Y17076625D01*
X9940253Y17440741D01*
X9798182Y17783731D01*
X9591926Y18092413D01*
X9329413Y18354926D01*
X9020731Y18561182D01*
X8677741Y18703253D01*
X8313625Y18775680D01*
X7942375Y18775680D01*
X7578259Y18703253D01*
X7235269Y18561182D01*
X6926587Y18354926D01*
X6664074Y18092413D01*
X6457818Y17783731D01*
X6315747Y17440741D01*
X6243320Y17076625D01*
X2077400Y17076625D01*
X2077400Y31103000D01*
X2469928Y31103000D01*
X2469928Y29603000D01*
X2482188Y29478518D01*
X2518498Y29358820D01*
X2577463Y29248506D01*
X2656815Y29151815D01*
X2753506Y29072463D01*
X2863820Y29013498D01*
X2983518Y28977188D01*
X3108000Y28964928D01*
X4608000Y28964928D01*
X4732482Y28977188D01*
X4852180Y29013498D01*
X4962494Y29072463D01*
X5059185Y29151815D01*
X5138537Y29248506D01*
X5197502Y29358820D01*
X5233812Y29478518D01*
X5246072Y29603000D01*
X5246072Y31103000D01*
X5233812Y31227482D01*
X5197502Y31347180D01*
X5138537Y31457494D01*
X5059185Y31554185D01*
X5014485Y31590869D01*
X5085371Y31696957D01*
X5189775Y31949011D01*
X5243000Y32216589D01*
X5243000Y32489411D01*
X5189775Y32756989D01*
X5085371Y33009043D01*
X4933799Y33235886D01*
X4816685Y33353000D01*
X4933799Y33470114D01*
X5085371Y33696957D01*
X5189775Y33949011D01*
X5243000Y34216589D01*
X5243000Y34489411D01*
X5189775Y34756989D01*
X5085371Y35009043D01*
X4933799Y35235886D01*
X4740886Y35428799D01*
X4514043Y35580371D01*
X4406463Y35624932D01*
X3858000Y36173395D01*
X3309537Y35624932D01*
X3201957Y35580371D01*
X2975114Y35428799D01*
X2782201Y35235886D01*
X2630629Y35009043D01*
X2526225Y34756989D01*
X2473000Y34489411D01*
X2473000Y34216589D01*
X2526225Y33949011D01*
X2630629Y33696957D01*
X2782201Y33470114D01*
X2899315Y33353000D01*
X2782201Y33235886D01*
X2630629Y33009043D01*
X2526225Y32756989D01*
X2473000Y32489411D01*
X2473000Y32216589D01*
X2526225Y31949011D01*
X2630629Y31696957D01*
X2701515Y31590869D01*
X2656815Y31554185D01*
X2577463Y31457494D01*
X2518498Y31347180D01*
X2482188Y31227482D01*
X2469928Y31103000D01*
X2077400Y31103000D01*
X2077400Y36280508D01*
X2468188Y36280508D01*
X2509035Y36010762D01*
X2601723Y35754168D01*
X2662140Y35641137D01*
X2901007Y35575612D01*
X3678395Y36353000D01*
X4037605Y36353000D01*
X4814993Y35575612D01*
X5053860Y35641137D01*
X5169760Y35888116D01*
X5235250Y36152960D01*
X5241129Y36280508D01*
X7802188Y36280508D01*
X7843035Y36010762D01*
X7935723Y35754168D01*
X7996140Y35641137D01*
X8235007Y35575612D01*
X9012395Y36353000D01*
X9371605Y36353000D01*
X10148993Y35575612D01*
X10387860Y35641137D01*
X10503760Y35888116D01*
X10569250Y36152960D01*
X10581812Y36425492D01*
X10540965Y36695238D01*
X10448277Y36951832D01*
X10387860Y37064863D01*
X10148993Y37130388D01*
X9371605Y36353000D01*
X9012395Y36353000D01*
X8235007Y37130388D01*
X7996140Y37064863D01*
X7880240Y36817884D01*
X7814750Y36553040D01*
X7802188Y36280508D01*
X5241129Y36280508D01*
X5247812Y36425492D01*
X5206965Y36695238D01*
X5114277Y36951832D01*
X5053860Y37064863D01*
X4814993Y37130388D01*
X4037605Y36353000D01*
X3678395Y36353000D01*
X2901007Y37130388D01*
X2662140Y37064863D01*
X2546240Y36817884D01*
X2480750Y36553040D01*
X2468188Y36280508D01*
X2077400Y36280508D01*
X2077400Y37309993D01*
X3080612Y37309993D01*
X3858000Y36532605D01*
X4635388Y37309993D01*
X8414612Y37309993D01*
X9192000Y36532605D01*
X9969388Y37309993D01*
X9903863Y37548860D01*
X9656884Y37664760D01*
X9392040Y37730250D01*
X9119508Y37742812D01*
X8849762Y37701965D01*
X8593168Y37609277D01*
X8480137Y37548860D01*
X8414612Y37309993D01*
X4635388Y37309993D01*
X4569863Y37548860D01*
X4322884Y37664760D01*
X4058040Y37730250D01*
X3785508Y37742812D01*
X3515762Y37701965D01*
X3259168Y37609277D01*
X3146137Y37548860D01*
X3080612Y37309993D01*
X2077400Y37309993D01*
X2077400Y38391800D01*
X18745353Y38391800D01*
X18779000Y38388486D01*
X18913283Y38401712D01*
X19042406Y38440881D01*
X19161407Y38504488D01*
X19265711Y38590089D01*
X19351312Y38694393D01*
X19414919Y38813394D01*
X19454088Y38942517D01*
X19464000Y39043153D01*
X19467314Y39076800D01*
X19464000Y39110447D01*
X19464000Y43265649D01*
X19545585Y43143549D01*
G37*
%TD.AperFunction*%
D22*
X24855549Y42913585D02*
X25019233Y42804215D01*
X25018719Y42799000D01*
X25035805Y42625510D01*
X25086412Y42458687D01*
X25168590Y42304941D01*
X25251468Y42203954D01*
X25251471Y42203951D01*
X25279184Y42170183D01*
X25312952Y42142470D01*
X25531000Y41924422D01*
X25531001Y39736580D01*
X25287422Y39493000D01*
X24817692Y39493000D01*
X24783729Y39507068D01*
X24603089Y39543000D01*
X24418911Y39543000D01*
X24238271Y39507068D01*
X24068111Y39436586D01*
X23914972Y39334262D01*
X23784738Y39204028D01*
X23682414Y39050889D01*
X23611932Y38880729D01*
X23576000Y38700089D01*
X23576000Y38515911D01*
X23611932Y38335271D01*
X23682414Y38165111D01*
X23784738Y38011972D01*
X23914972Y37881738D01*
X24068111Y37779414D01*
X24238271Y37708932D01*
X24418911Y37673000D01*
X24603089Y37673000D01*
X24783729Y37708932D01*
X24817692Y37723000D01*
X25610531Y37723000D01*
X25654000Y37718719D01*
X25697469Y37723000D01*
X25697477Y37723000D01*
X25827490Y37735805D01*
X25994313Y37786411D01*
X26148059Y37868589D01*
X26282817Y37979183D01*
X26310534Y38012956D01*
X27011049Y38713470D01*
X27044817Y38741183D01*
X27077897Y38781490D01*
X27155411Y38875941D01*
X27173540Y38909859D01*
X27237589Y39029687D01*
X27288195Y39196510D01*
X27301000Y39326523D01*
X27301000Y39326531D01*
X27305281Y39370000D01*
X27301000Y39413469D01*
X27301000Y41406000D01*
X29801531Y41406000D01*
X29845000Y41401719D01*
X29888469Y41406000D01*
X29888477Y41406000D01*
X30018490Y41418805D01*
X30185313Y41469411D01*
X30314900Y41538676D01*
X30314900Y41514655D01*
X30370050Y41237397D01*
X30478231Y40976225D01*
X30635285Y40741177D01*
X30835177Y40541285D01*
X30965000Y40454540D01*
X30965001Y38679158D01*
X27412190Y35126347D01*
X27382236Y35101764D01*
X27284138Y34982232D01*
X27211246Y34845859D01*
X27166359Y34697886D01*
X27155000Y34582560D01*
X27155000Y34582553D01*
X27151203Y34544000D01*
X27155000Y34505447D01*
X27155000Y33947560D01*
X27155001Y32248157D01*
X26626312Y32776845D01*
X25347347Y34055810D01*
X25322764Y34085764D01*
X25203233Y34183862D01*
X25066860Y34256754D01*
X24918887Y34301641D01*
X24803561Y34313000D01*
X24803553Y34313000D01*
X24765000Y34316797D01*
X24726447Y34313000D01*
X22390556Y34313000D01*
X22352000Y34316797D01*
X22313444Y34313000D01*
X22313439Y34313000D01*
X22273026Y34309020D01*
X22198113Y34301642D01*
X22071106Y34263114D01*
X22050140Y34256754D01*
X21913767Y34183862D01*
X21794236Y34085764D01*
X21769653Y34055810D01*
X19919185Y32205342D01*
X19889237Y32180764D01*
X19864659Y32150816D01*
X19864655Y32150812D01*
X19836077Y32115989D01*
X19791139Y32061233D01*
X19771699Y32024862D01*
X19718246Y31924859D01*
X19673359Y31776886D01*
X19658203Y31623000D01*
X19662001Y31584437D01*
X19662000Y24882157D01*
X19456374Y25087784D01*
X19441068Y25164729D01*
X19370586Y25334889D01*
X19268262Y25488028D01*
X19138028Y25618262D01*
X18984889Y25720586D01*
X18814729Y25791068D01*
X18634089Y25827000D01*
X18449911Y25827000D01*
X18269271Y25791068D01*
X18099111Y25720586D01*
X17945972Y25618262D01*
X17815738Y25488028D01*
X17713414Y25334889D01*
X17642932Y25164729D01*
X17607000Y24984089D01*
X17607000Y24799911D01*
X17642932Y24619271D01*
X17713414Y24449111D01*
X17815738Y24295972D01*
X17945972Y24165738D01*
X18099111Y24063414D01*
X18269271Y23992932D01*
X18346216Y23977626D01*
X18666015Y23657828D01*
X18658932Y23640729D01*
X18623000Y23460089D01*
X18623000Y23275911D01*
X18658932Y23095271D01*
X18729414Y22925111D01*
X18831738Y22771972D01*
X18961972Y22641738D01*
X19115111Y22539414D01*
X19285271Y22468932D01*
X19465911Y22433000D01*
X19573725Y22433000D01*
X19547932Y22370729D01*
X19512000Y22190089D01*
X19512000Y22005911D01*
X19547932Y21825271D01*
X19618414Y21655111D01*
X19720738Y21501972D01*
X19850972Y21371738D01*
X20004111Y21269414D01*
X20174271Y21198932D01*
X20354911Y21163000D01*
X20539089Y21163000D01*
X20719729Y21198932D01*
X20889889Y21269414D01*
X21043028Y21371738D01*
X21173262Y21501972D01*
X21275586Y21655111D01*
X21346068Y21825271D01*
X21382000Y22005911D01*
X21382000Y22190089D01*
X21346068Y22370729D01*
X21275586Y22540889D01*
X21232000Y22606120D01*
X21232000Y23495000D01*
X24126928Y23495000D01*
X24139188Y23370518D01*
X24175498Y23250820D01*
X24234463Y23140506D01*
X24313815Y23043815D01*
X24410506Y22964463D01*
X24520820Y22905498D01*
X24640518Y22869188D01*
X24765000Y22856928D01*
X25495250Y22860000D01*
X25654000Y23018750D01*
X25654000Y24384000D01*
X24288750Y24384000D01*
X24130000Y24225250D01*
X24126928Y23495000D01*
X21232000Y23495000D01*
X21232000Y25527000D01*
X24126928Y25527000D01*
X24130000Y24796750D01*
X24288750Y24638000D01*
X25654000Y24638000D01*
X25654000Y26003250D01*
X25908000Y26003250D01*
X25908000Y24638000D01*
X25928000Y24638000D01*
X25928000Y24384000D01*
X25908000Y24384000D01*
X25908000Y23018750D01*
X26066750Y22860000D01*
X26797000Y22856928D01*
X26921482Y22869188D01*
X27041180Y22905498D01*
X27151494Y22964463D01*
X27248185Y23043815D01*
X27327537Y23140506D01*
X27346704Y23176364D01*
X27538958Y23047903D01*
X27839421Y22923447D01*
X28158391Y22860000D01*
X28483609Y22860000D01*
X28802579Y22923447D01*
X29103042Y23047903D01*
X29373451Y23228585D01*
X29603415Y23458549D01*
X29784097Y23728958D01*
X29908553Y24029421D01*
X29972000Y24348391D01*
X29972000Y24673609D01*
X29908553Y24992579D01*
X29784097Y25293042D01*
X29603415Y25563451D01*
X29373451Y25793415D01*
X29103042Y25974097D01*
X28802579Y26098553D01*
X28483609Y26162000D01*
X28158391Y26162000D01*
X27839421Y26098553D01*
X27538958Y25974097D01*
X27346704Y25845636D01*
X27327537Y25881494D01*
X27248185Y25978185D01*
X27151494Y26057537D01*
X27041180Y26116502D01*
X26921482Y26152812D01*
X26797000Y26165072D01*
X26066750Y26162000D01*
X25908000Y26003250D01*
X25654000Y26003250D01*
X25495250Y26162000D01*
X24765000Y26165072D01*
X24640518Y26152812D01*
X24520820Y26116502D01*
X24410506Y26057537D01*
X24313815Y25978185D01*
X24234463Y25881494D01*
X24175498Y25771180D01*
X24139188Y25651482D01*
X24126928Y25527000D01*
X21232000Y25527000D01*
X21232000Y30715631D01*
X21267217Y30708626D01*
X25198658Y26777184D01*
X25223236Y26747236D01*
X25253184Y26722658D01*
X25253187Y26722655D01*
X25259031Y26717859D01*
X25342767Y26649138D01*
X25428312Y26603414D01*
X25479140Y26576246D01*
X25627112Y26531359D01*
X25641490Y26529943D01*
X25742439Y26520000D01*
X25742446Y26520000D01*
X25780999Y26516203D01*
X25819552Y26520000D01*
X29646843Y26520000D01*
X30965000Y25201843D01*
X30965001Y21120563D01*
X30961203Y21082000D01*
X30976359Y20928114D01*
X31021246Y20780141D01*
X31029208Y20765246D01*
X31094139Y20643767D01*
X31132653Y20596838D01*
X31167655Y20554188D01*
X31167659Y20554184D01*
X31192237Y20524236D01*
X31222185Y20499658D01*
X32183657Y19538185D01*
X32208236Y19508236D01*
X32238184Y19483658D01*
X32238187Y19483655D01*
X32250392Y19473639D01*
X32327767Y19410138D01*
X32436801Y19351859D01*
X32464140Y19337246D01*
X32612113Y19292358D01*
X32687026Y19284980D01*
X32727439Y19281000D01*
X32727444Y19281000D01*
X32766000Y19277203D01*
X32804555Y19281000D01*
X34759447Y19281000D01*
X34798000Y19277203D01*
X34836553Y19281000D01*
X34836561Y19281000D01*
X34951887Y19292359D01*
X35099860Y19337246D01*
X35236233Y19410138D01*
X35355764Y19508236D01*
X35380347Y19538190D01*
X35885157Y20043000D01*
X40240631Y20043000D01*
X40213000Y19904089D01*
X40213000Y19719911D01*
X40248932Y19539271D01*
X40319414Y19369111D01*
X40421738Y19215972D01*
X40551972Y19085738D01*
X40700492Y18986500D01*
X40551972Y18887262D01*
X40421738Y18757028D01*
X40319414Y18603889D01*
X40248932Y18433729D01*
X40213000Y18253089D01*
X40213000Y18068911D01*
X40248932Y17888271D01*
X40319414Y17718111D01*
X40421738Y17564972D01*
X40551972Y17434738D01*
X40705111Y17332414D01*
X40875271Y17261932D01*
X41015818Y17233975D01*
X40680842Y16898999D01*
X34962465Y16898999D01*
X34935068Y17036729D01*
X34864586Y17206889D01*
X34762262Y17360028D01*
X34632028Y17490262D01*
X34478889Y17592586D01*
X34308729Y17663068D01*
X34128089Y17699000D01*
X33943911Y17699000D01*
X33763271Y17663068D01*
X33593111Y17592586D01*
X33527880Y17549000D01*
X21915157Y17549000D01*
X18806850Y20657307D01*
X18806845Y20657313D01*
X16279000Y23185157D01*
X16279000Y29590880D01*
X16322586Y29656111D01*
X16339993Y29698135D01*
X16337000Y29683089D01*
X16337000Y29498911D01*
X16372932Y29318271D01*
X16443414Y29148111D01*
X16545738Y28994972D01*
X16675972Y28864738D01*
X16829111Y28762414D01*
X16999271Y28691932D01*
X17179911Y28656000D01*
X17364089Y28656000D01*
X17544729Y28691932D01*
X17714889Y28762414D01*
X17868028Y28864738D01*
X17998262Y28994972D01*
X18100586Y29148111D01*
X18171068Y29318271D01*
X18207000Y29498911D01*
X18207000Y29683089D01*
X18171068Y29863729D01*
X18157000Y29897692D01*
X18157000Y32078308D01*
X18171068Y32112271D01*
X18207000Y32292911D01*
X18207000Y32477089D01*
X18171068Y32657729D01*
X18100586Y32827889D01*
X17998262Y32981028D01*
X17868028Y33111262D01*
X17714889Y33213586D01*
X17544729Y33284068D01*
X17364089Y33320000D01*
X17179911Y33320000D01*
X16999271Y33284068D01*
X16829111Y33213586D01*
X16675972Y33111262D01*
X16545738Y32981028D01*
X16443414Y32827889D01*
X16372932Y32657729D01*
X16337000Y32477089D01*
X16337000Y32292911D01*
X16372932Y32112271D01*
X16387000Y32078307D01*
X16387001Y30386377D01*
X16322586Y30541889D01*
X16220262Y30695028D01*
X16090028Y30825262D01*
X15936889Y30927586D01*
X15898000Y30943694D01*
X15898000Y34091843D01*
X16327157Y34521000D01*
X16382880Y34521000D01*
X16448111Y34477414D01*
X16618271Y34406932D01*
X16798911Y34371000D01*
X16983089Y34371000D01*
X17163729Y34406932D01*
X17333889Y34477414D01*
X17487028Y34579738D01*
X17617262Y34709972D01*
X17719586Y34863111D01*
X17790068Y35033271D01*
X17826000Y35213911D01*
X17826000Y35398089D01*
X17790068Y35578729D01*
X17754748Y35664000D01*
X19265447Y35664000D01*
X19304000Y35660203D01*
X19342553Y35664000D01*
X19342561Y35664000D01*
X19457887Y35675359D01*
X19605860Y35720246D01*
X19742233Y35793138D01*
X19861764Y35891236D01*
X19886347Y35921190D01*
X23895816Y39930658D01*
X23925764Y39955236D01*
X24023862Y40074767D01*
X24096754Y40211140D01*
X24103116Y40232113D01*
X24141642Y40359113D01*
X24150613Y40450209D01*
X24153000Y40474439D01*
X24153000Y40474444D01*
X24156797Y40513000D01*
X24153000Y40551560D01*
X24153000Y42734879D01*
X24420451Y42913585D01*
X24638000Y43131134D01*
X24855549Y42913585D01*
%TA.AperFunction,Conductor*%
D23*
G36*
X24855549Y42913585D02*
G01*
X25019233Y42804215D01*
X25018719Y42799000D01*
X25035805Y42625510D01*
X25086412Y42458687D01*
X25168590Y42304941D01*
X25251468Y42203954D01*
X25251471Y42203951D01*
X25279184Y42170183D01*
X25312952Y42142470D01*
X25531000Y41924422D01*
X25531001Y39736580D01*
X25287422Y39493000D01*
X24817692Y39493000D01*
X24783729Y39507068D01*
X24603089Y39543000D01*
X24418911Y39543000D01*
X24238271Y39507068D01*
X24068111Y39436586D01*
X23914972Y39334262D01*
X23784738Y39204028D01*
X23682414Y39050889D01*
X23611932Y38880729D01*
X23576000Y38700089D01*
X23576000Y38515911D01*
X23611932Y38335271D01*
X23682414Y38165111D01*
X23784738Y38011972D01*
X23914972Y37881738D01*
X24068111Y37779414D01*
X24238271Y37708932D01*
X24418911Y37673000D01*
X24603089Y37673000D01*
X24783729Y37708932D01*
X24817692Y37723000D01*
X25610531Y37723000D01*
X25654000Y37718719D01*
X25697469Y37723000D01*
X25697477Y37723000D01*
X25827490Y37735805D01*
X25994313Y37786411D01*
X26148059Y37868589D01*
X26282817Y37979183D01*
X26310534Y38012956D01*
X27011049Y38713470D01*
X27044817Y38741183D01*
X27077897Y38781490D01*
X27155411Y38875941D01*
X27173540Y38909859D01*
X27237589Y39029687D01*
X27288195Y39196510D01*
X27301000Y39326523D01*
X27301000Y39326531D01*
X27305281Y39370000D01*
X27301000Y39413469D01*
X27301000Y41406000D01*
X29801531Y41406000D01*
X29845000Y41401719D01*
X29888469Y41406000D01*
X29888477Y41406000D01*
X30018490Y41418805D01*
X30185313Y41469411D01*
X30314900Y41538676D01*
X30314900Y41514655D01*
X30370050Y41237397D01*
X30478231Y40976225D01*
X30635285Y40741177D01*
X30835177Y40541285D01*
X30965000Y40454540D01*
X30965001Y38679158D01*
X27412190Y35126347D01*
X27382236Y35101764D01*
X27284138Y34982232D01*
X27211246Y34845859D01*
X27166359Y34697886D01*
X27155000Y34582560D01*
X27155000Y34582553D01*
X27151203Y34544000D01*
X27155000Y34505447D01*
X27155000Y33947560D01*
X27155001Y32248157D01*
X26626312Y32776845D01*
X25347347Y34055810D01*
X25322764Y34085764D01*
X25203233Y34183862D01*
X25066860Y34256754D01*
X24918887Y34301641D01*
X24803561Y34313000D01*
X24803553Y34313000D01*
X24765000Y34316797D01*
X24726447Y34313000D01*
X22390556Y34313000D01*
X22352000Y34316797D01*
X22313444Y34313000D01*
X22313439Y34313000D01*
X22273026Y34309020D01*
X22198113Y34301642D01*
X22071106Y34263114D01*
X22050140Y34256754D01*
X21913767Y34183862D01*
X21794236Y34085764D01*
X21769653Y34055810D01*
X19919185Y32205342D01*
X19889237Y32180764D01*
X19864659Y32150816D01*
X19864655Y32150812D01*
X19836077Y32115989D01*
X19791139Y32061233D01*
X19771699Y32024862D01*
X19718246Y31924859D01*
X19673359Y31776886D01*
X19658203Y31623000D01*
X19662001Y31584437D01*
X19662000Y24882157D01*
X19456374Y25087784D01*
X19441068Y25164729D01*
X19370586Y25334889D01*
X19268262Y25488028D01*
X19138028Y25618262D01*
X18984889Y25720586D01*
X18814729Y25791068D01*
X18634089Y25827000D01*
X18449911Y25827000D01*
X18269271Y25791068D01*
X18099111Y25720586D01*
X17945972Y25618262D01*
X17815738Y25488028D01*
X17713414Y25334889D01*
X17642932Y25164729D01*
X17607000Y24984089D01*
X17607000Y24799911D01*
X17642932Y24619271D01*
X17713414Y24449111D01*
X17815738Y24295972D01*
X17945972Y24165738D01*
X18099111Y24063414D01*
X18269271Y23992932D01*
X18346216Y23977626D01*
X18666015Y23657828D01*
X18658932Y23640729D01*
X18623000Y23460089D01*
X18623000Y23275911D01*
X18658932Y23095271D01*
X18729414Y22925111D01*
X18831738Y22771972D01*
X18961972Y22641738D01*
X19115111Y22539414D01*
X19285271Y22468932D01*
X19465911Y22433000D01*
X19573725Y22433000D01*
X19547932Y22370729D01*
X19512000Y22190089D01*
X19512000Y22005911D01*
X19547932Y21825271D01*
X19618414Y21655111D01*
X19720738Y21501972D01*
X19850972Y21371738D01*
X20004111Y21269414D01*
X20174271Y21198932D01*
X20354911Y21163000D01*
X20539089Y21163000D01*
X20719729Y21198932D01*
X20889889Y21269414D01*
X21043028Y21371738D01*
X21173262Y21501972D01*
X21275586Y21655111D01*
X21346068Y21825271D01*
X21382000Y22005911D01*
X21382000Y22190089D01*
X21346068Y22370729D01*
X21275586Y22540889D01*
X21232000Y22606120D01*
X21232000Y23495000D01*
X24126928Y23495000D01*
X24139188Y23370518D01*
X24175498Y23250820D01*
X24234463Y23140506D01*
X24313815Y23043815D01*
X24410506Y22964463D01*
X24520820Y22905498D01*
X24640518Y22869188D01*
X24765000Y22856928D01*
X25495250Y22860000D01*
X25654000Y23018750D01*
X25654000Y24384000D01*
X24288750Y24384000D01*
X24130000Y24225250D01*
X24126928Y23495000D01*
X21232000Y23495000D01*
X21232000Y25527000D01*
X24126928Y25527000D01*
X24130000Y24796750D01*
X24288750Y24638000D01*
X25654000Y24638000D01*
X25654000Y26003250D01*
X25908000Y26003250D01*
X25908000Y24638000D01*
X25928000Y24638000D01*
X25928000Y24384000D01*
X25908000Y24384000D01*
X25908000Y23018750D01*
X26066750Y22860000D01*
X26797000Y22856928D01*
X26921482Y22869188D01*
X27041180Y22905498D01*
X27151494Y22964463D01*
X27248185Y23043815D01*
X27327537Y23140506D01*
X27346704Y23176364D01*
X27538958Y23047903D01*
X27839421Y22923447D01*
X28158391Y22860000D01*
X28483609Y22860000D01*
X28802579Y22923447D01*
X29103042Y23047903D01*
X29373451Y23228585D01*
X29603415Y23458549D01*
X29784097Y23728958D01*
X29908553Y24029421D01*
X29972000Y24348391D01*
X29972000Y24673609D01*
X29908553Y24992579D01*
X29784097Y25293042D01*
X29603415Y25563451D01*
X29373451Y25793415D01*
X29103042Y25974097D01*
X28802579Y26098553D01*
X28483609Y26162000D01*
X28158391Y26162000D01*
X27839421Y26098553D01*
X27538958Y25974097D01*
X27346704Y25845636D01*
X27327537Y25881494D01*
X27248185Y25978185D01*
X27151494Y26057537D01*
X27041180Y26116502D01*
X26921482Y26152812D01*
X26797000Y26165072D01*
X26066750Y26162000D01*
X25908000Y26003250D01*
X25654000Y26003250D01*
X25495250Y26162000D01*
X24765000Y26165072D01*
X24640518Y26152812D01*
X24520820Y26116502D01*
X24410506Y26057537D01*
X24313815Y25978185D01*
X24234463Y25881494D01*
X24175498Y25771180D01*
X24139188Y25651482D01*
X24126928Y25527000D01*
X21232000Y25527000D01*
X21232000Y30715631D01*
X21267217Y30708626D01*
X25198658Y26777184D01*
X25223236Y26747236D01*
X25253184Y26722658D01*
X25253187Y26722655D01*
X25259031Y26717859D01*
X25342767Y26649138D01*
X25428312Y26603414D01*
X25479140Y26576246D01*
X25627112Y26531359D01*
X25641490Y26529943D01*
X25742439Y26520000D01*
X25742446Y26520000D01*
X25780999Y26516203D01*
X25819552Y26520000D01*
X29646843Y26520000D01*
X30965000Y25201843D01*
X30965001Y21120563D01*
X30961203Y21082000D01*
X30976359Y20928114D01*
X31021246Y20780141D01*
X31029208Y20765246D01*
X31094139Y20643767D01*
X31132653Y20596838D01*
X31167655Y20554188D01*
X31167659Y20554184D01*
X31192237Y20524236D01*
X31222185Y20499658D01*
X32183657Y19538185D01*
X32208236Y19508236D01*
X32238184Y19483658D01*
X32238187Y19483655D01*
X32250392Y19473639D01*
X32327767Y19410138D01*
X32436801Y19351859D01*
X32464140Y19337246D01*
X32612113Y19292358D01*
X32687026Y19284980D01*
X32727439Y19281000D01*
X32727444Y19281000D01*
X32766000Y19277203D01*
X32804555Y19281000D01*
X34759447Y19281000D01*
X34798000Y19277203D01*
X34836553Y19281000D01*
X34836561Y19281000D01*
X34951887Y19292359D01*
X35099860Y19337246D01*
X35236233Y19410138D01*
X35355764Y19508236D01*
X35380347Y19538190D01*
X35885157Y20043000D01*
X40240631Y20043000D01*
X40213000Y19904089D01*
X40213000Y19719911D01*
X40248932Y19539271D01*
X40319414Y19369111D01*
X40421738Y19215972D01*
X40551972Y19085738D01*
X40700492Y18986500D01*
X40551972Y18887262D01*
X40421738Y18757028D01*
X40319414Y18603889D01*
X40248932Y18433729D01*
X40213000Y18253089D01*
X40213000Y18068911D01*
X40248932Y17888271D01*
X40319414Y17718111D01*
X40421738Y17564972D01*
X40551972Y17434738D01*
X40705111Y17332414D01*
X40875271Y17261932D01*
X41015818Y17233975D01*
X40680842Y16898999D01*
X34962465Y16898999D01*
X34935068Y17036729D01*
X34864586Y17206889D01*
X34762262Y17360028D01*
X34632028Y17490262D01*
X34478889Y17592586D01*
X34308729Y17663068D01*
X34128089Y17699000D01*
X33943911Y17699000D01*
X33763271Y17663068D01*
X33593111Y17592586D01*
X33527880Y17549000D01*
X21915157Y17549000D01*
X18806850Y20657307D01*
X18806845Y20657313D01*
X16279000Y23185157D01*
X16279000Y29590880D01*
X16322586Y29656111D01*
X16339993Y29698135D01*
X16337000Y29683089D01*
X16337000Y29498911D01*
X16372932Y29318271D01*
X16443414Y29148111D01*
X16545738Y28994972D01*
X16675972Y28864738D01*
X16829111Y28762414D01*
X16999271Y28691932D01*
X17179911Y28656000D01*
X17364089Y28656000D01*
X17544729Y28691932D01*
X17714889Y28762414D01*
X17868028Y28864738D01*
X17998262Y28994972D01*
X18100586Y29148111D01*
X18171068Y29318271D01*
X18207000Y29498911D01*
X18207000Y29683089D01*
X18171068Y29863729D01*
X18157000Y29897692D01*
X18157000Y32078308D01*
X18171068Y32112271D01*
X18207000Y32292911D01*
X18207000Y32477089D01*
X18171068Y32657729D01*
X18100586Y32827889D01*
X17998262Y32981028D01*
X17868028Y33111262D01*
X17714889Y33213586D01*
X17544729Y33284068D01*
X17364089Y33320000D01*
X17179911Y33320000D01*
X16999271Y33284068D01*
X16829111Y33213586D01*
X16675972Y33111262D01*
X16545738Y32981028D01*
X16443414Y32827889D01*
X16372932Y32657729D01*
X16337000Y32477089D01*
X16337000Y32292911D01*
X16372932Y32112271D01*
X16387000Y32078307D01*
X16387001Y30386377D01*
X16322586Y30541889D01*
X16220262Y30695028D01*
X16090028Y30825262D01*
X15936889Y30927586D01*
X15898000Y30943694D01*
X15898000Y34091843D01*
X16327157Y34521000D01*
X16382880Y34521000D01*
X16448111Y34477414D01*
X16618271Y34406932D01*
X16798911Y34371000D01*
X16983089Y34371000D01*
X17163729Y34406932D01*
X17333889Y34477414D01*
X17487028Y34579738D01*
X17617262Y34709972D01*
X17719586Y34863111D01*
X17790068Y35033271D01*
X17826000Y35213911D01*
X17826000Y35398089D01*
X17790068Y35578729D01*
X17754748Y35664000D01*
X19265447Y35664000D01*
X19304000Y35660203D01*
X19342553Y35664000D01*
X19342561Y35664000D01*
X19457887Y35675359D01*
X19605860Y35720246D01*
X19742233Y35793138D01*
X19861764Y35891236D01*
X19886347Y35921190D01*
X23895816Y39930658D01*
X23925764Y39955236D01*
X24023862Y40074767D01*
X24096754Y40211140D01*
X24103116Y40232113D01*
X24141642Y40359113D01*
X24150613Y40450209D01*
X24153000Y40474439D01*
X24153000Y40474444D01*
X24156797Y40513000D01*
X24153000Y40551560D01*
X24153000Y42734879D01*
X24420451Y42913585D01*
X24638000Y43131134D01*
X24855549Y42913585D01*
G37*
%TD.AperFunction*%
D22*
X35715285Y40741177D02*
X35915177Y40541285D01*
X36045000Y40454540D01*
X36045000Y39789553D01*
X36041203Y39751000D01*
X36045000Y39712447D01*
X36045000Y39712440D01*
X36056359Y39597114D01*
X36101246Y39449141D01*
X36174138Y39312768D01*
X36272236Y39193236D01*
X36302190Y39168653D01*
X38152653Y37318190D01*
X38177236Y37288236D01*
X38296767Y37190138D01*
X38408553Y37130388D01*
X38433140Y37117246D01*
X38581113Y37072358D01*
X38656026Y37064980D01*
X38696439Y37061000D01*
X38696444Y37061000D01*
X38735000Y37057203D01*
X38773556Y37061000D01*
X46029843Y37061000D01*
X49634000Y33456842D01*
X49634001Y30875082D01*
X49623754Y30908860D01*
X49613745Y30927586D01*
X49550862Y31045233D01*
X49452764Y31164764D01*
X49422811Y31189346D01*
X48715347Y31896810D01*
X48690764Y31926764D01*
X48571233Y32024862D01*
X48434860Y32097754D01*
X48286887Y32142641D01*
X48171561Y32154000D01*
X48171553Y32154000D01*
X48133000Y32157797D01*
X48094447Y32154000D01*
X44742552Y32154000D01*
X44703999Y32157797D01*
X44665446Y32154000D01*
X44665439Y32154000D01*
X44564490Y32144057D01*
X44550112Y32142641D01*
X44515672Y32132194D01*
X44402140Y32097754D01*
X44265767Y32024862D01*
X44205559Y31975450D01*
X44176187Y31951345D01*
X44176184Y31951342D01*
X44146236Y31926764D01*
X44121658Y31896816D01*
X41838843Y29614000D01*
X35687120Y29614000D01*
X35621889Y29657586D01*
X35451729Y29728068D01*
X35271089Y29764000D01*
X35225000Y29764000D01*
X35225000Y29810089D01*
X35189068Y29990729D01*
X35118586Y30160889D01*
X35016262Y30314028D01*
X34886028Y30444262D01*
X34732889Y30546586D01*
X34562729Y30617068D01*
X34485784Y30632373D01*
X33348347Y31769810D01*
X33323764Y31799764D01*
X33204233Y31897862D01*
X33067860Y31970754D01*
X32919887Y32015641D01*
X32804561Y32027000D01*
X32804553Y32027000D01*
X32766000Y32030797D01*
X32727447Y32027000D01*
X30541320Y32027000D01*
X30476089Y32070586D01*
X30305929Y32141068D01*
X30125289Y32177000D01*
X29941111Y32177000D01*
X29760471Y32141068D01*
X29741000Y32133003D01*
X29741000Y32948843D01*
X34817816Y38025658D01*
X34847764Y38050236D01*
X34879052Y38088359D01*
X34900046Y38113941D01*
X34945862Y38169767D01*
X35018754Y38306140D01*
X35044739Y38391800D01*
X35063641Y38454112D01*
X35068344Y38501862D01*
X35075000Y38569439D01*
X35075000Y38569446D01*
X35078797Y38607999D01*
X35075000Y38646552D01*
X35075000Y40454540D01*
X35204823Y40541285D01*
X35404715Y40741177D01*
X35560000Y40973578D01*
X35715285Y40741177D01*
%TA.AperFunction,Conductor*%
D23*
G36*
X35715285Y40741177D02*
G01*
X35915177Y40541285D01*
X36045000Y40454540D01*
X36045000Y39789553D01*
X36041203Y39751000D01*
X36045000Y39712447D01*
X36045000Y39712440D01*
X36056359Y39597114D01*
X36101246Y39449141D01*
X36174138Y39312768D01*
X36272236Y39193236D01*
X36302190Y39168653D01*
X38152653Y37318190D01*
X38177236Y37288236D01*
X38296767Y37190138D01*
X38408553Y37130388D01*
X38433140Y37117246D01*
X38581113Y37072358D01*
X38656026Y37064980D01*
X38696439Y37061000D01*
X38696444Y37061000D01*
X38735000Y37057203D01*
X38773556Y37061000D01*
X46029843Y37061000D01*
X49634000Y33456842D01*
X49634001Y30875082D01*
X49623754Y30908860D01*
X49613745Y30927586D01*
X49550862Y31045233D01*
X49452764Y31164764D01*
X49422811Y31189346D01*
X48715347Y31896810D01*
X48690764Y31926764D01*
X48571233Y32024862D01*
X48434860Y32097754D01*
X48286887Y32142641D01*
X48171561Y32154000D01*
X48171553Y32154000D01*
X48133000Y32157797D01*
X48094447Y32154000D01*
X44742552Y32154000D01*
X44703999Y32157797D01*
X44665446Y32154000D01*
X44665439Y32154000D01*
X44564490Y32144057D01*
X44550112Y32142641D01*
X44515672Y32132194D01*
X44402140Y32097754D01*
X44265767Y32024862D01*
X44205559Y31975450D01*
X44176187Y31951345D01*
X44176184Y31951342D01*
X44146236Y31926764D01*
X44121658Y31896816D01*
X41838843Y29614000D01*
X35687120Y29614000D01*
X35621889Y29657586D01*
X35451729Y29728068D01*
X35271089Y29764000D01*
X35225000Y29764000D01*
X35225000Y29810089D01*
X35189068Y29990729D01*
X35118586Y30160889D01*
X35016262Y30314028D01*
X34886028Y30444262D01*
X34732889Y30546586D01*
X34562729Y30617068D01*
X34485784Y30632373D01*
X33348347Y31769810D01*
X33323764Y31799764D01*
X33204233Y31897862D01*
X33067860Y31970754D01*
X32919887Y32015641D01*
X32804561Y32027000D01*
X32804553Y32027000D01*
X32766000Y32030797D01*
X32727447Y32027000D01*
X30541320Y32027000D01*
X30476089Y32070586D01*
X30305929Y32141068D01*
X30125289Y32177000D01*
X29941111Y32177000D01*
X29760471Y32141068D01*
X29741000Y32133003D01*
X29741000Y32948843D01*
X34817816Y38025658D01*
X34847764Y38050236D01*
X34879052Y38088359D01*
X34900046Y38113941D01*
X34945862Y38169767D01*
X35018754Y38306140D01*
X35044739Y38391800D01*
X35063641Y38454112D01*
X35068344Y38501862D01*
X35075000Y38569439D01*
X35075000Y38569446D01*
X35078797Y38607999D01*
X35075000Y38646552D01*
X35075000Y40454540D01*
X35204823Y40541285D01*
X35404715Y40741177D01*
X35560000Y40973578D01*
X35715285Y40741177D01*
G37*
%TD.AperFunction*%
D22*
X44925000Y39137447D02*
X44921686Y39103800D01*
X44934912Y38969517D01*
X44974081Y38840394D01*
X45037688Y38721393D01*
X45111872Y38631000D01*
X39060157Y38631000D01*
X37615000Y40076157D01*
X37615000Y40454540D01*
X37744823Y40541285D01*
X37944715Y40741177D01*
X38101769Y40976225D01*
X38209950Y41237397D01*
X38265100Y41514655D01*
X38265100Y41797345D01*
X38209950Y42074603D01*
X38101769Y42335775D01*
X37944715Y42570823D01*
X37744823Y42770715D01*
X37511068Y42926905D01*
X37571574Y42959246D01*
X37586255Y43009279D01*
X39648000Y43009279D01*
X39648000Y42588721D01*
X39730047Y42176244D01*
X39890988Y41787698D01*
X40124637Y41438017D01*
X40422017Y41140637D01*
X40771698Y40906988D01*
X41160244Y40746047D01*
X41572721Y40664000D01*
X41993279Y40664000D01*
X42405756Y40746047D01*
X42794302Y40906988D01*
X43143983Y41140637D01*
X43441363Y41438017D01*
X43675012Y41787698D01*
X43835953Y42176244D01*
X43918000Y42588721D01*
X43918000Y43009279D01*
X43835953Y43421756D01*
X43675012Y43810302D01*
X43441363Y44159983D01*
X43143983Y44457363D01*
X42794302Y44691012D01*
X42405756Y44851953D01*
X41993279Y44934000D01*
X41572721Y44934000D01*
X41160244Y44851953D01*
X40771698Y44691012D01*
X40422017Y44457363D01*
X40124637Y44159983D01*
X39890988Y43810302D01*
X39730047Y43421756D01*
X39648000Y43009279D01*
X37586255Y43009279D01*
X37643169Y43203226D01*
X36830000Y44016395D01*
X36016831Y43203226D01*
X36088426Y42959246D01*
X36152744Y42928812D01*
X36150225Y42927769D01*
X35915177Y42770715D01*
X35715285Y42570823D01*
X35560000Y42338422D01*
X35404715Y42570823D01*
X35204823Y42770715D01*
X34972422Y42926000D01*
X35204823Y43081285D01*
X35404715Y43281177D01*
X35560905Y43514932D01*
X35593246Y43454426D01*
X35837226Y43382831D01*
X36650395Y44196000D01*
X37009605Y44196000D01*
X37822774Y43382831D01*
X38066754Y43454426D01*
X38187664Y43709954D01*
X38256400Y43984161D01*
X38270320Y44266508D01*
X38228889Y44546147D01*
X38133700Y44812328D01*
X38066754Y44937574D01*
X37822774Y45009169D01*
X37009605Y44196000D01*
X36650395Y44196000D01*
X35837226Y45009169D01*
X35593246Y44937574D01*
X35562812Y44873256D01*
X35561769Y44875775D01*
X35404715Y45110823D01*
X35326764Y45188774D01*
X36016831Y45188774D01*
X36830000Y44375605D01*
X37643169Y45188774D01*
X37571574Y45432754D01*
X37316046Y45553664D01*
X37041839Y45622400D01*
X36759492Y45636320D01*
X36479853Y45594889D01*
X36213672Y45499700D01*
X36088426Y45432754D01*
X36016831Y45188774D01*
X35326764Y45188774D01*
X35204823Y45310715D01*
X34969775Y45467769D01*
X34708603Y45575950D01*
X34431345Y45631100D01*
X34148655Y45631100D01*
X33871397Y45575950D01*
X33610225Y45467769D01*
X33375177Y45310715D01*
X33175285Y45110823D01*
X33020000Y44878422D01*
X32864715Y45110823D01*
X32664823Y45310715D01*
X32429775Y45467769D01*
X32168603Y45575950D01*
X31891345Y45631100D01*
X31608655Y45631100D01*
X31331397Y45575950D01*
X31070225Y45467769D01*
X30835177Y45310715D01*
X30635285Y45110823D01*
X30478231Y44875775D01*
X30370050Y44614603D01*
X30314900Y44337345D01*
X30314900Y44054655D01*
X30321898Y44019476D01*
X30099476Y43797055D01*
X30099000Y43910250D01*
X29940250Y44069000D01*
X28575000Y44069000D01*
X28575000Y44049000D01*
X28321000Y44049000D01*
X28321000Y44069000D01*
X28301000Y44069000D01*
X28301000Y44323000D01*
X28321000Y44323000D01*
X28321000Y45688250D01*
X28575000Y45688250D01*
X28575000Y44323000D01*
X29940250Y44323000D01*
X30099000Y44481750D01*
X30102072Y45212000D01*
X30089812Y45336482D01*
X30053502Y45456180D01*
X29994537Y45566494D01*
X29915185Y45663185D01*
X29818494Y45742537D01*
X29708180Y45801502D01*
X29588482Y45837812D01*
X29464000Y45850072D01*
X28733750Y45847000D01*
X28575000Y45688250D01*
X28321000Y45688250D01*
X28162250Y45847000D01*
X27432000Y45850072D01*
X27307518Y45837812D01*
X27187820Y45801502D01*
X27077506Y45742537D01*
X26980815Y45663185D01*
X26901463Y45566494D01*
X26882296Y45530636D01*
X26690042Y45659097D01*
X26389579Y45783553D01*
X26070609Y45847000D01*
X25745391Y45847000D01*
X25426421Y45783553D01*
X25125958Y45659097D01*
X24855549Y45478415D01*
X24638000Y45260866D01*
X24420451Y45478415D01*
X24150042Y45659097D01*
X23849579Y45783553D01*
X23530609Y45847000D01*
X23205391Y45847000D01*
X22886421Y45783553D01*
X22585958Y45659097D01*
X22315549Y45478415D01*
X22098000Y45260866D01*
X21880451Y45478415D01*
X21610042Y45659097D01*
X21309579Y45783553D01*
X20990609Y45847000D01*
X20665391Y45847000D01*
X20346421Y45783553D01*
X20045958Y45659097D01*
X19775549Y45478415D01*
X19545585Y45248451D01*
X19464000Y45126351D01*
X19464000Y46120300D01*
X44925001Y46120300D01*
X44925000Y39137447D01*
%TA.AperFunction,Conductor*%
D23*
G36*
X44925000Y39137447D02*
G01*
X44921686Y39103800D01*
X44934912Y38969517D01*
X44974081Y38840394D01*
X45037688Y38721393D01*
X45111872Y38631000D01*
X39060157Y38631000D01*
X37615000Y40076157D01*
X37615000Y40454540D01*
X37744823Y40541285D01*
X37944715Y40741177D01*
X38101769Y40976225D01*
X38209950Y41237397D01*
X38265100Y41514655D01*
X38265100Y41797345D01*
X38209950Y42074603D01*
X38101769Y42335775D01*
X37944715Y42570823D01*
X37744823Y42770715D01*
X37511068Y42926905D01*
X37571574Y42959246D01*
X37586255Y43009279D01*
X39648000Y43009279D01*
X39648000Y42588721D01*
X39730047Y42176244D01*
X39890988Y41787698D01*
X40124637Y41438017D01*
X40422017Y41140637D01*
X40771698Y40906988D01*
X41160244Y40746047D01*
X41572721Y40664000D01*
X41993279Y40664000D01*
X42405756Y40746047D01*
X42794302Y40906988D01*
X43143983Y41140637D01*
X43441363Y41438017D01*
X43675012Y41787698D01*
X43835953Y42176244D01*
X43918000Y42588721D01*
X43918000Y43009279D01*
X43835953Y43421756D01*
X43675012Y43810302D01*
X43441363Y44159983D01*
X43143983Y44457363D01*
X42794302Y44691012D01*
X42405756Y44851953D01*
X41993279Y44934000D01*
X41572721Y44934000D01*
X41160244Y44851953D01*
X40771698Y44691012D01*
X40422017Y44457363D01*
X40124637Y44159983D01*
X39890988Y43810302D01*
X39730047Y43421756D01*
X39648000Y43009279D01*
X37586255Y43009279D01*
X37643169Y43203226D01*
X36830000Y44016395D01*
X36016831Y43203226D01*
X36088426Y42959246D01*
X36152744Y42928812D01*
X36150225Y42927769D01*
X35915177Y42770715D01*
X35715285Y42570823D01*
X35560000Y42338422D01*
X35404715Y42570823D01*
X35204823Y42770715D01*
X34972422Y42926000D01*
X35204823Y43081285D01*
X35404715Y43281177D01*
X35560905Y43514932D01*
X35593246Y43454426D01*
X35837226Y43382831D01*
X36650395Y44196000D01*
X37009605Y44196000D01*
X37822774Y43382831D01*
X38066754Y43454426D01*
X38187664Y43709954D01*
X38256400Y43984161D01*
X38270320Y44266508D01*
X38228889Y44546147D01*
X38133700Y44812328D01*
X38066754Y44937574D01*
X37822774Y45009169D01*
X37009605Y44196000D01*
X36650395Y44196000D01*
X35837226Y45009169D01*
X35593246Y44937574D01*
X35562812Y44873256D01*
X35561769Y44875775D01*
X35404715Y45110823D01*
X35326764Y45188774D01*
X36016831Y45188774D01*
X36830000Y44375605D01*
X37643169Y45188774D01*
X37571574Y45432754D01*
X37316046Y45553664D01*
X37041839Y45622400D01*
X36759492Y45636320D01*
X36479853Y45594889D01*
X36213672Y45499700D01*
X36088426Y45432754D01*
X36016831Y45188774D01*
X35326764Y45188774D01*
X35204823Y45310715D01*
X34969775Y45467769D01*
X34708603Y45575950D01*
X34431345Y45631100D01*
X34148655Y45631100D01*
X33871397Y45575950D01*
X33610225Y45467769D01*
X33375177Y45310715D01*
X33175285Y45110823D01*
X33020000Y44878422D01*
X32864715Y45110823D01*
X32664823Y45310715D01*
X32429775Y45467769D01*
X32168603Y45575950D01*
X31891345Y45631100D01*
X31608655Y45631100D01*
X31331397Y45575950D01*
X31070225Y45467769D01*
X30835177Y45310715D01*
X30635285Y45110823D01*
X30478231Y44875775D01*
X30370050Y44614603D01*
X30314900Y44337345D01*
X30314900Y44054655D01*
X30321898Y44019476D01*
X30099476Y43797055D01*
X30099000Y43910250D01*
X29940250Y44069000D01*
X28575000Y44069000D01*
X28575000Y44049000D01*
X28321000Y44049000D01*
X28321000Y44069000D01*
X28301000Y44069000D01*
X28301000Y44323000D01*
X28321000Y44323000D01*
X28321000Y45688250D01*
X28575000Y45688250D01*
X28575000Y44323000D01*
X29940250Y44323000D01*
X30099000Y44481750D01*
X30102072Y45212000D01*
X30089812Y45336482D01*
X30053502Y45456180D01*
X29994537Y45566494D01*
X29915185Y45663185D01*
X29818494Y45742537D01*
X29708180Y45801502D01*
X29588482Y45837812D01*
X29464000Y45850072D01*
X28733750Y45847000D01*
X28575000Y45688250D01*
X28321000Y45688250D01*
X28162250Y45847000D01*
X27432000Y45850072D01*
X27307518Y45837812D01*
X27187820Y45801502D01*
X27077506Y45742537D01*
X26980815Y45663185D01*
X26901463Y45566494D01*
X26882296Y45530636D01*
X26690042Y45659097D01*
X26389579Y45783553D01*
X26070609Y45847000D01*
X25745391Y45847000D01*
X25426421Y45783553D01*
X25125958Y45659097D01*
X24855549Y45478415D01*
X24638000Y45260866D01*
X24420451Y45478415D01*
X24150042Y45659097D01*
X23849579Y45783553D01*
X23530609Y45847000D01*
X23205391Y45847000D01*
X22886421Y45783553D01*
X22585958Y45659097D01*
X22315549Y45478415D01*
X22098000Y45260866D01*
X21880451Y45478415D01*
X21610042Y45659097D01*
X21309579Y45783553D01*
X20990609Y45847000D01*
X20665391Y45847000D01*
X20346421Y45783553D01*
X20045958Y45659097D01*
X19775549Y45478415D01*
X19545585Y45248451D01*
X19464000Y45126351D01*
X19464000Y46120300D01*
X44925001Y46120300D01*
X44925000Y39137447D01*
G37*
%TD.AperFunction*%
%TD*%
M02*
